<?xml version="1.0" encoding="UTF-8" standalone="no"?>
<svg
   id="svg11300"
   height="48"
   width="48"
   version="1.1"
   viewBox="0 0 48 48"
   sodipodi:docname="HoneycombFence.svg"
   inkscape:version="1.1 (c68e22c387, 2021-05-23)"
   xmlns:inkscape="http://www.inkscape.org/namespaces/inkscape"
   xmlns:sodipodi="http://sodipodi.sourceforge.net/DTD/sodipodi-0.dtd"
   xmlns:xlink="http://www.w3.org/1999/xlink"
   xmlns="http://www.w3.org/2000/svg"
   xmlns:svg="http://www.w3.org/2000/svg"
   xmlns:rdf="http://www.w3.org/1999/02/22-rdf-syntax-ns#"
   xmlns:cc="http://creativecommons.org/ns#"
   xmlns:dc="http://purl.org/dc/elements/1.1/">
  <sodipodi:namedview
     id="namedview4256"
     pagecolor="#ffffff"
     bordercolor="#666666"
     borderopacity="1.0"
     inkscape:pageshadow="2"
     inkscape:pageopacity="0.0"
     inkscape:pagecheckerboard="0"
     showgrid="false"
     inkscape:zoom="5.9809448"
     inkscape:cx="-25.664841"
     inkscape:cy="45.226968"
     inkscape:window-width="1920"
     inkscape:window-height="1001"
     inkscape:window-x="-9"
     inkscape:window-y="-9"
     inkscape:window-maximized="1"
     inkscape:current-layer="svg11300"
     inkscape:snap-global="false" />
  <defs
     id="defs3">
    <linearGradient
       inkscape:collect="always"
       id="linearGradient3631">
      <stop
         style="stop-color:#fd7753;stop-opacity:1;"
         offset="0"
         id="stop3627" />
      <stop
         style="stop-color:#fd7753;stop-opacity:0;"
         offset="1"
         id="stop3629" />
    </linearGradient>
    <linearGradient
       id="linearGradient3601"
       inkscape:swatch="solid">
      <stop
         style="stop-color:#fd7753;stop-opacity:1;"
         offset="0"
         id="stop3599" />
    </linearGradient>
    <linearGradient
       id="linearGradient13762"
       inkscape:swatch="solid">
      <stop
         style="stop-color:#fffb6d;stop-opacity:1;"
         offset="0"
         id="stop13760" />
    </linearGradient>
    <linearGradient
       id="linearGradient11960"
       inkscape:swatch="solid">
      <stop
         style="stop-color:#b2b2b2;stop-opacity:1;"
         offset="0"
         id="stop11958" />
    </linearGradient>
    <linearGradient
       id="linearGradient10826"
       inkscape:swatch="solid">
      <stop
         style="stop-color:#93d055;stop-opacity:1;"
         offset="0"
         id="stop10824" />
    </linearGradient>
    <linearGradient
       id="linearGradient10800"
       inkscape:swatch="solid">
      <stop
         style="stop-color:#37e6f2;stop-opacity:1;"
         offset="0"
         id="stop10798" />
    </linearGradient>
    <linearGradient
       id="linearGradient22617">
      <stop
         style="stop-color:#1d1d1d;stop-opacity:1;"
         offset="0"
         id="stop22615" />
    </linearGradient>
    <linearGradient
       id="linearGradient3253">
      <stop
         style="stop-color:#89d5f8;stop-opacity:1;"
         offset="0"
         id="stop3255" />
      <stop
         style="stop-color:#00899e;stop-opacity:1;"
         offset="1"
         id="stop3257" />
    </linearGradient>
    <linearGradient
       id="linearGradient11979">
      <stop
         style="stop-color:#ffffff;stop-opacity:1;"
         offset="0"
         id="stop11981" />
      <stop
         style="stop-color:#729fcf;stop-opacity:1"
         offset="1"
         id="stop11983" />
    </linearGradient>
    <linearGradient
       id="linearGradient2846">
      <stop
         id="stop2848"
         offset="0.0000000"
         style="stop-color:#8a8a8a;stop-opacity:1.0000000;" />
      <stop
         id="stop2850"
         offset="1.0000000"
         style="stop-color:#484848;stop-opacity:1.0000000;" />
    </linearGradient>
    <linearGradient
       id="linearGradient2366">
      <stop
         id="stop2368"
         offset="0"
         style="stop-color:#ffffff;stop-opacity:1;" />
      <stop
         style="stop-color:#ffffff;stop-opacity:0.21904762;"
         offset="0.50000000"
         id="stop2374" />
      <stop
         id="stop2370"
         offset="1.0000000"
         style="stop-color:#ffffff;stop-opacity:1.0000000;" />
    </linearGradient>
    <linearGradient
       id="linearGradient4467">
      <stop
         style="stop-color:#ffffff;stop-opacity:1;"
         offset="0"
         id="stop4469" />
      <stop
         style="stop-color:#ffffff;stop-opacity:0.24761905;"
         offset="1.0000000"
         id="stop4471" />
    </linearGradient>
    <linearGradient
       id="linearGradient4454">
      <stop
         style="stop-color:#729fcf;stop-opacity:0.20784314;"
         offset="0.0000000"
         id="stop4456" />
      <stop
         style="stop-color:#729fcf;stop-opacity:0.67619050;"
         offset="1.0000000"
         id="stop4458" />
    </linearGradient>
    <linearGradient
       id="linearGradient4440">
      <stop
         style="stop-color:#7d7d7d;stop-opacity:1;"
         offset="0"
         id="stop4442" />
      <stop
         id="stop4448"
         offset="0.50000000"
         style="stop-color:#b1b1b1;stop-opacity:1.0000000;" />
      <stop
         style="stop-color:#686868;stop-opacity:1.0000000;"
         offset="1.0000000"
         id="stop4444" />
    </linearGradient>
    <radialGradient
       gradientUnits="userSpaceOnUse"
       gradientTransform="matrix(0.914812,0.01265023,-0.00821502,0.213562,2.253914,27.18889)"
       r="10.31934"
       fy="35.127438"
       fx="23.070683"
       cy="35.127438"
       cx="23.070683"
       id="radialGradient2097"
       xlink:href="#linearGradient2091" />
    <linearGradient
       gradientUnits="userSpaceOnUse"
       y2="34.976799"
       x2="27.900846"
       y1="22.851799"
       x1="16.874998"
       id="linearGradient7922"
       xlink:href="#linearGradient7916" />
    <linearGradient
       y2="50.939667"
       x2="45.380436"
       y1="45.264122"
       x1="46.834816"
       gradientUnits="userSpaceOnUse"
       id="linearGradient7186"
       xlink:href="#linearGradient2871" />
    <linearGradient
       y2="26.649363"
       x2="53.588623"
       y1="23.667896"
       x1="18.935766"
       gradientUnits="userSpaceOnUse"
       id="linearGradient7184"
       xlink:href="#linearGradient2402" />
    <linearGradient
       y2="50.939667"
       x2="45.380436"
       y1="45.264122"
       x1="46.834816"
       gradientUnits="userSpaceOnUse"
       id="linearGradient7182"
       xlink:href="#linearGradient2871" />
    <linearGradient
       y2="20.60858"
       x2="15.984863"
       y1="36.061237"
       x1="62.513836"
       gradientUnits="userSpaceOnUse"
       id="linearGradient7180"
       xlink:href="#linearGradient2380" />
    <linearGradient
       gradientTransform="rotate(180,23.96967,25.01237)"
       y2="23.554308"
       x2="22.374878"
       y1="13.604306"
       x1="13.435029"
       gradientUnits="userSpaceOnUse"
       id="linearGradient7189"
       xlink:href="#linearGradient7179" />
    <linearGradient
       gradientUnits="userSpaceOnUse"
       y2="23.554308"
       x2="22.374878"
       y1="13.604306"
       x1="13.435029"
       id="linearGradient7185"
       xlink:href="#linearGradient7179" />
    <linearGradient
       gradientTransform="translate(-18.01785,-13.57119)"
       gradientUnits="userSpaceOnUse"
       y2="48.547989"
       x2="45.918697"
       y1="36.422989"
       x1="34.892849"
       id="linearGradient4975"
       xlink:href="#linearGradient1322" />
    <linearGradient
       id="linearGradient1322">
      <stop
         style="stop-color:#729fcf"
         offset="0.0000000"
         id="stop1324" />
      <stop
         style="stop-color:#5187d6;stop-opacity:1.0000000;"
         offset="1.0000000"
         id="stop1326" />
    </linearGradient>
    <linearGradient
       id="linearGradient2316">
      <stop
         id="stop2318"
         offset="0"
         style="stop-color:#000000;stop-opacity:1;" />
      <stop
         id="stop2320"
         offset="1"
         style="stop-color:#ffffff;stop-opacity:0.65979379;" />
    </linearGradient>
    <linearGradient
       id="linearGradient7179">
      <stop
         id="stop7181"
         offset="0"
         style="stop-color:#ffffff;stop-opacity:1;" />
      <stop
         id="stop7183"
         offset="1"
         style="stop-color:#ffffff;stop-opacity:0;" />
    </linearGradient>
    <linearGradient
       y2="26.048164"
       x2="52.854095"
       y1="26.048164"
       x1="5.9649177"
       gradientUnits="userSpaceOnUse"
       id="linearGradient1491"
       xlink:href="#linearGradient2797" />
    <linearGradient
       id="linearGradient2797">
      <stop
         id="stop2799"
         offset="0"
         style="stop-color:#ffffff;stop-opacity:1;" />
      <stop
         id="stop2801"
         offset="1"
         style="stop-color:#ffffff;stop-opacity:0;" />
    </linearGradient>
    <linearGradient
       y2="26.048164"
       x2="52.854095"
       y1="26.048164"
       x1="5.9649177"
       gradientUnits="userSpaceOnUse"
       id="linearGradient1493"
       xlink:href="#linearGradient2797" />
    <linearGradient
       id="linearGradient2402">
      <stop
         id="stop2404"
         offset="0"
         style="stop-color:#729fcf;stop-opacity:1;" />
      <stop
         id="stop2406"
         offset="1"
         style="stop-color:#528ac5;stop-opacity:1;" />
    </linearGradient>
    <linearGradient
       id="linearGradient2871">
      <stop
         id="stop2873"
         offset="0"
         style="stop-color:#3465a4;stop-opacity:1;" />
      <stop
         id="stop2875"
         offset="1"
         style="stop-color:#3465a4;stop-opacity:1" />
    </linearGradient>
    <linearGradient
       gradientTransform="translate(-48.77039,-5.765705)"
       gradientUnits="userSpaceOnUse"
       y2="24.842253"
       x2="37.124462"
       y1="30.748846"
       x1="32.647972"
       id="linearGradient2696"
       xlink:href="#linearGradient2690" />
    <linearGradient
       id="linearGradient2690">
      <stop
         id="stop2692"
         offset="0"
         style="stop-color:#c4d7eb;stop-opacity:1;" />
      <stop
         id="stop2694"
         offset="1"
         style="stop-color:#c4d7eb;stop-opacity:0;" />
    </linearGradient>
    <linearGradient
       gradientTransform="translate(-48.77039,-5.765705)"
       gradientUnits="userSpaceOnUse"
       y2="24.842253"
       x2="37.124462"
       y1="31.455952"
       x1="36.713837"
       id="linearGradient2688"
       xlink:href="#linearGradient2682" />
    <linearGradient
       id="linearGradient2682">
      <stop
         id="stop2684"
         offset="0"
         style="stop-color:#3977c3;stop-opacity:1;" />
      <stop
         id="stop2686"
         offset="1"
         style="stop-color:#89aedc;stop-opacity:0;" />
    </linearGradient>
    <linearGradient
       id="linearGradient2380">
      <stop
         id="stop2382"
         offset="0"
         style="stop-color:#b9cfe7;stop-opacity:1" />
      <stop
         id="stop2384"
         offset="1"
         style="stop-color:#729fcf;stop-opacity:1" />
    </linearGradient>
    <linearGradient
       y2="19.115122"
       x2="15.419417"
       y1="10.612206"
       x1="13.478554"
       gradientTransform="translate(-48.30498,-6.043298)"
       gradientUnits="userSpaceOnUse"
       id="linearGradient1486"
       xlink:href="#linearGradient2831" />
    <linearGradient
       id="linearGradient2831">
      <stop
         id="stop2833"
         offset="0"
         style="stop-color:#3465a4;stop-opacity:1;" />
      <stop
         style="stop-color:#5b86be;stop-opacity:1;"
         offset="0.33333334"
         id="stop2855" />
      <stop
         id="stop2835"
         offset="1"
         style="stop-color:#83a8d8;stop-opacity:0;" />
    </linearGradient>
    <linearGradient
       y2="26.194071"
       x2="37.065414"
       y1="29.729605"
       x1="37.128052"
       gradientTransform="rotate(180,-0.62124,20.04085)"
       gradientUnits="userSpaceOnUse"
       id="linearGradient1488"
       xlink:href="#linearGradient2847" />
    <linearGradient
       id="linearGradient2847">
      <stop
         id="stop2849"
         offset="0"
         style="stop-color:#3465a4;stop-opacity:1;" />
      <stop
         id="stop2851"
         offset="1"
         style="stop-color:#3465a4;stop-opacity:0;" />
    </linearGradient>
    <radialGradient
       r="15.644737"
       fy="36.421127"
       fx="24.837126"
       cy="36.421127"
       cx="24.837126"
       gradientTransform="matrix(1,0,0,0.536723,0,16.87306)"
       gradientUnits="userSpaceOnUse"
       id="radialGradient1503"
       xlink:href="#linearGradient8662" />
    <linearGradient
       id="linearGradient8662">
      <stop
         id="stop8664"
         offset="0"
         style="stop-color:#000000;stop-opacity:1;" />
      <stop
         id="stop8666"
         offset="1"
         style="stop-color:#000000;stop-opacity:0;" />
    </linearGradient>
    <linearGradient
       id="linearGradient7916">
      <stop
         id="stop7918"
         offset="0"
         style="stop-color:#ffffff;stop-opacity:1;" />
      <stop
         id="stop7920"
         offset="1.0000000"
         style="stop-color:#ffffff;stop-opacity:0.34020618;" />
    </linearGradient>
    <linearGradient
       id="linearGradient2091">
      <stop
         id="stop2093"
         offset="0"
         style="stop-color:#000000;stop-opacity:1;" />
      <stop
         id="stop2095"
         offset="1"
         style="stop-color:#000000;stop-opacity:0;" />
    </linearGradient>
    <linearGradient
       id="linearGradient3864">
      <stop
         style="stop-color:#71b2f8;stop-opacity:1;"
         offset="0"
         id="stop3866" />
      <stop
         style="stop-color:#002795;stop-opacity:1;"
         offset="1"
         id="stop3868" />
    </linearGradient>
    <radialGradient
       gradientTransform="matrix(1.6258409,0.5434973,-8.8819886e-2,0.2656996,-215.02413,-170.90186)"
       r="19.571428"
       fy="27.256668"
       fx="342.58258"
       cy="27.256668"
       cx="342.58258"
       gradientUnits="userSpaceOnUse"
       id="radialGradient2571"
       xlink:href="#linearGradient3864" />
    <radialGradient
       gradientTransform="translate(-0.1767767,-2.6516504)"
       r="19.571428"
       fy="15.560534"
       fx="345.28433"
       cy="15.560534"
       cx="345.28433"
       gradientUnits="userSpaceOnUse"
       id="radialGradient3352"
       xlink:href="#linearGradient3593" />
    <linearGradient
       id="linearGradient3593">
      <stop
         id="stop3595"
         offset="0"
         style="stop-color:#c8e0f9;stop-opacity:1;" />
      <stop
         id="stop3597"
         offset="1"
         style="stop-color:#637dca;stop-opacity:1;" />
    </linearGradient>
    <radialGradient
       gradientTransform="translate(-0.1767767,-2.6516504)"
       r="19.571428"
       fy="39.962704"
       fx="330.63791"
       cy="39.962704"
       cx="330.63791"
       gradientUnits="userSpaceOnUse"
       id="radialGradient3354"
       xlink:href="#linearGradient3593" />
    <radialGradient
       r="19.571428"
       fy="27.256668"
       fx="342.58258"
       cy="27.256668"
       cx="342.58258"
       gradientTransform="matrix(1.6258409,0.5434973,-8.8819886e-2,0.2656996,-461.81066,-173.06271)"
       gradientUnits="userSpaceOnUse"
       id="radialGradient3369"
       xlink:href="#linearGradient3864" />
    <radialGradient
       r="19.571428"
       fy="15.560534"
       fx="345.28433"
       cy="15.560534"
       cx="345.28433"
       gradientTransform="matrix(1.0012324,0,0,0.9421773,-327.50313,-4.3316646)"
       gradientUnits="userSpaceOnUse"
       id="radialGradient3372"
       xlink:href="#linearGradient3593" />
    <radialGradient
       r="19.571428"
       fy="39.962704"
       fx="330.63791"
       cy="39.962704"
       cx="330.63791"
       gradientTransform="matrix(1.0012324,0,0,0.9421773,-287.81791,-28.143054)"
       gradientUnits="userSpaceOnUse"
       id="radialGradient3375"
       xlink:href="#linearGradient3593" />
    <radialGradient
       r="19.571428"
       fy="113.23357"
       fx="320.44025"
       cy="113.23357"
       cx="320.44025"
       gradientTransform="matrix(0.9829174,1.3240854,-1.2330051,0.8105158,-131.04134,-483.74563)"
       gradientUnits="userSpaceOnUse"
       id="radialGradient3380"
       xlink:href="#linearGradient3864" />
    <linearGradient
       gradientTransform="matrix(1.0012324,0,0,0.9421773,-4.8699606,-2.3863162)"
       gradientUnits="userSpaceOnUse"
       y2="36.838673"
       x2="48.691113"
       y1="36.838673"
       x1="6.94525"
       id="linearGradient3914"
       xlink:href="#linearGradient3864" />
    <linearGradient
       y2="36.838673"
       x2="48.691113"
       y1="34.146042"
       x1="6.8300767"
       gradientTransform="matrix(1.0012324,0,0,0.9421773,-4.8699606,-2.3863162)"
       gradientUnits="userSpaceOnUse"
       id="linearGradient3792"
       xlink:href="#linearGradient3864" />
    <radialGradient
       r="19.571428"
       fy="39.962704"
       fx="330.63791"
       cy="39.962704"
       cx="330.63791"
       gradientTransform="matrix(1.0012324,0,0,0.9421773,-287.81791,-28.143054)"
       gradientUnits="userSpaceOnUse"
       id="radialGradient3812"
       xlink:href="#linearGradient3864" />
    <radialGradient
       r="19.571428"
       fy="15.560534"
       fx="345.28433"
       cy="15.560534"
       cx="345.28433"
       gradientTransform="matrix(1.0012324,0,0,0.9421773,-327.50313,-4.3316646)"
       gradientUnits="userSpaceOnUse"
       id="radialGradient3814"
       xlink:href="#linearGradient3593" />
    <radialGradient
       r="19.571428"
       fy="113.23357"
       fx="320.44025"
       cy="113.23357"
       cx="320.44025"
       gradientTransform="matrix(0.9829174,1.3240854,-1.2330051,0.8105158,-131.04134,-483.74563)"
       gradientUnits="userSpaceOnUse"
       id="radialGradient3816"
       xlink:href="#linearGradient3864" />
    <radialGradient
       r="34.345188"
       fy="672.79736"
       fx="225.26402"
       cy="672.79736"
       cx="225.26402"
       gradientTransform="matrix(1,0,0,0.6985294,0,202.82863)"
       gradientUnits="userSpaceOnUse"
       id="radialGradient3850"
       xlink:href="#linearGradient4467" />
    <radialGradient
       r="34.345188"
       fy="672.79736"
       fx="225.26402"
       cy="672.79736"
       cx="225.26402"
       gradientTransform="matrix(1,0,0,0.6985294,0,202.82863)"
       gradientUnits="userSpaceOnUse"
       id="radialGradient3850-4"
       xlink:href="#linearGradient4467" />
    <radialGradient
       xlink:href="#linearGradient8662"
       id="radialGradient2097-2"
       cx="23.070683"
       cy="35.127438"
       fx="23.070683"
       fy="35.127438"
       r="10.31934"
       gradientTransform="matrix(0.914812,0.01265023,-0.00821502,0.213562,2.253914,27.18889)"
       gradientUnits="userSpaceOnUse" />
    <linearGradient
       xlink:href="#linearGradient4467"
       id="linearGradient8388"
       gradientUnits="userSpaceOnUse"
       x1="5.9649177"
       y1="26.048164"
       x2="52.854095"
       y2="26.048164" />
    <radialGradient
       xlink:href="#linearGradient8662"
       id="radialGradient1503-3"
       gradientUnits="userSpaceOnUse"
       gradientTransform="matrix(1,0,0,0.536723,0,16.87306)"
       cx="24.837126"
       cy="36.421127"
       fx="24.837126"
       fy="36.421127"
       r="15.644737" />
    <radialGradient
       xlink:href="#linearGradient3864"
       id="radialGradient2571-4"
       gradientUnits="userSpaceOnUse"
       cx="342.58258"
       cy="27.256668"
       fx="342.58258"
       fy="27.256668"
       r="19.571428"
       gradientTransform="matrix(1.6258409,0.5434973,-8.8819886e-2,0.2656996,-215.02413,-170.90186)" />
    <radialGradient
       xlink:href="#linearGradient3593"
       id="radialGradient3352-1"
       gradientUnits="userSpaceOnUse"
       cx="345.28433"
       cy="15.560534"
       fx="345.28433"
       fy="15.560534"
       r="19.571428"
       gradientTransform="translate(-0.1767767,-2.6516504)" />
    <radialGradient
       xlink:href="#linearGradient3593"
       id="radialGradient3354-1"
       gradientUnits="userSpaceOnUse"
       cx="330.63791"
       cy="39.962704"
       fx="330.63791"
       fy="39.962704"
       r="19.571428"
       gradientTransform="translate(-0.1767767,-2.6516504)" />
    <radialGradient
       xlink:href="#linearGradient3864"
       id="radialGradient3369-3"
       gradientUnits="userSpaceOnUse"
       gradientTransform="matrix(1.6258409,0.5434973,-8.8819886e-2,0.2656996,-461.81066,-173.06271)"
       cx="342.58258"
       cy="27.256668"
       fx="342.58258"
       fy="27.256668"
       r="19.571428" />
    <radialGradient
       xlink:href="#linearGradient3593"
       id="radialGradient3372-9"
       gradientUnits="userSpaceOnUse"
       gradientTransform="matrix(1.0012324,0,0,0.9421773,-327.50313,-4.3316646)"
       cx="345.28433"
       cy="15.560534"
       fx="345.28433"
       fy="15.560534"
       r="19.571428" />
    <radialGradient
       xlink:href="#linearGradient3593"
       id="radialGradient3375-2"
       gradientUnits="userSpaceOnUse"
       gradientTransform="matrix(1.0012324,0,0,0.9421773,-287.81791,-28.143054)"
       cx="330.63791"
       cy="39.962704"
       fx="330.63791"
       fy="39.962704"
       r="19.571428" />
    <radialGradient
       xlink:href="#linearGradient3864"
       id="radialGradient3380-0"
       gradientUnits="userSpaceOnUse"
       gradientTransform="matrix(0.9829174,1.3240854,-1.2330051,0.8105158,-131.04134,-483.74563)"
       cx="320.44025"
       cy="113.23357"
       fx="320.44025"
       fy="113.23357"
       r="19.571428" />
    <linearGradient
       xlink:href="#linearGradient3864"
       id="linearGradient8400"
       x1="6.94525"
       y1="36.838673"
       x2="48.691113"
       y2="36.838673"
       gradientUnits="userSpaceOnUse"
       gradientTransform="matrix(1.0012324,0,0,0.9421773,-4.8699606,-2.3863162)" />
    <linearGradient
       xlink:href="#linearGradient3864"
       id="linearGradient8402"
       gradientUnits="userSpaceOnUse"
       gradientTransform="matrix(1.0012324,0,0,0.9421773,-4.8699606,-2.3863162)"
       x1="6.8300767"
       y1="34.146042"
       x2="48.691113"
       y2="36.838673" />
    <radialGradient
       xlink:href="#linearGradient3864"
       id="radialGradient3812-9"
       gradientUnits="userSpaceOnUse"
       gradientTransform="matrix(1.0012324,0,0,0.9421773,-287.81791,-28.143054)"
       cx="330.63791"
       cy="39.962704"
       fx="330.63791"
       fy="39.962704"
       r="19.571428" />
    <radialGradient
       xlink:href="#linearGradient3593"
       id="radialGradient3814-9"
       gradientUnits="userSpaceOnUse"
       gradientTransform="matrix(1.0012324,0,0,0.9421773,-327.50313,-4.3316646)"
       cx="345.28433"
       cy="15.560534"
       fx="345.28433"
       fy="15.560534"
       r="19.571428" />
    <radialGradient
       xlink:href="#linearGradient3864"
       id="radialGradient3816-2"
       gradientUnits="userSpaceOnUse"
       gradientTransform="matrix(0.9829174,1.3240854,-1.2330051,0.8105158,-131.04134,-483.74563)"
       cx="320.44025"
       cy="113.23357"
       fx="320.44025"
       fy="113.23357"
       r="19.571428" />
    <radialGradient
       xlink:href="#linearGradient4467"
       id="radialGradient3850-8"
       gradientUnits="userSpaceOnUse"
       gradientTransform="matrix(1,0,0,0.6985294,0,202.82863)"
       cx="225.26402"
       cy="672.79736"
       fx="225.26402"
       fy="672.79736"
       r="34.345188" />
    <radialGradient
       xlink:href="#linearGradient4467"
       id="radialGradient3850-4-2"
       gradientUnits="userSpaceOnUse"
       gradientTransform="matrix(1,0,0,0.6985294,0,202.82863)"
       cx="225.26402"
       cy="672.79736"
       fx="225.26402"
       fy="672.79736"
       r="34.345188" />
    <filter
       style="color-interpolation-filters:sRGB"
       id="filter16183"
       x="-0.011263133"
       y="-0.011268276"
       width="1.0225263"
       height="1.0225366">
      <feGaussianBlur
         stdDeviation="0.20944183"
         id="feGaussianBlur16185" />
    </filter>
    <pattern
       id="EMFhbasepattern"
       patternUnits="userSpaceOnUse"
       width="6"
       height="6"
       x="0"
       y="0" />
    <radialGradient
       inkscape:collect="always"
       xlink:href="#linearGradient3631"
       id="radialGradient3635"
       cx="24.160065"
       cy="23.992865"
       fx="24.160065"
       fy="23.992865"
       r="24.086367"
       gradientTransform="matrix(1,0,0,1.0138831,0,-0.33309637)"
       gradientUnits="userSpaceOnUse" />
  </defs>
  <metadata
     id="metadata4">
    <rdf:RDF>
      <cc:Work
         rdf:about="">
        <dc:format>image/svg+xml</dc:format>
        <dc:type
           rdf:resource="http://purl.org/dc/dcmitype/StillImage" />
        <dc:creator>
          <cc:Agent>
            <dc:title>Martin Ruskov</dc:title>
          </cc:Agent>
        </dc:creator>
        <dc:source>http://commons.wikimedia.org/wiki/Tango_icon</dc:source>
        <cc:license
           rdf:resource="http://creativecommons.org/licenses/by-sa/2.0/" />
      </cc:Work>
      <cc:License
         rdf:about="http://creativecommons.org/licenses/by-sa/2.0/">
        <cc:permits
           rdf:resource="http://web.resource.org/cc/Reproduction" />
        <cc:permits
           rdf:resource="http://web.resource.org/cc/Distribution" />
        <cc:requires
           rdf:resource="http://web.resource.org/cc/Notice" />
        <cc:requires
           rdf:resource="http://web.resource.org/cc/Attribution" />
        <cc:permits
           rdf:resource="http://web.resource.org/cc/DerivativeWorks" />
        <cc:requires
           rdf:resource="http://web.resource.org/cc/ShareAlike" />
      </cc:License>
    </rdf:RDF>
  </metadata>
  <rect
     style="opacity:0.956124;fill:url(#radialGradient3635);fill-opacity:1;stroke:#f4fb38;stroke-width:0.187514;stroke-linecap:round;stroke-miterlimit:4;stroke-dasharray:none;stroke-opacity:1;paint-order:markers stroke fill"
     id="rect3517"
     width="47.985218"
     height="48.654007"
     x="0.16745642"
     y="-0.33413851" />
  <text
     xml:space="preserve"
     style="font-style:normal;font-variant:normal;font-weight:400;font-size:4.02047px;line-height:125%;font-family:'Times New Roman';text-align:start;letter-spacing:0px;word-spacing:0px;text-anchor:start;fill:#000000;fill-opacity:1;stroke:none;stroke-width:0.25128"
     x="62.691341"
     y="-3.9073462"
     id="text7409"
     transform="scale(1.0594003,0.94393027)"><tspan
       sodipodi:role="line"
       x="62.691341"
       y="-3.9073462"
       id="tspan7407"
       style="stroke-width:0.25128"><tspan
         dx="0"
         dy="0"
         style="font-style:normal;font-variant:normal;font-weight:400;font-size:4.02047px;font-family:'Times New Roman';fill:#000000;stroke-width:0.25128"
         id="tspan7405"> </tspan></tspan></text>
  <path
     style="fill:#ffffff;fill-opacity:1;fill-rule:evenodd;stroke:none;stroke-width:0.25128"
     d="m 66.862427,16.486109 h 3.992879 V -6.9945255 h 7.985756 V 16.486109 h 3.992878 l -7.985756,7.82688 z"
     id="path7411" />
  <path
     style="fill:#fd7753;fill-opacity:1;stroke:#242507;stroke-width:0.227531;stroke-miterlimit:4;stroke-dasharray:none;stroke-opacity:1"
     d="M 4.7493393,46.523293 C 4.744708,46.452124 4.337867,45.741739 3.84544,44.944665 L 2.9501133,43.495434 1.9472062,43.465642 0.94430321,43.435851 V 42.410816 41.385769 L 1.7885887,40.965468 c 0.5240957,-0.260907 0.9903905,-0.420304 1.2295394,-0.420304 0.3748792,0 0.4032003,-0.02957 1.0520936,-1.097637 L 4.7370703,38.349894 3.8434154,36.88549 2.9497662,35.421092 1.9470332,35.39131 0.94430321,35.361517 0.94528655,34.304355 0.94627,33.247199 1.7537767,33.014286 c 0.4441283,-0.128101 0.9544135,-0.232912 1.1339671,-0.232912 0.3026135,0 0.379895,-0.08886 1.0579656,-1.216319 C 4.3480362,30.896076 4.6898047,30.325441 4.7052032,30.296973 4.7205901,30.26851 4.3328055,29.59306 3.8434328,28.795985 L 2.9536767,27.346757 1.9489521,27.316977 0.94423037,27.287186 v -1.073379 -1.07338 l 1.03937163,-0.07403 1.0393736,-0.07404 0.5799066,-0.94491 C 3.9218364,23.527741 4.3083311,22.892911 4.4617605,22.636703 L 4.7407203,22.170878 3.881495,20.77341 C 2.919638,19.209014 2.965801,19.239861 1.5669404,19.226621 l -0.6303341,-0.0059 0.0310517,-1.061047 0.0310506,-1.061042 1.0062252,-0.02973 c 0.874884,-0.02587 1.0213789,-0.05664 1.1223134,-0.235814 0.063844,-0.113342 0.1702335,-0.174274 0.2364088,-0.135415 0.071486,0.04198 0.089574,0.02335 0.044541,-0.04584 -0.106401,-0.163553 0.2406139,-0.767261 0.3904512,-0.679283 0.072626,0.04265 0.090569,0.02413 0.044773,-0.04622 -0.1047757,-0.161064 0.1339181,-0.558349 0.2829107,-0.470864 0.071479,0.04198 0.089567,0.02335 0.044541,-0.04584 -0.088093,-0.135414 0.2299127,-0.773547 0.3502717,-0.702874 0.044541,0.02616 0.091257,-0.03055 0.1038325,-0.126013 0.080503,-0.611084 0.08405,-0.933524 0.00977,-0.889922 -0.1236156,0.07258 -0.4450863,-0.561557 -0.3549341,-0.700139 0.045177,-0.06949 0.026898,-0.08777 -0.045409,-0.04534 -0.1498431,0.08798 -0.4968523,-0.51573 -0.3904514,-0.679282 0.045004,-0.06919 0.026898,-0.08779 -0.044541,-0.04584 -0.1489868,0.08747 -0.3876804,-0.309801 -0.2829049,-0.470864 0.046971,-0.07221 0.02765,-0.08878 -0.05021,-0.04309 -0.070844,0.0416 -0.1553442,0.0033 -0.1919371,-0.08753 C 3.2305174,11.51011 3.0605266,11.454161 2.757573,11.4486 2.5092904,11.444203 2.0119563,11.362291 1.6523877,11.266901 L 0.998626,11.093422 V 10.058803 9.0241832 L 2.004851,8.9944512 C 2.8797351,8.9685617 3.0262299,8.9378097 3.1271646,8.7586419 3.1910091,8.6452998 3.2973979,8.5843675 3.3635731,8.6232207 c 0.071485,0.041983 0.089574,0.023351 0.044541,-0.045837 -0.106401,-0.1635582 0.2406142,-0.7672617 0.3904513,-0.6792824 0.072285,0.042422 0.090592,0.024122 0.04541,-0.045339 -0.106401,-0.1635582 0.2406141,-0.7672606 0.3904512,-0.6792825 0.072619,0.042647 0.090569,0.024122 0.04483,-0.046216 -0.088116,-0.1354532 0.1227081,-0.564925 0.2427255,-0.4944564 0.044078,0.02589 0.09043,-0.031048 0.103006,-0.1264957 0.080503,-0.6110885 0.08405,-0.9335297 0.00977,-0.889922 C 4.5111464,5.688969 4.1896757,5.0548302 4.2798279,4.9162437 4.3250049,4.8467583 4.3067256,4.8284708 4.2344187,4.8709044 4.0845759,4.958879 3.7375666,4.3551802 3.8439676,4.1916221 3.888971,4.1224331 3.8708653,4.1038373 3.799426,4.1457847 3.6733402,4.2198123 3.4042083,3.8475572 3.4892874,3.7167909 3.5163013,3.6752467 3.3346954,3.6535792 3.0857227,3.6685934 2.7602898,3.6882092 2.4033247,3.5974714 1.8158378,3.345774 1.0025315,2.9973281 0.99863614,2.9937454 0.99863614,2.5938621 V 2.1920659 L 3.082437,2.1639826 5.1662339,2.1358992 5.9526954,2.4939727 C 6.5745632,2.777104 6.7883602,2.9360784 6.9742637,3.2535956 7.1035777,3.474445 7.3800499,3.9431662 7.5886471,4.2951888 l 0.3792689,0.640039 h 1.387506 c 1.28237,0 1.396458,-0.015939 1.505758,-0.2099351 0.06503,-0.1154651 0.172408,-0.1781384 0.238589,-0.1392792 0.07148,0.041983 0.08956,0.023351 0.04454,-0.045837 -0.1064,-0.1635581 0.240613,-0.7672663 0.390456,-0.6792823 0.07227,0.042422 0.09059,0.024122 0.04541,-0.045339 -0.106389,-0.1635594 0.240614,-0.7672664 0.390456,-0.6792836 0.07208,0.042315 0.09061,0.024182 0.04571,-0.044841 -0.04146,-0.063781 0.02545,-0.3038869 0.14882,-0.5335742 l 0.224256,-0.4176169 h 4.55724 c 4.492825,0 4.560157,0.00332 4.764541,0.2176284 0.114023,0.119699 0.342267,0.2839332 0.507207,0.3649709 0.164946,0.081037 0.2999,0.1983614 0.2999,0.260731 0,0.06237 0.251251,0.5269957 0.558342,1.0325088 l 0.558346,0.9191085 h 1.671509 c 1.567688,0 1.678851,-0.013022 1.789769,-0.2099351 0.06503,-0.1154651 0.172408,-0.1781384 0.238589,-0.1392792 0.07148,0.041983 0.08956,0.023351 0.04454,-0.045837 -0.106389,-0.1635582 0.240616,-0.7672665 0.390457,-0.6792837 0.07227,0.042422 0.09059,0.024122 0.04542,-0.045339 -0.10641,-0.1635581 0.240613,-0.7672664 0.390451,-0.6792824 0.07263,0.042647 0.09057,0.024122 0.04478,-0.046217 -0.08991,-0.1382012 0.123896,-0.5642337 0.246901,-0.4920051 0.04639,0.027206 0.08069,-0.052977 0.07625,-0.1782533 l -0.008,-0.2277685 4.660304,-0.026981 4.660304,-0.026981 0.107491,0.2685903 c 0.05912,0.1477256 0.07504,0.3184612 0.0354,0.3794172 -0.04149,0.063769 -0.02099,0.080823 0.04825,0.040168 0.148987,-0.087477 0.387681,0.3098001 0.282906,0.4708641 -0.04575,0.070351 -0.02782,0.088864 0.04478,0.046216 0.149843,-0.087986 0.496854,0.5157255 0.390458,0.6792836 -0.04518,0.069486 -0.0269,0.087772 0.04541,0.045339 0.149837,-0.087986 0.496852,0.5157243 0.390451,0.6792824 -0.04447,0.068429 -0.02695,0.08782 0.04252,0.047047 0.06505,-0.0382 0.149068,-0.022094 0.186708,0.035781 0.04199,0.064552 0.780283,0.1052065 1.910497,0.1052065 1.739026,0 1.848678,-0.011741 1.960326,-0.2099363 0.06503,-0.1154651 0.172407,-0.1781382 0.238589,-0.1392791 0.07148,0.041983 0.08956,0.023351 0.04454,-0.045837 -0.1064,-0.1635581 0.240614,-0.7672663 0.390457,-0.6792823 0.07262,0.042647 0.09057,0.024122 0.04478,-0.046216 -0.104769,-0.1610641 0.133918,-0.5583418 0.282905,-0.4708641 0.07148,0.041983 0.08956,0.023351 0.04454,-0.045837 -0.08994,-0.1382569 0.231173,-0.772806 0.354447,-0.7004245 0.04685,0.027479 0.08152,-0.052479 0.07709,-0.1777647 -0.0078,-0.2238109 0.01747,-0.2277685 1.462888,-0.2277685 h 1.470965 l -0.0029,0.8329164 c -0.0029,0.8241784 -0.01003,0.844259 -0.649601,1.9150565 -0.384342,0.6434023 -0.651582,1.216571 -0.659142,1.4137073 -0.0069,0.1823591 0.02581,0.3089378 0.07291,0.2812847 0.123609,-0.072581 0.445085,0.5615569 0.354927,0.7001435 -0.04518,0.069486 -0.0269,0.087772 0.04541,0.045339 0.149843,-0.087986 0.496859,0.5157242 0.390456,0.6792824 -0.04338,0.066722 -0.02713,0.087916 0.03813,0.04962 0.06264,-0.036764 0.192786,0.047533 0.289238,0.1873924 0.140993,0.2044394 0.175359,0.5511809 0.175359,1.7694624 v 1.515195 l -0.77193,1.273857 c -0.666252,1.099467 -0.755064,1.303792 -0.648726,1.492563 0.06777,0.120294 0.08886,0.271525 0.04685,0.336081 -0.04575,0.07035 -0.02782,0.08888 0.04478,0.04622 0.149837,-0.08798 0.496853,0.515725 0.390452,0.679283 -0.04518,0.06949 -0.0269,0.08777 0.0454,0.04534 0.149843,-0.08798 0.496858,0.51573 0.390458,0.679282 -0.04338,0.06672 -0.02713,0.08791 0.03813,0.04962 0.06264,-0.03677 0.192787,0.04754 0.289239,0.187399 0.141357,0.204963 0.175358,0.553424 0.175358,1.797209 v 1.542947 l -0.751795,1.229107 c -0.86236,1.409872 -0.879702,1.106204 0.156907,2.74757 l 0.594888,0.941939 v 1.57787 1.577871 l -0.708243,1.157681 c -0.389537,0.636726 -0.708242,1.192634 -0.708242,1.235351 0,0.04269 0.318705,0.608307 0.708242,1.256869 l 0.708243,1.179203 v 1.630035 1.630034 l -0.692797,1.125534 -0.692799,1.125531 0.546253,0.873134 c 0.766418,1.225056 0.839343,1.517756 0.839343,3.368987 v 1.583052 l -0.762721,1.244985 c -0.419502,0.684739 -0.762728,1.292563 -0.762728,1.350717 0,0.167999 -9.041892,0.144352 -9.049764,-0.02369 -0.0035,-0.07117 -0.409361,-0.781555 -0.902275,-1.578629 l -0.896205,-1.449232 -1.7945,-0.02418 -1.794495,-0.02418 -0.961876,1.602793 -0.961878,1.602787 h -4.458897 c -3.489905,0 -4.46076,-0.02813 -4.467471,-0.129392 -0.0046,-0.07117 -0.411541,-0.781556 -0.904055,-1.57863 l -0.895486,-1.449231 -1.534409,-0.02863 -1.534415,-0.02863 -0.633119,1.063813 c -0.420378,0.706201 -0.836905,1.245793 -1.239058,1.605043 l -0.605822,0.541196 -4.440132,0.0023 c -3.4762253,0.0016 -4.4419731,-0.02584 -4.4486832,-0.127139 z m 9.5843037,-1.910412 0.938941,-1.573974 2.151968,-0.0044 c 1.225132,-0.0028 2.151961,0.03595 2.151961,0.08963 0,0.05187 0.407876,0.762238 0.906387,1.578625 l 0.906387,1.484341 h 4.121676 4.121682 l 0.937513,-1.573277 0.937513,-1.573282 2.151967,-0.0054 c 1.183577,-0.0028 2.151964,0.03595 2.151964,0.08637 0,0.05045 0.41054,0.760831 0.912309,1.578629 l 0.91231,1.48691 h 4.11422 4.114214 l 0.748369,-1.221205 0.748371,-1.221198 v -1.348699 -1.348647 l -0.762721,-1.248248 c -0.419496,-0.686543 -0.762722,-1.338765 -0.762722,-1.4494 0,-0.110627 0.343226,-0.759436 0.762722,-1.441786 l 0.762721,-1.240657 v -1.349859 -1.349867 l -0.762721,-1.258656 c -0.419496,-0.692269 -0.762722,-1.343185 -0.762722,-1.446484 0,-0.103309 0.343226,-0.749532 0.762722,-1.43607 l 0.762721,-1.248247 v -1.34675 -1.346728 l -0.762721,-1.257123 c -0.419496,-0.691417 -0.762722,-1.337116 -0.762722,-1.434888 0,-0.09777 0.343226,-0.749944 0.762722,-1.449265 l 0.762721,-1.271494 v -1.329449 -1.329445 l -0.762721,-1.266829 c -0.419496,-0.696752 -0.762722,-1.347557 -0.762722,-1.44623 0,-0.09867 0.343226,-0.745801 0.762722,-1.438065 l 0.762721,-1.258662 V 10.070842 8.7385897 L 46.598674,7.4717673 C 46.179178,6.7750085 45.835952,6.1222631 45.835952,6.021217 c 0,-0.1010434 0.343226,-0.7494225 0.762722,-1.4408396 0.573202,-0.9447454 0.762721,-1.3535043 0.762721,-1.645005 V 2.5474863 l -1.113404,0.029507 -1.113404,0.029507 -0.820643,1.367897 -0.820642,1.3678972 -2.124723,0.00166 -2.124728,0.00166 -0.828069,-1.3695665 -0.82807,-1.3695729 h -4.347545 -4.347546 l -0.8172,1.3681497 -0.817201,1.3681557 -2.124728,0.00166 -2.124728,0.00166 -0.831974,-1.369605 -0.83198,-1.369612 -4.343635,-0.024668 -4.34364,-0.02468 -0.8172,1.3941437 -0.817201,1.3941376 -2.1247291,1.043e-4 -2.124722,1.056e-4 L 5.9418008,3.9763964 5.1099191,2.6067844 3.2177934,2.6010917 C 2.1771211,2.5977711 1.7669533,2.6129632 2.306307,2.6344528 l 0.9806406,0.039019 0.9534035,1.5952101 c 0.5243751,0.8773639 0.9534036,1.66996 0.9534036,1.7613228 0,0.091366 -0.4290285,0.8823876 -0.9534036,1.7578337 l -0.9534035,1.5917205 -0.9534006,0.00378 -0.9534029,0.00378 v 0.6728531 0.672858 l 0.9534029,0.0044 0.9534006,0.0044 0.9534035,1.598049 c 0.5243751,0.878926 0.9534036,1.675035 0.9534036,1.769122 0,0.09409 -0.4290285,0.885185 -0.9534036,1.757984 l -0.9534035,1.586906 -0.9534006,0.0038 -0.9534029,0.0038 v 0.672852 0.672859 l 0.9534029,0.0054 0.9534006,0.0054 0.9534035,1.59954 c 0.5243751,0.879749 0.9534036,1.676065 0.9534036,1.769588 0,0.09353 -0.4290285,0.884036 -0.9534036,1.756702 l -0.9534035,1.586658 -0.9534006,0.0028 -0.9534029,0.0028 v 0.672858 0.672858 h 0.9806428 c 0.5393537,0 0.9806453,0.04122 0.9806453,0.0916 0,0.05039 0.4167711,0.771036 0.9261584,1.60148 0.509393,0.830437 0.9261641,1.586772 0.9261641,1.680741 0,0.09396 -0.4290285,0.88679 -0.9534036,1.761824 l -0.9534035,1.590973 -0.9534006,0.0011 -0.9534029,0.0011 v 0.672853 0.672858 h 0.9806428 c 0.5393537,0 0.9806453,0.04255 0.9806453,0.09454 0,0.052 0.4167711,0.776713 0.9261584,1.610477 0.509393,0.83397 0.9261641,1.593413 0.9261641,1.687846 0,0.09444 -0.4167711,0.858247 -0.9261641,1.697345 -0.5093873,0.839093 -0.9261584,1.574339 -0.9261584,1.633861 0,0.06728 -0.3710498,0.10823 -0.9806453,0.10823 H 1.3801441 v 0.621097 0.621102 h 0.9806428 c 0.5393537,0 0.9806453,0.04369 0.9806453,0.09711 0,0.08173 1.204962,2.116583 1.7055626,2.880245 l 0.1534988,0.234148 4.0971027,-0.02714 4.0971047,-0.02714 z m -7.6144449,1.120433 c 0,-0.078 -1.3984785,-2.405704 -1.8553189,-3.088087 -0.1365674,-0.203994 -0.1267106,-0.272073 0.089914,-0.6211 0.1338139,-0.215597 0.5980298,-0.984705 1.0315932,-1.709122 l 0.7882951,-1.317124 2.1519622,-0.0028 c 1.2762403,-0.0016 2.1519683,0.03699 2.1519683,0.09484 0,0.05364 0.416771,0.779719 0.926164,1.613475 0.509387,0.833765 0.926158,1.591849 0.926158,1.68464 0,0.09279 -0.416771,0.85524 -0.926158,1.69434 -0.509393,0.839098 -0.926164,1.574342 -0.926164,1.633864 0,0.07169 -0.735772,0.108232 -2.1792074,0.108232 -1.1985647,0 -2.1792079,-0.04104 -2.1792079,-0.09124 z m 4.1404929,-0.247041 c 0,-0.07219 0.116119,-0.293446 0.258061,-0.491703 l 0.25806,-0.360459 -1.5949039,0.03084 -1.5949043,0.03083 -0.8968423,-1.481627 C 6.7958951,42.399264 6.3923192,41.677528 6.3923192,41.6103 c 0,-0.06722 0.3150147,-0.637148 0.7000334,-1.266498 l 0.700041,-1.144273 -0.4003946,0.0038 -0.4004013,0.0038 -0.9570648,1.597781 -0.9570709,1.597781 0.9298315,1.515877 c 0.5114065,0.833734 0.9298261,1.557092 0.9298261,1.607464 0,0.05039 0.882577,0.0916 1.9612853,0.0916 1.5111261,0 1.9612861,-0.03011 1.9612861,-0.131251 z m 0.991645,-2.076823 0.621301,-1.017628 -0.895443,-1.466773 -0.89544,-1.466767 -1.3240499,-0.02903 -1.3240485,-0.02903 -0.2594886,0.39135 C 7.6314505,40.006819 7.3259563,40.51203 7.0952913,40.914266 l -0.4193903,0.731336 0.8645587,1.419463 0.8645576,1.419468 1.4125126,-0.02869 1.4125111,-0.02869 z m 11.083698,2.285709 c -0.03437,-0.126101 -1.608041,-2.745654 -1.864973,-3.104387 -0.102797,-0.143532 -0.09076,-0.238001 0.05936,-0.465824 0.103579,-0.157184 0.568794,-0.925275 1.033832,-1.706874 l 0.845516,-1.421088 2.151968,-0.0022 c 1.22767,-0.0011 2.151968,0.03835 2.151968,0.09229 0,0.052 0.41677,0.776718 0.926164,1.610476 0.509387,0.833764 0.926157,1.595946 0.926157,1.693741 0,0.09779 -0.41677,0.862014 -0.926157,1.698271 -0.509394,0.836253 -0.926164,1.568744 -0.926164,1.627761 0,0.167619 -4.331963,0.145758 -4.377666,-0.02209 z m 4.159744,-0.208886 c 0,-0.07219 0.116106,-0.293446 0.258014,-0.491703 l 0.25802,-0.360459 -1.881454,0.03039 -1.881459,0.03039 -0.882646,-1.446594 c -0.485457,-0.795629 -0.882648,-1.526338 -0.882648,-1.623802 0,-0.09747 0.295395,-0.666298 0.65643,-1.264082 0.361045,-0.597783 0.630719,-1.11131 0.599286,-1.141172 -0.07525,-0.07149 2.14e-4,-0.184398 -1.072657,1.605618 l -0.943159,1.573656 0.924851,1.52212 c 0.50867,0.837169 0.92485,1.561433 0.92485,1.60948 0,0.04803 0.882578,0.08736 1.961286,0.08736 1.511127,0 1.961286,-0.03011 1.961286,-0.131251 z m 0.99762,-2.077866 0.617553,-1.018678 -0.894626,-1.465725 -0.894627,-1.465722 -1.631556,-0.02846 -1.631555,-0.02846 -0.641887,1.063615 c -0.353037,0.58499 -0.640824,1.1102 -0.639529,1.167135 0.0011,0.05694 0.381549,0.721895 0.845001,1.477692 l 0.842636,1.374173 1.705516,-0.02846 1.705522,-0.02846 z m 11.096975,2.324462 c 0,-0.08158 -1.563362,-2.686467 -1.885775,-3.142097 -0.100923,-0.142626 -0.08834,-0.239441 0.06054,-0.465824 0.103369,-0.157184 0.568591,-0.924572 1.033825,-1.705319 l 0.845881,-1.419534 2.151967,-0.0038 c 1.183584,-0.0022 2.151968,0.0355 2.151968,0.08354 0,0.04803 0.416772,0.773285 0.92616,1.611636 0.509392,0.838352 0.926164,1.60374 0.926164,1.700856 0,0.09712 -0.416772,0.863532 -0.926164,1.703138 -0.509388,0.839604 -0.92616,1.572127 -0.92616,1.627831 0,0.06264 -0.831187,0.101271 -2.179207,0.101271 -1.198564,0 -2.179207,-0.04127 -2.179207,-0.09169 z m 4.140491,-0.216624 c 0,-0.05571 0.415477,-0.786088 0.923278,-1.623077 0.723065,-1.191792 0.896381,-1.552603 0.799224,-1.663821 -0.121426,-0.138993 -0.550411,0.470875 -1.419806,2.018471 l -0.248215,0.441842 -1.960049,-0.02775 -1.960042,-0.02775 -0.768361,-1.263629 c -0.422602,-0.695001 -0.799188,-1.292916 -0.836857,-1.328704 -0.03766,-0.03577 -0.121611,0.02923 -0.186524,0.144462 -0.100064,0.177632 0.02298,0.440341 0.808375,1.725856 0.509526,0.833983 0.926407,1.558878 0.926407,1.610876 0,0.05352 0.850415,0.09454 1.961285,0.09454 1.205958,0 1.961285,-0.03902 1.961285,-0.101282 z m 0.572042,-2.282296 c 0.404512,-0.681475 0.733369,-1.274088 0.730784,-1.316915 -0.0024,-0.04281 -0.334531,-0.613566 -0.737651,-1.268312 l -0.732948,-1.19044 -1.795681,-0.0266 -1.795674,-0.0266 -0.350631,0.595926 c -0.192845,0.327754 -0.520511,0.876705 -0.728141,1.219886 l -0.377511,0.623964 0.654162,1.084058 c 0.359789,0.596234 0.725354,1.188874 0.812372,1.316976 0.153185,0.225515 0.212628,0.232819 1.871822,0.229988 l 1.713613,-0.0028 0.735484,-1.239049 z M 15.218105,41.692986 c 0,-0.0845 -1.565392,-2.692022 -1.884675,-3.139366 -0.102268,-0.143279 -0.09004,-0.238396 0.05981,-0.465824 0.103568,-0.157178 0.568794,-0.925269 1.033825,-1.706868 l 0.845523,-1.421088 2.151967,-0.0022 c 1.183582,-0.0011 2.151962,0.03896 2.151962,0.08933 0,0.05039 0.416776,0.771041 0.926163,1.601479 0.509394,0.830444 0.926164,1.593956 0.926164,1.696702 0,0.10274 -0.41677,0.871011 -0.926164,1.707263 -0.509387,0.836259 -0.926163,1.56875 -0.926163,1.627766 0,0.07047 -0.747809,0.107305 -2.179202,0.107305 -1.24023,0 -2.179207,-0.04066 -2.179207,-0.09443 z m 4.244378,-0.449042 c 0.08341,-0.185034 0.171801,-0.371366 0.196408,-0.414066 0.02458,-0.04271 -0.708687,-0.07764 -1.629547,-0.07764 h -1.674292 l -0.895354,-1.480354 c -0.492446,-0.814188 -0.895356,-1.513925 -0.895356,-1.55496 0,-0.04105 0.341848,-0.632609 0.75966,-1.314601 0.759635,-1.239939 0.759646,-1.239983 0.463082,-1.236851 -0.267945,0.0028 -0.38838,0.157305 -1.247332,1.599881 l -0.950749,1.596743 0.923508,1.511589 c 0.507937,0.831373 0.923515,1.555488 0.923515,1.609136 0,0.0574 0.79747,0.09755 1.937395,0.09755 h 1.937398 z m 0.819682,-1.759784 c 0.351134,-0.583573 0.649177,-1.084333 0.662307,-1.112799 0.01313,-0.02846 -0.376655,-0.703914 -0.866195,-1.500994 l -0.890079,-1.449231 h -1.459894 -1.459887 l -0.688599,1.126543 c -0.378725,0.619597 -0.688597,1.148943 -0.688597,1.176327 0,0.02737 0.379055,0.673359 0.842345,1.435499 l 0.842347,1.385703 h 1.53391 1.533906 z m 11.171028,2.210651 c 0,-0.08604 -1.589912,-2.739438 -1.882194,-3.141191 -0.105232,-0.144648 -0.09404,-0.23622 0.05697,-0.465824 0.10337,-0.157178 0.568598,-0.924571 1.033832,-1.705313 l 0.845881,-1.419534 2.124723,0.0016 2.124727,0.0016 0.953404,1.599546 c 0.524368,0.87975 0.953403,1.682039 0.953403,1.782865 0,0.100832 -0.416777,0.870276 -0.926164,1.709881 -0.509387,0.839604 -0.926164,1.572129 -0.926164,1.627827 0,0.06264 -0.831182,0.101282 -2.179206,0.101282 -1.208834,0 -2.179202,-0.04122 -2.179202,-0.0926 z m 4.312768,-0.559491 0.226754,-0.434835 -1.984777,0.03023 -1.984777,0.03023 -0.909568,-1.499851 -0.909573,-1.499846 -0.192586,0.288968 -0.192585,0.288972 0.926129,1.524224 c 0.509376,0.838324 0.926135,1.5676 0.926135,1.62061 0,0.05608 0.808843,0.09427 1.934042,0.09128 l 1.934045,-0.005 0.226761,-0.434842 z m 0.661446,-1.788631 0.699097,-1.146763 -0.84813,-1.411459 -0.848131,-1.411461 -1.743364,-0.0023 -1.743365,-0.0021 -0.681003,1.123757 c -0.374549,0.618068 -0.681004,1.169069 -0.681004,1.224447 0,0.05537 0.373267,0.714575 0.829469,1.464894 l 0.829471,1.364215 1.74393,-0.02841 1.743932,-0.02836 0.699098,-1.146761 z M 6.7191981,37.66061 c 0,-0.102739 -1.4387447,-2.50686 -1.7612564,-2.943031 -0.1177271,-0.159217 -0.1986414,-0.34606 -0.1798012,-0.415205 0.018857,-0.06914 0.475542,-0.857245 1.0148992,-1.751338 l 0.9806432,-1.625617 2.1519622,-0.0038 c 1.2287179,-0.0023 2.1519679,0.03693 2.1519679,0.09093 0,0.052 0.41677,0.776721 0.926164,1.610478 0.509387,0.833756 0.926157,1.589702 0.926157,1.679873 0,0.09016 -0.41677,0.854833 -0.926157,1.69925 -0.509394,0.844426 -0.926164,1.583159 -0.926164,1.641632 0,0.0692 -0.76079,0.10631 -2.1792081,0.10631 -1.1985636,0 -2.1792068,-0.04034 -2.1792068,-0.08964 z M 10.935301,37.232678 11.058685,36.92213 9.6244234,36.92053 8.1901635,36.91893 7.2912441,35.4354 C 6.7968328,34.619382 6.3923192,33.894551 6.3923192,33.824599 c 0,-0.06996 0.3432257,-0.688912 0.7627207,-1.375444 0.4194951,-0.686541 0.7627218,-1.2653 0.7627218,-1.286145 0,-0.02082 -0.2083878,-0.03627 -0.463082,-0.03428 l -0.463082,0.0038 -0.9554798,1.59033 -0.9554802,1.590334 0.9282407,1.527698 c 0.5105323,0.840235 0.9282412,1.567011 0.9282412,1.615058 0,0.04803 0.871829,0.08736 1.9373949,0.08736 h 1.9374015 z m 0.809871,-1.724702 0.722045,-1.205069 -0.890728,-1.459459 -0.890728,-1.459459 -1.2521864,-0.02896 -1.2521812,-0.02896 -0.7310982,1.20109 c -0.4021004,0.660598 -0.7310971,1.246534 -0.7310971,1.302083 0,0.05555 0.3799984,0.726726 0.8444456,1.491509 l 0.8444402,1.390516 1.307521,0.0011 1.3075291,0.0011 0.722038,-1.205069 z m 11.209113,2.150595 c 0,-0.08138 -1.564199,-2.687938 -1.88375,-3.139046 -0.09992,-0.141038 -0.07591,-0.256686 0.118129,-0.569339 0.133931,-0.215795 0.598245,-0.985055 1.031807,-1.709473 l 0.788291,-1.31713 2.151967,-0.0028 c 1.183582,-0.0016 2.151968,0.0366 2.151968,0.08465 0,0.04803 0.41677,0.773285 0.926164,1.611636 0.509387,0.838351 0.926157,1.601024 0.926157,1.694827 0,0.0938 -0.41677,0.85708 -0.926157,1.69618 -0.509394,0.839098 -0.926164,1.574337 -0.926164,1.633865 0,0.07168 -0.735771,0.108231 -2.179208,0.108231 -1.198563,0 -2.179207,-0.04127 -2.179207,-0.09169 z m 4.216103,-0.425893 0.123385,-0.310548 h -1.720336 -1.720331 l -0.88525,-1.458332 c -0.486892,-0.802076 -0.885071,-1.535753 -0.884852,-1.630387 2.21e-4,-0.09463 0.337634,-0.731046 0.749806,-1.414258 0.552169,-0.915256 0.707542,-1.251419 0.590353,-1.277225 -0.08748,-0.0193 -0.170962,-0.0193 -0.185521,0 -0.01458,0.01929 -0.452793,0.741442 -0.973858,1.604832 l -0.947388,1.569808 0.927905,1.518778 c 0.510347,0.835329 0.927905,1.56133 0.927905,1.613334 0,0.05352 0.840942,0.09454 1.937396,0.09454 h 1.937402 z m 0.812284,-1.719751 0.72445,-1.199398 -0.888738,-1.464772 -0.888738,-1.464768 H 25.363353 23.79706 l -0.737231,1.225404 -0.737228,1.225408 0.874213,1.440147 0.874213,1.440148 1.593598,-0.0016 1.593595,-0.0016 0.724452,-1.199399 z m 11.206701,2.142913 c 0,-0.0845 -1.565393,-2.692022 -1.884676,-3.139366 -0.102257,-0.14328 -0.09004,-0.238401 0.05981,-0.465824 0.103568,-0.157178 0.568795,-0.925269 1.033832,-1.706868 l 0.845516,-1.421094 2.124727,0.0023 2.124724,0.0023 0.926163,1.562484 c 0.509394,0.859371 0.942529,1.654198 0.962532,1.766296 0.02065,0.115845 -0.36733,0.868022 -0.898924,1.742677 -0.514409,0.846376 -0.935287,1.586648 -0.935287,1.64505 0,0.06902 -0.762606,0.106178 -2.179208,0.106178 -1.240224,0 -2.179205,-0.04066 -2.179205,-0.09441 z m 4.140491,-0.219914 c 0,-0.05901 0.414881,-0.788399 0.921961,-1.620858 0.507073,-0.832456 0.893631,-1.557093 0.859016,-1.610301 -0.03459,-0.0532 -0.172507,0.08226 -0.306425,0.301019 -0.133917,0.218772 -0.522744,0.853014 -0.864056,1.409421 l -0.620559,1.01166 -1.913935,-0.02825 -1.913932,-0.02825 -0.87673,-1.433031 c -0.647291,-1.058019 -0.900759,-1.392243 -0.968548,-1.277159 -0.06446,0.109428 0.184181,0.607637 0.834404,1.671915 0.509428,0.833823 0.926234,1.559934 0.926234,1.613586 0,0.05744 0.806413,0.09755 1.961285,0.09755 1.280988,0 1.961285,-0.03721 1.961285,-0.107305 z m 0.619886,-2.093365 0.808146,-1.320773 -0.795734,-1.342069 -0.79574,-1.342067 -1.797843,-0.0016 -1.797843,-0.0016 -0.735483,1.228947 c -0.404519,0.67592 -0.735481,1.285712 -0.735481,1.355086 0,0.107129 0.617112,1.162084 1.440891,2.463211 l 0.214641,0.339004 1.693148,-0.02846 1.69315,-0.02846 0.808148,-1.320779 z M 14.365521,32.134484 c -0.493689,-0.811313 -0.955868,-1.554757 -1.027076,-1.652105 -0.104747,-0.143198 -0.08296,-0.251906 0.114048,-0.569338 0.133929,-0.215795 0.598237,-0.985056 1.031801,-1.709479 l 0.788295,-1.317124 2.124728,0.0028 2.124723,0.0028 0.953403,1.599541 c 0.524369,0.879748 0.953404,1.678362 0.953404,1.774692 0,0.09632 -0.429035,0.887427 -0.953404,1.757994 l -0.953403,1.582845 -2.129454,0.0016 -2.12946,0.0016 -0.8976,-1.475109 z m 5.035894,1.104336 c 0.03638,-0.09006 0.06614,-0.183222 0.06614,-0.207033 0,-0.0238 -0.698711,-0.04413 -1.552682,-0.04511 l -1.552686,-0.0016 -0.908597,-1.504049 c -0.530008,-0.877335 -0.882107,-1.569637 -0.845017,-1.661462 0.035,-0.08658 0.40707,-0.71613 0.826883,-1.398991 0.419814,-0.68286 0.763295,-1.261971 0.763295,-1.286908 0,-0.02496 -0.159358,-0.04363 -0.354124,-0.04154 -0.341786,0.0038 -0.387235,0.05906 -1.304814,1.591016 l -0.950698,1.587247 0.948338,1.566237 0.948335,1.566242 h 1.924751 c 1.6546,0 1.934029,-0.02297 1.990879,-0.163746 z m 0.75526,-1.621918 c 0.390961,-0.640512 0.72681,-1.216742 0.746339,-1.280518 0.01955,-0.06378 -0.35675,-0.772603 -0.836179,-1.575177 l -0.871679,-1.459218 -1.364124,-0.0033 -1.364118,-0.0033 -0.798823,1.30604 c -0.587952,0.961275 -0.774354,1.352559 -0.706126,1.482269 0.05095,0.09692 0.435923,0.743252 0.85542,1.436268 l 0.762721,1.260031 1.432867,0.0011 1.432862,0.0011 0.71084,-1.164562 z m 10.447513,0.517125 c -0.496916,-0.81106 -0.962137,-1.555673 -1.033826,-1.654698 -0.104483,-0.144319 -0.09298,-0.236754 0.05796,-0.465824 0.103579,-0.157179 0.568795,-0.925271 1.033825,-1.706875 l 0.845523,-1.421089 2.124723,0.0021 2.124727,0.0021 0.953404,1.598045 c 0.524369,0.878931 0.953405,1.679627 0.953405,1.779327 0,0.09971 -0.429036,0.891955 -0.953405,1.760571 l -0.953404,1.579295 -2.124727,5.49e-4 -2.124723,5.49e-4 -0.903484,-1.474658 z m 5.032315,1.104793 c 0.03638,-0.09006 0.06614,-0.183222 0.06614,-0.207033 0,-0.0238 -0.826751,-0.04331 -1.83722,-0.04331 H 32.02821 l -0.88679,-1.468381 c -0.487734,-0.807609 -0.886788,-1.526181 -0.886788,-1.596826 0,-0.07065 0.365225,-0.724334 0.811607,-1.45265 0.446388,-0.728308 0.789614,-1.345101 0.762721,-1.370645 -0.06571,-0.06243 -0.0029,-0.157711 -1.062255,1.609944 l -0.941032,1.570122 0.949961,1.560072 0.949963,1.560076 1.922384,0.0011 c 1.653201,0.0011 1.931652,-0.02176 1.988526,-0.162564 z m 0.755254,-1.621918 c 0.39096,-0.640512 0.726817,-1.217418 0.746345,-1.282017 0.01955,-0.06462 -0.35675,-0.773824 -0.83618,-1.576043 l -0.871679,-1.458579 -1.650748,-0.0028 -1.650753,-0.0028 -0.803682,1.315227 -0.803689,1.315235 0.862377,1.427965 0.862378,1.427963 h 1.717398 1.717399 L 36.391757,31.61657 Z M 5.9078455,28.149096 C 5.435219,27.366248 4.9788413,26.647689 4.8936696,26.552291 4.8084976,26.456893 4.7553668,26.316198 4.7756016,26.239639 4.7958469,26.163085 5.2536828,25.368924 5.79304,24.474847 l 0.9806429,-1.625588 2.1519622,-0.0028 c 1.1835829,-0.0016 2.1519679,0.0366 2.1519679,0.08466 0,0.04803 0.416771,0.773284 0.926164,1.611636 0.509387,0.838356 0.926157,1.597764 0.926157,1.687578 0,0.08982 -0.429027,0.877294 -0.953397,1.749959 l -0.953403,1.586658 -2.1279852,0.0028 -2.1279848,0.0028 z m 4.9912495,1.061047 c 0.05374,-0.13307 -0.137822,-0.155277 -1.3392267,-0.155277 H 8.1579317 L 7.2751222,27.611301 C 6.789579,26.817342 6.3923192,26.11183 6.3923192,26.043502 c 0,-0.10912 1.1788164,-2.130894 1.6090594,-2.759688 0.1583977,-0.231495 0.1558126,-0.232895 -0.4252051,-0.23022 l -0.5845758,0.0028 -0.9556706,1.590412 -0.9556711,1.590406 0.9524201,1.564154 0.9524259,1.564154 h 1.9256354 c 1.6111656,0 1.9358806,-0.02533 1.9883576,-0.155277 z M 11.690573,27.515337 12.469225,26.2346 11.581892,24.772146 10.69456,23.309693 H 9.5096633 8.3247689 l -0.7984643,1.293959 c -0.4391508,0.711673 -0.8004025,1.348322 -0.8027804,1.414769 -0.00231,0.06644 0.3693088,0.731672 0.8259766,1.478286 l 0.8303016,1.357478 1.2660585,-0.02907 1.2660581,-0.02907 z m 10.455165,0.633759 c -0.47236,-0.782848 -0.929258,-1.501407 -1.015338,-1.596805 -0.08607,-0.0954 -0.139946,-0.235659 -0.119715,-0.31169 0.02025,-0.07603 0.478082,-0.869765 1.017433,-1.763857 l 0.980644,-1.625622 2.124727,0.0011 2.124729,0.0011 0.926158,1.562484 c 0.509393,0.859367 0.941829,1.649126 0.960976,1.755026 0.01915,0.105895 -0.397624,0.914145 -0.926164,1.796116 l -0.96097,1.603573 -2.126828,0.0011 -2.126822,0.0011 -0.858832,-1.423353 z m 4.987393,1.063652 c 0.05241,-0.129828 -0.193766,-0.156931 -1.645728,-0.181156 l -1.707384,-0.02846 -0.84871,-1.395573 c -0.46679,-0.767557 -0.848704,-1.473692 -0.848704,-1.569176 0,-0.09548 0.367741,-0.781612 0.817201,-1.52472 0.44946,-0.743107 0.8172,-1.376223 0.8172,-1.406919 0,-0.03071 -0.110327,-0.05419 -0.24516,-0.05221 -0.20084,0.0028 -0.417685,0.290786 -1.199525,1.592121 l -0.954364,1.588494 0.952791,1.565138 0.952796,1.565133 h 1.923958 c 1.595073,0 1.934505,-0.0261 1.985629,-0.152668 z m 0.778848,-1.660003 c 0.4195,-0.709662 0.756549,-1.317459 0.749001,-1.350663 -0.0075,-0.0332 -0.399805,-0.707717 -0.871686,-1.498922 l -0.857958,-1.438548 -1.470965,-0.0021 -1.470965,-0.0021 -0.833801,1.390621 -0.833803,1.390617 0.708435,1.170298 c 0.389635,0.643667 0.778241,1.275112 0.863551,1.403213 0.149137,0.223921 0.214971,0.232818 1.705297,0.230516 l 1.550172,-0.0023 0.762722,-1.290295 z m 10.428389,0.544136 c -0.496909,-0.81106 -0.961223,-1.5543 -1.031801,-1.651648 -0.103392,-0.142603 -0.081,-0.253229 0.115183,-0.569339 0.13393,-0.215793 0.598244,-0.98506 1.031801,-1.709478 l 0.788295,-1.317124 2.124729,0.0028 2.124722,0.0028 0.953404,1.599545 c 0.524375,0.87975 0.953404,1.678358 0.953404,1.774689 0,0.09633 -0.429029,0.887432 -0.953404,1.757998 l -0.953404,1.582845 -2.124722,0.0011 -2.124729,0.0011 -0.903482,-1.474653 z m 5.028902,1.113262 c 0.05431,-0.134492 -0.203014,-0.15547 -1.922391,-0.156695 l -1.985106,-0.0016 -0.871679,-1.446396 c -0.479429,-0.79552 -0.912548,-1.447039 -0.962486,-1.447819 -0.122373,-0.0016 -0.142358,-0.03902 0.908001,1.685815 l 0.926164,1.520876 1.92239,4.13e-4 c 1.608578,4.11e-4 1.932623,-0.02489 1.985107,-0.154821 z m 0.287474,-0.465825 c 0.06414,-0.113875 0.09212,-0.207034 0.06216,-0.207034 -0.02996,0 -0.106962,0.09316 -0.171107,0.207034 -0.06415,0.113865 -0.09212,0.207029 -0.06216,0.207029 0.02996,0 0.106962,-0.09316 0.171107,-0.207029 z m 0.352407,-1.285865 0.842722,-1.387763 -0.842722,-1.402565 -0.842729,-1.402562 -1.750844,-0.0038 -1.750849,-0.0038 -0.843398,1.391962 -0.843394,1.391961 0.850879,1.401058 0.850877,1.401052 1.743365,0.0011 1.743364,0.0011 0.842729,-1.387764 z m 0.846157,-0.680954 c 0.06415,-0.113863 0.09212,-0.207034 0.06216,-0.207034 -0.02996,0 -0.106962,0.09317 -0.171107,0.207034 -0.06414,0.113865 -0.09212,0.207035 -0.06216,0.207035 0.02996,0 0.106962,-0.09317 0.171107,-0.207035 z m -30.345446,-2.5074 c -0.419495,-0.695746 -0.87552,-1.423258 -1.013377,-1.616697 -0.137864,-0.193436 -0.235929,-0.404911 -0.217921,-0.469946 0.01798,-0.06503 0.474026,-0.849772 1.013378,-1.743858 l 0.980642,-1.625622 2.124728,0.0011 2.124723,0.0011 0.953404,1.598046 c 0.524369,0.87893 0.953402,1.674394 0.953402,1.767698 0,0.09332 -0.429033,0.885587 -0.953402,1.76062 l -0.953404,1.590972 -2.124723,0.0011 -2.124728,5.49e-4 -0.762722,-1.264986 z m 3.380954,0.959122 -1.522257,-0.05623 -0.896044,-1.44923 c -0.492826,-0.797079 -0.898773,-1.495108 -0.902112,-1.551174 -0.0035,-0.05606 0.395432,-0.765228 0.886148,-1.575909 l 0.892203,-1.473961 1.532157,-0.03165 c 1.485219,-0.03071 1.472071,-0.03226 -0.429119,-0.05083 l -1.961287,-0.01918 -0.953351,1.586823 -0.953357,1.586824 0.953357,1.565622 0.953351,1.565633 1.961287,-0.02022 1.961286,-0.02022 z m 2.245936,-1.65954 0.841907,-1.396275 -0.196251,-0.311747 c -0.107931,-0.171461 -0.501475,-0.812506 -0.874526,-1.424551 l -0.678285,-1.112804 h -1.328 -1.328005 l -0.841189,1.381087 c -0.462647,0.7596 -0.841182,1.405717 -0.841182,1.435822 0,0.0543 1.287882,2.193273 1.593596,2.646744 0.153296,0.227394 0.207798,0.234995 1.484587,0.207033 l 1.325442,-0.02903 z m 10.449584,0.437154 c -0.506731,-0.838901 -0.96028,-1.540803 -1.007881,-1.559778 -0.183417,-0.07313 -0.05536,-0.343956 0.893325,-1.889091 0.53893,-0.877781 0.980215,-1.630909 0.980642,-1.673608 4.34e-4,-0.04269 0.969156,-0.07622 2.152733,-0.07451 l 2.151966,0.0033 0.953405,1.60116 c 0.524368,0.880641 0.953404,1.680248 0.953404,1.77691 0,0.09666 -0.429036,0.888025 -0.953404,1.758591 l -0.953405,1.582846 -2.124727,-2.05e-4 -2.124723,-2.09e-4 -0.921335,-1.525272 z m 3.257802,1.244061 -1.804028,-0.031 -0.892741,-1.485886 c -0.49101,-0.817238 -0.892741,-1.540733 -0.892741,-1.607762 0,-0.06703 0.396583,-0.770376 0.881299,-1.562983 l 0.881299,-1.441104 1.81547,-0.03099 1.815468,-0.03105 -1.961285,-0.01974 -1.961286,-0.01974 -0.926164,1.557138 c -0.509388,0.856425 -0.910431,1.611827 -0.891197,1.678665 0.01919,0.06684 0.435999,0.784616 0.926159,1.59505 l 0.891202,1.473516 1.961286,-0.0216 1.961285,-0.0216 z m 2.527315,-1.674037 0.84422,-1.389104 -0.257888,-0.422438 c -0.141836,-0.232341 -0.525861,-0.864973 -0.853382,-1.405844 l -0.595496,-0.983406 -1.633736,-0.02852 -1.63373,-0.02853 -0.829968,1.356933 c -0.45648,0.746312 -0.829966,1.400639 -0.829966,1.454068 0,0.05342 0.3789,0.726164 0.841993,1.494976 l 0.841993,1.397836 1.630868,-0.02846 1.630871,-0.02846 z M 5.910651,20.074803 C 5.4382906,19.291958 4.9813922,18.573392 4.8953124,18.477995 4.8092378,18.382596 4.7553668,18.24285 4.7756016,18.167446 4.7958469,18.09204 5.2536828,17.297116 5.79304,16.400947 l 0.9806429,-1.629398 2.124722,0.0038 2.1247291,0.0038 0.926165,1.562483 c 0.509386,0.859366 0.941902,1.649693 0.961141,1.756284 0.01926,0.106582 -0.39753,0.91365 -0.926164,1.793472 l -0.961142,1.599684 -2.1268216,0.0038 -2.1268289,0.0038 z m 2.0682939,0.918081 C 7.8896686,20.828854 7.4961444,20.174009 7.1044669,19.53768 6.7127828,18.90135 6.3923192,18.319767 6.3923192,18.245275 c 0,-0.150402 1.4602748,-2.594608 1.7209259,-2.880481 0.1399573,-0.153495 0.3621949,-0.181149 1.4558087,-0.181149 0.7877852,0 1.2906372,-0.04034 1.2906372,-0.103523 0,-0.06516 -0.71663,-0.103155 -1.9340459,-0.102526 l -1.9340474,0.0011 -0.9539295,1.591851 -0.9539299,1.591851 0.9523623,1.564418 0.9523567,1.564424 H 7.5648702 8.1412775 L 7.9789449,20.993026 Z m 3.6053651,-1.376388 0.888055,-1.464107 -0.215966,-0.393641 c -0.118778,-0.216497 -0.184891,-0.441397 -0.146915,-0.499776 0.03841,-0.05903 0.0053,-0.08278 -0.07534,-0.05352 -0.162679,0.05931 -0.447192,-0.537855 -0.33698,-0.707272 0.0376,-0.0578 0.01382,-0.07261 -0.05328,-0.0332 -0.149843,0.08798 -0.496858,-0.515729 -0.390456,-0.679282 0.045,-0.06919 0.0269,-0.08778 -0.04454,-0.04584 -0.06619,0.03885 -0.173547,-0.02379 -0.238589,-0.139279 -0.108229,-0.192135 -0.224036,-0.20993 -1.3661016,-0.20993 H 8.3563605 L 8.1009147,15.778836 C 7.8559504,16.151094 7.3877026,16.94297 6.89199,17.823291 l -0.2331575,0.414067 0.863124,1.423353 0.8631185,1.423352 1.155597,-0.0016 1.155596,-0.0016 0.888062,-1.464109 z m 10.661732,0.616453 C 21.826547,19.537206 21.370528,18.809695 21.232665,18.616257 21.094801,18.42282 20.996737,18.21091 21.014743,18.14535 c 0.01799,-0.06556 0.474026,-0.850717 1.013378,-1.744793 l 0.980643,-1.625594 2.124728,0.0028 2.124728,0.0028 0.953398,1.599545 c 0.524376,0.87975 0.953404,1.67606 0.953404,1.769583 0,0.09353 -0.429028,0.884042 -0.953404,1.756702 l -0.953398,1.586659 -2.124728,0.0028 -2.124728,0.0028 -0.762722,-1.264988 z m 1.449012,0.825261 c -0.590845,-0.882272 -1.612449,-2.660786 -1.612449,-2.807121 0,-0.204105 1.590208,-2.872902 1.780282,-2.987798 0.0696,-0.04204 0.82523,-0.0772 1.679209,-0.07807 0.961368,-0.0011 1.552682,-0.041 1.552682,-0.1051 0,-0.06522 -0.715433,-0.102514 -1.934046,-0.100821 l -1.934048,0.0028 -0.953709,1.58717 -0.95371,1.587169 0.95371,1.566209 c 0.878216,1.44223 0.978422,1.566308 1.265885,1.567396 0.297378,0.0011 0.304777,-0.0098 0.156194,-0.231736 z m 4.126518,-1.4435 0.890231,-1.468157 -0.43143,-0.76015 c -0.237282,-0.418079 -0.397409,-0.81244 -0.355836,-0.876348 0.04507,-0.06923 0.02661,-0.08744 -0.04557,-0.04506 -0.149844,0.08798 -0.496859,-0.515731 -0.390458,-0.679284 0.045,-0.06919 0.0269,-0.08779 -0.04454,-0.04584 -0.06619,0.03885 -0.173548,-0.02379 -0.238589,-0.13928 -0.110327,-0.195839 -0.222624,-0.20993 -1.672671,-0.20993 h -1.554414 l -0.464678,0.802252 c -0.255573,0.441238 -0.509109,0.872127 -0.563415,0.957528 -0.05431,0.0854 -0.217753,0.371026 -0.363223,0.634719 l -0.264493,0.479448 0.246572,0.400444 c 0.135618,0.220246 0.525798,0.854625 0.867064,1.409736 l 0.620484,1.009284 1.437369,-5.49e-4 1.437367,-5.49e-4 0.890237,-1.468164 z m 10.501812,0.356118 C 37.817122,19.1313 37.358753,18.415544 37.304778,18.38025 c -0.1552,-0.101476 -0.08067,-0.255273 0.958431,-1.977803 l 0.980642,-1.625617 2.124728,0.0011 2.124723,0.0011 0.953404,1.598051 c 0.524375,0.878926 0.953403,1.674389 0.953403,1.767698 0,0.0933 -0.429028,0.885585 -0.953403,1.760619 l -0.953404,1.590974 -2.124723,5.15e-4 -2.124728,5.17e-4 -0.920467,-1.526416 z m 5.687983,-0.297353 0.844943,-1.404668 -0.245022,-0.507416 c -0.134763,-0.279079 -0.282083,-0.50742 -0.327383,-0.50742 -0.04529,0 -0.08237,-0.04874 -0.08237,-0.108337 0,-0.05959 -0.224931,-0.478828 -0.499854,-0.93165 l -0.49986,-0.823304 h -1.778768 -1.778771 l -0.504766,0.854007 c -0.277619,0.46971 -0.549173,0.923885 -0.603455,1.009285 -0.05427,0.08541 -0.200083,0.346467 -0.324005,0.580143 l -0.225325,0.424866 0.846482,1.408736 0.846475,1.408745 1.743365,5.49e-4 1.743364,0.0011 0.844945,-1.404667 z m -5.791196,-2.393619 c 0.310573,-0.498178 0.656611,-1.060136 0.768981,-1.248803 0.112374,-0.188673 0.28394,-0.458499 0.381271,-0.599624 l 0.176967,-0.256594 1.931993,0.03027 c 1.511149,0.02369 1.920579,0.0023 1.879579,-0.09911 -0.03923,-0.09687 -0.535678,-0.128826 -1.974799,-0.127133 l -1.92239,0.0023 -0.59928,1.005999 c -0.329609,0.553304 -0.761479,1.274314 -0.959713,1.602249 -0.198237,0.32793 -0.334973,0.596245 -0.303857,0.596245 0.03112,0 0.310676,-0.407599 0.621248,-0.90577 z m 5.981374,-0.750501 c -0.06414,-0.113863 -0.141143,-0.207028 -0.171107,-0.207028 -0.02996,0 -0.0018,0.09316 0.06216,0.207028 0.06415,0.113865 0.141143,0.207035 0.171107,0.207035 0.02996,0 0.0018,-0.09317 -0.06216,-0.207035 z m -29.849247,-0.59681 c -0.506154,-0.838901 -0.964528,-1.554152 -1.018602,-1.58944 -0.155905,-0.101742 -0.07986,-0.258867 0.958246,-1.979694 l 0.980642,-1.625594 2.124728,4.12e-4 2.124723,4.17e-4 0.953404,1.601156 c 0.524369,0.88064 0.953402,1.677951 0.953402,1.771803 0,0.09386 -0.429033,0.884636 -0.953402,1.757301 l -0.953404,1.586658 -2.124723,0.0011 -2.124728,0.0011 -0.920286,-1.525279 z m 1.93412,1.192034 c -0.158327,-0.119177 -1.346225,-2.015965 -1.619863,-2.586524 -0.104118,-0.217102 -0.01718,-0.414156 0.722779,-1.63802 0.462631,-0.765178 0.916925,-1.449463 1.009542,-1.52063 0.115808,-0.08898 0.620202,-0.129393 1.615121,-0.129393 1.241208,0 1.437807,-0.02203 1.383999,-0.155276 -0.05253,-0.130036 -0.37515,-0.154865 -1.985105,-0.15276 l -1.922386,0.0028 -0.926163,1.552954 c -0.509388,0.854131 -0.91043,1.609966 -0.891197,1.679634 0.01919,0.06968 0.435999,0.789753 0.926163,1.600187 l 0.891197,1.473522 0.483906,0.0016 c 0.406013,0.0011 0.45624,-0.01924 0.312007,-0.127805 z m 3.073811,-0.287571 c 0.06503,-0.115465 0.17241,-0.178138 0.23859,-0.139279 0.07181,0.04215 0.08954,0.02335 0.04397,-0.04672 -0.104769,-0.161063 0.133918,-0.558342 0.282904,-0.470865 0.07148,0.04198 0.08959,0.02335 0.04454,-0.04584 -0.106411,-0.163553 0.240614,-0.767262 0.390452,-0.679282 0.07227,0.04242 0.09059,0.02413 0.0454,-0.04534 -0.0881,-0.135414 0.229913,-0.773547 0.350272,-0.702874 0.04454,0.02616 0.09126,-0.03055 0.103832,-0.126013 0.08051,-0.611083 0.08405,-0.933524 0.0097,-0.889922 -0.123609,0.07258 -0.445086,-0.561557 -0.354928,-0.700139 0.04518,-0.06949 0.0269,-0.08777 -0.04541,-0.04534 -0.149837,0.08798 -0.496852,-0.515729 -0.390451,-0.679282 0.04518,-0.06949 0.0269,-0.08777 -0.04541,-0.04534 -0.13548,0.07954 -0.501843,-0.508058 -0.407347,-0.653321 0.0324,-0.04985 -0.644151,-0.09685 -1.504903,-0.104626 l -1.563777,-0.01412 -0.876348,1.443664 -0.876353,1.443663 0.812961,1.355445 0.812959,1.355438 h 1.405473 c 1.300424,0 1.414304,-0.01571 1.52373,-0.209934 z m 11.229336,-0.904716 c -0.504951,-0.838764 -0.963325,-1.553899 -1.018602,-1.589187 -0.158091,-0.100934 -0.08529,-0.251542 0.956066,-1.977804 l 0.980642,-1.625622 2.124723,1.05e-4 2.124727,1.04e-4 0.953405,1.59172 c 0.524368,0.875446 0.953404,1.671301 0.953404,1.76856 0,0.09726 -0.429036,0.892775 -0.953404,1.76781 l -0.953405,1.590972 -2.124727,-0.0011 -2.124723,-0.0011 -0.918106,-1.525026 z m 1.279444,1.14053 c -0.244617,-0.272265 -1.614381,-2.588288 -1.614381,-2.729629 0,-0.06761 0.404513,-0.790518 0.898919,-1.606458 l 0.898924,-1.483535 1.821665,-0.0016 c 1.574051,-0.0016 1.813143,-0.0227 1.758948,-0.156871 -0.05253,-0.130086 -0.374544,-0.154717 -1.985107,-0.151848 l -1.922384,0.0033 -0.926164,1.553087 c -0.509388,0.8542 -0.909835,1.609624 -0.889872,1.678725 0.106047,0.367129 1.838982,3.07244 1.969123,3.074007 0.127706,0.0016 0.126104,-0.02819 -0.0096,-0.179309 z M 35.5403,16.941736 c 0.03766,-0.05787 0.121662,-0.07395 0.186707,-0.03577 0.06949,0.04078 0.08702,0.02137 0.04252,-0.04705 -0.106411,-0.163553 0.240614,-0.767262 0.390451,-0.679282 0.07227,0.04242 0.09059,0.02413 0.0454,-0.04534 -0.106399,-0.163552 0.240615,-0.76726 0.390458,-0.679282 0.07227,0.04242 0.09059,0.02413 0.04541,-0.04534 -0.0881,-0.135417 0.229913,-0.773549 0.350271,-0.702876 0.08442,0.04957 0.131557,-0.169115 0.131557,-0.610115 0,-0.439837 -0.04708,-0.659718 -0.130729,-0.610599 -0.120015,0.07046 -0.330842,-0.359009 -0.242726,-0.494457 0.04575,-0.07035 0.02782,-0.08888 -0.04478,-0.04622 -0.149844,0.08798 -0.496859,-0.515729 -0.390458,-0.679282 0.04518,-0.06949 0.0269,-0.08777 -0.04541,-0.04534 -0.137335,0.08063 -0.501206,-0.509042 -0.405189,-0.656637 0.03576,-0.05497 -0.711864,-0.08586 -1.805328,-0.0746 l -1.866368,0.01924 -0.867028,1.416818 -0.86703,1.416818 0.673467,1.119339 c 0.370402,0.615633 0.74255,1.224151 0.826994,1.352252 0.148425,0.225158 0.209452,0.232912 1.833482,0.232912 1.0204,0 1.706811,-0.04133 1.748379,-0.105207 z M 6.0109552,12.158657 C 5.5914597,11.462916 5.1354406,10.735404 4.9975774,10.541966 4.8597143,10.348529 4.7616488,10.134625 4.7796562,10.066624 4.7976458,9.9986207 5.2536825,9.2128838 5.7930397,8.3205329 l 0.9806432,-1.6224505 2.124722,0.00379 2.1247291,0.00379 0.953403,1.599546 c 0.52437,0.8797428 0.953397,1.6732954 0.953397,1.7634446 0,0.09014 -0.429027,0.880178 -0.953397,1.75562 l -0.953403,1.591725 -2.1247291,0.0038 -2.124722,0.0038 -0.7627277,-1.264988 z m 1.1905465,-0.25912 C 6.7564502,11.175025 6.3923192,10.523022 6.3923192,10.450635 c 0,-0.07238 0.3973292,-0.7839133 0.8829473,-1.5811734 L 8.1582149,7.4199005 H 9.6155795 11.072939 L 10.94883,7.1611038 10.824721,6.9023131 l -1.9165543,0.00166 -1.9165591,0.00166 -0.9552607,1.5859229 -0.9552604,1.585921 0.9552604,1.568754 0.9552607,1.568753 0.5095438,0.0011 0.5095438,0.0011 z m 3.6598203,0.900325 c 0.06505,-0.115465 0.172414,-0.178138 0.23859,-0.139279 0.07148,0.04198 0.08956,0.02335 0.04454,-0.04584 -0.106411,-0.16356 0.240614,-0.767263 0.390452,-0.679285 0.07227,0.04242 0.09059,0.02413 0.04541,-0.04534 -0.1064,-0.163558 0.240607,-0.76726 0.39045,-0.679282 0.07262,0.04265 0.09056,0.02413 0.04478,-0.04622 -0.08812,-0.135449 0.12271,-0.564926 0.242725,-0.494456 0.04408,0.02589 0.09043,-0.03105 0.102995,-0.126497 0.08051,-0.6110824 0.08405,-0.9335231 0.0097,-0.8899207 -0.123609,0.072584 -0.445086,-0.5615585 -0.354934,-0.7001391 0.045,-0.069189 0.0269,-0.087797 -0.04454,-0.045837 -0.148988,0.087477 -0.387686,-0.3098001 -0.282911,-0.4708641 0.04575,-0.070351 0.02782,-0.088876 -0.04478,-0.046216 C 11.508457,8.4701571 11.141902,7.882705 11.23629,7.7376169 11.26858,7.6879969 10.620912,7.6419459 9.7970188,7.6353279 L 8.2990317,7.6232958 7.4818251,8.9895776 C 7.032366,9.7410328 6.6707848,10.413607 6.6783164,10.484181 c 0.00749,0.07058 0.3433876,0.667709 0.7463452,1.326966 l 0.7326486,1.198639 h 1.2928282 c 1.1872676,0 1.3024896,-0.01715 1.4110906,-0.209929 z M 22.088298,11.896536 C 21.582033,11.057009 21.123666,10.341247 21.069692,10.30596 20.91519,10.204944 20.987247,10.056132 22.028121,8.3266548 l 0.980643,-1.6294025 2.124728,0.00379 2.124728,0.00379 0.953398,1.5980505 c 0.524376,0.8789266 0.953404,1.6750341 0.953404,1.7691222 0,0.09409 -0.429028,0.885185 -0.953404,1.757983 l -0.953398,1.586906 -2.124728,0.0033 -2.124728,0.0033 -0.920466,-1.526416 z m 1.500384,1.139134 c -0.302745,-0.338323 -1.506077,-2.389773 -1.506077,-2.56757 0,-0.216766 1.490857,-2.7389319 1.725317,-2.9188065 0.118466,-0.09088 0.664396,-0.129393 1.834379,-0.129393 h 1.665725 l -0.124108,-0.2587967 -0.124109,-0.2587907 -1.91656,5.491e-4 -1.916554,5.502e-4 -0.926158,1.5567353 c -0.509394,0.8562003 -0.910505,1.6128233 -0.891364,1.6813793 0.01915,0.06856 0.435911,0.788243 0.926157,1.599304 0.757268,1.252803 0.930794,1.474725 1.153417,1.47511 0.238693,4.17e-4 0.247596,-0.01567 0.09994,-0.1807 z m 3.507728,-0.235808 c 0.06505,-0.115465 0.172407,-0.178138 0.238589,-0.139279 0.07148,0.04198 0.08956,0.02335 0.04454,-0.04584 -0.106389,-0.16356 0.240614,-0.767263 0.390451,-0.679285 0.07262,0.04265 0.09057,0.02413 0.04482,-0.04622 -0.104769,-0.161064 0.133918,-0.558343 0.282904,-0.470865 0.07148,0.04198 0.08958,0.02335 0.04454,-0.04584 -0.0881,-0.135416 0.229914,-0.773548 0.350267,-0.702875 0.04454,0.02616 0.09126,-0.03055 0.103832,-0.126014 0.0805,-0.6110819 0.08405,-0.9335236 0.0097,-0.8899222 -0.123609,0.072584 -0.445081,-0.5615565 -0.354928,-0.7001383 0.04518,-0.069486 0.0269,-0.087772 -0.04541,-0.045339 -0.149843,0.087986 -0.496858,-0.5157243 -0.390457,-0.6792825 0.045,-0.069189 0.0269,-0.087785 -0.04454,-0.045837 -0.135456,0.07953 -0.392168,-0.3029037 -0.299229,-0.4457776 0.03407,-0.052372 -0.710713,-0.097889 -1.723459,-0.1052658 l -1.783456,-0.01297 -0.832066,1.3903854 c -0.457633,0.7647103 -0.832061,1.423232 -0.832061,1.463383 0,0.06413 0.959331,1.669048 1.377184,2.303965 0.14746,0.224064 0.213057,0.232912 1.726861,0.232912 1.469305,0 1.581415,-0.0139 1.691836,-0.209929 z M 38.323571,11.895399 C 37.81741,11.056492 37.359043,10.341247 37.304963,10.30596 37.149065,10.204218 37.225119,10.047086 38.263209,8.3262587 l 0.980642,-1.6255885 2.124728,4.128e-4 2.124723,4.114e-4 0.953404,1.6011613 c 0.524375,0.8806392 0.953403,1.6779515 0.953403,1.7718043 0,0.09386 -0.429028,0.884635 -0.953403,1.7573 l -0.953404,1.586658 -2.124723,0.0011 -2.124728,0.0011 -0.92028,-1.525272 z m 5.007925,0.904463 c 0.06505,-0.115465 0.17241,-0.178138 0.23859,-0.139279 0.07182,0.04215 0.08955,0.02335 0.04397,-0.04672 -0.104769,-0.161063 0.133918,-0.558342 0.282904,-0.470864 0.07149,0.04198 0.08956,0.02335 0.04454,-0.04584 -0.1064,-0.163558 0.240614,-0.767261 0.390451,-0.679283 0.07229,0.04242 0.09059,0.02413 0.04541,-0.04534 -0.09056,-0.139191 0.231584,-0.772565 0.35583,-0.699611 0.04761,0.02792 0.0773,-0.07535 0.06603,-0.229527 -0.01124,-0.154189 -0.3663,-0.8393302 -0.788937,-1.5225367 L 43.241855,7.6786722 H 41.423002 39.60415 l -0.771549,1.2421973 c -0.545697,0.878574 -0.776327,1.3543835 -0.787855,1.6254465 -0.009,0.210781 0.02216,0.36065 0.0692,0.333042 0.123523,-0.07252 0.444895,0.561727 0.354801,0.700219 -0.045,0.06919 -0.0269,0.08778 0.04454,0.04584 0.148989,-0.08747 0.387681,0.309801 0.282907,0.470864 -0.04575,0.07035 -0.02782,0.08888 0.04478,0.04622 0.149844,-0.08798 0.496852,0.515724 0.390458,0.679283 -0.04454,0.06843 -0.02702,0.08783 0.04252,0.04704 0.06505,-0.03819 0.149067,-0.02209 0.186708,0.03579 0.04199,0.06456 0.780284,0.105206 1.910504,0.105206 1.739026,0 1.848672,-0.01174 1.960319,-0.20993 z m -4.221829,-4.7847447 0.347929,-0.5952168 1.963374,5.491e-4 1.963375,5.503e-4 0.544799,0.8994345 c 0.29964,0.4946865 0.674797,1.1262411 0.833687,1.4034471 0.158884,0.2772075 0.312406,0.4660785 0.341167,0.4197175 0.02875,-0.04638 -0.370917,-0.7932603 -0.888165,-1.659782 L 43.275386,6.9083247 41.368579,6.9080116 39.461773,6.9077045 38.518978,8.4754252 c -0.518533,0.8622459 -0.916,1.6340468 -0.88326,1.7151098 0.05593,0.138435 0.532364,-0.5648466 1.473949,-2.175681 z M 14.354484,7.8580001 C 13.849527,7.0192357 13.391154,6.3041005 13.335877,6.2688075 13.178485,6.1683327 13.248826,6.0227114 14.291942,4.289504 l 0.980642,-1.6293978 2.124728,0.00273 2.124723,0.00273 0.953404,1.5917245 c 0.524369,0.8754474 0.953402,1.6719394 0.953402,1.7699851 0,0.098044 -0.429033,0.8923674 -0.953402,1.76517 l -0.953404,1.5869065 -2.124723,0.00164 -2.124728,0.00164 -0.9181,-1.5250257 z m 1.779257,1.2424557 C 15.901855,8.9528666 14.632663,6.7439921 14.651109,6.5201363 14.661467,6.3953377 15.051001,5.6733108 15.516901,4.9156281 l 0.847083,-1.3776029 1.606264,-0.02863 c 0.883447,-0.015774 1.606265,-0.04853 1.606265,-0.072771 0,-0.024288 -0.05692,-0.1627671 -0.126449,-0.3077828 l -0.126446,-0.2636595 -1.916559,5.491e-4 -1.916554,5.503e-4 -0.926163,1.5567292 c -0.509388,0.8562063 -0.909835,1.6128288 -0.889873,1.6813856 0.01995,0.06856 0.436729,0.7876163 0.92616,1.5979129 0.877897,1.4534298 0.895007,1.4732688 1.271235,1.4735275 0.209753,1.043e-4 0.327596,-0.033966 0.261877,-0.075795 z m 3.226488,-0.3377401 c 0.06503,-0.1154651 0.17241,-0.1781383 0.23859,-0.139285 0.07148,0.041983 0.08956,0.023351 0.04454,-0.045837 -0.106411,-0.1635581 0.240614,-0.7672605 0.390456,-0.6792824 0.07262,0.042647 0.09057,0.024122 0.04478,-0.046216 -0.104769,-0.1610628 0.133919,-0.5583417 0.282905,-0.4708641 0.07148,0.041983 0.08956,0.023351 0.04454,-0.045837 -0.0881,-0.1354166 0.229912,-0.7735486 0.350272,-0.7028807 0.08442,0.049573 0.131558,-0.1691097 0.131558,-0.6101101 0,-0.4398371 -0.04708,-0.6597188 -0.130731,-0.6106058 -0.120014,0.07047 -0.330836,-0.359002 -0.242726,-0.4944565 0.04575,-0.070351 0.02782,-0.088876 -0.04478,-0.046216 -0.149844,0.087975 -0.496859,-0.5157242 -0.390457,-0.6792836 0.04616,-0.070921 0.02673,-0.08769 -0.04957,-0.042861 -0.07486,0.043963 -0.176442,-0.03297 -0.252247,-0.1910357 L 19.65045,3.6933158 h -1.554052 -1.554054 l -0.830875,1.3607921 c -0.45698,0.7484333 -0.84075,1.3981604 -0.852822,1.443846 -0.01211,0.045671 0.296759,0.6209082 0.68629,1.278286 l 0.708244,1.1952379 1.494368,5.502e-4 c 1.390073,5.159e-4 1.502622,-0.014066 1.612633,-0.2093421 z M 30.635987,7.9213256 C 30.156563,7.1161998 29.699433,6.3944423 29.62015,6.3174165 29.540856,6.2403884 29.491831,6.1182688 29.511184,6.0460403 c 0.01937,-0.072237 0.47649,-0.86285 1.015842,-1.7569264 l 0.980643,-1.6255944 2.124723,0.00109 2.124727,0.0011 0.953404,1.586906 c 0.524369,0.8728027 0.953403,1.6698888 0.953403,1.7713146 0,0.1014228 -0.429034,0.8983956 -0.953403,1.7710619 l -0.953404,1.5866582 -2.124727,0.00225 -2.124723,0.00225 -0.871685,-1.4638599 z m 1.253042,1.2192691 c 0,-0.02149 -0.07466,-0.09796 -0.165929,-0.1699162 -0.138749,-0.1093928 -0.15469,-0.1029887 -0.09731,0.039078 0.05861,0.1451047 0.263238,0.2468055 0.263238,0.1308329 z m 3.706288,-0.377879 c 0.06503,-0.1154651 0.172408,-0.1781383 0.23859,-0.139285 0.07182,0.042149 0.08954,0.023351 0.04397,-0.046715 -0.10477,-0.1610641 0.133917,-0.558343 0.282905,-0.4708641 0.07148,0.041983 0.08956,0.023351 0.04454,-0.045837 -0.1064,-0.1635582 0.240614,-0.7672664 0.390456,-0.6792824 0.07227,0.042422 0.09059,0.024122 0.0454,-0.045339 -0.0881,-0.1354166 0.229913,-0.7735486 0.350272,-0.7028807 0.04454,0.026163 0.08401,-0.03055 0.08773,-0.1260083 0.0035,-0.095458 0.02649,-0.2293611 0.05062,-0.2975669 0.02412,-0.068204 -0.274882,-0.6627299 -0.664413,-1.3211631 l -0.708243,-1.1971498 -1.797843,0.027206 -1.797844,0.027206 -0.847643,1.4044863 -0.847646,1.4044863 0.72414,1.2093058 0.724132,1.209307 h 1.781317 c 1.678005,0 1.788177,-0.012203 1.899582,-0.2099303 z M 31.398708,8.4550634 c -0.09298,-0.1708008 -0.193552,-0.3105472 -0.223515,-0.3105472 -0.02996,0 0.02157,0.1397464 0.114558,0.3105472 0.09297,0.170802 0.193551,0.3105485 0.223515,0.3105485 0.02996,0 -0.02158,-0.1397465 -0.114558,-0.3105485 z M 30.962872,7.7304477 C 30.869893,7.5596469 30.769314,7.4199005 30.73935,7.4199005 c -0.02996,0 0.02157,0.1397464 0.11456,0.3105472 0.09297,0.170802 0.193557,0.3105484 0.22352,0.3105484 0.02996,0 -0.02157,-0.1397464 -0.114558,-0.3105484 z M 30.527029,7.0058331 c -0.09296,-0.1708019 -0.193552,-0.3105543 -0.223516,-0.3105543 -0.02996,0 0.02158,0.1397524 0.114547,0.3105543 0.09298,0.1708008 0.193556,0.3105473 0.22352,0.3105473 0.02996,0 -0.02158,-0.1397465 -0.114559,-0.3105473 z M 30.363585,6.3624854 c 0,-0.062441 0.376633,-0.7351459 0.836962,-1.4948827 l 0.83696,-1.381334 h 1.865256 c 1.346788,0 1.903186,0.035946 2.001709,0.1293929 0.07505,0.071169 0.0236,-0.068193 -0.114409,-0.3096968 l -0.250865,-0.4390887 -1.906806,0.00225 -1.906802,0.00225 -0.944755,1.5709525 c -0.919911,1.5296526 -0.940562,1.5786565 -0.785322,1.8638597 0.149728,0.2750739 0.36807,0.3088003 0.36807,0.056855 z M 14.996794,44.73313 c 0.87478,-1.407048 0.916047,-1.496811 0.687187,-1.494735 -0.125282,0.0011 -0.335896,0.247421 -0.59755,0.698738 -0.222236,0.383342 -0.583232,0.992627 -0.802207,1.353971 -0.389543,0.642803 -0.391879,0.653092 -0.108295,0.476564 0.159416,-0.09924 0.5288,-0.564778 0.820862,-1.034538 z M 3.2273956,41.243944 c 0.08342,-0.185034 0.1718012,-0.371366 0.1964086,-0.414066 0.1267568,-0.219933 -0.6741781,-0.02781 -1.3912349,0.333705 l -0.8158647,0.411343 0.9295133,0.0028 0.9295127,0.0028 0.151665,-0.336427 z m 44.1424394,-0.93644 c -0.143394,-0.358316 -1.219152,-2.062623 -1.270895,-2.013465 -0.045,0.04275 1.258862,2.251169 1.329064,2.251169 0.0203,0 -0.0058,-0.106962 -0.05817,-0.237704 z M 3.1235109,33.359271 c 0,-0.02379 0.029733,-0.116983 0.066135,-0.207033 0.090812,-0.224818 -0.3904253,-0.205902 -1.1012595,0.04331 l -0.5448015,0.190987 0.7899622,0.0081 c 0.4344792,0.0044 0.789964,-0.01138 0.789964,-0.03528 z M 2.9343273,25.255397 c -0.1340152,-0.02457 -0.3791754,-0.02523 -0.5448021,-0.0016 -0.1656261,0.02379 -0.055978,0.04391 0.2436625,0.04467 0.2996414,5.5e-4 0.435156,-0.01868 0.3011396,-0.04325 z m 0.109536,-6.206025 c -0.07377,-0.02836 -0.2208669,-0.03006 -0.326882,-0.0038 -0.1060153,0.02626 -0.045657,0.04946 0.1341269,0.05156 0.1797861,0.0021 0.2665254,-0.01934 0.1927551,-0.0477 z M 3.1629148,11.094736 C 3.1136883,10.972823 2.9095695,10.942103 2.2129287,10.951757 l -0.8872653,0.01231 0.5448016,0.133042 c 0.7966034,0.194526 1.3715477,0.193476 1.2924498,-0.0023 z M 46.843833,5.0013968 c 0.673913,-1.1501904 0.857236,-1.6226876 0.266548,-0.6869982 -0.749273,1.1869006 -1.069494,1.7597241 -0.982783,1.7580483 0.04934,-0.00109 0.37165,-0.4829277 0.716235,-1.0710501 z M 7.782699,4.9613944 C 7.5970667,4.7622243 6.6137458,3.2001143 6.6043973,3.0895436 6.6009274,3.0515692 6.3297994,2.8991176 6.0013123,2.7508097 5.6728193,2.6025066 5.4180331,2.5132535 5.4351091,2.5524756 5.4521732,2.5917069 5.809381,3.1899862 6.2288759,3.8820188 l 0.7627218,1.2582444 0.4799731,0.0011 C 7.9203941,5.1424532 7.9405821,5.1308082 7.782699,4.961351 Z m 15.71232,0.04847 C 23.318595,4.8770531 22.304836,3.2768703 22.294494,3.1148836 22.290968,3.06295 22.144824,2.9126915 21.969263,2.7809741 c -0.271029,-0.2033459 -0.200238,-0.043525 0.469109,1.0591241 0.59689,0.9832688 0.84123,1.29828 1.006235,1.2972411 0.19038,-0.00109 0.196749,-0.017315 0.05044,-0.1274753 z M 3.3414322,3.4393971 c 0,-0.025771 -0.05692,-0.1655375 -0.1264502,-0.3105531 C 3.0935759,2.8757079 3.0511693,2.8653047 2.1526161,2.8682008 l -0.9359115,0.00273 0.7627217,0.3011616 C 2.652964,3.438031 3.3414322,3.5730062 3.3414322,3.4391078 Z"
     id="path1083" />
</svg>
