<?xml version="1.0" encoding="UTF-8" standalone="no"?>
<svg
   xmlns:dc="http://purl.org/dc/elements/1.1/"
   xmlns:cc="http://creativecommons.org/ns#"
   xmlns:rdf="http://www.w3.org/1999/02/22-rdf-syntax-ns#"
   xmlns:svg="http://www.w3.org/2000/svg"
   xmlns="http://www.w3.org/2000/svg"
   xmlns:xlink="http://www.w3.org/1999/xlink"
   id="svg11300"
   height="48"
   width="48"
   version="1.1"
   viewBox="0 0 48 48">
  <defs
     id="defs3">
    <linearGradient
       id="linearGradient3253">
      <stop
         style="stop-color:#89d5f8;stop-opacity:1;"
         offset="0"
         id="stop3255" />
      <stop
         style="stop-color:#00899e;stop-opacity:1;"
         offset="1"
         id="stop3257" />
    </linearGradient>
    <linearGradient
       id="linearGradient11979">
      <stop
         style="stop-color:#ffffff;stop-opacity:1;"
         offset="0"
         id="stop11981" />
      <stop
         style="stop-color:#729fcf;stop-opacity:1"
         offset="1"
         id="stop11983" />
    </linearGradient>
    <linearGradient
       id="linearGradient2846">
      <stop
         id="stop2848"
         offset="0.0000000"
         style="stop-color:#8a8a8a;stop-opacity:1.0000000;" />
      <stop
         id="stop2850"
         offset="1.0000000"
         style="stop-color:#484848;stop-opacity:1.0000000;" />
    </linearGradient>
    <linearGradient
       id="linearGradient2366">
      <stop
         id="stop2368"
         offset="0"
         style="stop-color:#ffffff;stop-opacity:1;" />
      <stop
         style="stop-color:#ffffff;stop-opacity:0.21904762;"
         offset="0.50000000"
         id="stop2374" />
      <stop
         id="stop2370"
         offset="1.0000000"
         style="stop-color:#ffffff;stop-opacity:1.0000000;" />
    </linearGradient>
    <linearGradient
       id="linearGradient4467">
      <stop
         style="stop-color:#ffffff;stop-opacity:1;"
         offset="0"
         id="stop4469" />
      <stop
         style="stop-color:#ffffff;stop-opacity:0.24761905;"
         offset="1.0000000"
         id="stop4471" />
    </linearGradient>
    <linearGradient
       id="linearGradient4454">
      <stop
         style="stop-color:#729fcf;stop-opacity:0.20784314;"
         offset="0.0000000"
         id="stop4456" />
      <stop
         style="stop-color:#729fcf;stop-opacity:0.67619050;"
         offset="1.0000000"
         id="stop4458" />
    </linearGradient>
    <linearGradient
       id="linearGradient4440">
      <stop
         style="stop-color:#7d7d7d;stop-opacity:1;"
         offset="0"
         id="stop4442" />
      <stop
         id="stop4448"
         offset="0.50000000"
         style="stop-color:#b1b1b1;stop-opacity:1.0000000;" />
      <stop
         style="stop-color:#686868;stop-opacity:1.0000000;"
         offset="1.0000000"
         id="stop4444" />
    </linearGradient>
    <radialGradient
       gradientUnits="userSpaceOnUse"
       gradientTransform="matrix(0.914812,0.01265023,-0.00821502,0.213562,2.253914,27.18889)"
       r="10.31934"
       fy="35.127438"
       fx="23.070683"
       cy="35.127438"
       cx="23.070683"
       id="radialGradient2097"
       xlink:href="#linearGradient2091" />
    <linearGradient
       gradientUnits="userSpaceOnUse"
       y2="34.976799"
       x2="27.900846"
       y1="22.851799"
       x1="16.874998"
       id="linearGradient7922"
       xlink:href="#linearGradient7916" />
    <linearGradient
       y2="50.939667"
       x2="45.380436"
       y1="45.264122"
       x1="46.834816"
       gradientUnits="userSpaceOnUse"
       id="linearGradient7186"
       xlink:href="#linearGradient2871" />
    <linearGradient
       y2="26.649363"
       x2="53.588623"
       y1="23.667896"
       x1="18.935766"
       gradientUnits="userSpaceOnUse"
       id="linearGradient7184"
       xlink:href="#linearGradient2402" />
    <linearGradient
       y2="50.939667"
       x2="45.380436"
       y1="45.264122"
       x1="46.834816"
       gradientUnits="userSpaceOnUse"
       id="linearGradient7182"
       xlink:href="#linearGradient2871" />
    <linearGradient
       y2="20.60858"
       x2="15.984863"
       y1="36.061237"
       x1="62.513836"
       gradientUnits="userSpaceOnUse"
       id="linearGradient7180"
       xlink:href="#linearGradient2380" />
    <linearGradient
       gradientTransform="rotate(180,23.96967,25.01237)"
       y2="23.554308"
       x2="22.374878"
       y1="13.604306"
       x1="13.435029"
       gradientUnits="userSpaceOnUse"
       id="linearGradient7189"
       xlink:href="#linearGradient7179" />
    <linearGradient
       gradientUnits="userSpaceOnUse"
       y2="23.554308"
       x2="22.374878"
       y1="13.604306"
       x1="13.435029"
       id="linearGradient7185"
       xlink:href="#linearGradient7179" />
    <linearGradient
       gradientTransform="translate(-18.01785,-13.57119)"
       gradientUnits="userSpaceOnUse"
       y2="48.547989"
       x2="45.918697"
       y1="36.422989"
       x1="34.892849"
       id="linearGradient4975"
       xlink:href="#linearGradient1322" />
    <linearGradient
       id="linearGradient1322">
      <stop
         style="stop-color:#729fcf"
         offset="0.0000000"
         id="stop1324" />
      <stop
         style="stop-color:#5187d6;stop-opacity:1.0000000;"
         offset="1.0000000"
         id="stop1326" />
    </linearGradient>
    <linearGradient
       id="linearGradient2316">
      <stop
         id="stop2318"
         offset="0"
         style="stop-color:#000000;stop-opacity:1;" />
      <stop
         id="stop2320"
         offset="1"
         style="stop-color:#ffffff;stop-opacity:0.65979379;" />
    </linearGradient>
    <linearGradient
       id="linearGradient7179">
      <stop
         id="stop7181"
         offset="0"
         style="stop-color:#ffffff;stop-opacity:1;" />
      <stop
         id="stop7183"
         offset="1"
         style="stop-color:#ffffff;stop-opacity:0;" />
    </linearGradient>
    <linearGradient
       y2="26.048164"
       x2="52.854095"
       y1="26.048164"
       x1="5.9649177"
       gradientUnits="userSpaceOnUse"
       id="linearGradient1491"
       xlink:href="#linearGradient2797" />
    <linearGradient
       id="linearGradient2797">
      <stop
         id="stop2799"
         offset="0"
         style="stop-color:#ffffff;stop-opacity:1;" />
      <stop
         id="stop2801"
         offset="1"
         style="stop-color:#ffffff;stop-opacity:0;" />
    </linearGradient>
    <linearGradient
       y2="26.048164"
       x2="52.854095"
       y1="26.048164"
       x1="5.9649177"
       gradientUnits="userSpaceOnUse"
       id="linearGradient1493"
       xlink:href="#linearGradient2797" />
    <linearGradient
       id="linearGradient2402">
      <stop
         id="stop2404"
         offset="0"
         style="stop-color:#729fcf;stop-opacity:1;" />
      <stop
         id="stop2406"
         offset="1"
         style="stop-color:#528ac5;stop-opacity:1;" />
    </linearGradient>
    <linearGradient
       id="linearGradient2871">
      <stop
         id="stop2873"
         offset="0"
         style="stop-color:#3465a4;stop-opacity:1;" />
      <stop
         id="stop2875"
         offset="1"
         style="stop-color:#3465a4;stop-opacity:1" />
    </linearGradient>
    <linearGradient
       gradientTransform="translate(-48.77039,-5.765705)"
       gradientUnits="userSpaceOnUse"
       y2="24.842253"
       x2="37.124462"
       y1="30.748846"
       x1="32.647972"
       id="linearGradient2696"
       xlink:href="#linearGradient2690" />
    <linearGradient
       id="linearGradient2690">
      <stop
         id="stop2692"
         offset="0"
         style="stop-color:#c4d7eb;stop-opacity:1;" />
      <stop
         id="stop2694"
         offset="1"
         style="stop-color:#c4d7eb;stop-opacity:0;" />
    </linearGradient>
    <linearGradient
       gradientTransform="translate(-48.77039,-5.765705)"
       gradientUnits="userSpaceOnUse"
       y2="24.842253"
       x2="37.124462"
       y1="31.455952"
       x1="36.713837"
       id="linearGradient2688"
       xlink:href="#linearGradient2682" />
    <linearGradient
       id="linearGradient2682">
      <stop
         id="stop2684"
         offset="0"
         style="stop-color:#3977c3;stop-opacity:1;" />
      <stop
         id="stop2686"
         offset="1"
         style="stop-color:#89aedc;stop-opacity:0;" />
    </linearGradient>
    <linearGradient
       id="linearGradient2380">
      <stop
         id="stop2382"
         offset="0"
         style="stop-color:#b9cfe7;stop-opacity:1" />
      <stop
         id="stop2384"
         offset="1"
         style="stop-color:#729fcf;stop-opacity:1" />
    </linearGradient>
    <linearGradient
       y2="19.115122"
       x2="15.419417"
       y1="10.612206"
       x1="13.478554"
       gradientTransform="translate(-48.30498,-6.043298)"
       gradientUnits="userSpaceOnUse"
       id="linearGradient1486"
       xlink:href="#linearGradient2831" />
    <linearGradient
       id="linearGradient2831">
      <stop
         id="stop2833"
         offset="0"
         style="stop-color:#3465a4;stop-opacity:1;" />
      <stop
         style="stop-color:#5b86be;stop-opacity:1;"
         offset="0.33333334"
         id="stop2855" />
      <stop
         id="stop2835"
         offset="1"
         style="stop-color:#83a8d8;stop-opacity:0;" />
    </linearGradient>
    <linearGradient
       y2="26.194071"
       x2="37.065414"
       y1="29.729605"
       x1="37.128052"
       gradientTransform="rotate(180,-0.62124,20.04085)"
       gradientUnits="userSpaceOnUse"
       id="linearGradient1488"
       xlink:href="#linearGradient2847" />
    <linearGradient
       id="linearGradient2847">
      <stop
         id="stop2849"
         offset="0"
         style="stop-color:#3465a4;stop-opacity:1;" />
      <stop
         id="stop2851"
         offset="1"
         style="stop-color:#3465a4;stop-opacity:0;" />
    </linearGradient>
    <radialGradient
       r="15.644737"
       fy="36.421127"
       fx="24.837126"
       cy="36.421127"
       cx="24.837126"
       gradientTransform="matrix(1,0,0,0.536723,0,16.87306)"
       gradientUnits="userSpaceOnUse"
       id="radialGradient1503"
       xlink:href="#linearGradient8662" />
    <linearGradient
       id="linearGradient8662">
      <stop
         id="stop8664"
         offset="0"
         style="stop-color:#000000;stop-opacity:1;" />
      <stop
         id="stop8666"
         offset="1"
         style="stop-color:#000000;stop-opacity:0;" />
    </linearGradient>
    <linearGradient
       id="linearGradient7916">
      <stop
         id="stop7918"
         offset="0"
         style="stop-color:#ffffff;stop-opacity:1;" />
      <stop
         id="stop7920"
         offset="1.0000000"
         style="stop-color:#ffffff;stop-opacity:0.34020618;" />
    </linearGradient>
    <linearGradient
       id="linearGradient2091">
      <stop
         id="stop2093"
         offset="0"
         style="stop-color:#000000;stop-opacity:1;" />
      <stop
         id="stop2095"
         offset="1"
         style="stop-color:#000000;stop-opacity:0;" />
    </linearGradient>
    <linearGradient
       id="linearGradient3864">
      <stop
         style="stop-color:#71b2f8;stop-opacity:1;"
         offset="0"
         id="stop3866" />
      <stop
         style="stop-color:#002795;stop-opacity:1;"
         offset="1"
         id="stop3868" />
    </linearGradient>
    <radialGradient
       gradientTransform="matrix(1.6258409,0.5434973,-8.8819886e-2,0.2656996,-215.02413,-170.90186)"
       r="19.571428"
       fy="27.256668"
       fx="342.58258"
       cy="27.256668"
       cx="342.58258"
       gradientUnits="userSpaceOnUse"
       id="radialGradient2571"
       xlink:href="#linearGradient3864" />
    <radialGradient
       gradientTransform="translate(-0.1767767,-2.6516504)"
       r="19.571428"
       fy="15.560534"
       fx="345.28433"
       cy="15.560534"
       cx="345.28433"
       gradientUnits="userSpaceOnUse"
       id="radialGradient3352"
       xlink:href="#linearGradient3593" />
    <linearGradient
       id="linearGradient3593">
      <stop
         id="stop3595"
         offset="0"
         style="stop-color:#c8e0f9;stop-opacity:1;" />
      <stop
         id="stop3597"
         offset="1"
         style="stop-color:#637dca;stop-opacity:1;" />
    </linearGradient>
    <radialGradient
       gradientTransform="translate(-0.1767767,-2.6516504)"
       r="19.571428"
       fy="39.962704"
       fx="330.63791"
       cy="39.962704"
       cx="330.63791"
       gradientUnits="userSpaceOnUse"
       id="radialGradient3354"
       xlink:href="#linearGradient3593" />
    <radialGradient
       r="19.571428"
       fy="27.256668"
       fx="342.58258"
       cy="27.256668"
       cx="342.58258"
       gradientTransform="matrix(1.6258409,0.5434973,-8.8819886e-2,0.2656996,-461.81066,-173.06271)"
       gradientUnits="userSpaceOnUse"
       id="radialGradient3369"
       xlink:href="#linearGradient3864" />
    <radialGradient
       r="19.571428"
       fy="15.560534"
       fx="345.28433"
       cy="15.560534"
       cx="345.28433"
       gradientTransform="matrix(1.0012324,0,0,0.9421773,-327.50313,-4.3316646)"
       gradientUnits="userSpaceOnUse"
       id="radialGradient3372"
       xlink:href="#linearGradient3593" />
    <radialGradient
       r="19.571428"
       fy="39.962704"
       fx="330.63791"
       cy="39.962704"
       cx="330.63791"
       gradientTransform="matrix(1.0012324,0,0,0.9421773,-287.81791,-28.143054)"
       gradientUnits="userSpaceOnUse"
       id="radialGradient3375"
       xlink:href="#linearGradient3593" />
    <radialGradient
       r="19.571428"
       fy="113.23357"
       fx="320.44025"
       cy="113.23357"
       cx="320.44025"
       gradientTransform="matrix(0.9829174,1.3240854,-1.2330051,0.8105158,-131.04134,-483.74563)"
       gradientUnits="userSpaceOnUse"
       id="radialGradient3380"
       xlink:href="#linearGradient3864" />
    <linearGradient
       gradientTransform="matrix(1.0012324,0,0,0.9421773,-4.8699606,-2.3863162)"
       gradientUnits="userSpaceOnUse"
       y2="36.838673"
       x2="48.691113"
       y1="36.838673"
       x1="6.94525"
       id="linearGradient3914"
       xlink:href="#linearGradient3864" />
    <linearGradient
       y2="36.838673"
       x2="48.691113"
       y1="34.146042"
       x1="6.8300767"
       gradientTransform="matrix(1.0012324,0,0,0.9421773,-4.8699606,-2.3863162)"
       gradientUnits="userSpaceOnUse"
       id="linearGradient3792"
       xlink:href="#linearGradient3864" />
    <radialGradient
       r="19.571428"
       fy="39.962704"
       fx="330.63791"
       cy="39.962704"
       cx="330.63791"
       gradientTransform="matrix(1.0012324,0,0,0.9421773,-287.81791,-28.143054)"
       gradientUnits="userSpaceOnUse"
       id="radialGradient3812"
       xlink:href="#linearGradient3864" />
    <radialGradient
       r="19.571428"
       fy="15.560534"
       fx="345.28433"
       cy="15.560534"
       cx="345.28433"
       gradientTransform="matrix(1.0012324,0,0,0.9421773,-327.50313,-4.3316646)"
       gradientUnits="userSpaceOnUse"
       id="radialGradient3814"
       xlink:href="#linearGradient3593" />
    <radialGradient
       r="19.571428"
       fy="113.23357"
       fx="320.44025"
       cy="113.23357"
       cx="320.44025"
       gradientTransform="matrix(0.9829174,1.3240854,-1.2330051,0.8105158,-131.04134,-483.74563)"
       gradientUnits="userSpaceOnUse"
       id="radialGradient3816"
       xlink:href="#linearGradient3864" />
    <radialGradient
       r="34.345188"
       fy="672.79736"
       fx="225.26402"
       cy="672.79736"
       cx="225.26402"
       gradientTransform="matrix(1,0,0,0.6985294,0,202.82863)"
       gradientUnits="userSpaceOnUse"
       id="radialGradient3850"
       xlink:href="#linearGradient4467" />
    <radialGradient
       r="34.345188"
       fy="672.79736"
       fx="225.26402"
       cy="672.79736"
       cx="225.26402"
       gradientTransform="matrix(1,0,0,0.6985294,0,202.82863)"
       gradientUnits="userSpaceOnUse"
       id="radialGradient3850-4"
       xlink:href="#linearGradient4467" />
    <radialGradient
       xlink:href="#linearGradient8662"
       id="radialGradient2097-2"
       cx="23.070683"
       cy="35.127438"
       fx="23.070683"
       fy="35.127438"
       r="10.31934"
       gradientTransform="matrix(0.914812,0.01265023,-0.00821502,0.213562,2.253914,27.18889)"
       gradientUnits="userSpaceOnUse" />
    <linearGradient
       xlink:href="#linearGradient4467"
       id="linearGradient8388"
       gradientUnits="userSpaceOnUse"
       x1="5.9649177"
       y1="26.048164"
       x2="52.854095"
       y2="26.048164" />
    <radialGradient
       xlink:href="#linearGradient8662"
       id="radialGradient1503-3"
       gradientUnits="userSpaceOnUse"
       gradientTransform="matrix(1,0,0,0.536723,0,16.87306)"
       cx="24.837126"
       cy="36.421127"
       fx="24.837126"
       fy="36.421127"
       r="15.644737" />
    <radialGradient
       xlink:href="#linearGradient3864"
       id="radialGradient2571-4"
       gradientUnits="userSpaceOnUse"
       cx="342.58258"
       cy="27.256668"
       fx="342.58258"
       fy="27.256668"
       r="19.571428"
       gradientTransform="matrix(1.6258409,0.5434973,-8.8819886e-2,0.2656996,-215.02413,-170.90186)" />
    <radialGradient
       xlink:href="#linearGradient3593"
       id="radialGradient3352-1"
       gradientUnits="userSpaceOnUse"
       cx="345.28433"
       cy="15.560534"
       fx="345.28433"
       fy="15.560534"
       r="19.571428"
       gradientTransform="translate(-0.1767767,-2.6516504)" />
    <radialGradient
       xlink:href="#linearGradient3593"
       id="radialGradient3354-1"
       gradientUnits="userSpaceOnUse"
       cx="330.63791"
       cy="39.962704"
       fx="330.63791"
       fy="39.962704"
       r="19.571428"
       gradientTransform="translate(-0.1767767,-2.6516504)" />
    <radialGradient
       xlink:href="#linearGradient3864"
       id="radialGradient3369-3"
       gradientUnits="userSpaceOnUse"
       gradientTransform="matrix(1.6258409,0.5434973,-8.8819886e-2,0.2656996,-461.81066,-173.06271)"
       cx="342.58258"
       cy="27.256668"
       fx="342.58258"
       fy="27.256668"
       r="19.571428" />
    <radialGradient
       xlink:href="#linearGradient3593"
       id="radialGradient3372-9"
       gradientUnits="userSpaceOnUse"
       gradientTransform="matrix(1.0012324,0,0,0.9421773,-327.50313,-4.3316646)"
       cx="345.28433"
       cy="15.560534"
       fx="345.28433"
       fy="15.560534"
       r="19.571428" />
    <radialGradient
       xlink:href="#linearGradient3593"
       id="radialGradient3375-2"
       gradientUnits="userSpaceOnUse"
       gradientTransform="matrix(1.0012324,0,0,0.9421773,-287.81791,-28.143054)"
       cx="330.63791"
       cy="39.962704"
       fx="330.63791"
       fy="39.962704"
       r="19.571428" />
    <radialGradient
       xlink:href="#linearGradient3864"
       id="radialGradient3380-0"
       gradientUnits="userSpaceOnUse"
       gradientTransform="matrix(0.9829174,1.3240854,-1.2330051,0.8105158,-131.04134,-483.74563)"
       cx="320.44025"
       cy="113.23357"
       fx="320.44025"
       fy="113.23357"
       r="19.571428" />
    <linearGradient
       xlink:href="#linearGradient3864"
       id="linearGradient8400"
       x1="6.94525"
       y1="36.838673"
       x2="48.691113"
       y2="36.838673"
       gradientUnits="userSpaceOnUse"
       gradientTransform="matrix(1.0012324,0,0,0.9421773,-4.8699606,-2.3863162)" />
    <linearGradient
       xlink:href="#linearGradient3864"
       id="linearGradient8402"
       gradientUnits="userSpaceOnUse"
       gradientTransform="matrix(1.0012324,0,0,0.9421773,-4.8699606,-2.3863162)"
       x1="6.8300767"
       y1="34.146042"
       x2="48.691113"
       y2="36.838673" />
    <radialGradient
       xlink:href="#linearGradient3864"
       id="radialGradient3812-9"
       gradientUnits="userSpaceOnUse"
       gradientTransform="matrix(1.0012324,0,0,0.9421773,-287.81791,-28.143054)"
       cx="330.63791"
       cy="39.962704"
       fx="330.63791"
       fy="39.962704"
       r="19.571428" />
    <radialGradient
       xlink:href="#linearGradient3593"
       id="radialGradient3814-9"
       gradientUnits="userSpaceOnUse"
       gradientTransform="matrix(1.0012324,0,0,0.9421773,-327.50313,-4.3316646)"
       cx="345.28433"
       cy="15.560534"
       fx="345.28433"
       fy="15.560534"
       r="19.571428" />
    <radialGradient
       xlink:href="#linearGradient3864"
       id="radialGradient3816-2"
       gradientUnits="userSpaceOnUse"
       gradientTransform="matrix(0.9829174,1.3240854,-1.2330051,0.8105158,-131.04134,-483.74563)"
       cx="320.44025"
       cy="113.23357"
       fx="320.44025"
       fy="113.23357"
       r="19.571428" />
    <radialGradient
       xlink:href="#linearGradient4467"
       id="radialGradient3850-8"
       gradientUnits="userSpaceOnUse"
       gradientTransform="matrix(1,0,0,0.6985294,0,202.82863)"
       cx="225.26402"
       cy="672.79736"
       fx="225.26402"
       fy="672.79736"
       r="34.345188" />
    <radialGradient
       xlink:href="#linearGradient4467"
       id="radialGradient3850-4-2"
       gradientUnits="userSpaceOnUse"
       gradientTransform="matrix(1,0,0,0.6985294,0,202.82863)"
       cx="225.26402"
       cy="672.79736"
       fx="225.26402"
       fy="672.79736"
       r="34.345188" />
  </defs>
  <metadata
     id="metadata4">
    <rdf:RDF>
      <cc:Work
         rdf:about="">
        <dc:format>image/svg+xml</dc:format>
        <dc:type
           rdf:resource="http://purl.org/dc/dcmitype/StillImage" />
        <dc:creator>
          <cc:Agent>
            <dc:title>Martin Ruskov</dc:title>
          </cc:Agent>
        </dc:creator>
        <dc:source>http://commons.wikimedia.org/wiki/Tango_icon</dc:source>
        <cc:license
           rdf:resource="http://creativecommons.org/licenses/by-sa/2.0/" />
        <dc:title></dc:title>
      </cc:Work>
      <cc:License
         rdf:about="http://creativecommons.org/licenses/by-sa/2.0/">
        <cc:permits
           rdf:resource="http://web.resource.org/cc/Reproduction" />
        <cc:permits
           rdf:resource="http://web.resource.org/cc/Distribution" />
        <cc:requires
           rdf:resource="http://web.resource.org/cc/Notice" />
        <cc:requires
           rdf:resource="http://web.resource.org/cc/Attribution" />
        <cc:permits
           rdf:resource="http://web.resource.org/cc/DerivativeWorks" />
        <cc:requires
           rdf:resource="http://web.resource.org/cc/ShareAlike" />
      </cc:License>
    </rdf:RDF>
  </metadata>
  <g
     id="layer1">
    <g
       transform="matrix(0.10973734,0,0,0.09926111,8.1913626,6.4527015)"
       id="g3677">
      <g
         transform="matrix(1.0387053,0,0,0.99699065,-5.3536366,1.6931888)"
         id="g3642">
        <path
           id="path3656"
           d="m 124.8,397.19749 c -13.31645,-1.82501 -23.40998,-4.49298 -38.269467,-10.11556 -10.767129,-4.07412 -16.392177,-6.94592 -26.032249,-13.29052 -13.110521,-8.62867 -24.8027,-21.4449 -29.731508,-32.58981 -2.384615,-5.39203 -4.670264,-17.38254 -4.051321,-21.25319 0.258706,-1.61786 -1.136069,-21.9781 -3.099499,-45.24498 C 21.652526,251.43654 18.055256,208.63999 15.622024,179.6 8.2728757,91.889806 7.989299,88.615382 7.2041732,82.399998 6.7873178,79.099998 6.0084804,73.640011 5.4734235,70.266693 3.9079034,60.396721 6.3186985,53.644475 15.095003,43.318216 27.802659,28.366299 57.003426,15.210732 94.399997,7.5896268 116.46735,3.0924866 126.11303,2.2442207 159.97111,1.8231315 c 31.4798,-0.391511 37.40674,-0.1248251 57.62888,2.5930433 15.17077,2.0389601 33.99376,6.3152442 36.20314,8.2247742 0.77173,0.666992 3.06973,4.125639 5.10666,7.685882 2.03694,3.560242 10.43269,16.553168 18.65723,28.873168 23.66151,35.443935 31.50404,49.936319 34.4732,63.703791 1.11651,5.177 0.60515,53.01865 -0.7984,74.69621 -0.45581,7.04 -1.55665,25.39999 -2.44631,40.79999 -0.88966,15.4 -2.1903,37.36 -2.8903,48.8 -0.70001,11.44 -1.35983,27.64 -1.46625,36 -0.18792,14.76099 -0.26412,15.38887 -2.63819,21.73927 -8.54643,22.86079 -32.53555,42.25578 -67.49231,54.56691 -10.68734,3.76388 -19.81551,6.04933 -29.50847,7.38812 -10.12174,1.39802 -70.34608,1.62627 -79.99999,0.3032 z"
           style="fill:#f0fd71;stroke-width:0.79999995" />
        <path
           id="path3654"
           d="M 124.4,395.88753 C 111.05519,394.06856 100.94017,391.40943 86.049043,385.80547 75.258987,381.74485 69.621961,378.88256 59.961361,372.55897 46.822923,363.95888 35.105847,351.1851 30.166544,340.0771 27.776851,334.70293 25.486335,322.75213 26.106596,318.8943 26.365853,317.2818 24.968108,296.98899 23.000497,273.79917 21.032886,250.60934 17.427956,207.95453 14.989543,179.01072 7.6247455,91.591028 7.3405649,88.327449 6.5537673,82.13265 6.1360243,78.84358 5.3555284,73.401676 4.8193322,70.039531 3.2504785,60.202248 5.6664071,53.472366 14.4614,43.180307 27.196115,28.277911 56.459062,15.165916 93.935264,7.5700515 116.04961,3.0878059 125.71583,2.2423495 159.646,1.8226549 191.19283,1.4324406 197.1324,1.6982432 217.3976,4.40711 c 15.20307,2.0322071 34.06614,6.294328 36.28023,8.197534 0.77337,0.664783 3.07626,4.111975 5.11753,7.660426 2.04128,3.54845 10.45491,16.498344 18.69696,28.77754 23.71189,35.326544 31.57112,49.770929 34.54661,63.4928 1.11888,5.15986 0.60643,52.84306 -0.8001,74.44882 -0.45679,7.01668 -1.55997,25.31586 -2.45152,40.66486 -0.89156,15.34899 -2.19497,37.23626 -2.89646,48.63837 -0.7015,11.40211 -1.36272,27.54846 -1.46937,35.88077 -0.18832,14.7121 -0.26468,15.3379 -2.64381,21.66727 -8.56463,22.78507 -32.60483,42.11583 -67.63603,54.38618 -10.71009,3.75142 -19.8577,6.0293 -29.5713,7.36365 -10.14329,1.39339 -70.49587,1.62089 -80.17034,0.3022 z m 9.17951,-272.992 c -0.41889,-0.38464 -2.74584,-1.32956 -5.17099,-2.09981 C 115.93197,116.83303 99.15627,108.73671 90.780392,102.63557 83.729282,97.499418 76.484188,89.5122 73.647136,83.747325 71.300647,78.979279 71.089959,77.911673 71.125541,70.969745 71.161096,64.033614 71.38325,62.971788 73.760268,58.376701 76.79087,52.518155 84.969974,43.95903 91.931005,39.361705 119.61551,21.077822 161.92758,10.957382 213.94069,10.178728 221.51953,10.06527 227.47218,9.7322675 227.1688,9.4387221 226.52694,8.8176794 213.00273,6.8376284 199.76012,5.4258755 187.20064,4.0869488 141.96007,4.0942586 129.61107,5.4372101 92.232598,9.5021123 63.589986,16.799028 41.102653,27.985374 6.230248,45.332691 -2.1335386,67.667345 18.82716,87.469851 38.636229,106.18436 80.385192,119.33989 133.17865,123.5032 c 0.70861,0.0559 0.86511,-0.18138 0.40086,-0.60767 z"
           style="fill:#fdc171;stroke-width:0.79952395" />
        <path
           id="path3652"
           d="m 124.8,397.17364 c -13.19431,-1.76686 -23.33686,-4.44147 -38.269467,-10.09171 -16.30643,-6.17009 -30.089558,-14.6774 -40.481859,-24.98648 -10.023242,-9.94297 -15.788437,-19.31206 -18.02673,-29.29546 -1.332225,-5.94209 -1.812766,-26.91082 -0.588665,-25.68672 0.491313,0.49131 0.808384,2.15412 0.704603,3.69513 -0.103781,1.54101 0.183346,3.497 0.638061,4.34664 0.454716,0.84965 1.156093,4.72808 1.558615,8.61874 2.257977,21.82488 15.900452,38.71664 43.26544,53.57013 14.832111,8.05075 40.408292,15.54333 60.800002,17.81145 4.18,0.46493 8.68,0.97123 10,1.12511 1.32,0.15389 0.24,0.39425 -2.4,0.53414 l -4.8,0.25436 4.8,0.53102 c 4.48964,0.4967 4.33448,0.53298 -2.4,0.5612 -3.96,0.0166 -10.62,-0.42781 -14.8,-0.98755 z m 57.01099,0.65229 c 1.21605,-0.18389 3.01605,-0.17897 4,0.0109 0.98396,0.18988 -0.011,0.34033 -2.211,0.33433 -2.2,-0.006 -3.00504,-0.16137 -1.789,-0.34525 z m 9.60423,0.0197 c 0.77837,-0.20284 1.85837,-0.1895 2.4,0.0297 0.54162,0.21914 -0.0952,0.38509 -1.41523,0.36879 -1.32,-0.0163 -1.76315,-0.1956 -0.98477,-0.39843 z m 2.18477,-0.99485 -3.6,-0.47449 4.9366,-0.56925 c 2.71512,-0.31309 6.31512,-1.07081 8,-1.68383 1.68487,-0.61302 6.6634,-1.92455 11.0634,-2.9145 31.9639,-7.19153 60.66969,-22.61486 74.24094,-39.88889 8.62203,-10.97446 11.52101,-18.40344 12.84618,-32.91981 0.51514,-5.64297 1.26144,-9.96664 1.71288,-9.92344 1.24336,0.119 2.17076,8.11191 1.67742,14.45708 -1.85161,23.81488 -24.48516,47.75525 -58.87742,62.27688 -19.59157,8.27226 -41.07177,13.08062 -52,11.64025 z m -12.19067,-0.61658 c 0.99513,-0.19135 2.43513,-0.18409 3.2,0.0162 0.76487,0.20023 -0.0494,0.3568 -1.80933,0.34792 -1.76,-0.009 -2.3858,-0.17271 -1.39067,-0.36406 z m 121.61256,-90.27516 c -0.67853,-1.09789 -0.85491,-13.43708 -0.37106,-25.95903 0.43032,-11.13648 5.10258,-110.48032 5.57368,-118.51034 l 0.26462,-4.51035 -4.45515,3.92158 c -7.7998,6.86568 -18.94483,12.3368 -28.19566,13.84132 -1.45107,0.236 -3.89832,0.66804 -5.43832,0.96007 -4.77306,0.90513 -16.04775,0.98056 -24,0.16056 -31.98784,-3.29847 -63.64024,-18.39963 -88,-41.9843 L 153.2,128.84399 139.05064,128.03555 C 106.27286,126.16273 80.984949,121.66947 58.007327,113.63543 37.443924,106.44551 20.403858,96.33243 12.8,86.805406 9.7388165,82.96999 8.8128141,82.462526 8.7756725,84.599998 c -0.022272,1.28164 -0.089676,1.288056 -0.7973145,0.07584 -0.4251433,-0.728296 -0.7380074,-2.168296 -0.6952534,-3.2 C 7.3258585,80.444126 6.790901,77.079998 6.0943103,73.999998 4.4426871,66.69729 4.480995,63.567514 6.2932724,57.744655 8.5441693,50.512509 15.407434,41.543992 23.167048,35.69498 43.343153,20.486714 75.23301,9.6058414 116.4,3.8837447 c 9.90914,-1.377344 17.50088,-1.7363806 43.57111,-2.0606132 31.4798,-0.391511 37.40674,-0.1248251 57.62888,2.5930433 15.17077,2.0389601 33.99376,6.3152442 36.20314,8.2247742 0.77173,0.666992 3.06973,4.125639 5.10666,7.685882 2.03694,3.560242 10.43269,16.553168 18.65723,28.873168 23.61327,35.371679 31.52574,49.981367 34.44511,63.600001 0.97479,4.54734 0.77758,46.97937 -0.30303,65.2 -0.28705,4.84 -1.24904,21.57999 -2.13776,37.19999 -0.88871,15.62 -1.99938,33.44 -2.46815,39.6 -0.46877,6.16 -0.86158,12.1 -0.87291,13.2 -0.0114,1.1 -0.36831,9.38 -0.79326,18.4 -0.74318,15.7747 -1.41108,21.18363 -2.41514,19.55903 z M 133.96,123.29833 c -0.418,-0.38591 -2.74,-1.33397 -5.16,-2.10678 -12.45004,-3.97586 -29.190091,-12.09909 -37.548171,-18.2205 -7.036128,-5.15322 -14.265827,-13.16698 -17.096851,-18.951012 -2.341503,-4.78389 -2.551743,-5.855043 -2.516237,-12.82004 0.03548,-6.959179 0.257162,-8.024534 2.629129,-12.63489 3.024162,-5.878015 11.185887,-14.465582 18.132127,-19.078184 27.625683,-18.34464 69.847843,-28.498711 121.750433,-29.279952 7.56274,-0.113835 13.50274,-0.4479442 13.2,-0.742465 C 226.70994,8.8414006 213.21446,6.8547698 199.99999,5.4383256 187.4672,4.0949497 142.32276,4.1022838 130,5.4496979 92.700949,9.5281078 64.119198,16.849271 41.679648,28.07279 6.8813413,45.477752 -1.4646735,67.886624 19.451487,87.754934 39.218464,106.53163 80.878717,119.73088 133.56,123.90802 c 0.7071,0.0561 0.86327,-0.18198 0.4,-0.60969 z M 25.599999,300.39999 c 0,-1.54 0.36,-2.8 0.8,-2.8 0.44,0 0.8,1.26 0.8,2.8 0,1.54 -0.36,2.8 -0.8,2.8 -0.44,0 -0.8,-1.26 -0.8,-2.8 z m -0.8,-9.6 c 0,-1.54 0.33,-2.8 0.733334,-2.8 1.012814,0 1.446925,1.58884 1.030006,3.76981 -0.541416,2.83223 -1.76334,2.1602 -1.76334,-0.96981 z m -0.203715,-7.27038 c -0.84258,-0.84258 -0.743859,-5.12962 0.118124,-5.12962 0.392925,0 0.872542,0.45 1.065817,1 0.503595,1.43308 -0.473243,4.84032 -1.183941,4.12962 z m -1.396285,-11.52962 c 0,-1.32 0.36,-2.4 0.8,-2.4 0.44,0 0.8,1.08 0.8,2.4 0,1.32 -0.36,2.4 -0.8,2.4 -0.44,0 -0.8,-1.08 -0.8,-2.4 z m -0.266666,-6.93333 c -0.842746,-0.84275 -0.620434,-5.06667 0.266666,-5.06667 0.44,0 0.8,1.26 0.8,2.8 0,2.87737 -0.145909,3.18743 -1.066666,2.26667 z m -1.333334,-11.86667 c 0,-1.54 0.36,-2.8 0.8,-2.8 0.44,0 0.8,1.26 0.8,2.8 0,1.54 -0.36,2.8 -0.8,2.8 -0.44,0 -0.8,-1.26 -0.8,-2.8 z m -0.8,-10 c 0,-1.32 0.36,-2.4 0.8,-2.4 0.44,0 0.8,1.08 0.8,2.4 0,1.32 -0.36,2.4 -0.8,2.4 -0.44,0 -0.8,-1.08 -0.8,-2.4 z m -0.8,-8.8 c 0,-1.32 0.36,-2.4 0.8,-2.4 0.44,0 0.8,1.08 0.8,2.4 0,1.32 -0.36,2.4 -0.8,2.4 -0.44,0 -0.8,-1.08 -0.8,-2.4 z m -0.8,-10.04721 c 0,-1.69443 0.323906,-2.64703 0.8,-2.35279 0.44,0.27194 0.8,1.55319 0.8,2.84722 0,1.29403 -0.36,2.35278 -0.8,2.35278 -0.44,0 -0.8,-1.28124 -0.8,-2.84721 z m -0.8,-9.15279 c 0,-1.32 0.36,-2.4 0.8,-2.4 0.44,0 0.8,1.08 0.8,2.4 0,1.32 -0.36,2.4 -0.8,2.4 -0.44,0 -0.8,-1.08 -0.8,-2.4 z m -0.8,-9.6 c 0,-1.32 0.36,-2.4 0.8,-2.4 0.44,0 0.8,1.08 0.8,2.4 0,1.32 -0.36,2.4 -0.8,2.4 -0.44,0 -0.8,-1.08 -0.8,-2.4 z m -0.8,-9.99999 c 0,-2.81498 1.057204,-3.76842 1.859692,-1.67716 0.552315,1.43931 -0.230018,4.47716 -1.152996,4.47716 -0.388683,0 -0.706696,-1.26 -0.706696,-2.8 z m -0.8,-8.4 c 0,-1.32 0.36,-2.4 0.8,-2.4 0.44,0 0.8,1.08 0.8,2.4 0,1.32 -0.36,2.4 -0.8,2.4 -0.44,0 -0.8,-1.08 -0.8,-2.4 z M 15.2,177.6 c 0,-1.32 0.36,-2.4 0.799999,-2.4 0.44,0 0.8,1.08 0.8,2.4 0,1.32 -0.36,2.4 -0.8,2.4 C 15.56,180 15.2,178.92 15.2,177.6 Z M 15,169.94341 c -0.33,-0.33554 -0.6,-1.70208 -0.6,-3.03675 0,-1.73508 0.245819,-2.18085 0.862542,-1.56412 0.474397,0.4744 0.744397,1.84094 0.6,3.03675 C 15.718143,169.57511 15.33,170.27896 15,169.94341 Z M 13.6,158.4 c 0,-1.32 0.33,-2.4 0.733333,-2.4 0.978991,0 1.491625,1.67084 1.043156,3.4 C 14.787827,161.66969 13.6,161.00106 13.6,158.4 Z m -0.266667,-6.93334 C 12.495848,150.62918 12.710172,147.2 13.6,147.2 c 0.44,0 0.8,1.08 0.8,2.4 0,2.48549 -0.162852,2.77048 -1.066667,1.86666 z m -0.758396,-9.55839 C 11.75095,141.08428 11.863746,137.6 12.714408,137.6 c 0.392925,0 0.883107,0.45 1.089292,1 0.501292,1.3372 -0.501082,4.03595 -1.228763,3.30827 z m -0.841604,-9.64161 C 10.895848,131.42918 11.110172,128 12,128 c 0.44,0 0.8,1.08 0.8,2.4 0,2.48549 -0.162852,2.77048 -1.066667,1.86666 z M 11,122.13456 c -0.945056,-2.30818 -0.766631,-5.02119 0.262542,-3.99202 0.474398,0.4744 0.744398,1.8964 0.6,3.16 -0.215485,1.88566 -0.370085,2.0348 -0.862542,0.83202 z m -0.866667,-8.2679 C 9.2958477,113.02918 9.5101717,109.6 10.4,109.6 c 0.44,0 0.8,1.08 0.8,2.4 0,2.48549 -0.162852,2.77048 -1.066667,1.86666 z m -0.7999997,-9.6 C 8.4958477,103.42918 8.7101717,99.999997 9.5999997,99.999997 10.04,99.999997 10.4,101.08 10.4,102.4 c 0,2.48549 -0.162852,2.77048 -1.0666667,1.86666 z M 8.4855909,95.534566 c -0.7615311,-1.984512 -0.5686416,-5.134568 0.3144088,-5.134568 0.44,0 0.8,1.44 0.8,3.2 0,3.410392 -0.3289512,3.98144 -1.1144088,1.934568 z"
           style="fill:#e7b16b;stroke-width:0.79999995" />
        <path
           id="path3650"
           d="m 124.8,397.17364 c -13.19431,-1.76686 -23.33686,-4.44147 -38.269467,-10.09171 -10.767129,-4.07412 -16.392177,-6.94592 -26.032249,-13.29052 -13.110521,-8.62867 -24.8027,-21.4449 -29.731508,-32.58981 -2.586221,-5.8479 -4.653867,-17.30005 -3.958914,-21.92737 l 0.551815,-3.67424 1.032787,3.2 c 0.568033,1.76 1.217513,5.18 1.443289,7.6 1.481048,15.87469 13.811726,33.29822 31.764245,44.88361 18.649239,12.035 47.930912,22.15594 70.600002,24.40225 2.97,0.2943 5.4,0.82741 5.4,1.18469 0,0.35728 2.07,0.7795 4.6,0.93826 2.99423,0.18789 2.08661,0.30505 -2.6,0.33561 -3.96,0.0258 -10.62,-0.41103 -14.8,-0.97077 z m 56.21522,0.67196 c 0.77837,-0.20283 1.85837,-0.1895 2.4,0.0297 0.54162,0.21914 -0.0952,0.38509 -1.41523,0.36879 -1.32,-0.0163 -1.76315,-0.1956 -0.98477,-0.39843 z m 10.4,0 c 0.77837,-0.20283 1.85837,-0.1895 2.4,0.0297 0.54162,0.21914 -0.0952,0.38509 -1.41523,0.36879 -1.32,-0.0163 -1.76315,-0.1956 -0.98477,-0.39843 z m 5.98477,-0.77543 c 0.55,-0.22193 1.45,-0.22193 2,0 0.55,0.22192 0.1,0.40351 -1,0.40351 -1.1,0 -1.55,-0.18159 -1,-0.40351 z m 4.2,-0.53156 c 0,-1.03883 3.70906,-2.35007 13.05427,-4.615 20.38995,-4.94175 39.88008,-12.95993 54.54573,-22.43996 18.92532,-12.23351 30.46954,-28.99883 32.42071,-47.08366 0.35604,-3.3 0.97671,-7.26 1.37928,-8.8 0.71891,-2.75015 0.74283,-2.71122 1.34294,2.18628 2.88312,23.52918 -17.89146,50.15682 -51.57578,66.10682 -10.63925,5.03783 -24.81633,10.17643 -34.4322,12.48023 -7.20564,1.72634 -16.73495,2.95932 -16.73495,2.16529 z M 306.02497,258.96549 c -0.34245,-0.78898 -0.39816,-1.65898 -0.12381,-1.93333 0.81239,-0.8124 1.46727,0.32875 1.09336,1.90522 -0.33148,1.39756 -0.37461,1.39881 -0.96955,0.0281 z m 0.37502,-14.91828 c 0,-0.90597 0.36,-1.64722 0.8,-1.64722 0.44,0 0.8,0.51876 0.8,1.15279 0,0.63403 -0.36,1.37528 -0.8,1.64721 -0.44,0.27194 -0.8,-0.24681 -0.8,-1.15278 z m 0.8,-14.04722 c 0,-1.19256 0.34448,-1.88152 0.8,-1.6 0.44,0.27194 0.8,0.99194 0.8,1.6 0,0.60807 -0.36,1.32807 -0.8,1.6 -0.45552,0.28153 -0.8,-0.40743 -0.8,-1.6 z m 0.8,-14 c 0,-1.45924 0.332,-2.28924 0.8,-2 0.44,0.27194 0.8,1.17194 0.8,2 0,0.82807 -0.36,1.72807 -0.8,2 -0.468,0.28924 -0.8,-0.54076 -0.8,-2 z m 0.8,-13.55278 c 0,-1.34597 0.36,-2.44722 0.8,-2.44722 0.44,0 0.8,0.87876 0.8,1.95279 0,1.07403 -0.36,2.17528 -0.8,2.44721 -0.46674,0.28847 -0.8,-0.52502 -0.8,-1.95278 z m 0.8,-12.89443 c 0,-2.26994 0.32433,-3.84677 0.73855,-3.59076 0.86934,0.53728 0.74053,7.63794 -0.13855,7.63796 -0.33,1e-5 -0.6,-1.82123 -0.6,-4.0472 z M 310.54922,175.8 c -0.73858,-2.75703 -0.44357,-4.6 0.73636,-4.6 0.39292,0 0.71441,1.62 0.71441,3.6 0,4.25265 -0.4891,4.58979 -1.45077,1 z m -68.94923,-1.08293 c -34.44751,-6.4381 -58.63245,-18.59719 -82,-41.22589 L 154,128.06825 139.2,127.22851 C 81.587621,123.95964 37.156469,110.21048 16.540149,89.271582 9.0149429,81.62863 6.3669064,77.088093 5.3604535,70.101968 3.9544654,60.342536 6.4413052,53.500215 15.095003,43.318216 27.802659,28.366299 57.003426,15.210732 94.399997,7.5896268 116.46735,3.0924866 126.11303,2.2442207 159.97111,1.8231315 c 31.4798,-0.391511 37.40674,-0.1248251 57.62888,2.5930433 15.17077,2.0389601 33.99376,6.3152442 36.20314,8.2247742 0.77173,0.666992 3.06973,4.125639 5.10666,7.685882 2.03694,3.560242 10.43269,16.553168 18.65723,28.873168 23.27661,34.867359 31.0871,49.201959 34.38231,63.101871 0.99036,4.17754 0.96733,53.18133 -0.0242,51.57695 -0.35429,-0.57325 -0.69922,-0.49636 -1.03479,0.23066 -0.27685,0.59978 -0.31791,-1.51948 -0.0913,-4.70948 0.23726,-3.33929 0.0963,-5.8 -0.33221,-5.8 -0.40937,0 -3.22013,2.44653 -6.24615,5.43673 -3.96827,3.92132 -7.38596,6.36955 -12.26128,8.78326 -10.82921,5.3614 -17.17812,6.66874 -33.95943,6.9928 -7.92,0.15293 -15.3,0.10986 -16.4,-0.0957 z M 136,123.66522 c 0,-0.18413 -2.43,-1.13372 -5.4,-2.11021 C 101.73292,112.06399 81.668317,98.494406 74.2754,83.46299 69.543793,73.842601 70.771819,63.169076 77.680458,53.867571 92.698805,33.647493 127.77421,19.043484 176.27731,12.815752 c 13.4623,-1.72854 43.14781,-3.3394274 50.63567,-2.747748 8.65068,0.683563 1.95098,-1.0060154 -10.9141,-2.7523936 C 152.61072,-1.2890548 83.172653,6.8139373 41.365284,27.694271 26.756186,34.990659 15.166016,44.947548 10.744485,53.999999 8.6810589,58.22457 8.3999997,59.663142 8.3999997,65.999998 c 0,6.746418 0.173768,7.502388 2.7583243,12 C 23.900061,100.173 65.769687,117.28425 120.8,122.80829 c 11.20277,1.12455 15.2,1.34991 15.2,0.85693 z M 168.52982,106.2 c -0.22193,-0.55 -0.40351,-0.1 -0.40351,1 0,1.1 0.18158,1.55 0.40351,1 0.22193,-0.55 0.22193,-1.45 0,-2 z m 1.87017,-5.8 c 0,-0.660003 -0.3487,-1.200002 -0.77489,-1.200002 -0.42619,0 -0.56767,0.539999 -0.31441,1.200002 0.25327,0.66 0.60197,1.2 0.7749,1.2 0.17292,0 0.3144,-0.54 0.3144,-1.2 z M 144,95.199998 c 0,-0.44 -0.15876,-0.8 -0.35279,-0.8 -0.19403,0 -0.57528,0.36 -0.84721,0.8 -0.27194,0.44 -0.11319,0.8 0.35278,0.8 0.46597,0 0.84722,-0.36 0.84722,-0.8 z M 270.39999,47.199999 c 0,-0.44 -0.38125,-0.8 -0.84721,-0.8 -0.46597,0 -0.62472,0.36 -0.35279,0.8 0.27194,0.44 0.65319,0.8 0.84722,0.8 0.19403,0 0.35278,-0.36 0.35278,-0.8 z"
           style="fill:#a09b62;stroke-width:0.79999995" />
        <path
           id="path3648"
           d="m 125.6,397.12651 c -23.48942,-3.40462 -47.900955,-12.39316 -65.548886,-24.13569 -12.587607,-8.3755 -26.537275,-24.24135 -29.888361,-33.99393 -2.771215,-8.065 -4.13801,-19.81767 -2.162754,-18.5969 0.44,0.27194 0.8,2.0746 0.8,4.00592 0,8.66795 6.783457,23.54414 14.771511,32.39407 18.307203,20.28245 53.620751,35.81686 90.82849,39.95538 4.18,0.46493 8.68,0.97123 10,1.12511 1.32,0.15389 -0.66,0.29505 -4.4,0.3137 -3.74,0.0186 -10.22,-0.4618 -14.4,-1.06766 z m 55.41522,0.71909 c 0.77837,-0.20283 1.85837,-0.1895 2.4,0.0297 0.54162,0.21914 -0.0952,0.38509 -1.41523,0.36879 -1.32,-0.0163 -1.76315,-0.1956 -0.98477,-0.39843 z m 10.4,0 c 0.77837,-0.20283 1.85837,-0.1895 2.4,0.0297 0.54162,0.21914 -0.0952,0.38509 -1.41523,0.36879 -1.32,-0.0163 -1.76315,-0.1956 -0.98477,-0.39843 z m 5.98477,-0.77543 c 0.55,-0.22193 1.45,-0.22193 2,0 0.55,0.22192 0.1,0.40351 -1,0.40351 -1.1,0 -1.55,-0.18159 -1,-0.40351 z m 7.64648,-1.58332 c 0.28222,-0.28222 5.83222,-1.86461 12.33332,-3.51642 15.45103,-3.92581 24.02323,-7.02503 36.2202,-13.09519 11.59109,-5.76862 20.20749,-11.15873 25.21194,-15.77167 1.94257,-1.79059 3.97052,-3.10943 4.50657,-2.93074 1.82347,0.60782 -15.26696,13.6291 -23.58256,17.96765 -10.98247,5.72995 -34.80998,14.83053 -43.58825,16.6479 -5.98466,1.23901 -12.0216,1.61885 -11.10122,0.69847 z m 79.78937,-36.57343 c -0.0197,-0.3776 1.71373,-2.8976 3.85212,-5.6 4.33321,-5.47612 10.51203,-15.36438 10.51203,-16.82292 0,-0.52028 0.72,-2.99449 1.6,-5.49825 0.88,-2.50375 1.6,-6.52003 1.6,-8.92506 0,-2.40502 0.36,-4.59526 0.8,-4.8672 1.04007,-0.6428 1.02428,4.10799 -0.0359,10.8 -0.88024,5.55623 -4.77055,14.629 -8.65953,20.19531 -2.99559,4.2876 -9.62101,11.63211 -9.66873,10.71812 z M 311.40173,174 c 0.009,-1.76 0.17272,-2.3858 0.36407,-1.39068 0.19135,0.99513 0.18409,2.43513 -0.0162,3.2 -0.20023,0.76488 -0.3568,-0.0494 -0.34792,-1.80932 z m -60.26207,0.90476 c -0.25317,-0.27064 -2.98574,-0.65909 -6.07237,-0.86322 -13.92085,-0.9206 -33.00598,-6.8496 -49.76268,-15.4593 C 181.5948,151.53806 172.1999,144.73956 159.5771,132.7285 l -5.62289,-5.35039 -8.77711,-0.5049 C 117.00414,125.25259 94.718309,122.30549 77.993782,117.98884 42.685474,108.87564 20.972926,96.745382 9.0923765,79.495354 6.1142519,75.17125 6.1082184,75.145604 6.0541628,66.581322 6.0022837,58.361855 6.1099326,57.797592 8.6070237,53.199999 11.830173,47.265601 18.834858,39.31121 24.565777,35.077532 32.724867,29.050059 53.030899,19.260511 65.599998,15.294914 72.282974,13.186411 92.033357,8.4002062 100.8,6.7647303 c 19.81999,-3.6975537 32.26208,-4.6282448 62.79999,-4.6975519 33.32422,-0.07563 47.5828,1.0180193 68.8,5.2770399 21.20238,4.2560447 21.4798,4.3869427 25.62448,12.0903577 1.23263,2.290983 4.16137,7.100907 6.50833,10.68872 2.34695,3.587814 4.26719,6.870787 4.26719,7.295497 0,0.42471 1.39225,2.529227 3.09388,4.676704 2.35435,2.971209 15.81462,22.502826 20.2757,29.421192 7.60244,11.790093 17.52597,32.392041 19.49997,40.483311 1.2739,5.22161 1.53695,25.6 0.33045,25.6 -0.44,0 -0.8,0.38124 -0.8,0.84721 0,0.46597 0.36,0.62472 0.8,0.35279 1.1426,-0.70617 0.98957,5.79716 -0.21649,9.2 -1.45936,4.11754 -7.22596,11.50088 -11.57929,14.82572 -5.23947,4.0016 -13.98565,8.07436 -21.50169,10.01252 -6.17007,1.59106 -26.57641,3.12103 -27.56286,2.06652 z m -76.19599,-31.72821 c -113.193017,169.81846 -56.59651,84.90923 0,0 z M 138.4,124.07792 c 0,-0.39715 -2.61,-1.50717 -5.8,-2.46672 -7.043,-2.11854 -19.85154,-7.20387 -26.04793,-10.34173 C 92.266029,104.03502 79.180976,92.623614 74.702307,83.493454 72.662354,79.334835 72.406774,77.979531 72.459468,71.599998 72.534509,62.514776 74.523943,57.827079 81.525437,50.237887 98.290965,32.065065 130.94057,19.334209 175.43167,13.621613 c 14.69205,-1.88644 43.50122,-3.331948 53.01921,-2.660254 7.78218,0.549197 9.31592,-0.720703 2.54911,-2.1105976 C 197.41471,1.9523856 144.66281,1.438518 105.6,7.6292129 76.085391,12.306703 48.568394,21.484915 31.008754,32.508898 2.6356754,50.321584 -0.6089102,73.308357 22.619321,91.94515 c 9.209228,7.388872 25.406676,15.47356 40.180677,20.05552 11.016644,3.41666 13.409836,4.02096 26.399999,6.66618 C 111.187,123.14411 138.4,126.13702 138.4,124.07792 Z M 124,29.999999 c 1.0334,-1.1 1.6989,-2 1.4789,-2 -0.22,0 -1.2455,0.9 -2.2789,2 -1.0334,1.1 -1.69891,2 -1.47891,2 0.22,0 1.24551,-0.9 2.27891,-2 z m 63.39999,-2.529824 c -0.55,-0.22193 -1.45,-0.22193 -2,0 -0.55,0.22193 -0.1,0.403508 1,0.403508 1.1,0 1.55,-0.181578 1,-0.403508 z M 312.18559,160 c 0,-1.54 0.16464,-2.17 0.36586,-1.4 0.20122,0.77 0.20122,2.03 0,2.8 -0.20122,0.77 -0.36586,0.14 -0.36586,-1.4 z"
           style="fill:#f9474a;stroke-width:0.79999995" />
        <path
           id="path3646"
           d="m 125.6,397.12651 c -23.48942,-3.40462 -47.900955,-12.39316 -65.548886,-24.13569 -12.587607,-8.3755 -26.537275,-24.24135 -29.888361,-33.99393 -2.771215,-8.065 -4.13801,-19.81767 -2.162754,-18.5969 0.44,0.27194 0.8,2.0746 0.8,4.00592 0,8.66795 6.783457,23.54414 14.771511,32.39407 18.307203,20.28245 53.620751,35.81686 90.82849,39.95538 4.18,0.46493 8.68,0.97123 10,1.12511 1.32,0.15389 -0.66,0.29505 -4.4,0.3137 -3.74,0.0186 -10.22,-0.4618 -14.4,-1.06766 z m 55.41522,0.71909 c 0.77837,-0.20283 1.85837,-0.1895 2.4,0.0297 0.54162,0.21914 -0.0952,0.38509 -1.41523,0.36879 -1.32,-0.0163 -1.76315,-0.1956 -0.98477,-0.39843 z m 10.4,0 c 0.77837,-0.20283 1.85837,-0.1895 2.4,0.0297 0.54162,0.21914 -0.0952,0.38509 -1.41523,0.36879 -1.32,-0.0163 -1.76315,-0.1956 -0.98477,-0.39843 z m 5.98477,-0.77543 c 0.55,-0.22193 1.45,-0.22193 2,0 0.55,0.22192 0.1,0.40351 -1,0.40351 -1.1,0 -1.55,-0.18159 -1,-0.40351 z m 7.64648,-1.58332 c 0.28222,-0.28222 5.83222,-1.86461 12.33332,-3.51642 15.45103,-3.92581 24.02323,-7.02503 36.2202,-13.09519 11.59109,-5.76862 20.20749,-11.15873 25.21194,-15.77167 1.94257,-1.79059 3.97052,-3.10943 4.50657,-2.93074 1.82347,0.60782 -15.26696,13.6291 -23.58256,17.96765 -10.98247,5.72995 -34.80998,14.83053 -43.58825,16.6479 -5.98466,1.23901 -12.0216,1.61885 -11.10122,0.69847 z m 79.78937,-36.57343 c -0.0197,-0.3776 1.71373,-2.8976 3.85212,-5.6 4.33321,-5.47612 10.51203,-15.36438 10.51203,-16.82292 0,-0.52028 0.72,-2.99449 1.6,-5.49825 0.88,-2.50375 1.6,-6.52003 1.6,-8.92506 0,-2.40502 0.36,-4.59526 0.8,-4.8672 1.04007,-0.6428 1.02428,4.10799 -0.0359,10.8 -0.88024,5.55623 -4.77055,14.629 -8.65953,20.19531 -2.99559,4.2876 -9.62101,11.63211 -9.66873,10.71812 z M 311.40173,174 c 0.009,-1.76 0.17272,-2.3858 0.36407,-1.39068 0.19135,0.99513 0.18409,2.43513 -0.0162,3.2 -0.20023,0.76488 -0.3568,-0.0494 -0.34792,-1.80932 z m -69.80174,-0.13115 C 225.77517,171.3903 210.26444,166.2687 195.30461,158.58224 181.5948,151.53806 172.1999,144.73956 159.5771,132.7285 l -5.62289,-5.35039 -8.77711,-0.5049 C 117.00414,125.25259 94.718309,122.30549 77.993782,117.98884 42.685474,108.87564 20.972926,96.745382 9.0923765,79.495354 6.1142519,75.17125 6.1082184,75.145604 6.0541628,66.581322 6.0022837,58.361855 6.1099326,57.797592 8.6070237,53.199999 11.830173,47.265601 18.834858,39.31121 24.565777,35.077532 32.724867,29.050059 53.030899,19.260511 65.599998,15.294914 72.282974,13.186411 92.033357,8.4002062 100.8,6.7647303 c 19.81999,-3.6975537 32.26208,-4.6282448 62.79999,-4.6975519 33.32422,-0.07563 47.5828,1.0180193 68.8,5.2770399 21.20238,4.2560447 21.4798,4.3869427 25.62448,12.0903577 1.23263,2.290983 4.16137,7.100907 6.50833,10.68872 2.34695,3.587814 4.26719,6.870787 4.26719,7.295497 0,0.42471 1.39225,2.529227 3.09388,4.676704 2.35435,2.971209 15.81462,22.502826 20.2757,29.421192 3.73332,5.789749 12.27301,21.799061 14.9802,28.083308 3.97414,9.225253 5.61976,15.296153 5.52972,20.400003 l -0.0635,3.6 -0.60891,-2.8 c -2.15509,-9.91 -7.99978,-23.941482 -15.18137,-36.446314 -7.54803,-13.142882 -21.26148,-33.702472 -23.15629,-34.716541 -0.91818,-0.491392 -1.66941,-1.615116 -1.66941,-2.497164 0,-2.013747 -2.65543,-7.29212 -4.39466,-8.735554 -1.8897,-1.568311 -8.25272,-11.474366 -11.56491,-18.004428 L 253.19999,14.8 l -5.6,-0.539871 c -17.15428,-1.653766 -49.69288,-0.996204 -69.6,1.406525 -23.51879,2.838647 -45.77195,8.064265 -51.92559,12.193481 -19.95526,6.543322 2.40774,-9.213954 -32.731475,14.441527 -4.856256,3.34119 -12.964024,11.44508 -14.583199,14.576213 -2.55546,4.941716 -2.380868,13.619122 0.548887,27.280099 0.739808,3.449608 1.737056,5.069464 5.593256,9.085296 5.248912,5.4662 13.007504,11.15438 14.204968,10.4143 0.431024,-0.26639 1.288333,0.23615 1.905133,1.11675 0.61679,0.88061 4.33143,3.19254 8.25474,5.13765 32.45186,12.36556 28.98129,10.45661 39.71518,13.72844 5.49422,1.34251 6.22916,1.80403 13.20205,8.29062 14.88812,13.84979 20.73799,18.09029 35.21345,25.52583 11.17452,5.73997 32.38939,12.70798 43.0026,14.1242 5.68638,0.75878 7.6,1.28898 7.6,2.10566 0,0.70867 -2.57108,0.78184 -6.4,0.18213 z M 138.4,124.07792 c 0,-0.39715 -2.61,-1.50717 -5.8,-2.46672 -7.043,-2.11854 -19.85154,-7.20387 -26.04793,-10.34173 C 92.266029,104.03502 79.180976,92.623614 74.702307,83.493454 72.662354,79.334835 72.406774,77.979531 72.459468,71.599998 72.534509,62.514776 74.523943,57.827079 81.525437,50.237887 98.290965,32.065065 130.94057,19.334209 175.43167,13.621613 c 14.69205,-1.88644 43.50122,-3.331948 53.01921,-2.660254 7.78218,0.549197 9.31592,-0.720703 2.54911,-2.1105976 C 197.41471,1.9523856 144.66281,1.438518 105.6,7.6292129 76.085391,12.306703 48.568394,21.484915 31.008754,32.508898 2.6356754,50.321584 -0.6089102,73.308357 22.619321,91.94515 c 9.209228,7.388872 25.406676,15.47356 40.180677,20.05552 11.016644,3.41666 13.409836,4.02096 26.399999,6.66618 C 111.187,123.14411 138.4,126.13702 138.4,124.07792 Z M 312.18559,160 c 0,-1.54 0.16464,-2.17 0.36586,-1.4 0.20122,0.77 0.20122,2.03 0,2.8 -0.20122,0.77 -0.36586,0.14 -0.36586,-1.4 z m -3.3856,-8.10224 c 0,-0.67223 0.88654,-3.71423 1.97009,-6.76 1.74251,-4.89805 1.97215,-5.21432 1.98795,-2.73776 0.02,3.12887 -1.59571,8.35767 -3.02374,9.78569 -0.7124,0.71241 -0.9343,0.64402 -0.9343,-0.28793 z"
           style="fill:#79866a;stroke-width:0.79999995" />
        <path
           id="path3644"
           d="m 130.4,397.67984 c -1.98,-0.26392 -3.24,-0.70383 -2.8,-0.97757 0.44,-0.27375 4.94,-0.046 10,0.5061 l 9.2,1.00382 -6.4,-0.0262 c -3.52,-0.0145 -8.02,-0.24218 -10,-0.5061 z m 50.61522,0.16576 c 0.77837,-0.20283 1.85837,-0.1895 2.4,0.0297 0.54162,0.21914 -0.0952,0.38509 -1.41523,0.36879 -1.32,-0.0163 -1.76315,-0.1956 -0.98477,-0.39843 z m 10.03477,0.008 c 0.5775,-0.2311 1.2675,-0.20268 1.53334,0.0631 0.26583,0.26583 -0.20667,0.45491 -1.05,0.42017 -0.93196,-0.0384 -1.12152,-0.22795 -0.48334,-0.48332 z M 119.6,395.19999 118,394.51245 h 1.6 c 0.88,0 2.32,0.30939 3.2,0.68754 l 1.6,0.68754 h -1.6 c -0.88,0 -2.32,-0.30939 -3.2,-0.68754 z m 93.56727,-1.54705 c 0.24574,-0.39762 3.59364,-1.46658 7.43976,-2.37546 13.6767,-3.23195 31.6061,-10.68937 44.45965,-18.4922 3.00667,-1.82523 5.63068,-3.15459 5.83113,-2.95415 0.43774,0.43775 -9.68947,6.78068 -15.29782,9.58142 -12.72125,6.35283 -44.05744,16.86924 -42.43272,14.24039 z M 104,391.79515 c -1.59451,-0.49005 -2.26557,-0.98772 -1.55868,-1.15595 0.68272,-0.16247 2.48272,0.24314 4,0.90137 3.16702,1.37394 1.69895,1.52703 -2.44132,0.25458 z m -6.800003,-2.19516 c -1.008512,-0.43338 -1.156384,-0.68754 -0.4,-0.68754 0.66,0 1.92,0.30939 2.8,0.68754 1.008513,0.43338 1.156383,0.68754 0.4,0.68754 -0.66,0 -1.92,-0.30939 -2.8,-0.68754 z m -6.8,-2.4 c -1.034152,-0.66832 -1.013032,-0.77719 0.152784,-0.78775 0.744032,-0.006 1.57528,0.34775 1.847216,0.78775 0.625744,1.01248 -0.433304,1.01248 -2,0 z m -10.4,-4 c -0.66,-0.42653 -0.84,-0.7755 -0.4,-0.7755 0.44,0 1.34,0.34897 2,0.7755 0.66,0.42653 0.84,0.7755 0.4,0.7755 -0.44,0 -1.34,-0.34897 -2,-0.7755 z m -10.670726,-5.29464 c -1.248899,-0.67682 -2.073991,-1.42731 -1.833537,-1.66776 0.240453,-0.24046 1.622281,0.32165 3.070726,1.24913 3.034921,1.94333 2.13695,2.24718 -1.237189,0.41863 z m -8.329273,-5.1974 c -2.726812,-1.7463 -3.609248,-2.919 -1.2,-1.59473 1.835546,1.00893 4.711063,3.23256 4.2,3.24785 -0.22,0.006 -1.57,-0.73732 -3,-1.65312 z m 213.986662,-6.40723 c 0.54267,-0.54674 1.18819,-0.79254 1.4345,-0.54623 0.24631,0.24632 -0.19769,0.69364 -0.98666,0.99407 -1.14016,0.43414 -1.23205,0.34225 -0.44784,-0.44784 z m 4.21333,-3.42788 c 0,-0.15231 0.54,-0.7251 1.2,-1.27285 0.69167,-0.57404 1.2,-0.65179 1.2,-0.18354 0,0.4468 -0.54,1.01957 -1.2,1.27284 -0.66,0.25327 -1.2,0.33586 -1.2,0.18355 z m 14.77487,-16.88714 c 3.69473,-6.13569 5.29077,-7.58904 2.41963,-2.2033 -1.2263,2.30032 -2.91285,4.8007 -3.74788,5.55641 -0.86364,0.78157 -0.29093,-0.66419 1.32825,-3.35311 z m -257.770758,2.61429 c -0.435494,-0.55 -1.219434,-1.9 -1.742089,-3 -0.91557,-1.92694 -0.902696,-1.94156 0.352472,-0.4 1.551464,1.90546 2.975403,4.4 2.511616,4.4 -0.181605,0 -0.686505,-0.45 -1.121999,-1 z m -5.404103,-10.2 c -0.30035,-0.94632 -0.36609,-1.90057 -0.14609,-2.12057 0.22,-0.22 0.64574,0.37425 0.94609,1.32057 0.30035,0.94632 0.36609,1.90058 0.14609,2.12058 -0.22,0.22 -0.64574,-0.37426 -0.94609,-1.32058 z M 299.19999,335.9129 c 0,-0.66391 0.55864,-1.90591 1.24142,-2.76 1.19306,-1.4924 1.22072,-1.47499 0.71008,0.44709 -0.65574,2.46827 -1.9515,4.00399 -1.9515,2.31291 z m 2.46316,-7.57957 c 0.0384,-0.93196 0.22795,-1.12152 0.48333,-0.48334 0.23109,0.5775 0.20268,1.26751 -0.0631,1.53334 -0.26583,0.26583 -0.45491,-0.20667 -0.42018,-1.05 z m 0.74909,-8.08612 c 0.009,-2.26202 0.21208,-2.738 0.78775,-1.84722 1.01109,1.56455 1.01109,3.77511 0,4.4 -0.48054,0.29699 -0.79511,-0.72241 -0.78775,-2.55278 z M 241.59999,173.86269 c -31.55589,-5.0397 -58.05216,-18.32581 -82.01178,-41.12342 l -5.61178,-5.33962 -7.18822,-0.47971 C 142.83469,126.6561 135.73,126.21654 131,125.94313 c -4.95859,-0.28662 -8.6,-0.84094 -8.6,-1.30915 0,-0.47698 1.0728,-0.62265 2.6,-0.35303 1.43,0.25246 5.79779,0.70591 9.7062,1.00767 10.05916,0.77663 8.88079,-0.68566 -3.93982,-4.88907 C 107.28876,112.70209 93.869909,105.16536 82.693093,93.39907 75.049927,85.352806 72.558465,79.993192 72.514014,71.501925 72.483938,65.756688 72.779583,64.395306 75.065856,59.751227 83.088405,43.455119 106.98868,29.242021 141.2,20.422352 c 22.50644,-5.802156 42.94463,-8.299039 73.19999,-8.942663 12.54,-0.266764 23.35492,-0.771308 24.03315,-1.121209 1.152,-0.5943138 10.63004,0.826784 13.77795,2.065807 0.77609,0.305474 2.72464,2.944977 4.33008,5.865561 3.89136,7.079053 8.70516,14.612445 23.07418,36.110151 12.43889,18.609994 19.11989,29.477855 23.56522,38.333063 4.3414,8.648228 9.62587,22.987088 9.51048,25.805748 -0.0903,2.20565 -0.17258,2.31883 -0.48066,0.66119 -0.20444,-1.1 -0.61522,-2.18 -0.91285,-2.4 -0.29762,-0.22 -1.20789,-2.55934 -2.02281,-5.19853 -2.33328,-7.55656 -6.98722,-17.738312 -12.45461,-27.247784 -4.73858,-8.241835 -19.26753,-31.171583 -22.52785,-35.553687 -0.81841,-1.1 -2.36089,-3.642613 -3.42774,-5.650251 -1.06685,-2.007639 -2.54095,-4.149223 -3.27578,-4.759079 -1.73701,-1.441594 -8.33257,-11.762778 -11.75221,-18.39067 L 253.15362,14.8 247.57681,14.260129 c -17.0906,-1.654477 -49.67295,-0.99581 -69.57682,1.406525 -27.53602,4.136752 -62.80821,11.383044 -84.657065,26.635008 -33.277537,16.603653 -11.682222,66.992378 5.763912,61.355908 0.431024,-0.26639 1.288333,0.23615 1.905133,1.11675 2.68615,3.83503 25.32822,12.92263 44.98803,18.05636 l 8.8,2.29794 7.99999,7.59966 c 4.4,4.17981 8.47042,8.24588 9.04536,9.03569 0.57496,0.78981 1.35625,1.43603 1.73622,1.43603 0.37997,0 3.55059,1.96992 7.04583,4.37761 10.98911,7.56983 29.57453,16.48575 40.17259,19.27187 0.66,0.17351 3.72,1.04823 6.8,1.94384 3.08,0.8956 7.94,1.98988 10.8,2.43172 8.00634,1.23691 9.6,1.64172 9.6,2.43852 0,0.7314 -2.56712,0.81127 -6.4,0.19913 z M 311.3263,172.8 c 0,-1.1 0.18159,-1.55 0.40351,-1 0.22193,0.55 0.22193,1.45 0,2 -0.22192,0.55 -0.40351,0.1 -0.40351,-1 z m 0.73685,-14.06667 c 0.0384,-0.93196 0.22795,-1.12152 0.48333,-0.48333 0.23109,0.57749 0.20268,1.26749 -0.0631,1.53333 -0.26583,0.26583 -0.45491,-0.20667 -0.42018,-1.05 z m -3.26316,-6.83557 c 0,-0.67223 0.88654,-3.71423 1.97009,-6.76 1.74251,-4.89805 1.97215,-5.21432 1.98795,-2.73776 0.02,3.12887 -1.59571,8.35767 -3.02374,9.78569 -0.7124,0.71241 -0.9343,0.64402 -0.9343,-0.28793 z M 102.4,122.82096 C 89.637629,120.84 78.660357,118.56819 76.799998,117.5229 c -1.926325,-1.08235 -0.03032,-0.84745 10.489983,1.29961 5.450512,1.11238 14.770019,2.77016 20.710019,3.68395 5.94,0.91379 10.95,1.80366 11.13333,1.97749 0.7265,0.68882 -5.69011,0.0511 -16.73333,-1.66299 z m -34.000002,-7.34644 c -6.59755,-2.02339 -10.915174,-3.62602 -10.604856,-3.93633 0.3328,-0.3328 16.689442,4.27973 17.283658,4.87394 0.761111,0.76112 -2.744619,0.26896 -6.678802,-0.93761 z M 50.0809,109.22191 c -7.085578,-2.91302 -7.29339,-3.95069 -0.279052,-1.3934 3.36995,1.22862 6.383151,2.48982 6.696,2.80267 1.133221,1.13322 -1.798999,0.48926 -6.416948,-1.40927 z m -11.382204,-5.15618 c -1.815717,-0.82452 -3.550738,-1.90272 -3.855602,-2.396 -0.566745,-0.91701 4.29175,1.06223 7.134909,2.9066 2.304979,1.49526 0.528898,1.21872 -3.279307,-0.5106 z m -7.145793,-4.509868 c -1.49122,-1.194712 -1.481405,-1.20948 0.247096,-0.371848 0.99,0.479751 1.8,1.039606 1.8,1.244126 0,0.61218 -0.414886,0.43539 -2.047096,-0.872278 z m -4.464277,-2.803344 -1.888627,-1.64748 2.2,1.339488 c 1.21,0.73672 2.2,1.478088 2.2,1.64748 0,0.624672 -0.66839,0.268176 -2.511373,-1.339488 z m -6.288627,-4.419784 c -1.98,-1.568456 -3.741664,-3.249952 -3.914809,-3.736664 -0.173146,-0.486712 1.536854,0.676416 3.8,2.584728 3.654932,3.081888 4.587583,4.037552 3.914809,4.011432 -0.11,-0.004 -1.82,-1.29104 -3.8,-2.859496 z M 11.921187,82.994598 C 9.3253053,79.741205 7.0188079,75.343574 7.3644605,74.306616 c 0.1439013,-0.431704 1.2575064,1.122701 2.4746776,3.454232 1.2171709,2.331534 2.7852089,5.04915 3.4845279,6.03915 1.911521,2.706072 0.966142,2.163168 -1.402479,-0.8054 z"
           style="fill:#716259;stroke-width:0.79999995" />
      </g>
    </g>
  </g>
</svg>
