<?xml version="1.0" encoding="UTF-8" standalone="no"?>
<!-- Created with Inkscape (http://www.inkscape.org/) -->

<svg
   xmlns:dc="http://purl.org/dc/elements/1.1/"
   xmlns:cc="http://creativecommons.org/ns#"
   xmlns:rdf="http://www.w3.org/1999/02/22-rdf-syntax-ns#"
   xmlns:svg="http://www.w3.org/2000/svg"
   xmlns="http://www.w3.org/2000/svg"
   xmlns:sodipodi="http://sodipodi.sourceforge.net/DTD/sodipodi-0.dtd"
   xmlns:inkscape="http://www.inkscape.org/namespaces/inkscape"
   width="210mm"
   height="297mm"
   id="svg2"
   version="1.1"
   inkscape:version="0.48.4 r9939"
   sodipodi:docname="addin.svg">
  <defs
     id="defs4" />
  <sodipodi:namedview
     id="base"
     pagecolor="#ffffff"
     bordercolor="#666666"
     borderopacity="1.0"
     inkscape:pageopacity="0.0"
     inkscape:pageshadow="2"
     inkscape:zoom="0.35"
     inkscape:cx="350"
     inkscape:cy="520"
     inkscape:document-units="px"
     inkscape:current-layer="layer1"
     showgrid="false"
     inkscape:window-width="1855"
     inkscape:window-height="1056"
     inkscape:window-x="65"
     inkscape:window-y="24"
     inkscape:window-maximized="1" />
  <metadata
     id="metadata7">
    <rdf:RDF>
      <cc:Work
         rdf:about="">
        <dc:format>image/svg+xml</dc:format>
        <dc:type
           rdf:resource="http://purl.org/dc/dcmitype/StillImage" />
        <dc:title></dc:title>
      </cc:Work>
    </rdf:RDF>
  </metadata>
  <g
     inkscape:label="Ebene 1"
     inkscape:groupmode="layer"
     id="layer1">
    <path
       style="fill:none;stroke:#000024;stroke-width:44.19145966;stroke-linecap:butt;stroke-linejoin:miter;stroke-miterlimit:4;stroke-opacity:1;stroke-dasharray:none"
       d="M 17.421799,-0.97296229 C 18.636946,19.10924 22.972084,37.486165 25.545365,56.895126 c 1.312642,9.900643 -1.564177,20.804528 0,30.636042 -0.621403,6.835721 4.236804,11.092094 5.415703,17.020042 1.247083,6.27076 -1.62191,14.30739 0,20.42402 4.623373,17.43595 5.415697,29.19224 5.415697,51.0601 0,36.9126 9.097204,103.07626 -2.707844,132.7562 -4.386428,11.02824 0.560146,31.92759 -2.707853,44.25208 -3.405395,12.84266 6.266999,43.3755 2.707853,61.27211 -2.38632,11.99925 -6.463203,24.92079 -8.123556,37.44405 -2.403783,18.13053 0.173645,36.35265 -2.707852,54.46408 -3.822575,24.02655 3.207117,50.69841 0,74.88814 -2.646518,19.96132 -4.301044,38.64714 -8.123567,57.86809 -4.125085,20.74233 0.116829,46.77487 -2.70785,68.08011 -3.9281344,29.62798 -2.7078504,61.13668 -2.7078504,91.90814 0,64.95413 2.7078504,126.66776 2.7078504,190.62432 0,14.75065 0,29.50135 0,44.25205 0,1.7944 0.871187,16.4725 0,17.02 -1.614649,1.0149 -3.8010604,-1.0148 -5.4157094,0 -0.80732,0.5075 0.902617,3.404 0,3.404 -4.698514,0 4.2795234,-28.4936 5.4157094,-30.636"
       id="path3755"
       inkscape:connector-curvature="0" />
    <path
       style="fill:none;stroke:#000024;stroke-width:43.90842819;stroke-linecap:butt;stroke-linejoin:miter;stroke-miterlimit:4;stroke-opacity:1;stroke-dasharray:none"
       d="m 713.54759,-15.471151 c -5.67096,67.42728 -5.49331,135.972971 -5.49331,204.401551 0,18.68186 1.93053,37.50798 0,56.04557 -1.04697,10.05344 -4.3777,19.62841 -5.4933,29.67121 -3.49629,31.47433 -2.37597,71.4574 2.74665,102.20074 4.65064,27.91075 -1.07329,62.48694 -5.4933,89.01358 -4.99548,29.98025 1.46638,61.969 -2.74666,92.31038 -0.95194,6.85569 -4.3577,12.9655 -5.4933,19.78079 -2.20308,13.22174 -2.79856,26.62358 -5.4933,39.5616 -3.43025,16.46925 2.32895,35.97608 0,52.74877 -0.74343,5.35393 -4.37984,10.60309 -2.74667,16.48399 0.99898,3.59722 6.89528,34.51331 5.49332,39.56161 -1.2948,4.66237 -4.19853,8.5248 -5.49332,13.18719 -4.45268,16.03362 -8.38675,51.86778 -5.4933,69.23278 0.40149,2.40956 1.83111,4.39573 2.74666,6.59359 0.91554,3.29679 2.27067,6.46256 2.74664,9.89039 1.02957,7.41478 -1.22895,15.70207 0,23.07759 2.6791,16.07848 4.29567,35.24901 8.23997,49.45201 2.78392,10.02463 -3.93809,26.81102 0,36.26477 3.27732,7.86754 3.21251,18.16143 5.4933,26.37439 0.86856,3.1276 -2.28534,8.0617 0,9.89036 2.40898,1.92769 5.83099,1.36919 8.23996,3.29688 1.09598,0.87695 0,14.48377 0,16.48393 0,7.51804 2.63426,23.34738 0,29.67128 -3.27013,7.8503 -8.23996,17.0713 -8.23996,26.3745 0,7.1781 -2.08041,10.3392 -5.4933,16.484 -0.71821,1.293 -3.6622,4.3957 -2.74665,3.2967 13.71725,-16.4647 9.53129,-27.9244 24.71987,-46.1552"
       id="path3759"
       inkscape:connector-curvature="0" />
    <path
       style="fill:none;stroke:#000024;stroke-width:60;stroke-linecap:butt;stroke-linejoin:miter;stroke-miterlimit:4;stroke-opacity:1;stroke-dasharray:none"
       d="m 718.85713,149.50504 c -24.92492,11.66758 -53.40294,2.75906 -80,5.71429 -45.58378,5.06486 -86.86921,3.10031 -128.57143,-2.85715 -33.52644,-4.78949 -69.46962,5.56459 -102.85714,0 -5.94143,-0.99024 -11.23644,-4.533 -17.14286,-5.71428 -25.7998,-5.15996 -94.54282,0.62285 -120,5.71428 -11.83439,2.36688 -27.98398,0 -40,0 -33.33333,0 -66.66666,0 -100,0 -9.7537,0 -16.34468,0.51474 -25.71428,2.85715 -6.553263,1.63831 -7.910264,-2.63676 -8.571424,-2.85715 -14.662948,-4.88765 -49.362796,0 -65.714282,0 -6.666666,0 -15.285955,4.71405 -20,0 -0.6809788,-0.68098 0,-9.58248 0,-11.42857"
       id="path3761"
       inkscape:connector-curvature="0" />
    <path
       style="fill:none;stroke:#000024;stroke-width:63.19382858;stroke-linecap:butt;stroke-linejoin:miter;stroke-miterlimit:4;stroke-opacity:1;stroke-dasharray:none"
       d="m 775.54594,947.90804 c -62.84187,-8.2718 -128.7492,-4.9609 -193.48763,-4.9609 -16.62354,0 -32.18757,0.9783 -47.45924,-2.4805 -8.23637,-1.8654 -16.70994,-4.1024 -25.55497,-4.9609 -16.4806,-1.5997 -59.58091,4.5636 -73.01419,0 -1.08843,-0.3698 1.15445,-2.219 0,-2.4805 -18.06216,-4.0907 -60.40668,5.9964 -80.31563,0 -39.07043,-11.76766 -94.74091,-11.08526 -164.28195,0 -9.87103,1.5735 -16.23473,-1.2139 -25.55498,-2.4805 -29.35747,-3.9893 -64.79984,0 -94.918452,0 -7.193795,0 -7.054286,-0.7708 -14.602836,-2.4804 -11.803108,-2.6732 -31.301138,0 -43.80852,0 -19.4704553,0 -38.94091,0 -58.411363,0 -2.523184,0 -28.146907,0 -18.253552,0"
       id="path3765"
       inkscape:connector-curvature="0"
       sodipodi:nodetypes="csssccsscssssc" />
    <path
       style="fill:none;stroke:#00c000;stroke-width:100;stroke-linecap:butt;stroke-linejoin:miter;stroke-miterlimit:4;stroke-opacity:1;stroke-dasharray:none"
       d="m -2036.6245,329.16552 c 29.6064,7.46353 63.8068,9.89074 94.2857,2.85714 4.9974,-1.15324 9.2566,-4.70846 14.2857,-5.71428 10.9599,-2.19198 23.2123,-1.01157 34.2857,-2.85715 3.9967,-0.66611 10.289,-5.04816 14.2857,-5.71428 2.8183,-0.46971 5.8609,0.90351 8.5715,0 7.4044,-2.46814 12.2927,-6.6446 20,-8.57143 13.0868,-3.2717 43.4759,5.4049 54.2857,0 9.1051,-4.55256 18.3159,-5.15291 28.5714,-8.57143 11.9536,5.17387 3.3049,-4.50961 5.7143,-5.71428 8.2043,-4.10214 26.5132,1.30264 34.2857,2.85714 21.508,4.3016 60.7898,-6.40341 80,0 6.7166,2.23885 12.8191,4.27811 20,5.71428 18.4825,3.6965 36.222,-0.30694 54.2857,5.71429 14.3843,4.79477 34.5437,-5.61111 48.5715,0 3.1882,1.2753 5.5,4.17862 8.5714,5.71429 5.3034,2.65168 14.3378,-1.8874 20,0 33.2105,11.07017 70.0682,8.57142 105.7143,8.57142 32.8167,0 63.9048,-2.85714 97.1428,-2.85714 7.5849,0 23.9969,-2.47724 31.4286,0 3.2576,1.08588 5.3832,4.43898 8.5714,5.71429 10.3715,4.14859 22.3499,-2.85715 31.4286,-2.85715 0.8001,0 51.2981,-0.13051 51.4286,0 1.5407,1.54075 4.7399,11.42858 -2.8572,11.42858"
       id="path3769"
       inkscape:connector-curvature="0" />
    <path
       style="fill:none;stroke:#0000cf;stroke-width:55.84735489;stroke-linecap:butt;stroke-linejoin:miter;stroke-miterlimit:4;stroke-opacity:1;stroke-dasharray:none"
       d="m 195.8544,40.28586 c 5.31762,54.629494 -22.59449,100.88963 -4.86794,154.45662 0.9872,2.98316 0.89224,8.9477 1.62265,12.25846 1.41929,6.43332 4.66131,9.18239 6.49058,14.71016 0.48377,1.4619 -0.96756,4.17243 0,4.90339 0.96756,0.73095 2.27773,-0.73096 3.24529,0 0.24598,0.18583 20.62068,27.9889 21.09437,29.4203 2.98081,9.00757 9.72714,22.01259 11.3585,31.87201 0.26237,1.58566 -0.60006,3.54343 0,4.90337 0.67088,1.52048 2.39008,1.15954 3.24528,2.45171 0.53184,0.80356 5.08013,22.70645 6.49059,26.96861 1.23762,3.73994 3.65791,6.1503 4.86792,9.80677 0.85116,2.57205 0.38917,10.39478 1.62265,12.25846 5.64284,8.52591 8.43789,25.9886 11.3585,39.22708 0.88095,3.99316 3.33074,7.61331 4.86794,12.25846 0.85119,2.57217 -1.29513,10.30162 0,12.25847 3.07188,4.64138 1.9531,11.80396 3.24528,19.61353 0.58666,3.54565 2.48037,6.33956 3.24529,9.80677 3.40103,15.41613 3.54605,27.8775 8.11321,41.67878 1.08177,3.26891 -1.08175,8.98954 0,12.25846 0.2419,0.73095 1.24019,-0.57787 1.62265,0 0.75009,1.13333 -0.48986,5.87482 0,7.35508 1.17138,3.53973 2.07391,6.26704 3.24529,9.80677 0.86541,2.61513 -0.86542,7.19163 0,9.80677 3.1864,9.62881 1.74508,17.53183 4.86793,26.96861 1.08176,3.26893 -1.08176,8.98954 0,12.25846 1.61711,4.88667 1.62818,9.82349 3.24528,14.71016 0.8512,2.57217 -1.29513,10.30162 0,12.25846 0.38246,0.57787 1.24019,-0.57786 1.62265,0 1.62265,2.4517 -1.62265,12.25847 0,14.71015 0.38246,0.57788 1.24018,-0.57786 1.62265,0 1.33056,2.0104 0.49204,16.19706 1.62264,19.61354 0.3726,1.12597 -2.98004,24.11615 -3.24529,24.51694 -0.38246,0.57787 -1.24019,-0.57788 -1.62265,0 -0.62078,0.93794 0,11.39857 0,12.25846 0,1.63446 0,3.26892 0,4.90338 -0.54088,0 -1.38075,-0.73095 -1.62264,0 -2.82079,8.52402 2.01592,22.73434 0,31.872 -1.27884,5.79672 -1.62264,8.58703 -1.62264,14.71016 0,1.49613 0.63224,8.8515 0,9.80677 -0.38246,0.57786 -1.38076,-0.73096 -1.62264,0 -1.11154,3.35888 -0.5028,8.87445 -1.62265,12.25846 -0.68416,2.06746 -2.56112,2.83593 -3.24529,4.90338 -0.86541,2.61514 0.86542,7.19163 0,9.80677 -2.09435,6.32885 -2.77356,8.38132 -4.86793,14.71017 -0.48985,1.48025 0.75009,6.22174 0,7.35507 -4.19338,6.33588 -9.3348,14.10418 -12.98114,19.61354 -0.58229,0.87978 -4.60884,2.06021 -6.49059,4.90338 -1.14737,1.73361 -3.41659,-1.09643 -4.86792,0 -0.48378,0.36547 0,1.63447 0,2.4517 -0.54089,0.81723 -0.93848,1.93482 -1.62265,2.45169 -5.65363,4.27111 -3.76339,0.78282 -8.11321,7.35508 -0.81133,1.22584 -4.05662,-1.22585 -4.86794,0 -2.44406,3.6928 -9.44902,6.92167 -9.73586,7.35507 -0.35208,0.53197 -1.30628,4.66439 -1.62264,4.90339 -0.96756,0.73095 -2.27773,-0.73096 -3.24529,0 -0.48378,0.36547 0.24189,1.72073 0,2.45169 -1.19572,3.6133 -4.87158,4.9089 -6.49058,7.35507 -0.81132,1.22586 0.81133,6.12923 0,7.35508 -1.09238,1.65051 -2.05057,1.29312 -3.24528,4.90339 -2.50935,7.58286 0,28.12211 0,36.77537 0,2.37718 -0.95792,21.34153 0,22.06525 1.45701,1.10067 5.62929,-0.49967 6.49058,-2.45166 1.50013,-3.39993 -0.65592,-8.29432 0,-12.25853 0.70643,-4.26952 2.16351,-8.1723 3.24528,-12.25845"
       id="path3828"
       inkscape:connector-curvature="0" />
    <path
       style="fill:none;stroke:#0000cf;stroke-width:69.13508606;stroke-linecap:butt;stroke-linejoin:miter;stroke-miterlimit:4;stroke-opacity:1;stroke-dasharray:none"
       d="m 615.27121,68.148801 c -8.27758,53.781579 35.17133,99.323589 7.57759,152.059059 -1.53669,2.93684 -1.38889,8.8088 -2.52586,12.06817 -2.20932,6.33345 -7.25596,9.03985 -10.10345,14.48181 -0.75306,1.43921 1.50614,4.10766 0,4.82727 -1.50613,0.7196 -3.54558,-0.71961 -5.05172,0 -0.38291,0.18296 -32.09883,27.55443 -32.83619,28.96361 -4.64003,8.86774 -15.1416,21.6709 -17.68103,31.37726 -0.4084,1.56105 0.93407,3.48843 0,4.82726 -1.0443,1.49688 -3.72047,1.14154 -5.05171,2.41365 -0.82788,0.79108 -7.9079,22.35398 -10.10345,26.54998 -1.92653,3.68188 -10.60771,11.80453 -12.49125,15.40424 -1.32494,2.53212 4.30787,4.48372 2.38781,6.31847 -8.78384,8.39356 -13.1347,25.58518 -17.68102,38.61815 -1.37132,3.93117 -5.18474,7.49513 -7.57759,12.06817 -1.32499,2.53225 2.01604,10.14171 0,12.06819 -4.78179,4.56934 -3.04026,11.62074 -5.05172,19.30907 -0.91322,3.49061 -3.86102,6.24114 -5.05172,9.65454 -5.29416,15.17682 -5.51991,27.44474 -12.6293,41.03179 -1.68391,3.21818 1.6839,8.84999 0,12.06818 -0.37654,0.71961 -1.93051,-0.5689 -2.52586,0 -1.16762,1.11574 0.76252,5.78361 0,7.2409 -1.82341,3.48478 -3.22832,6.16975 -5.05173,9.65455 -1.34712,2.57453 1.34714,7.07999 0,9.65453 -4.96005,9.47933 -2.71644,17.25969 -7.57758,26.54998 -1.6839,3.21818 1.68391,8.85 0,12.06818 -2.51725,4.81081 -2.53447,9.671 -5.05171,14.48181 -1.325,2.53223 2.01604,10.14169 0,12.06817 -0.59536,0.5689 -1.93051,-0.56891 -2.52587,0 -2.52586,2.41363 2.52587,12.06817 0,14.48181 -0.59535,0.5689 -1.93051,-0.5689 -2.52586,0 -2.07121,1.97917 -0.76594,15.94562 -2.52586,19.30907 -0.58001,1.10849 4.63882,23.7418 5.05172,24.13635 0.59536,0.5689 1.93051,-0.5689 2.52587,0 0.96632,0.9234 0,11.22164 0,12.06818 0,1.60909 0,3.21817 0,4.82726 0.84195,0 2.14932,-0.7196 2.52586,0 4.39093,8.39171 -3.13804,22.38144 0,31.37726 1.99068,5.70673 2.52585,8.45373 2.52585,14.48181 0,1.4729 -0.98417,8.71409 0,9.65454 0.59536,0.56889 2.14934,-0.71962 2.52586,0 1.73025,3.30674 0.78267,8.73669 2.52587,12.06817 1.06499,2.03535 3.98672,2.79191 5.05172,4.82727 1.34712,2.57454 -1.34714,7.07999 0,9.65454 3.26014,6.2306 4.31742,8.25121 7.57758,14.48181 0.76252,1.45728 -1.16762,6.12517 0,7.24091 6.52756,6.23752 14.53086,13.88523 20.20688,19.30907 0.90641,0.86613 7.17427,2.02824 10.10345,4.82726 1.78605,1.7067 5.31839,-1.0794 7.57757,0 0.75308,0.35981 0,1.6091 0,2.41365 0.84197,0.80454 1.46087,1.90479 2.52588,2.41363 8.80063,4.20481 5.85821,0.77067 12.62929,7.24091 1.26293,1.20681 6.31466,-1.20683 7.57759,0 3.80451,3.63548 14.70865,6.81422 15.15517,7.2409 0.54805,0.52371 2.03339,4.59198 2.52585,4.82727 1.50613,0.7196 3.54559,-0.7196 5.05172,0 0.75306,0.35981 -0.37652,1.69402 0,2.41363 1.8613,3.55721 7.58327,4.83271 10.10345,7.24091 1.26292,1.20682 -1.26293,6.03408 0,7.2409 1.70044,1.62489 3.19198,1.27304 5.05171,4.82727 3.90614,7.46517 0,27.68562 0,36.20455 0,2.34027 1.49113,21.01024 0,21.72273 -2.26802,1.08358 -8.76273,-0.49192 -10.10344,-2.4136 -2.33516,-3.34716 1.02102,-8.16557 0,-12.06826 -1.09967,-4.20324 -3.3678,-8.04544 -5.05172,-12.06816"
       id="path3828-9"
       inkscape:connector-curvature="0"
       sodipodi:nodetypes="csssscsssssssssssssccsssssssssssscscsssscsssssssscsssssssssssccsc" />
  </g>
</svg>
