<?xml version="1.0" encoding="UTF-8" standalone="no"?>
<!-- Created with Inkscape (http://www.inkscape.org/) -->

<svg
   xmlns:dc="http://purl.org/dc/elements/1.1/"
   xmlns:cc="http://creativecommons.org/ns#"
   xmlns:rdf="http://www.w3.org/1999/02/22-rdf-syntax-ns#"
   xmlns:svg="http://www.w3.org/2000/svg"
   xmlns="http://www.w3.org/2000/svg"
   xmlns:sodipodi="http://sodipodi.sourceforge.net/DTD/sodipodi-0.dtd"
   xmlns:inkscape="http://www.inkscape.org/namespaces/inkscape"
   width="210mm"
   height="297mm"
   id="svg2"
   version="1.1"
   inkscape:version="0.48.4 r9939"
   sodipodi:docname="addout.svg">
  <defs
     id="defs4" />
  <sodipodi:namedview
     id="base"
     pagecolor="#ffffff"
     bordercolor="#666666"
     borderopacity="1.0"
     inkscape:pageopacity="0.0"
     inkscape:pageshadow="2"
     inkscape:zoom="0.35"
     inkscape:cx="350"
     inkscape:cy="520"
     inkscape:document-units="px"
     inkscape:current-layer="layer1"
     showgrid="false"
     inkscape:window-width="1855"
     inkscape:window-height="1056"
     inkscape:window-x="65"
     inkscape:window-y="24"
     inkscape:window-maximized="1" />
  <metadata
     id="metadata7">
    <rdf:RDF>
      <cc:Work
         rdf:about="">
        <dc:format>image/svg+xml</dc:format>
        <dc:type
           rdf:resource="http://purl.org/dc/dcmitype/StillImage" />
        <dc:title></dc:title>
      </cc:Work>
    </rdf:RDF>
  </metadata>
  <g
     inkscape:label="Ebene 1"
     inkscape:groupmode="layer"
     id="layer1">
    <path
       style="fill:none;stroke:#000024;stroke-width:44.19145966;stroke-linecap:butt;stroke-linejoin:miter;stroke-miterlimit:4;stroke-opacity:1;stroke-dasharray:none"
       d="M -11.14963,-0.97296229 C -9.934483,19.10924 -5.599345,37.486165 -3.026064,56.895126 c 1.312642,9.900643 -1.564177,20.804528 0,30.636042 -0.621403,6.835721 4.236804,11.092094 5.415703,17.020042 1.247083,6.27076 -1.62191,14.30739 0,20.42402 4.623373,17.43595 5.415697,29.19224 5.415697,51.0601 0,36.9126 9.097204,103.07626 -2.707844,132.7562 -4.386428,11.02824 0.560146,31.92759 -2.707853,44.25208 -3.405395,12.84266 6.266999,43.3755 2.707853,61.27211 -2.38632,11.99925 -6.463203,24.92079 -8.123556,37.44405 -2.403783,18.13053 0.173645,36.35265 -2.707852,54.46408 -3.822575,24.02655 3.207117,50.69841 0,74.88814 -2.646518,19.96132 -4.301044,38.64714 -8.123567,57.86809 -4.125085,20.74233 0.116829,46.77487 -2.70785,68.08011 -3.928134,29.62798 -2.70785,61.13668 -2.70785,91.90814 0,64.95413 2.70785,126.66776 2.70785,190.62432 0,14.75065 0,29.50135 0,44.25205 0,1.7944 0.871187,16.4725 0,17.02 -1.614649,1.0149 -3.80106,-1.0148 -5.415709,0 -0.80732,0.5075 0.902617,3.404 0,3.404 -4.698514,0 4.279523,-28.4936 5.415709,-30.636"
       id="path3755"
       inkscape:connector-curvature="0" />
    <path
       style="fill:none;stroke:#000024;stroke-width:43.90842819;stroke-linecap:butt;stroke-linejoin:miter;stroke-miterlimit:4;stroke-opacity:1;stroke-dasharray:none"
       d="m 736.40473,-12.614008 c -5.67096,67.42728 -5.49331,135.972968 -5.49331,204.401548 0,18.68186 1.93053,37.50798 0,56.04557 -1.04697,10.05344 -4.3777,19.62841 -5.4933,29.67121 -3.49629,31.47433 -2.37597,71.4574 2.74665,102.20074 4.65064,27.91075 -1.07329,62.48694 -5.4933,89.01358 -4.99548,29.98025 1.46638,61.969 -2.74666,92.31038 -0.95194,6.85569 -4.3577,12.9655 -5.4933,19.78079 -2.20308,13.22174 -2.79856,26.62358 -5.4933,39.5616 -3.43025,16.46925 2.32895,35.97608 0,52.74877 -0.74343,5.35393 -4.37984,10.60309 -2.74667,16.48399 0.99898,3.59722 6.89528,34.51331 5.49332,39.56161 -1.2948,4.66237 -4.19853,8.5248 -5.49332,13.18719 -4.45268,16.03362 -8.38675,51.86778 -5.4933,69.23278 0.40149,2.40956 1.83111,4.39573 2.74666,6.59359 0.91554,3.29679 2.27067,6.46256 2.74664,9.89039 1.02957,7.41478 -1.22895,15.70207 0,23.07759 2.6791,16.07848 4.29567,35.24901 8.23997,49.45201 2.78392,10.02463 -3.93809,26.81102 0,36.26477 3.27732,7.86754 3.21251,18.16143 5.4933,26.37439 0.86856,3.1276 -2.28534,8.0617 0,9.89036 2.40898,1.92769 5.83099,1.36919 8.23996,3.29688 1.09598,0.87695 0,14.48377 0,16.48393 0,7.51804 2.63426,23.34734 0,29.67124 -3.27013,7.8503 -8.23996,17.0713 -8.23996,26.3745 0,7.1781 -2.08041,10.3392 -5.4933,16.484 -0.71821,1.293 -3.6622,4.3957 -2.74665,3.2967 13.71725,-16.4647 9.53129,-27.9244 24.71987,-46.1552"
       id="path3759"
       inkscape:connector-curvature="0" />
    <path
       style="fill:none;stroke:#000024;stroke-width:60;stroke-linecap:butt;stroke-linejoin:miter;stroke-miterlimit:4;stroke-opacity:1;stroke-dasharray:none"
       d="m 715.99999,0.93361029 c -24.92492,11.66757971 -53.40294,2.75906001 -80,5.71429001 -45.58378,5.0648597 -86.86921,3.10031 -128.57143,-2.85715 -33.52644,-4.78949001 -69.46962,5.56459 -102.85714,0 -5.94143,-0.99024 -11.23644,-4.53300001 -17.14286,-5.71428 -25.7998,-5.15996 -94.54282,0.62285 -120,5.71428 -11.83439,2.36688 -27.98398,0 -40,0 -33.33333,0 -66.66666,0 -100,0 -9.7537,0 -16.34468,0.51474 -25.71428,2.85715 -6.553266,1.63831 -7.910267,-2.63676 -8.571427,-2.85715 -14.662948,-4.88765 -49.362796,0 -65.714282,0 -6.666666,0 -15.285955,4.71405 -19.9999997,0 -0.680979,-0.68098 0,-9.58248 0,-11.42857"
       id="path3761"
       inkscape:connector-curvature="0" />
    <path
       style="fill:none;stroke:#000024;stroke-width:63.19382858;stroke-linecap:butt;stroke-linejoin:miter;stroke-miterlimit:4;stroke-opacity:1;stroke-dasharray:none"
       d="m 784.11737,1025.0509 c -62.84187,-8.2718 -128.7492,-4.9609 -193.48763,-4.9609 -16.62354,0 -32.18757,0.9783 -47.45924,-2.4805 -8.23637,-1.8654 -16.70994,-4.1024 -25.55497,-4.9609 -16.4806,-1.5997 -59.58091,4.5636 -73.01419,0 -1.08843,-0.3698 1.15445,-2.219 0,-2.4805 -18.06216,-4.0907 -60.40668,5.9964 -80.31563,0 -39.07043,-11.76766 -94.74091,-11.08526 -164.28195,0 -9.87103,1.5735 -16.23473,-1.2139 -25.55498,-2.4805 -29.35747,-3.9893 -64.79984,0 -94.918453,0 -7.193795,0 -7.054286,-0.7708 -14.602836,-2.4804 -11.803108,-2.6732 -31.301138,0 -43.80852,0 -19.4704557,0 -38.94091,0 -58.411363,0 -2.523184,0 -28.146907,0 -18.253552,0"
       id="path3765"
       inkscape:connector-curvature="0"
       sodipodi:nodetypes="csssccsscssssc" />
    <path
       style="fill:none;stroke:#00c000;stroke-width:100;stroke-linecap:butt;stroke-linejoin:miter;stroke-miterlimit:4;stroke-opacity:1;stroke-dasharray:none"
       d="m -2036.6245,329.16552 c 29.6064,7.46353 63.8068,9.89074 94.2857,2.85714 4.9974,-1.15324 9.2566,-4.70846 14.2857,-5.71428 10.9599,-2.19198 23.2123,-1.01157 34.2857,-2.85715 3.9967,-0.66611 10.289,-5.04816 14.2857,-5.71428 2.8183,-0.46971 5.8609,0.90351 8.5715,0 7.4044,-2.46814 12.2927,-6.6446 20,-8.57143 13.0868,-3.2717 43.4759,5.4049 54.2857,0 9.1051,-4.55256 18.3159,-5.15291 28.5714,-8.57143 11.9536,5.17387 3.3049,-4.50961 5.7143,-5.71428 8.2043,-4.10214 26.5132,1.30264 34.2857,2.85714 21.508,4.3016 60.7898,-6.40341 80,0 6.7166,2.23885 12.8191,4.27811 20,5.71428 18.4825,3.6965 36.222,-0.30694 54.2857,5.71429 14.3843,4.79477 34.5437,-5.61111 48.5715,0 3.1882,1.2753 5.5,4.17862 8.5714,5.71429 5.3034,2.65168 14.3378,-1.8874 20,0 33.2105,11.07017 70.0682,8.57142 105.7143,8.57142 32.8167,0 63.9048,-2.85714 97.1428,-2.85714 7.5849,0 23.9969,-2.47724 31.4286,0 3.2576,1.08588 5.3832,4.43898 8.5714,5.71429 10.3715,4.14859 22.3499,-2.85715 31.4286,-2.85715 0.8001,0 51.2981,-0.13051 51.4286,0 1.5407,1.54075 4.7399,11.42858 -2.8572,11.42858"
       id="path3769"
       inkscape:connector-curvature="0" />
    <path
       style="fill:none;stroke:#0000cf;stroke-width:74.32500458;stroke-linecap:butt;stroke-linejoin:miter;stroke-miterlimit:4;stroke-opacity:1;stroke-dasharray:none"
       d="m 302.30131,55.238971 c -9.6263,53.450259 40.902,98.711829 8.81225,151.122519 -1.78708,2.91876 -1.61519,8.75455 -2.93742,11.99385 -2.56929,6.29445 -8.43821,8.98418 -11.74966,14.39262 -0.87576,1.43035 1.75154,4.08237 0,4.79755 -1.75154,0.71517 -4.12329,-0.71518 -5.87483,0 -0.4453,0.18182 -37.32889,27.38473 -38.18639,28.78523 -5.39606,8.81313 -17.60871,21.53743 -20.5619,31.18402 -0.47495,1.55143 1.08626,3.46694 0,4.79753 -1.21446,1.48766 -4.32667,1.13451 -5.87482,2.39878 -0.96277,0.78622 -9.19638,22.21631 -11.74967,26.38647 -2.24043,3.65921 -6.6218,6.01754 -8.81223,9.59508 -1.54082,2.51653 -0.70451,10.1704 -2.93742,11.99385 -10.21504,8.34187 -15.27482,25.42761 -20.5619,38.38032 -1.59475,3.90696 -6.02952,7.44897 -8.81225,11.99385 -1.54088,2.51665 2.34453,10.07925 0,11.99386 -5.56092,4.54119 -3.53563,11.54916 -5.87482,19.19015 -1.06202,3.46911 -4.49012,6.20271 -5.87483,9.59508 -6.15677,15.08336 -6.4193,27.27573 -14.68707,40.7791 -1.95828,3.19835 1.95827,8.79549 0,11.99385 -0.43789,0.71517 -2.24506,-0.5654 -2.93741,0 -1.35787,1.10886 0.88676,5.748 0,7.19631 -2.12051,3.46332 -3.75433,6.13176 -5.87484,9.59508 -1.56662,2.55868 1.56663,7.03639 0,9.59508 -5.76822,9.42096 -3.15905,17.15339 -8.81224,26.38647 -1.95828,3.19836 1.95827,8.79549 0,11.99385 -2.9274,4.78118 -2.94743,9.61144 -5.87482,14.39262 -1.54089,2.51665 2.34453,10.07925 0,11.99385 -0.69236,0.5654 -2.24507,-0.56539 -2.93743,0 -2.93741,2.39878 2.93743,11.99386 0,14.39262 -0.69235,0.5654 -2.24505,-0.56539 -2.93741,0 -2.40868,1.967 -0.89074,15.84743 -2.93741,19.19016 -0.67452,1.10166 5.39465,23.59558 5.87482,23.98771 0.69236,0.5654 2.24507,-0.5654 2.93743,0 1.12377,0.9177 0,11.15252 0,11.99385 0,1.59918 0,3.19836 0,4.79754 0.97913,0 2.49952,-0.71517 2.93741,0 5.10638,8.34002 -3.64934,22.24359 0,31.18401 2.31504,5.67159 2.93741,8.40167 2.93741,14.39262 0,1.46384 -1.14453,8.66043 0,9.59508 0.69236,0.56539 2.49953,-0.71518 2.93741,0 2.01217,3.28638 0.9102,8.68289 2.93742,11.99385 1.23852,2.02283 4.63631,2.77472 5.87483,4.79754 1.56662,2.55869 -1.56663,7.03639 0,9.59508 3.79134,6.19223 5.02089,8.2004 8.81224,14.39263 0.88677,1.4483 -1.35786,6.08744 0,7.19631 7.59114,6.19911 16.89846,13.79972 23.49931,19.19016 1.0541,0.86079 8.34322,2.01574 11.74967,4.79753 2.07706,1.69619 6.18494,-1.07276 8.81223,0 0.87578,0.35759 0,1.59919 0,2.39878 0.97915,0.79959 1.6989,1.89306 2.93743,2.39877 10.23457,4.17891 6.81273,0.76592 14.68706,7.19631 1.46871,1.19938 7.34354,-1.19939 8.81225,0 4.4244,3.61309 17.10522,6.77226 17.62449,7.19631 0.63735,0.52048 2.36471,4.5637 2.93741,4.79754 1.75153,0.71517 4.12329,-0.71518 5.87483,0 0.87576,0.35758 -0.43788,1.68359 0,2.39877 2.16457,3.5353 8.81885,4.80294 11.74966,7.1963 1.4687,1.1994 -1.46871,5.99693 0,7.19632 1.9775,1.61488 3.71207,1.2652 5.87482,4.79754 4.54259,7.41918 0,27.51507 0,35.98154 0,2.32586 1.73409,20.88085 0,21.58894 -2.63757,1.07692 -10.1905,-0.48888 -11.74966,-2.39873 -2.71564,-3.32654 1.18738,-8.11528 0,-11.99392 -1.27884,-4.17736 -3.91654,-7.99589 -5.87482,-11.99384"
       id="path3828"
       inkscape:connector-curvature="0" />
    <path
       style="fill:none;stroke:#0000cf;stroke-width:74.32500458;stroke-linecap:butt;stroke-linejoin:miter;stroke-miterlimit:4;stroke-opacity:1;stroke-dasharray:none"
       d="m 455.78705,956.83784 c 9.6263,-53.45036 -40.902,-98.7119 -8.81225,-151.12259 1.78708,-2.91875 1.61519,-8.75455 2.93742,-11.99385 2.56929,-6.29444 8.43821,-8.98418 11.74966,-14.39262 0.87576,-1.43035 -1.75154,-4.08236 0,-4.79754 1.75154,-0.71517 4.12329,0.71518 5.87483,0 0.4453,-0.18183 37.32889,-27.38474 38.18639,-28.78524 5.39606,-8.81312 17.60871,-21.53743 20.5619,-31.18402 0.47495,-1.55143 -1.08626,-3.46694 0,-4.79753 1.21446,-1.48766 4.32667,-1.13451 5.87482,-2.39878 0.96277,-0.78621 9.19638,-22.21631 11.74967,-26.38647 2.24043,-3.65921 6.6218,-6.01754 8.81223,-9.59508 1.54082,-2.51653 0.70451,-10.1704 2.93742,-11.99385 10.21504,-8.34187 15.27482,-25.42761 20.5619,-38.38032 1.59475,-3.90696 6.02952,-7.44897 8.81225,-11.99385 1.54088,-2.51665 -2.34453,-10.07925 0,-11.99386 5.56092,-4.5412 3.53563,-11.54917 5.87482,-19.19016 1.06202,-3.46911 4.49012,-6.2027 5.87483,-9.59508 6.15677,-15.08335 6.4193,-27.27572 14.68707,-40.77909 1.95828,-3.19836 -1.95827,-8.79549 0,-11.99386 0.43789,-0.71517 2.24506,0.5654 2.93741,0 1.35787,-1.10886 -0.88676,-5.74799 0,-7.1963 2.12051,-3.46332 3.75433,-6.13176 5.87484,-9.59509 1.56662,-2.55868 -1.56663,-7.03639 0,-9.59508 5.76822,-9.42095 3.15905,-17.15339 8.81224,-26.38647 1.95827,-3.19836 -1.95827,-8.79549 0,-11.99385 2.9274,-4.78118 2.94743,-9.61144 5.87482,-14.39262 1.54089,-2.51664 -2.34453,-10.07924 0,-11.99385 0.69236,-0.5654 2.24506,0.5654 2.93743,0 2.93741,-2.39877 -2.93743,-11.99385 0,-14.39262 0.69235,-0.5654 2.24505,0.56539 2.93741,0 2.40868,-1.96699 0.89074,-15.84742 2.93741,-19.19016 0.67452,-1.10166 -5.39465,-23.59558 -5.87482,-23.9877 -0.69237,-0.5654 -2.24507,0.56539 -2.93743,0 -1.12377,-0.91771 0,-11.15253 0,-11.99386 0,-1.59918 0,-3.19835 0,-4.79753 -0.97913,0 -2.49952,0.71517 -2.93741,0 -5.10638,-8.34003 3.64934,-22.2436 0,-31.18402 -2.31504,-5.67158 -2.93741,-8.40167 -2.93741,-14.39262 0,-1.46383 1.14453,-8.66043 0,-9.59508 -0.69236,-0.56539 -2.49954,0.71518 -2.93741,0 -2.01217,-3.28638 -0.9102,-8.68289 -2.93742,-11.99385 -1.23852,-2.02282 -4.63631,-2.77472 -5.87483,-4.79754 -1.56662,-2.55869 1.56663,-7.03639 0,-9.59508 -3.79134,-6.19223 -5.02089,-8.2004 -8.81224,-14.39263 -0.88677,-1.4483 1.35786,-6.08744 0,-7.19631 -7.59114,-6.19911 -16.89846,-13.79972 -23.49931,-19.19016 -1.0541,-0.86079 -8.34322,-2.01574 -11.74967,-4.79753 -2.07706,-1.69619 -6.18494,1.07276 -8.81223,0 -0.87578,-0.35759 0,-1.59919 0,-2.39878 -0.97915,-0.79959 -1.6989,-1.89306 -2.93743,-2.39877 -10.23457,-4.17891 -6.81273,-0.76592 -14.68706,-7.19631 -1.46871,-1.19938 -7.34354,1.19939 -8.81225,0 -4.4244,-3.61309 -17.10522,-6.77226 -17.62449,-7.19631 -0.63735,-0.52048 -2.36471,-4.5637 -2.93741,-4.79754 -1.75153,-0.71517 -4.12329,0.71517 -5.87483,0 -0.87576,-0.35759 0.43788,-1.68359 0,-2.39877 -2.16457,-3.5353 -8.81885,-4.80294 -11.74966,-7.19631 -1.4687,-1.19939 1.46871,-5.99692 0,-7.19631 -1.9775,-1.61488 -3.71207,-1.2652 -5.87482,-4.79754 -4.54259,-7.41919 0,-27.51511 0,-35.98158 0,-2.32586 -1.73409,-20.88085 0,-21.58895 2.63757,-1.07691 10.1905,0.48889 11.74966,2.39874 2.71564,3.32654 -1.18738,8.11528 0,11.99393 1.27884,4.17736 3.91654,7.99589 5.87482,11.99384"
       id="path3828-9"
       inkscape:connector-curvature="0" />
  </g>
</svg>
