<?xml version="1.0" encoding="UTF-8" standalone="no"?>
<!-- Created with Inkscape (http://www.inkscape.org/) -->

<svg
   xmlns:dc="http://purl.org/dc/elements/1.1/"
   xmlns:cc="http://creativecommons.org/ns#"
   xmlns:rdf="http://www.w3.org/1999/02/22-rdf-syntax-ns#"
   xmlns:svg="http://www.w3.org/2000/svg"
   xmlns="http://www.w3.org/2000/svg"
   xmlns:sodipodi="http://sodipodi.sourceforge.net/DTD/sodipodi-0.dtd"
   xmlns:inkscape="http://www.inkscape.org/namespaces/inkscape"
   width="210mm"
   height="297mm"
   id="svg2"
   version="1.1"
   inkscape:version="0.48.4 r9939"
   sodipodi:docname="adduline.svg">
  <defs
     id="defs4" />
  <sodipodi:namedview
     id="base"
     pagecolor="#ffffff"
     bordercolor="#666666"
     borderopacity="1.0"
     inkscape:pageopacity="0.0"
     inkscape:pageshadow="2"
     inkscape:zoom="0.35"
     inkscape:cx="350"
     inkscape:cy="520"
     inkscape:document-units="px"
     inkscape:current-layer="layer1"
     showgrid="false"
     inkscape:window-width="1855"
     inkscape:window-height="1056"
     inkscape:window-x="65"
     inkscape:window-y="24"
     inkscape:window-maximized="1" />
  <metadata
     id="metadata7">
    <rdf:RDF>
      <cc:Work
         rdf:about="">
        <dc:format>image/svg+xml</dc:format>
        <dc:type
           rdf:resource="http://purl.org/dc/dcmitype/StillImage" />
        <dc:title></dc:title>
      </cc:Work>
    </rdf:RDF>
  </metadata>
  <g
     inkscape:label="Ebene 1"
     inkscape:groupmode="layer"
     id="layer1">
    <path
       style="fill:none;stroke:#000024;stroke-width:38.43152237;stroke-linecap:butt;stroke-linejoin:miter;stroke-miterlimit:4;stroke-opacity:1;stroke-dasharray:none"
       d="m 102.29096,261.86136 c 1.41812,13.01445 6.47738,24.92378 9.48049,37.50193 1.5319,6.4162 -1.82545,13.48256 0,19.85396 -0.7252,4.42995 4.9445,7.18833 6.32032,11.02999 1.45539,4.06382 -1.89283,9.27203 0,13.23597 5.39564,11.29952 6.32031,18.91829 6.32031,33.08995 0,23.92154 10.61676,66.79949 -3.16015,86.03384 -5.11912,7.14695 0.65371,20.69096 -3.16016,28.67795 -3.97422,8.3228 7.31381,28.10988 3.16016,39.70794 -2.78492,7.77622 -7.54279,16.15014 -9.48048,24.26595 -2.8053,11.74965 0.20265,23.55866 -3.16016,35.29593 -4.46108,15.57062 3.74282,32.85556 0,48.53193 -3.08858,12.93611 -5.01947,25.04562 -9.48049,37.50193 -4.81412,13.44225 0.136344,30.31287 -3.160157,44.11992 -4.584271,19.20068 -3.160157,39.62017 -3.160157,59.56189 0,42.0941 3.160157,82.08817 3.160157,123.53579 0,9.55931 0,19.11863 0,28.67795 0,1.16286 1.016706,10.67511 0,11.02997 -1.884352,0.65771 -4.435971,-0.65769 -6.320324,0 -0.942171,0.32886 1.053386,2.206 0,2.206 -5.483332,0 4.994355,-18.46554 6.320324,-19.85396"
       id="path3755"
       inkscape:connector-curvature="0" />
    <path
       style="fill:none;stroke:#000024;stroke-width:38.7430954;stroke-linecap:butt;stroke-linejoin:miter;stroke-miterlimit:4;stroke-opacity:1;stroke-dasharray:none"
       d="m 641.84456,239.08904 c -6.46918,46.01887 -6.26652,92.80105 -6.26652,139.5033 0,12.7503 2.20225,25.59906 0,38.2509 -1.19434,6.86143 -4.9939,13.39631 -6.26652,20.25049 -3.98841,21.48111 -2.7104,48.76941 3.13326,69.75163 5.30524,19.04898 -1.22436,42.6471 -6.26651,60.75144 -5.69862,20.46141 1.67277,42.29361 -3.13327,63.00149 -1.08593,4.67899 -4.97108,8.84891 -6.26652,13.50032 -2.51317,9.02379 -3.19246,18.17049 -6.26651,27.00064 -3.91307,11.24021 2.65677,24.55355 0,36.00085 -0.84807,3.65403 -4.99632,7.23657 -3.13327,11.25026 1.13959,2.45509 7.86582,23.5552 6.26653,27.00065 -1.47704,3.18205 -4.78949,5.81815 -6.26653,9.00021 -5.07942,10.94289 -9.56723,35.39957 -6.26651,47.25112 0.458,1.64451 2.08884,3.00007 3.13326,4.5001 1.04441,2.25005 2.59029,4.41067 3.13325,6.75016 1.17449,5.06055 -1.40193,10.7166 0,15.75037 3.05619,10.9735 4.9003,24.05731 9.39978,33.75081 3.17579,6.84177 -4.49239,18.29842 0,24.75057 3.73863,5.36957 3.66469,12.39511 6.26652,18.00043 0.99082,2.13457 -2.60702,5.50208 0,6.75013 2.74806,1.31564 6.65173,0.93447 9.39978,2.25011 1.25024,0.59851 0,9.88509 0,11.25025 0,5.131 3.00504,15.93449 0,20.25049 -3.73042,5.35781 -9.39978,11.6511 -9.39978,18.00047 0,4.89899 -2.37324,7.05648 -6.26652,11.25025 -0.8193,0.8825 -4.17767,3.00005 -3.13325,2.25002 15.64803,-11.2371 10.87288,-19.05826 28.19933,-31.50074"
       id="path3759"
       inkscape:connector-curvature="0" />
    <path
       style="fill:none;stroke:#000024;stroke-width:60;stroke-linecap:butt;stroke-linejoin:miter;stroke-miterlimit:4;stroke-opacity:1;stroke-dasharray:none"
       d="m 716,369.50504 c -24.92492,11.66758 -53.40294,2.75906 -80,5.71429 -45.58378,5.06486 -86.86921,3.10031 -128.57143,-2.85715 -33.52644,-4.78949 -69.46962,5.56459 -102.85714,0 -5.94143,-0.99024 -11.23644,-4.533 -17.14286,-5.71428 -25.7998,-5.15996 -94.54282,0.62285 -120,5.71428 -11.83439,2.36688 -27.98398,0 -40,0 -33.33333,0 -66.66666,0 -100,0 -9.7537,0 -16.34468,0.51474 -25.71428,2.85715 -6.553274,1.63831 -7.910271,-2.63676 -8.571433,-2.85715 -14.662949,-4.88765 -49.3628,0 -65.714286,0 -6.666666,0 -15.285955,4.71405 -19.9999999,0 -0.680979,-0.68098 0,-9.58248 0,-11.42857"
       id="path3761"
       inkscape:connector-curvature="0" />
    <path
       style="fill:none;stroke:#000024;stroke-width:20;stroke-linecap:butt;stroke-linejoin:miter;stroke-miterlimit:4;stroke-opacity:1;stroke-dasharray:none"
       d="m 392.42277,256.89606 c 1.90476,4.7619 4.60171,9.27912 5.71428,14.28571 4.91668,22.12503 -2.35556,49.05075 0,71.42858 0.91919,8.73227 4.7951,16.98201 5.71429,25.71428 0.997,9.47148 -0.50056,19.06078 0,28.57143 2.71837,51.649 2.11481,-0.22437 8.57143,51.42857 1.53567,12.28535 0,24.76191 0,37.14286 0,39.56984 -1.99251,71.35364 -5.71429,108.57143 -2.62177,26.21769 4.00223,53.9855 0,80 -0.77986,5.06909 -4.79683,9.23971 -5.71428,14.28571 -1.02221,5.62212 0.56859,11.45693 0,17.14286 -1.88864,18.88632 -3.27199,4.30909 -8.57143,22.85714 -1.04656,3.66295 1.20467,7.81454 0,11.42857 -1.97262,5.91787 -4.78655,10.64871 -5.71429,17.14286 -4.59535,32.16743 9.29168,70.70832 -11.42857,91.42857 -2.02031,2.02031 0.90351,5.86091 0,8.57143 -7.68132,23.04397 3.56386,110.72185 -2.85714,117.14285 -1.98064,1.98064 -10.51098,-12.45052 -11.42857,-14.28571"
       id="path3763"
       inkscape:connector-curvature="0" />
    <path
       style="fill:none;stroke:#000024;stroke-width:60;stroke-linecap:butt;stroke-linejoin:miter;stroke-miterlimit:4;stroke-opacity:1;stroke-dasharray:none"
       d="M 691.42857,900.93361 C 642.24685,891.40563 590.66602,895.21933 540,895.21933 c -13.01003,0 -25.19085,1.12686 -37.14286,-2.85715 -6.44601,-2.14867 -13.07765,-4.72538 -20,-5.71428 -12.89816,-1.8426 -46.62961,5.25662 -57.14285,0 -0.85184,-0.42592 0.9035,-2.55598 0,-2.85714 -14.13593,-4.71198 -46.58448,0 -62.85715,0 -42.85714,0 -85.71428,0 -128.57143,0 -7.82287,0 -12.70573,-1.39829 -20,-2.85715 -22.97594,-4.59519 -50.71409,0 -74.28571,0 -5.63006,0 -5.52088,-0.88791 -11.42857,-2.85714 -9.23743,-3.07914 -24.49711,0 -34.285714,0 -15.238097,0 -30.476192,0 -45.714287,0 -1.974711,0 -22.028518,0 -14.285715,0"
       id="path3765"
       inkscape:connector-curvature="0" />
    <path
       style="fill:none;stroke:#00c000;stroke-width:100;stroke-linecap:butt;stroke-linejoin:miter;stroke-miterlimit:4;stroke-opacity:1;stroke-dasharray:none"
       d="m -70.910228,640.59409 c 29.60637,7.46353 63.8067896,9.89074 94.28571,2.85714 4.99739,-1.15324 9.25659,-4.70846 14.28572,-5.71428 10.95989,-2.19198 23.21228,-1.01157 34.28571,-2.85715 3.99671,-0.66611 10.28901,-5.04816 14.28572,-5.71428 2.81827,-0.46971 5.8609,0.90351 8.57143,0 7.404398,-2.46814 12.292678,-6.6446 19.999998,-8.57143 13.08681,-3.2717 43.4759,5.4049 54.28571,0 9.10513,-4.55256 18.31588,-5.15291 28.57143,-8.57143 11.9536,5.17387 3.30493,-4.50961 5.71428,-5.71428 8.20428,-4.10214 26.51324,1.30264 34.28572,2.85714 21.50798,4.3016 60.78978,-6.40341 80,0 6.71655,2.23885 12.81912,4.27811 20,5.71428 18.48247,3.6965 36.22201,-0.30694 54.28571,5.71429 14.38432,4.79477 34.54365,-5.61111 48.57143,0 3.18826,1.2753 5.50009,4.17862 8.57143,5.71429 5.30337,2.65168 14.33782,-1.8874 20,0 33.21052,11.07017 70.06826,8.57142 105.71429,8.57142 32.8167,0 63.90479,-2.85714 97.14285,-2.85714 7.58484,0 23.99683,-2.47724 31.42857,0 3.25765,1.08588 5.38318,4.43898 8.57143,5.71429 10.37148,4.14859 22.34984,-2.85715 31.42857,-2.85715 0.80013,0 51.29807,-0.13051 51.42858,0 1.54074,1.54075 4.73988,11.42858 -2.85715,11.42858"
       id="path3769"
       inkscape:connector-curvature="0" />
  </g>
</svg>
