<?xml version="1.0" encoding="UTF-8" standalone="no"?>
<!-- Created with Inkscape (http://www.inkscape.org/) -->

<svg
   xmlns:dc="http://purl.org/dc/elements/1.1/"
   xmlns:cc="http://creativecommons.org/ns#"
   xmlns:rdf="http://www.w3.org/1999/02/22-rdf-syntax-ns#"
   xmlns:svg="http://www.w3.org/2000/svg"
   xmlns="http://www.w3.org/2000/svg"
   xmlns:xlink="http://www.w3.org/1999/xlink"
   xmlns:sodipodi="http://sodipodi.sourceforge.net/DTD/sodipodi-0.dtd"
   xmlns:inkscape="http://www.inkscape.org/namespaces/inkscape"
   width="64px"
   height="64px"
   id="svg2816"
   version="1.1"
   inkscape:version="0.48.4 r9939"
   sodipodi:docname="beta.svg">
  <defs
     id="defs2818">
    <linearGradient
       id="linearGradient3691">
      <stop
         style="stop-color:#ffffff;stop-opacity:1;"
         offset="0"
         id="stop3693" />
      <stop
         style="stop-color:#ffffff;stop-opacity:0;"
         offset="1"
         id="stop3695" />
    </linearGradient>
    <linearGradient
       id="linearGradient3614">
      <stop
         style="stop-color:#ff9100;stop-opacity:1;"
         offset="0"
         id="stop3616" />
      <stop
         style="stop-color:#ffcb00;stop-opacity:1;"
         offset="1"
         id="stop3618" />
    </linearGradient>
    <inkscape:perspective
       sodipodi:type="inkscape:persp3d"
       inkscape:vp_x="0 : 32 : 1"
       inkscape:vp_y="0 : 1000 : 0"
       inkscape:vp_z="64 : 32 : 1"
       inkscape:persp3d-origin="32 : 21.333333 : 1"
       id="perspective2824" />
    <inkscape:perspective
       id="perspective2834"
       inkscape:persp3d-origin="0.5 : 0.33333333 : 1"
       inkscape:vp_z="1 : 0.5 : 1"
       inkscape:vp_y="0 : 1000 : 0"
       inkscape:vp_x="0 : 0.5 : 1"
       sodipodi:type="inkscape:persp3d" />
    <linearGradient
       inkscape:collect="always"
       xlink:href="#linearGradient3691"
       id="linearGradient3697"
       x1="31.066811"
       y1="17.542589"
       x2="26.010498"
       y2="24.832104"
       gradientUnits="userSpaceOnUse"
       gradientTransform="translate(-0.37824909,-2.8753906)" />
    <linearGradient
       inkscape:collect="always"
       xlink:href="#linearGradient3767-7"
       id="linearGradient3773-1"
       x1="38"
       y1="56"
       x2="23"
       y2="11"
       gradientUnits="userSpaceOnUse" />
    <linearGradient
       inkscape:collect="always"
       id="linearGradient3767-7">
      <stop
         style="stop-color:#8f5902;stop-opacity:1"
         offset="0"
         id="stop3769-4" />
      <stop
         style="stop-color:#e9b96e;stop-opacity:1"
         offset="1"
         id="stop3771-0" />
    </linearGradient>
  </defs>
  <sodipodi:namedview
     id="base"
     pagecolor="#ffffff"
     bordercolor="#666666"
     borderopacity="1.0"
     inkscape:pageopacity="0.0"
     inkscape:pageshadow="2"
     inkscape:zoom="5.5"
     inkscape:cx="18.812597"
     inkscape:cy="10.735705"
     inkscape:current-layer="layer1"
     showgrid="true"
     inkscape:document-units="px"
     inkscape:grid-bbox="true"
     inkscape:window-width="1855"
     inkscape:window-height="1056"
     inkscape:window-x="65"
     inkscape:window-y="24"
     inkscape:window-maximized="1"
     inkscape:snap-bbox="true"
     inkscape:snap-nodes="false">
    <inkscape:grid
       type="xygrid"
       id="grid2997"
       empspacing="2"
       visible="true"
       enabled="true"
       snapvisiblegridlinesonly="true" />
  </sodipodi:namedview>
  <metadata
     id="metadata2821">
    <rdf:RDF>
      <cc:Work
         rdf:about="">
        <dc:format>image/svg+xml</dc:format>
        <dc:type
           rdf:resource="http://purl.org/dc/dcmitype/StillImage" />
        <dc:title />
      </cc:Work>
    </rdf:RDF>
  </metadata>
  <g
     id="layer1"
     inkscape:label="Layer 1"
     inkscape:groupmode="layer">
    <rect
       style="fill:#fffd7b;fill-opacity:1;stroke:#1e160a;stroke-width:1.80600000000000005;stroke-miterlimit:4;stroke-opacity:1;stroke-dasharray:none;stroke-dashoffset:1.19999999999999996"
       id="rect3836"
       width="61.494232"
       height="62.5905"
       x="2.2528865"
       y="2.2528865"
       rx="6.5672512"
       ry="7.8240538" />
    <path
       style="fill:#ff00ff;stroke:#d88715;stroke-width:0.66474926px;stroke-linecap:butt;stroke-linejoin:miter;stroke-opacity:1"
       d="m 16.845837,37.887243 c 0.876969,1.917194 3.338367,1.331996 3.348257,1.329583 1.486342,-0.19182 2.365923,-1.062238 2.337462,-2.948206 -0.994841,-2.443704 -2.343359,-1.974713 -3.66413,-1.734238 -3.022135,0.463642 -2.831865,1.821918 -2.021589,3.352861 z"
       id="path3020"
       inkscape:connector-curvature="0"
       sodipodi:nodetypes="ccccc" />
    <path
       style="fill:#803300;fill-opacity:1;stroke:#000000;stroke-width:1.19726098px;stroke-linecap:butt;stroke-linejoin:miter;stroke-opacity:1"
       d="m -12.99952,40.59863 c 0.918435,0 36.606197,0.993196 36.606197,0.993196 l 1.42211,25.258479 C 12.918495,69.887447 -1.2910776,71.624761 -13.40137,63.557912"
       id="path3042"
       inkscape:connector-curvature="0"
       sodipodi:nodetypes="cccc" />
    <path
       style="fill:none;stroke:#000000;stroke-width:0.90478498;stroke-linecap:butt;stroke-linejoin:miter;stroke-miterlimit:4;stroke-opacity:1;stroke-dasharray:none"
       d="m 16.198178,37.643986 c 1.234112,2.68197 4.416983,1.7464 4.42977,1.742555 1.929617,-0.335784 3.035878,-1.608162 2.909952,-4.282199 -1.412644,-3.423776 -3.149449,-2.700729 -4.860821,-2.303024 -3.919967,0.787169 -3.60784,2.705736 -2.478901,4.842668 z"
       id="path3020-6"
       inkscape:connector-curvature="0"
       sodipodi:nodetypes="ccccc" />
    <path
       sodipodi:nodetypes="ccccc"
       inkscape:connector-curvature="0"
       id="path3830"
       d="m 38.845837,35.887243 c 0.876969,1.917194 3.338367,1.331996 3.348257,1.329583 1.486342,-0.19182 2.365923,-1.062238 2.337462,-2.948206 -0.994841,-2.443704 -2.343359,-1.974713 -3.66413,-1.734238 -3.022135,0.463642 -2.831865,1.821918 -2.021589,3.352861 z"
       style="fill:#ff00ff;fill-opacity:1;stroke:#ef7e0d;stroke-width:0.66474926px;stroke-linecap:butt;stroke-linejoin:miter;stroke-opacity:1" />
    <path
       style="fill:none;stroke:#1e160a;stroke-width:0.84802973px;stroke-linecap:butt;stroke-linejoin:miter;stroke-opacity:1"
       d="m 38.099149,35.823974 c 1.153096,2.372964 4.389502,1.648648 4.402507,1.645661 1.95434,-0.237421 3.11087,-1.314761 3.073448,-3.649076 -1.308082,-3.02464 -3.081202,-2.444157 -4.817838,-2.146514 -3.973701,0.573863 -3.723522,2.255038 -2.658117,4.149929 z"
       id="path3832"
       inkscape:connector-curvature="0"
       sodipodi:nodetypes="ccccc"
       inkscape:transform-center-x="9.950507"
       inkscape:transform-center-y="-2.7012637" />
    <path
       style="fill:#ff00ff;stroke:#000000;stroke-width:1.5024097px;stroke-linecap:butt;stroke-linejoin:miter;stroke-opacity:1"
       d="m 53.248796,29.26377 -47.3179196,3.985025 -1.1796716,-8.254696 10.3980522,-4.56067 6.117342,-6.68279 12.829993,-0.999436 2.95664,8.258507 c -0.756089,2.985226 10.985526,1.196376 15.015894,1.424496 z"
       id="path3022"
       inkscape:connector-curvature="0"
       sodipodi:nodetypes="ccccccccc" />
    <path
       style="fill:#008cff;fill-opacity:1;stroke:#000000;stroke-width:1px;stroke-linecap:butt;stroke-linejoin:miter;stroke-opacity:1"
       d="m 59.409091,51.681818 c -2.764941,0.580143 -3.562516,6.734488 -8.909091,0 -5.81495,10.533737 -6.491583,2.441078 -8.727273,0 -4.500433,5.668571 -7.558123,4.989073 -9.636364,0 -3.212121,4.293011 -6.424242,4.188627 -9.636363,0.727273 -1.648128,2.517828 -3.396651,4.282691 -6,-0.363637 L 17.772727,75.863636 69.045454,77.5"
       id="path3834"
       inkscape:connector-curvature="0"
       sodipodi:nodetypes="cccccccc" />
    <path
       style="fill:#803300;fill-opacity:1;stroke:#000000;stroke-width:1.19726098px;stroke-linecap:butt;stroke-linejoin:miter;stroke-opacity:1"
       d="m 83.446973,40.59863 c 0.91844,0 -28.848343,0.993196 -28.848343,0.993196 0.107194,8.55084 0.343223,17.587626 1.42211,25.258479 18.313363,1.270291 37.861953,-0.861908 25.751663,-8.928757"
       id="path3042-3"
       inkscape:connector-curvature="0"
       sodipodi:nodetypes="cccc" />
    <path
       sodipodi:type="arc"
       style="fill:#ffff00;fill-opacity:1;stroke:#7d144f;stroke-width:1.80599999;stroke-miterlimit:4;stroke-opacity:0.86666667;stroke-dasharray:none;stroke-dashoffset:1.2"
       id="path3810"
       sodipodi:cx="53"
       sodipodi:cy="12.545455"
       sodipodi:rx="6.090909"
       sodipodi:ry="5.4545455"
       d="m 59.090909,12.545455 a 6.090909,5.4545455 0 1 1 -12.181818,0 6.090909,5.4545455 0 1 1 12.181818,0 z"
       transform="matrix(1.2896282,0,0,1.2400848,-15.347249,-3.6513827)" />
  </g>
</svg>
