<?xml version="1.0" encoding="UTF-8" standalone="no"?>
<!-- Created with Inkscape (http://www.inkscape.org/) -->

<svg
   xmlns:osb="http://www.openswatchbook.org/uri/2009/osb"
   xmlns:dc="http://purl.org/dc/elements/1.1/"
   xmlns:cc="http://creativecommons.org/ns#"
   xmlns:rdf="http://www.w3.org/1999/02/22-rdf-syntax-ns#"
   xmlns:svg="http://www.w3.org/2000/svg"
   xmlns="http://www.w3.org/2000/svg"
   xmlns:sodipodi="http://sodipodi.sourceforge.net/DTD/sodipodi-0.dtd"
   xmlns:inkscape="http://www.inkscape.org/namespaces/inkscape"
   width="800"
   height="800"
   id="svg2"
   version="1.1"
   inkscape:version="0.48.4 r9939"
   sodipodi:docname="createBeGrid.svg">
  <defs
     id="defs4">
    <linearGradient
       id="linearGradient3823"
       osb:paint="solid">
      <stop
         style="stop-color:#0000b5;stop-opacity:1;"
         offset="0"
         id="stop3825" />
    </linearGradient>
    <filter
       inkscape:collect="always"
       id="filter3809"
       color-interpolation-filters="sRGB">
      <feGaussianBlur
         inkscape:collect="always"
         stdDeviation="3.9593924"
         id="feGaussianBlur3811" />
    </filter>
  </defs>
  <sodipodi:namedview
     id="base"
     pagecolor="#ffffff"
     bordercolor="#666666"
     borderopacity="1.0"
     inkscape:pageopacity="0.0"
     inkscape:pageshadow="2"
     inkscape:zoom="0.175"
     inkscape:cx="350"
     inkscape:cy="177.14286"
     inkscape:document-units="px"
     inkscape:current-layer="layer1"
     showgrid="false"
     inkscape:window-width="1280"
     inkscape:window-height="1000"
     inkscape:window-x="1920"
     inkscape:window-y="24"
     inkscape:window-maximized="1" />
  <metadata
     id="metadata7">
    <rdf:RDF>
      <cc:Work
         rdf:about="">
        <dc:format>image/svg+xml</dc:format>
        <dc:type
           rdf:resource="http://purl.org/dc/dcmitype/StillImage" />
        <dc:title></dc:title>
      </cc:Work>
    </rdf:RDF>
  </metadata>
  <g
     inkscape:label="Ebene 1"
     inkscape:groupmode="layer"
     id="layer1"
     transform="translate(0,-252.36218)">
    <rect
       style="fill:#ffc6ff;fill-opacity:1;stroke:#c42117;stroke-width:26.24207497;stroke-miterlimit:4;stroke-opacity:1;stroke-dasharray:none;stroke-dashoffset:1.2"
       id="rect3034"
       width="1005.1865"
       height="890.90076"
       x="-76.87896"
       y="226.91176"
       rx="8.3462362"
       ry="10.302728" />
    <path
       style="fill:none;stroke:#000024;stroke-width:44.19145966;stroke-linecap:butt;stroke-linejoin:miter;stroke-miterlimit:4;stroke-opacity:1;stroke-dasharray:none"
       d="m -914.00677,-72.401534 c 1.21514,20.082203 5.55028,38.459128 8.12356,57.868089 1.31265,9.9006426 -1.56417,20.8045276 0,30.636042 -0.6214,6.835721 4.23681,11.092094 5.41571,17.020042 1.24708,6.27076 -1.62191,14.30739 0,20.42402 4.62337,17.43595 5.41569,29.19224 5.41569,51.060101 0,36.9126 9.09721,103.07626 -2.70784,132.7562 -4.38643,11.02824 0.56015,31.92759 -2.70785,44.25208 -3.4054,12.84266 6.267,43.3755 2.70785,61.27211 -2.38632,11.99925 -6.4632,24.92079 -8.12356,37.44405 -2.40378,18.13053 0.17365,36.35265 -2.70785,54.46408 -3.82257,24.02655 3.20712,50.69841 0,74.88814 -2.64652,19.96132 -4.30104,38.64714 -8.12357,57.86809 -4.12508,20.74233 0.11683,46.77487 -2.70785,68.08011 -3.92813,29.62798 -2.70785,61.13668 -2.70785,91.90814 0,64.95413 2.70785,126.66776 2.70785,190.62432 0,14.75065 0,29.50135 0,44.25205 0,1.7944 0.87119,16.4725 0,17.02 -1.61464,1.0149 -3.80106,-1.0148 -5.4157,0 -0.80732,0.5075 0.90261,3.404 0,3.404 -4.69852,0 4.27952,-28.4936 5.4157,-30.636"
       id="path3755"
       inkscape:connector-curvature="0" />
    <path
       style="fill:none;stroke:#000024;stroke-width:43.90842819;stroke-linecap:butt;stroke-linejoin:miter;stroke-miterlimit:4;stroke-opacity:1;stroke-dasharray:none"
       d="m 1504.9762,515.95742 c -5.671,67.42728 -5.4933,135.97297 -5.4933,204.40155 0,18.68186 1.9305,37.50798 0,56.04557 -1.047,10.05344 -4.3777,19.62841 -5.4933,29.67121 -3.4963,31.47433 -2.376,71.4574 2.7466,102.20074 4.6506,27.91075 -1.0733,62.48694 -5.4933,89.01358 -4.9955,29.98023 1.4664,61.96903 -2.7467,92.31043 -0.9519,6.8557 -4.3577,12.9655 -5.4933,19.7808 -2.203,13.2217 -2.7985,26.6236 -5.4933,39.5616 -3.4302,16.4692 2.329,35.9761 0,52.7487 -0.7434,5.354 -4.3798,10.6031 -2.7466,16.484 0.999,3.5973 6.8953,34.5133 5.4933,39.5616 -1.2948,4.6624 -4.1985,8.5248 -5.4933,13.1872 -4.4527,16.0337 -8.3868,51.8678 -5.4933,69.2328 0.4015,2.4096 1.8311,4.3957 2.7466,6.5936 0.9156,3.2968 2.2707,6.4626 2.7467,9.8904 1.0295,7.4148 -1.229,15.7021 0,23.0776 2.6791,16.0785 4.2956,35.249 8.2399,49.452 2.784,10.0246 -3.938,26.811 0,36.2648 3.2774,7.8675 3.2126,18.1614 5.4933,26.3744 0.8686,3.1276 -2.2853,8.0616 0,9.8903 2.409,1.9277 5.831,1.3692 8.24,3.2969 1.096,0.8769 0,14.4838 0,16.4839 0,7.5181 2.6343,23.3474 0,29.6713 -3.2701,7.8503 -8.24,17.0713 -8.24,26.3745 0,7.1781 -2.0804,10.3392 -5.4933,16.484 -0.7182,1.293 -3.6622,4.3957 -2.7466,3.2967 13.7172,-16.4647 9.5313,-27.9244 24.7199,-46.1552"
       id="path3759"
       inkscape:connector-curvature="0" />
    <path
       style="fill:none;stroke:#00c000;stroke-width:130.39833069;stroke-linecap:butt;stroke-linejoin:miter;stroke-miterlimit:4;stroke-opacity:1;stroke-dasharray:none"
       d="m -489.99676,2079.119 c 26.61948,14.1148 57.36951,18.705 84.77348,5.4033 4.49322,-2.1809 8.32272,-8.9045 12.84445,-10.8066 9.85419,-4.1454 20.87049,-1.9131 30.82672,-5.4034 3.59349,-1.2597 9.25097,-9.5469 12.84445,-10.8066 2.53398,-0.8883 5.26961,1.7087 7.70675,0 6.65739,-4.6677 11.05253,-12.5661 17.98225,-16.21 11.76651,-6.1874 39.08974,10.2215 48.80897,0 8.18652,-8.6097 16.46807,-9.745 25.68891,-16.21 10.74764,9.7846 2.97148,-8.5285 5.13781,-10.8067 7.37659,-7.7578 23.83835,2.4635 30.82671,5.4033 19.33812,8.1351 54.65688,-12.1099 71.92902,0 6.03899,4.2341 11.52582,8.0907 17.98226,10.8067 16.61785,6.9907 32.567666,-0.5805 48.808956,10.8067 12.93312,9.0677 31.05869,-10.6116 43.67127,0 2.86654,2.4118 4.94512,7.9024 7.70665,10.8067 4.76836,5.0147 12.89129,-3.5694 17.98225,0 29.85999,20.9355 62.99922,16.2099 95.04909,16.2099 29.505914,0 57.457624,-5.4033 87.342344,-5.4033 6.81967,0 21.57591,-4.6849 28.25785,0 2.92895,2.0536 4.84011,8.3949 7.70665,10.8067 9.32515,7.8457 20.09509,-5.4034 28.25787,-5.4034 0.71938,0 46.12278,-0.2468 46.2401,0 1.38528,2.9138 4.2617,21.6134 -2.56894,21.6134"
       id="path3769"
       inkscape:connector-curvature="0" />
    <path
       style="fill:none;stroke:#0000cf;stroke-width:55.84735489;stroke-linecap:butt;stroke-linejoin:miter;stroke-miterlimit:4;stroke-opacity:1;stroke-dasharray:none"
       d="m -735.34012,734.80563 c -54.62949,-5.31762 -100.88963,22.59449 -154.45662,4.86794 -2.98316,-0.9872 -8.9477,-0.89224 -12.25846,-1.62265 -6.43332,-1.41929 -9.18239,-4.66131 -14.71016,-6.49058 -1.4619,-0.48377 -4.17243,0.96756 -4.90339,0 -0.73095,-0.96756 0.73096,-2.27773 0,-3.24529 -0.18583,-0.24598 -27.9889,-20.62068 -29.4203,-21.09437 -9.00757,-2.98081 -22.01259,-9.72714 -31.87201,-11.3585 -1.58566,-0.26237 -3.54343,0.60006 -4.90337,0 -1.52048,-0.67088 -1.15954,-2.39008 -2.45171,-3.24528 -0.80356,-0.53184 -22.70646,-5.08013 -26.96856,-6.49059 -3.74,-1.23762 -6.1503,-3.65791 -9.8068,-4.86792 -2.5721,-0.85116 -10.3948,-0.38917 -12.2585,-1.62265 -8.5259,-5.64284 -25.9886,-8.43789 -39.2271,-11.3585 -3.9931,-0.88095 -7.6133,-3.33074 -12.2584,-4.86794 -2.5722,-0.85119 -10.3016,1.29513 -12.2585,0 -4.6414,-3.07188 -11.8039,-1.9531 -19.6135,-3.24528 -3.5457,-0.58666 -6.3396,-2.48037 -9.8068,-3.24529 -15.4161,-3.40103 -27.8775,-3.54605 -41.6788,-8.11321 -3.2689,-1.08177 -8.9895,1.08175 -12.2584,0 -0.731,-0.2419 0.5778,-1.24019 0,-1.62265 -1.1334,-0.75009 -5.8748,0.48986 -7.3551,0 -3.5397,-1.17138 -6.267,-2.07391 -9.8068,-3.24529 -2.6151,-0.86541 -7.1916,0.86542 -9.8067,0 -9.6289,-3.1864 -17.5319,-1.74508 -26.9687,-4.86793 -3.2689,-1.08176 -8.9895,1.08176 -12.2584,0 -4.8867,-1.61711 -9.8235,-1.62818 -14.7102,-3.24528 -2.5721,-0.8512 -10.3016,1.29513 -12.2584,0 -0.5779,-0.38246 0.5778,-1.24019 0,-1.62265 -2.4517,-1.62265 -12.2585,1.62265 -14.7102,0 -0.5779,-0.38246 0.5779,-1.24018 0,-1.62265 -2.0104,-1.33056 -16.197,-0.49204 -19.6135,-1.62264 -1.126,-0.3726 -24.1162,2.98004 -24.517,3.24529 -0.5778,0.38246 0.5779,1.24019 0,1.62265 -0.9379,0.62078 -11.3985,0 -12.2584,0 -1.6345,0 -3.2689,0 -4.9034,0 0,0.54088 0.7309,1.38075 0,1.62264 -8.524,2.82079 -22.7343,-2.01592 -31.872,0 -5.7967,1.27884 -8.587,1.62264 -14.7102,1.62264 -1.4961,0 -8.8515,-0.63224 -9.8067,0 -0.5779,0.38246 0.7309,1.38076 0,1.62264 -3.3589,1.11154 -8.8745,0.5028 -12.2585,1.62265 -2.0675,0.68416 -2.8359,2.56112 -4.9034,3.24529 -2.6151,0.86541 -7.1916,-0.86542 -9.8067,0 -6.3289,2.09435 -8.3814,2.77356 -14.7102,4.86793 -1.4803,0.48985 -6.2218,-0.75009 -7.3551,0 -6.3359,4.19338 -14.1042,9.3348 -19.6135,12.98114 -0.8798,0.58229 -2.0602,4.60884 -4.9034,6.49059 -1.7336,1.14737 1.0964,3.41659 0,4.86792 -0.3655,0.48378 -1.6345,0 -2.4517,0 -0.8172,0.54089 -1.9348,0.93848 -2.4517,1.62265 -4.2711,5.65363 -0.7828,3.76339 -7.3551,8.11321 -1.2258,0.81133 1.2259,4.05662 0,4.86794 -3.6928,2.44406 -6.9216,9.44902 -7.355,9.73586 -0.532,0.35208 -4.6644,1.30628 -4.9034,1.62264 -0.731,0.96756 0.7309,2.27773 0,3.24529 -0.3655,0.48378 -1.7208,-0.24189 -2.4517,0 -3.6133,1.19572 -4.9089,4.87158 -7.3551,6.49058 -1.2259,0.81132 -6.1292,-0.81133 -7.3551,0 -1.6505,1.09238 -1.2931,2.05057 -4.9034,3.24528 -7.5828,2.50935 -28.1221,0 -36.7753,0 -2.3772,0 -21.3416,0.95792 -22.0653,0 -1.1007,-1.45701 0.4997,-5.62929 2.4517,-6.49058 3.3999,-1.50013 8.2943,0.65592 12.2585,0 4.2695,-0.70643 8.1723,-2.16351 12.2585,-3.24528"
       id="path3828"
       inkscape:connector-curvature="0" />
    <path
       style="fill:none;stroke:#000000;stroke-width:50;stroke-linecap:butt;stroke-linejoin:miter;stroke-miterlimit:4;stroke-opacity:1;stroke-dasharray:none"
       d="m 683.08218,-322.08875 c -0.39989,-29.3443 -19.55867,-49.4431 -24.08066,-75.6798 -0.32446,-1.8825 0.5983,-4.0858 0,-5.8215 -2.02177,-5.8652 -7.29179,-12.1618 -10.0336,-17.4645 -5.32079,-10.2905 -11.55699,-24.0581 -16.05378,-34.9291 -4.89634,-11.837 1.59172,-6.4235 -6.02016,-17.4646 -3.41077,-4.9473 -8.27377,-7.2723 -12.04033,-11.643 -5.0056,-5.8085 -20.54098,-25.1726 -24.08066,-32.0184 -0.89743,-1.7356 -0.81014,-4.5198 -2.00672,-5.8215 -2.88174,-3.135 -7.03641,-2.9232 -10.03361,-5.8215 -2.3613,-2.2834 -3.74981,-6.2624 -6.02016,-8.7323 -10.46807,-11.388 -26.33039,-13.5305 -38.12771,-20.3753 -0.87832,-0.5096 -1.33782,-1.9405 -2.00672,-2.9108 -3.34454,-1.9405 -6.57003,-4.3861 -10.03361,-5.8215 -4.45084,-1.8445 -4.00011,2.9301 -8.02689,-2.9107 -1.05763,-1.5341 -0.81014,-4.5198 -2.00672,-5.8215 -2.99171,-3.2547 -16.5456,-9.4457 -18.06049,-11.6431 -3.8102,-5.5267 -8.06762,-11.6627 -14.04705,-14.5538 -1.90375,-0.9204 -4.07336,0.706 -6.02017,0 -7.97734,-2.8928 -16.20554,-13.65689 -24.08066,-17.46449 -5.36887,-2.5959 -12.50813,-0.8974 -18.06049,-2.9108 -3.63205,1.7544 -3.73215,-4.7152 -6.02016,-5.8215 -2.53833,-1.2273 -5.43115,0.9413 -8.02689,0 -15.37319,-5.5747 -60.94626,-10.8449 -78.26214,-5.8215 -14.46429,4.1961 -29.84497,11.537 -44.14788,17.4645 -12.1784,5.04709 -26.54473,3.24249 -38.1277,11.64309 -5.38312,3.9041 -9.03651,10.1915 -16.05377,14.5538 -6.84158,4.253 -35.89554,20.0483 -40.13443,26.1968 -0.43543,0.6316 -1.61548,5.5378 -2.00672,5.8215 -5.13033,3.7208 -17.37276,6.5287 -22.07395,11.643 -22.77299,24.7743 4.2692,1.8169 -10.0336,8.7323 -1.96503,0.9501 -10.85568,19.8494 -12.04033,23.2861 -0.65628,1.9039 -1.10192,13.8976 -2.00672,14.5538 -1.19658,0.8678 -3.06747,-1.3722 -4.01345,0 -1.95018,2.8287 -0.47687,8.3144 -2.00672,11.643 -1.47582,3.2111 -4.83483,5.2936 -6.02016,8.7323 -0.59829,1.7356 0.94598,4.4494 0,5.8215 -1.05764,1.5341 -3.18377,1.1056 -4.01344,2.9108 -1.11313,2.4219 1.41896,6.674 0,8.7322 -2.29238,3.3251 -6.11015,8.8628 -8.02689,11.6431 -0.66891,0.9702 -1.33782,7.762 -2.00672,8.7322 -0.47299,0.6861 -1.70758,-0.8678 -2.00672,0 -3.09712,8.9848 -1.02646,10.2212 -6.02017,17.4646 -0.94598,1.3721 0.59829,4.0859 0,5.8215 -3.04381,8.8301 -8.99652,14.456 -12.04033,23.2861 -13.816654,40.0822 -26.320144,55.5295 -50.168054,78.5905 -4.44531,4.2986 -20.067211,18.9465 -20.067211,14.5538"
       id="path3905"
       inkscape:connector-curvature="0" />
    <path
       style="fill:none;stroke:#443aff;stroke-width:62.77516937;stroke-linecap:butt;stroke-linejoin:miter;stroke-miterlimit:4;stroke-opacity:1;stroke-dasharray:none"
       d="m -869.46657,2553.5072 c 7.71411,-15.5225 14.92324,-31.7035 18.69177,-51.0942 0.49258,-2.5345 1.98817,-3.3229 2.33648,-6.0111 0.24628,-1.9009 -0.43202,-4.3439 0,-6.0111 0.48301,-1.864 1.72075,-1.4215 2.33647,-3.0055 0.43917,-1.1299 2.32897,-15.0181 2.33647,-15.0277 0.6966,-0.8961 1.63987,0.896 2.33647,0 0.6966,-0.8961 -0.3483,-4.219 0,-6.0111 1.10879,-5.7053 3.56147,-7.7329 4.67294,-12.0222 2.33647,-9.0166 -1.16823,-3.0055 0,-9.0166 0.96572,-4.9691 2.40769,-3.372 3.5047,-9.0167 0.81468,-4.1918 0.35358,-10.8358 1.16825,-15.0277 0.49256,-2.5345 1.84389,-3.4766 2.33646,-6.0111 2.21118,-11.3774 0.77149,-17.0125 4.67295,-27.0498 0.64813,-1.6675 0.66266,-15.4319 1.16823,-18.0333 0.38941,-2.0037 1.94706,-1.0018 2.33647,-3.0055 0.77558,-3.9907 0.39266,-11.037 1.16824,-15.0277 0.17415,-0.8961 0.77882,0 1.16823,0 0.38942,-2.0037 0.95705,-3.8378 1.16824,-6.0111 1.93144,-19.8762 6.76655,-37.1976 9.34588,-57.1053 0.79952,-6.1709 2.89092,-8.7113 3.50471,-15.0277 0.18889,-1.9439 -0.3483,-4.2189 0,-6.0111 3.8036,-19.5712 1.1708,5.9913 3.50471,-12.0222 1.73495,-13.3907 4.93241,-25.7132 7.00941,-39.072 0.64678,-4.16 1.78576,-7.7717 2.33646,-12.0222 0.2463,-1.9009 -0.5507,-4.5942 0,-6.0111 0.55072,-1.4168 1.63989,0.8961 2.33648,0 1.01639,-1.3074 0.47867,-16.2592 1.16824,-18.0332 0.55071,-1.4168 1.63987,0.8961 2.33647,0 1.65918,-2.1343 4.08142,-19.4789 4.67295,-24.0443 1.25934,-9.7199 10.52024,-33.1083 11.68235,-42.0776 0.24629,-1.9009 -0.3483,-4.219 0,-6.0111 0.17415,-0.8961 0.81993,0.448 1.16823,0 2.45462,-3.1575 -0.0227,-5.9527 1.16824,-9.0167 0.71773,-1.8465 2.72237,-1.9856 3.50471,-6.011 3.68221,-18.9466 8.27932,-30.317 14.01883,-45.0832 1.032,-2.655 6.1098,-22.8871 7.0094,-24.0443 0.69661,-0.8961 1.63988,0.8961 2.33648,0 0.39434,-0.5073 4.35791,-13.7557 5.84118,-15.0277 6.00355,-5.1485 3.58853,-6.1189 8.17764,-12.0222 5.61652,-7.2248 11.44298,-6.0111 18.69177,-6.0111 5.56877,0 11.10445,-0.3717 16.3553,3.0056 3.32294,2.1372 7.47595,11.1195 10.51412,15.0277 0.6966,0.8961 1.78576,-1.4168 2.33647,0 4.20667,10.8226 11.95626,14.4956 17.52353,24.0443 1.18063,2.025 7.56011,13.439 8.17764,15.0277 0.27536,0.7085 -0.324,2.4498 0,3.0056 3.49688,5.9976 7.36796,6.9335 10.51413,15.0277 0.37521,0.9653 2.07255,8.6771 2.33647,9.0166 0.6966,0.8961 1.63987,-0.8961 2.33647,0 0.6966,0.8961 -0.55071,4.5943 0,6.0111 0.38941,1.0018 1.94706,5.0092 2.33647,6.0111 0.87075,2.2402 2.63396,0.7653 3.50471,3.0055 2.25221,5.7943 10.58985,27.1148 14.01882,30.0554 0.73887,0.6337 1.68846,-1.1114 2.33648,0 0.7245,1.2427 0.55252,4.4271 1.16823,6.0111 0.60468,1.5557 4.06827,1.4499 4.67294,3.0056 3.52878,9.0785 -0.94641,-1.0748 5.84118,12.0221 0.62306,1.2022 -0.3483,4.219 0,6.0111 2.43096,12.5084 -0.0806,-3.213 2.33648,3.0056 1.42422,3.6641 0.40641,11.7173 2.33646,15.0277 3.81323,6.5402 7.65136,16.6792 10.51412,24.0443 0.55072,1.4168 -0.55071,4.5943 0,6.0111 1.15574,2.9734 4.25208,6.8511 4.67295,9.0166 0.3483,1.7922 -0.43201,4.3439 0,6.0111 0.483,1.864 1.85346,1.1416 2.33646,3.0055 0.43203,1.6672 -0.3483,4.219 0,6.0111 0.9346,4.8089 3.73836,7.2133 4.67295,12.0222 1.43865,7.4025 -3.39108,-2.7132 1.16824,9.0166 0.76587,1.9704 2.91942,4.5053 3.5047,6.0111 0.38941,1.0018 0.77882,8.0148 1.16823,9.0166 0.27536,0.7084 0.99409,-0.8961 1.16824,0 0.3483,1.7922 -0.3483,4.2189 0,6.0111 0.45176,2.3245 3.77151,4.3784 4.67295,9.0166 0.34829,1.7922 -0.55072,4.5943 0,6.0111 5.03372,12.9504 9.90783,25.4901 14.01882,36.0665 0.87075,2.2402 0.48516,6.3806 1.16824,9.0166 0.30267,1.1681 7.75797,19.9591 8.17764,21.0388 1.17793,3.0305 0.92224,11.3893 2.33648,15.0278 1.07334,2.7614 3.95837,9.5125 4.67293,15.0277 0.2463,1.9008 -0.34829,4.2189 0,6.011 0.34831,1.7922 1.78577,-1.4168 2.33648,0 0.30826,0.7931 1.1524,12.0019 1.16823,12.0222 0.69661,0.8961 1.78577,-1.4168 2.33648,0 0.55071,1.4168 -0.34831,4.2189 0,6.0111 0.62791,3.2309 2.72588,3.0055 3.5047,6.0111 2.20411,8.5058 2.45797,15.3403 4.67294,21.0388 0.55071,1.4168 -0.3483,4.2189 0,6.0111 2.43096,12.5083 -0.0806,-3.2131 2.33648,3.0055 2.82734,7.274 4.25439,34.9897 8.17764,45.0831 6.06895,15.6137 4.52049,44.2987 8.17765,63.1164 0.98438,5.065 0.13978,12.7414 1.16824,18.0332 2.43096,12.5084 -0.0806,-3.213 2.33647,3.0055 0.27536,0.7085 -0.38941,3.0057 0,3.0057 1.23352,0 22.43498,78.286 22.88817,75.9542"
       id="path3907"
       inkscape:connector-curvature="0"
       sodipodi:nodetypes="csssscssssssssssscssssssssssssscsssssssssssssscscssssssssssssssssssssssssssssssssscsssssssssssc" />
    <path
       style="fill:none;stroke:#000000;stroke-width:50;stroke-linecap:butt;stroke-linejoin:miter;stroke-miterlimit:4;stroke-opacity:1;stroke-dasharray:none"
       d="m 840.22503,-390.92137 c -0.39989,29.3443 -19.55867,49.4431 -24.08066,75.6798 -0.32446,1.8825 0.5983,4.0858 0,5.8215 -2.02177,5.8652 -7.29179,12.1618 -10.0336,17.4645 -5.32079,10.2905 -11.55699,24.0581 -16.05378,34.9291 -4.89634,11.837 1.59172,6.4235 -6.02016,17.4646 -3.41077,4.9473 -8.27377,7.2723 -12.04033,11.643 -5.0056,5.8085 -20.54098,25.1726 -24.08066,32.0184 -0.89743,1.7356 -0.81014,4.5198 -2.00672,5.8215 -2.88174,3.135 -7.03641,2.9232 -10.03361,5.8215 -2.3613,2.2834 -3.74981,6.2624 -6.02016,8.7323 -10.46807,11.388 -26.33039,13.5305 -38.12771,20.3753 -0.87832,0.5096 -1.33782,1.9405 -2.00672,2.9108 -3.34454,1.9405 -6.57003,4.3861 -10.03361,5.8215 -4.45084,1.8445 -4.00011,-2.9301 -8.02689,2.9107 -1.05763,1.5341 -0.81014,4.5198 -2.00672,5.8215 -2.99171,3.2547 -16.5456,9.4457 -18.06049,11.6431 -3.8102,5.5267 -8.06762,11.6627 -14.04705,14.5538 -1.90375,0.9204 -4.07336,-0.706 -6.02017,0 -7.97734,2.8928 -16.20554,13.656896 -24.08066,17.464496 -5.36887,2.5959 -12.50813,0.8974 -18.06049,2.9108 -3.63205,-1.7544 -3.73215,4.7152 -6.02016,5.8215 -2.53833,1.2273 -5.43115,-0.9413 -8.02689,0 -15.37319,5.5747 -60.94626,10.8449 -78.26214,5.8215 -14.46429,-4.1961 -29.84497,-11.537 -44.14788,-17.4645 -12.1784,-5.047096 -26.54473,-3.242496 -38.1277,-11.643096 -5.38312,-3.9041 -9.03651,-10.1915 -16.05377,-14.5538 -6.84158,-4.253 -35.89554,-20.0483 -40.13443,-26.1968 -0.43543,-0.6316 -1.61548,-5.5378 -2.00672,-5.8215 -5.13033,-3.7208 -17.37276,-6.5287 -22.07395,-11.643 -22.77299,-24.7743 4.2692,-1.8169 -10.0336,-8.7323 -1.96503,-0.9501 -10.85568,-19.8494 -12.04033,-23.2861 -0.65628,-1.9039 -1.10192,-13.8976 -2.00672,-14.5538 -1.19658,-0.8678 -3.06747,1.3722 -4.01345,0 -1.95018,-2.8287 -0.47687,-8.3144 -2.00672,-11.643 -1.47582,-3.2111 -4.83483,-5.2936 -6.02016,-8.7323 -0.59829,-1.7356 0.94598,-4.4494 0,-5.8215 -1.05764,-1.5341 -3.18377,-1.1056 -4.01344,-2.9108 -1.11313,-2.4219 1.41896,-6.674 0,-8.7322 -2.29238,-3.3251 -6.11015,-8.8628 -8.02689,-11.6431 -0.66891,-0.9702 -1.33782,-7.762 -2.00672,-8.7322 -0.47299,-0.6861 -1.70758,0.8678 -2.00672,0 -3.09712,-8.9848 -1.02646,-10.2212 -6.02017,-17.4646 -0.94598,-1.3721 0.59829,-4.0859 0,-5.8215 -3.04381,-8.8301 -8.99651,-14.456 -12.04032,-23.2861 -13.81665,-40.0822 -26.32014,-55.5295 -50.16806,-78.5905 -4.44531,-4.2986 -20.06721,-18.9465 -20.06721,-14.5538"
       id="path3905-5"
       inkscape:connector-curvature="0" />
    <path
       sodipodi:type="arc"
       style="fill:#ff0000;fill-opacity:1;stroke:#bc0000;stroke-width:1;stroke-miterlimit:4;stroke-opacity:1;stroke-dasharray:8, 1;stroke-dashoffset:1.2;filter:url(#filter3809)"
       id="path3033"
       sodipodi:cx="327.14285"
       sodipodi:cy="332.36218"
       sodipodi:rx="90"
       sodipodi:ry="48.57143"
       d="m 417.14285,332.36218 a 90,48.57143 0 1 1 -180,0 90,48.57143 0 1 1 180,0 z"
       transform="matrix(1.3976683,0,0,2.3201934,-1572.9515,1628.3604)" />
    <path
       style="fill:none;stroke:#000000;stroke-width:40;stroke-linecap:butt;stroke-linejoin:miter;stroke-miterlimit:4;stroke-opacity:1;stroke-dasharray:none"
       d="m 694.28567,772.3622 c -3.8095,-2.8572 -8.0613,-5.2043 -11.4285,-8.5714 -0.6735,-0.6735 0.3011,-1.9537 0,-2.8572 -1.3469,-4.0406 -4.6813,-7.2965 -5.7143,-11.4286 -0.462,-1.8478 1.0566,-4.1294 0,-5.7142 -1.1813,-1.772 -4.533,-1.0853 -5.7143,-2.8572 -1.0566,-1.5848 0.8518,-4.0106 0,-5.7143 -4.489,-8.978 -6.6688,-1.9152 -8.5714,-11.4285 -2.0479,-10.2394 3.0621,-7.2774 -2.8572,-17.1429 -18.9519,-18.9519 2.6938,5.3875 -5.7143,-11.4286 -1.2046,-2.4093 -4.7138,-3.2132 -5.7142,-5.7143 -1.0612,-2.6527 1.0611,-5.9186 0,-8.5714 -1.0005,-2.5011 -4.0981,-3.5593 -5.7143,-5.7143 -3.3102,-4.4135 -5.3996,-12.385 -8.5715,-17.1428 -0.7471,-1.1207 -2.4312,-1.5794 -2.8571,-2.8572 -0.6023,-1.807 0.6023,-3.9072 0,-5.7143 -0.4259,-1.2777 -2.11,-1.7364 -2.8571,-2.8571 -1.1813,-1.7719 -1.6759,-3.9424 -2.8572,-5.7143 -1.4942,-2.2413 -4.22,-3.4729 -5.7143,-5.7143 -1.1812,-1.7719 -1.9047,-3.8095 -2.8571,-5.7143 -0.9524,-1.9047 -2.1837,-3.6939 -2.8572,-5.7142 -0.3011,-0.9036 0.6735,-2.1838 0,-2.8572 -1.5058,-1.5058 -4.2084,-1.3513 -5.7142,-2.8571 -0.6735,-0.6735 0,-1.9048 0,-2.8572 -1.9048,-1.9047 -3.5593,-4.098 -5.7143,-5.7143 -3.4074,-2.5555 -7.7764,-3.5229 -11.4286,-5.7142 -23.3063,-13.9838 3.6575,2.0288 -14.2857,-11.4286 -3.4074,-2.5555 -7.8847,-3.3517 -11.4286,-5.7143 -1.1206,-0.7471 -1.7365,-2.11 -2.8571,-2.8571 -1.7719,-1.1813 -4.0106,-1.5794 -5.7143,-2.8572 -7.4419,-5.5814 -3.1296,-5.8051 -11.4286,-8.5714 -16.2553,-5.4185 -6.2422,-0.2112 -20,-5.7143 -3.9545,-1.5818 -7.3879,-4.3674 -11.4286,-5.7143 -3.7252,-1.2417 -7.7033,-1.6154 -11.4285,-2.8571 -2.0203,-0.6735 -3.6483,-2.3407 -5.7143,-2.8572 -1.8479,-0.4619 -3.9073,0.6024 -5.7143,0 -2.5555,-0.8518 -3.3049,-4.5096 -5.7143,-5.7143 -0.8518,-0.4259 -2.0053,0.426 -2.8571,0 -1.2047,-0.6023 -1.6525,-2.2548 -2.8572,-2.8571 -7.037,-3.5185 2.5793,8.2935 -8.5714,-2.8571 -0.6734,-0.6735 0.8518,-2.4313 0,-2.8572 -1.7037,-0.8518 -4.0106,0.8519 -5.7143,0 -0.8518,-0.4259 0.8519,-2.4312 0,-2.8571 -1.7037,-0.8519 -4.0106,0.8518 -5.7143,0 -0.8518,-0.4259 0,-1.9048 0,-2.8572 -1.9047,-0.9524 -3.6939,-2.1837 -5.7143,-2.8571 -1.8897,-0.6299 -14.3361,0 -17.1428,0 -4.7311,0 -16.1298,-0.645 -20,0 -2.9707,0.4951 -5.7143,1.9047 -8.5714,2.8571 -2.8572,0.9524 -5.8777,1.5103 -8.5715,2.8572 -3.0713,1.5356 -5.2697,4.7709 -8.5714,5.7143 -3.6629,1.0465 -7.6709,-0.6263 -11.4286,0 -0.866,0.1443 -15.9886,7.8019 -17.1428,8.5714 -1.1207,0.7471 -1.6525,2.2548 -2.8572,2.8571 -1.7036,0.8519 -4.3674,-1.3468 -5.7143,0 -5.9115,5.9116 9.0336,-0.2311 -2.8571,5.7143 -0.8518,0.4259 -2.0053,-0.4259 -2.8571,0 -2.4094,1.2047 -3.473,4.2201 -5.7143,5.7143 -1.7719,1.1813 -4.4366,1.1535 -5.7143,2.8571 -1.807,2.4094 -0.9758,6.2197 -2.8572,8.5715 2.4599,17.1014 -8.4168,2.7026 -11.4285,5.7143 -2.4281,2.4281 -3.8095,5.7142 -5.7143,8.5714 -1.9048,2.8571 -3.654,5.8243 -5.7143,8.5714 -0.8081,1.0775 -2.11,1.7365 -2.8571,2.8572 -1.1813,1.7719 -2.1837,3.6939 -2.8572,5.7142 -0.3012,0.9036 0.5283,2.0648 0,2.8572 -1.4942,2.2413 -4.22,3.4729 -5.7143,5.7143 -0.5283,0.7924 0.3012,1.9536 0,2.8571 -0.6734,2.0203 -1.6758,3.9424 -2.8571,5.7143 -4.3587,6.538 -2.2616,-1.7865 -5.7143,8.5714 -0.3012,0.9035 0.3012,1.9537 0,2.8572 -0.6734,2.0203 -2.1837,3.694 -2.8571,5.7143 -0.3012,0.9035 0.3011,1.9536 0,2.8571 -0.6735,2.0203 -2.3407,3.6483 -2.8572,5.7143 -2.8877,11.551 4.0805,-0.1341 -2.8571,11.4286 -1.7667,2.9445 -3.9476,5.6269 -5.7143,8.5714 -2.1913,3.6522 -3.8095,7.619 -5.7143,11.4286 -0.9524,1.9047 -1.5794,4.0106 -2.8571,5.7142 -1.6163,2.155 -4.3284,3.4045 -5.7143,5.7143 -1.5495,2.5825 -1.0502,6.1621 -2.8572,8.5715 -1.2777,1.7036 -4.4365,1.1534 -5.7143,2.8571 -4.1544,5.5393 -1.5598,8.7464 -5.7142,14.2857 -1.6163,2.155 -4.0981,3.5593 -5.7143,5.7143 -1.2778,1.7037 -1.5794,4.0106 -2.8572,5.7143 -1.6162,2.155 -4.098,3.5593 -5.7143,5.7143 -1.2777,1.7036 -1.5793,4.0106 -2.8571,5.7143 -4.8,6.4 -12.3429,10.7428 -17.1429,17.1428 -4.5382,6.051 -3.9984,12.6848 -11.4285,17.1429 -11.6189,6.9713 -6.3052,-2.2663 -17.1429,8.5714 -2.4281,2.4281 -3.0329,6.4263 -5.7143,8.5714 -17.2291,13.7834 -1.2269,-3.6722 -14.2857,2.8572 -0.8518,0.4259 0.6735,2.1837 0,2.8571 -0.6734,0.6735 -1.9047,0 -2.8571,0 -0.9524,0 -1.9048,0 -2.8572,0"
       id="path3829"
       inkscape:connector-curvature="0" />
    <path
       style="fill:none;stroke:#000000;stroke-width:41.86433792;stroke-linecap:butt;stroke-linejoin:miter;stroke-miterlimit:4;stroke-opacity:1;stroke-dasharray:none"
       d="m 680.49641,1005.7019 c -3.79623,-3.1406 -8.03326,-5.72072 -11.38869,-9.42192 -0.67108,-0.74033 0.30012,-2.14755 0,-3.1407 -1.34217,-4.44153 -4.66494,-8.0205 -5.69434,-12.56249 -0.46037,-2.03126 1.05288,-4.53925 0,-6.2813 -1.17717,-1.94783 -4.51719,-1.19299 -5.69435,-3.14071 -1.05288,-1.74205 0.84887,-4.40855 0,-6.2813 -4.47334,-9.86884 -6.64549,-2.10523 -8.54152,-12.56249 -2.04073,-11.2554 3.05146,-7.9995 -2.84717,-18.8439 -18.88577,-20.8324 2.68434,5.92207 -5.69435,-12.5626 -1.20047,-2.64836 -4.6974,-3.53203 -5.69434,-6.28119 -1.05742,-2.91603 1.0574,-6.50598 0,-9.42201 -0.99694,-2.74927 -4.08374,-3.91247 -5.69435,-6.2813 -3.29861,-4.85143 -5.38071,-13.6139 -8.54152,-18.84379 -0.74451,-1.2319 -2.42274,-1.73611 -2.84717,-3.1407 -0.60024,-1.9863 0.60023,-4.2949 0,-6.28119 -0.42444,-1.40459 -2.10267,-1.90881 -2.84717,-3.14071 -1.17717,-1.94772 -1.67002,-4.33358 -2.84719,-6.2813 -1.48899,-2.46369 -4.20533,-3.8175 -5.69434,-6.2813 -1.17715,-1.94772 -1.89811,-4.1875 -2.84717,-6.28119 -0.94906,-2.0938 -2.17609,-4.06054 -2.84718,-6.2813 -0.30012,-0.99315 0.67109,-2.40038 0,-3.14071 -1.50058,-1.65521 -4.19375,-1.48538 -5.69434,-3.14059 -0.67109,-0.74033 0,-2.09381 0,-3.14071 -1.89811,-2.09369 -3.54688,-4.50462 -5.69435,-6.28119 -3.39545,-2.80918 -7.74922,-3.87257 -11.38869,-6.2813 -23.22501,-15.37134 3.64469,2.23011 -14.23586,-12.5626 -3.39546,-2.80907 -7.85722,-3.68427 -11.3887,-6.2813 -1.11675,-0.82123 -1.73041,-2.31936 -2.84717,-3.14059 -1.76574,-1.29852 -3.99662,-1.73612 -5.69434,-3.14071 -7.41597,-6.13521 -3.11866,-6.38111 -11.3887,-9.42189 -16.19863,-5.95615 -6.22045,-0.23216 -19.93022,-6.28131 -3.94074,-1.73875 -7.36218,-4.80075 -11.38869,-6.2813 -3.71226,-1.3649 -7.67643,-1.77568 -11.38869,-3.14059 -2.01325,-0.74033 -3.63555,-2.57296 -5.69434,-3.14071 -1.84144,-0.50773 -3.89363,0.66218 -5.69435,0 -2.54659,-0.93632 -3.2934,-4.95706 -5.69435,-6.28119 -0.84886,-0.46827 -1.9983,0.46816 -2.84717,0 -1.20048,-0.66217 -1.64669,-2.47864 -2.84717,-3.1407 -7.01245,-3.86762 2.57024,9.11642 -8.54152,-3.1406 -0.67109,-0.74032 0.84887,-2.67254 0,-3.1407 -1.69773,-0.93632 -3.99662,0.93643 -5.69435,0 -0.84886,-0.46816 0.84887,-2.67244 0,-3.1406 -1.69773,-0.93643 -3.99662,0.93632 -5.69434,0 -0.84887,-0.46816 0,-2.0938 0,-3.1407 -1.89812,-1.04679 -3.68109,-2.40038 -5.69435,-3.1406 -1.88311,-0.6924 -14.28608,0 -17.08303,0 -4.7146,0 -16.07351,-0.709 -19.93022,0 -2.96035,0.54423 -5.69435,2.09381 -8.54152,3.1406 -2.84718,1.0469 -5.85718,1.66016 -8.54152,3.1407 -3.06062,1.68808 -5.2513,5.24429 -8.54152,6.2813 -3.65017,1.15034 -7.64411,-0.68844 -11.38869,0 -0.86299,0.15862 -15.93286,8.57605 -17.08304,9.4219 -1.11675,0.82123 -1.6467,2.47853 -2.84717,3.14059 -1.69773,0.93643 -4.35218,-1.48043 -5.69435,0 -5.8909,6.49818 9.00208,-0.25392 -2.84717,6.2813 -0.84887,0.46816 -1.99832,-0.46816 -2.84717,0 -2.40096,1.32424 -3.46084,4.63884 -5.69435,6.2813 -1.76574,1.29852 -4.42105,1.26796 -5.69434,3.14071 -1.80072,2.64836 -0.97236,6.83674 -2.84718,9.4219 2.45127,18.79828 -8.38751,2.97076 -11.3887,6.2813 -2.41962,2.66902 -3.79622,6.2813 -5.69434,9.42189 -1.89812,3.1406 -3.64122,6.40222 -5.69435,9.4219 -0.8053,1.18441 -2.10266,1.9088 -2.84717,3.1407 -1.17716,1.94772 -2.17609,4.06043 -2.84718,6.2813 -0.30012,0.99315 0.52645,2.26957 0,3.1406 -1.48899,2.46369 -4.20533,3.81761 -5.69434,6.2813 -0.52644,0.87102 0.30012,2.14744 0,3.14059 -0.67109,2.22077 -1.67001,4.33359 -2.84717,6.2813 -4.34347,7.18674 -2.25374,-1.96376 -5.69435,9.4219 -0.30012,0.99315 0.30012,2.14755 0,3.1407 -0.67109,2.22077 -2.17609,4.06054 -2.84717,6.2813 -0.30012,0.99315 0.30012,2.14745 0,3.1406 -0.67109,2.22076 -2.33247,4.0103 -2.84718,6.2813 -2.87766,12.69715 4.0662,-0.14741 -2.84717,12.5626 -1.76053,3.23667 -3.9338,6.18523 -5.69434,9.4219 -2.18368,4.01459 -3.79624,8.37499 -5.69435,12.5626 -0.94906,2.09369 -1.57388,4.40855 -2.84717,6.2813 -1.61061,2.36872 -4.31327,3.7422 -5.69435,6.28119 -1.54409,2.83875 -1.04647,6.77353 -2.84717,9.422 -1.27329,1.87264 -4.42105,1.26785 -5.69435,3.1406 -4.13996,6.08893 -1.55439,9.61437 -5.69434,15.70319 -1.61061,2.36883 -4.08374,3.91248 -5.69435,6.28131 -1.27329,1.87274 -1.57388,4.40855 -2.84717,6.2813 -1.61061,2.36882 -4.08374,3.91247 -5.69435,6.2813 -1.2733,1.87275 -1.57388,4.40855 -2.84717,6.2813 -4.78326,7.03504 -12.2998,11.80875 -17.08305,18.84379 -4.52236,6.65141 -3.98452,13.94342 -11.38869,18.84392 -11.57837,7.663 -6.28316,-2.4912 -17.08304,9.4219 -2.41963,2.669 -3.02231,7.0639 -5.69434,9.4219 -17.16905,15.151 -1.22268,-4.0366 -14.23587,3.1407 -0.84886,0.4681 0.67109,2.4003 0,3.1406 -0.67108,0.7403 -1.89811,0 -2.84717,0 -0.94906,0 -1.89811,0 -2.84717,0"
       id="path3829-6"
       inkscape:connector-curvature="0" />
    <path
       style="fill:none;stroke:#000000;stroke-width:1px;stroke-linecap:butt;stroke-linejoin:miter;stroke-opacity:1"
       d="m 1265.7143,-500 -80,1054.28571"
       id="path3773"
       inkscape:connector-curvature="0"
       transform="translate(0,252.36218)" />
    <path
       style="fill:none;stroke:#000000;stroke-width:1px;stroke-linecap:butt;stroke-linejoin:miter;stroke-opacity:1"
       d="m 1220,25.714286 c -4.7619,0 -9.5717,0.673435 -14.2857,0 -9.6579,-1.379699 -2.4762,-2.666667 -8.5714,-5.714286 -1.7037,-0.851835 -4.0107,0.851835 -5.7143,0 -1.2047,-0.602339 -1.5794,-2.431225 -2.8572,-2.857143 -1.807,-0.602338 -3.8095,0 -5.7143,0 -1.9047,0 -3.8095,0 -5.7142,0 -5.7143,0 -11.4286,0 -17.1429,0 -1.9048,0 -3.8095,0 -5.7143,0 -0.9524,0 -2.1837,0.673435 -2.8571,0 -0.6735,-0.673435 0.8518,-2.431225 0,-2.857143 -3.4074,-1.703671 -8.0213,1.703671 -11.4286,0 -0.8518,-0.425917 0,-1.904762 0,-2.857143"
       id="path3775"
       inkscape:connector-curvature="0"
       transform="translate(0,252.36218)" />
    <path
       style="fill:none;stroke:#000000;stroke-width:1px;stroke-linecap:butt;stroke-linejoin:miter;stroke-opacity:1"
       d="m 948.57143,-500 c -1.90476,4.7619 -3.80953,9.52381 -5.71429,14.28571 0,1.90477 0.46198,3.8664 0,5.71429 -0.5165,2.066 -2.34064,3.64828 -2.85714,5.71429 -0.69296,2.77183 0.90351,5.8609 0,8.57142 -0.67344,2.02031 -2.18371,3.69398 -2.85714,5.71429 -0.61999,1.85997 0,17.60799 0,20 0,13.33333 0,26.66667 0,40"
       id="path3777"
       inkscape:connector-curvature="0"
       transform="translate(0,252.36218)" />
    <path
       style="fill:none;stroke:#000000;stroke-width:1px;stroke-linecap:butt;stroke-linejoin:miter;stroke-opacity:1"
       d="m 365.71429,-685.71429 -257.14286,477.14286 c -6.66667,3.80952 -13.333334,7.61905 -20.000001,11.42857 -3.809524,1.90476 -7.705381,3.64585 -11.428572,5.71429 -4.854447,2.69691 -9.198029,6.34556 -14.285714,8.57143 -10.212711,4.46806 -20.990998,7.51448 -31.428572,11.42857 -24.8410593,9.3154 -49.323723,19.58511 -74.285714,28.57143 -11.334656,4.08047 -22.901682,7.48794 -34.285714,11.42857 -13.379265,4.63128 -26.615253,9.67028 -40.000003,14.28571 -28.47173,9.81784 -57.47217,18.111389 -85.71428,28.571431 -93.03695,34.458128 18.86265,-5.077899 -62.85715,28.571429 -12.82239,5.27981 -27.37606,5.690417 -40,11.428571 -4.33507,1.970491 -7.61904,5.714286 -11.42857,8.571429 -3.80952,2.857143 -7.66975,5.647902 -11.42857,8.571429 -4.81364,3.743941 -8.71309,8.951852 -14.28571,11.428571 -3.48119,1.547194 -7.76563,-1.046557 -11.42857,0 -3.30174,0.943353 -5.59001,4.010615 -8.57143,5.714286 -3.698,2.113143 -7.61905,3.809524 -11.42857,5.7142854 -3.80953,1.9047619 -7.38797,4.3674157 -11.42858,5.7142857 -1.80701,0.6023386 -4.01061,-0.8518354 -5.71428,0 -0.85184,0.4259178 0,1.90476195 0,2.8571429"
       id="path3779"
       inkscape:connector-curvature="0"
       transform="translate(0,252.36218)" />
    <path
       style="fill:none;stroke:#000000;stroke-width:1px;stroke-linecap:butt;stroke-linejoin:miter;stroke-opacity:1"
       d="m -394.28571,105.71429 c 0,38.03405 -3.40735,-3.95754 5.71428,14.28571 1.27775,2.55551 -0.56033,5.76977 0,8.57143 1.25742,6.28711 4.89861,6.53148 8.57143,11.42857 6.14426,2.30116 0.67896,8.1613 2.85714,11.42857 1.18129,1.77193 4.01062,1.57939 5.71429,2.85714 2.15499,1.61625 3.80952,3.80953 5.71428,5.71429 14.4787,14.4787 -2.5555,-4.25918 8.57143,14.28571 1.38592,2.30987 4.09804,3.5593 5.71429,5.71429 6.29475,1.43884 1.51027,5.87769 2.85714,8.57143 3.53058,7.06115 2.85714,-0.98622 2.85714,5.71428"
       id="path3781"
       inkscape:connector-curvature="0"
       transform="translate(0,252.36218)" />
    <path
       style="fill:none;stroke:#000000;stroke-width:62.03042984;stroke-linecap:butt;stroke-linejoin:miter;stroke-miterlimit:4;stroke-opacity:1;stroke-dasharray:none"
       d="M 793.98479,246.94882 C 519.196,532.69412 826.03541,974.01821 620.30094,1192.0611"
       id="path3783"
       inkscape:connector-curvature="0"
       sodipodi:nodetypes="cc" />
    <path
       style="fill:none;stroke:#000000;stroke-width:59.45332718;stroke-linecap:butt;stroke-linejoin:miter;stroke-miterlimit:4;stroke-opacity:1;stroke-dasharray:none"
       d="M 236.70192,209.94599 C 21.517901,521.25038 230.70482,947.65039 77.583786,1157.6354"
       id="path3783-5"
       inkscape:connector-curvature="0"
       sodipodi:nodetypes="cc" />
    <path
       style="fill:none;stroke:#ae0000;stroke-width:50;stroke-linecap:butt;stroke-linejoin:miter;stroke-miterlimit:4;stroke-opacity:1;stroke-dasharray:none"
       d="m -1267.1429,616.64796 c -150.6909,314.40972 -4.1997,745.06314 -111.4285,957.14274"
       id="path3783-5-0"
       inkscape:connector-curvature="0"
       sodipodi:nodetypes="cc" />
    <path
       style="fill:none;stroke:#000000;stroke-width:50;stroke-linecap:butt;stroke-linejoin:miter;stroke-miterlimit:4;stroke-opacity:1;stroke-dasharray:none"
       d="M 515.71428,216.64791 C 339.42085,506.0305 536.27667,952.97223 404.28571,1173.7908"
       id="path3783-3"
       inkscape:connector-curvature="0"
       sodipodi:nodetypes="cc" />
    <path
       style="fill:none;stroke:#000000;stroke-width:47.56046677;stroke-linecap:butt;stroke-linejoin:miter;stroke-miterlimit:4;stroke-opacity:1;stroke-dasharray:none"
       d="m 686.21977,596.10962 c -4.0408,-3.80816 -8.55075,-6.93643 -12.12239,-11.42418 -0.7144,-0.89766 0.31938,-2.60394 0,-3.80815 -1.42868,-5.38542 -4.96553,-9.72496 -6.06125,-15.23233 -0.49005,-2.46279 1.12075,-5.50377 0,-7.61603 -1.25302,-2.36176 -4.80823,-1.44652 -6.06125,-3.80815 -1.12075,-2.11226 0.90351,-5.34542 0,-7.61616 -4.76155,-11.9661 -7.0737,-2.55263 -9.09181,-15.23219 -2.17225,-13.64734 3.24801,-9.6995 -3.03068,-22.84849 -20.10258,-25.25957 2.85735,7.18059 -6.06125,-15.23233 -1.27774,-3.21118 -5,-4.28264 -6.06115,-7.61617 -1.12563,-3.53559 1.12553,-7.88846 0,-11.42418 -1.06124,-3.33353 -4.34691,-4.74392 -6.06124,-7.61616 -3.51118,-5.88243 -5.72744,-16.50704 -9.09193,-22.84836 -0.79246,-1.49369 -2.57881,-2.10506 -3.03056,-3.80814 -0.63888,-2.40842 0.63886,-5.20762 0,-7.61617 -0.45177,-1.70295 -2.23812,-2.31432 -3.03058,-3.80801 -1.25302,-2.36163 -1.77765,-5.25453 -3.03068,-7.61617 -1.58491,-2.98726 -4.47621,-4.62876 -6.06124,-7.61616 -1.25292,-2.36163 -2.02034,-5.0774 -3.03057,-7.61617 -1.01023,-2.53862 -2.31629,-4.92332 -3.03068,-7.61602 -0.31938,-1.20434 0.71439,-2.91063 0,-3.80815 -1.59722,-2.00697 -4.46392,-1.80105 -6.06114,-3.80802 -0.71439,-0.89765 0,-2.53876 0,-3.80814 -2.02046,-2.53864 -3.7754,-5.46192 -6.06125,-7.61617 -3.61428,-3.40603 -8.24854,-4.69541 -12.12249,-7.61603 -24.72136,-18.63796 3.87957,2.70404 -15.15307,-15.23233 -3.61428,-3.40604 -8.36342,-4.46723 -12.1225,-7.61616 -1.18863,-0.99575 -1.84193,-2.81226 -3.03056,-3.80801 -1.87949,-1.57447 -4.25412,-2.10506 -6.06126,-3.80816 -7.89374,-7.43902 -3.31961,-7.73718 -12.12249,-11.42417 -17.24225,-7.22192 -6.6212,-0.2815 -21.21431,-7.61616 -4.1946,-2.10827 -7.83647,-5.82099 -12.1225,-7.61617 -3.95138,-1.65497 -8.17101,-2.15305 -12.12239,-3.80802 -2.14296,-0.89765 -3.86981,-3.11974 -6.06125,-3.80814 -1.9601,-0.61563 -4.14454,0.80289 -6.06125,0 -2.71066,-1.13531 -3.50556,-6.01051 -6.06124,-7.61617 -0.90352,-0.56764 -2.12706,0.56779 -3.03057,0 -1.27785,-0.80275 -1.75283,-3.00525 -3.03068,-3.80801 -7.46426,-4.68955 2.73591,11.05378 -9.09182,-3.80802 -0.71428,-0.89766 0.90352,-3.24049 0,-3.80815 -1.80714,-1.13529 -4.25411,1.13544 -6.06125,0 -0.90352,-0.56765 0.90362,-3.24036 0,-3.80802 -1.80713,-1.13542 -4.2541,1.13531 -6.06125,0 -0.90351,-0.56764 0,-2.53875 0,-3.80814 -2.02034,-1.26938 -3.91818,-2.91049 -6.06124,-3.80801 -2.00444,-0.83955 -15.20653,0 -18.18364,0 -5.01835,0 -17.10914,-0.85968 -21.21431,0 -3.15107,0.65988 -6.06126,2.53863 -9.09182,3.80801 -3.03068,1.26939 -6.23458,2.01297 -9.09193,3.80814 -3.25777,2.0467 -5.58965,6.35879 -9.09182,7.61617 -3.8853,1.39481 -8.13664,-0.83475 -12.12249,0 -0.91859,0.19233 -16.95936,10.39857 -18.18364,11.42418 -1.18874,0.99576 -1.75284,3.00525 -3.03068,3.80802 -1.80703,1.13543 -4.63256,-1.79505 -6.06124,0 -6.27043,7.87913 9.58208,-0.30802 -3.03058,7.61616 -0.90351,0.56765 -2.12704,-0.56765 -3.03056,0 -2.5557,1.60565 -3.68387,5.62465 -6.06126,7.61617 -1.87947,1.57446 -4.70596,1.53741 -6.06124,3.80801 -1.91671,3.21131 -1.03504,8.28977 -3.03067,11.42431 2.60924,22.79318 -8.92783,3.6021 -12.1224,7.61617 -2.57552,3.23623 -4.04079,7.61602 -6.06124,11.42417 -2.02046,3.80802 -3.87586,7.76277 -6.06125,11.42418 -0.85717,1.43612 -2.23812,2.31445 -3.03058,3.80815 -1.25303,2.36164 -2.31629,4.92333 -3.03068,7.61603 -0.31949,1.20434 0.56038,2.75201 0,3.80815 -1.58493,2.98726 -4.47622,4.62877 -6.06125,7.61616 -0.56037,1.05613 0.31949,2.60381 0,3.80802 -0.71429,2.69271 -1.77755,5.25453 -3.03057,7.61617 -4.62334,8.71401 -2.39891,-2.3811 -6.06125,11.42417 -0.31949,1.20421 0.31949,2.60395 0,3.80814 -0.71428,2.69272 -2.31629,4.92346 -3.03057,7.61617 -0.31949,1.20421 0.31939,2.60381 0,3.80802 -0.71439,2.6927 -2.48281,4.86255 -3.03067,7.61616 -3.06303,15.39547 4.32824,-0.17873 -3.03058,15.23233 -1.87396,3.92451 -4.18728,7.49967 -6.06124,11.42418 -2.32434,4.86774 -4.0408,10.15479 -6.06125,15.23233 -1.01022,2.53863 -1.67529,5.34542 -3.03057,7.61602 -1.71444,2.87225 -4.59121,4.53761 -6.06125,7.61617 -1.64358,3.44202 -1.11396,8.213 -3.03068,11.42431 -1.35527,2.2706 -4.70587,1.53729 -6.06125,3.80802 -4.40663,7.38291 -1.6545,11.65741 -6.06113,19.04034 -1.71444,2.87224 -4.34693,4.74392 -6.06126,7.61616 -1.35538,2.27074 -1.67529,5.34543 -3.03067,7.61616 -1.71433,2.87224 -4.34682,4.74393 -6.06125,7.61616 -1.35528,2.27061 -1.67519,5.34544 -3.03057,7.61617 -5.09143,8.53008 -13.0923,14.31828 -18.18375,22.84836 -4.81374,8.06493 -4.24116,16.90662 -12.12238,22.84849 -12.32436,9.29152 -6.68803,-3.02058 -18.18375,11.42418 -2.57552,3.23623 -3.21704,8.56514 -6.06124,11.42418 -18.27518,18.37086 -1.30139,-4.89441 -15.15307,3.80814 -0.90351,0.56765 0.71439,2.91049 0,3.80802 -0.71428,0.89766 -2.02034,0 -3.03057,0 -1.01022,0 -2.02045,0 -3.03068,0"
       id="path3829-3"
       inkscape:connector-curvature="0" />
  </g>
</svg>
