<?xml version="1.0" encoding="UTF-8" standalone="no"?>
<!-- Created with Inkscape (http://www.inkscape.org/) -->

<svg
   xmlns:osb="http://www.openswatchbook.org/uri/2009/osb"
   xmlns:dc="http://purl.org/dc/elements/1.1/"
   xmlns:cc="http://creativecommons.org/ns#"
   xmlns:rdf="http://www.w3.org/1999/02/22-rdf-syntax-ns#"
   xmlns:svg="http://www.w3.org/2000/svg"
   xmlns="http://www.w3.org/2000/svg"
   xmlns:sodipodi="http://sodipodi.sourceforge.net/DTD/sodipodi-0.dtd"
   xmlns:inkscape="http://www.inkscape.org/namespaces/inkscape"
   width="800"
   height="800"
   id="svg2"
   version="1.1"
   inkscape:version="0.48.4 r9939"
   sodipodi:docname="createProduct.svg">
  <defs
     id="defs4">
    <linearGradient
       id="linearGradient3823"
       osb:paint="solid">
      <stop
         style="stop-color:#0000b5;stop-opacity:1;"
         offset="0"
         id="stop3825" />
    </linearGradient>
    <filter
       inkscape:collect="always"
       id="filter3809"
       color-interpolation-filters="sRGB">
      <feGaussianBlur
         inkscape:collect="always"
         stdDeviation="3.9593924"
         id="feGaussianBlur3811" />
    </filter>
  </defs>
  <sodipodi:namedview
     id="base"
     pagecolor="#ffffff"
     bordercolor="#666666"
     borderopacity="1.0"
     inkscape:pageopacity="0.0"
     inkscape:pageshadow="2"
     inkscape:zoom="0.175"
     inkscape:cx="350"
     inkscape:cy="177.14286"
     inkscape:document-units="px"
     inkscape:current-layer="layer1"
     showgrid="false"
     inkscape:window-width="1855"
     inkscape:window-height="1056"
     inkscape:window-x="65"
     inkscape:window-y="24"
     inkscape:window-maximized="1" />
  <metadata
     id="metadata7">
    <rdf:RDF>
      <cc:Work
         rdf:about="">
        <dc:format>image/svg+xml</dc:format>
        <dc:type
           rdf:resource="http://purl.org/dc/dcmitype/StillImage" />
        <dc:title />
      </cc:Work>
    </rdf:RDF>
  </metadata>
  <g
     inkscape:label="Ebene 1"
     inkscape:groupmode="layer"
     id="layer1"
     transform="translate(0,-252.36218)">
    <rect
       style="fill:#ffeeff;fill-opacity:1;stroke:#c42117;stroke-width:26.24207497000000089;stroke-miterlimit:4;stroke-opacity:1;stroke-dasharray:none;stroke-dashoffset:1.19999999999999996"
       id="rect3034"
       width="1005.1865"
       height="890.90076"
       x="-71.16468"
       y="209.76886"
       rx="8.3462362"
       ry="10.302728" />
    <path
       style="fill:none;stroke:#000024;stroke-width:44.19145966;stroke-linecap:butt;stroke-linejoin:miter;stroke-miterlimit:4;stroke-opacity:1;stroke-dasharray:none"
       d="m -914.00677,-72.401534 c 1.21514,20.082203 5.55028,38.459128 8.12356,57.868089 1.31265,9.9006426 -1.56417,20.8045276 0,30.636042 -0.6214,6.835721 4.23681,11.092094 5.41571,17.020042 1.24708,6.27076 -1.62191,14.30739 0,20.42402 4.62337,17.43595 5.41569,29.19224 5.41569,51.060101 0,36.9126 9.09721,103.07626 -2.70784,132.7562 -4.38643,11.02824 0.56015,31.92759 -2.70785,44.25208 -3.4054,12.84266 6.267,43.3755 2.70785,61.27211 -2.38632,11.99925 -6.4632,24.92079 -8.12356,37.44405 -2.40378,18.13053 0.17365,36.35265 -2.70785,54.46408 -3.82257,24.02655 3.20712,50.69841 0,74.88814 -2.64652,19.96132 -4.30104,38.64714 -8.12357,57.86809 -4.12508,20.74233 0.11683,46.77487 -2.70785,68.08011 -3.92813,29.62798 -2.70785,61.13668 -2.70785,91.90814 0,64.95413 2.70785,126.66776 2.70785,190.62432 0,14.75065 0,29.50135 0,44.25205 0,1.7944 0.87119,16.4725 0,17.02 -1.61464,1.0149 -3.80106,-1.0148 -5.4157,0 -0.80732,0.5075 0.90261,3.404 0,3.404 -4.69852,0 4.27952,-28.4936 5.4157,-30.636"
       id="path3755"
       inkscape:connector-curvature="0" />
    <path
       style="fill:none;stroke:#000024;stroke-width:43.90842819;stroke-linecap:butt;stroke-linejoin:miter;stroke-miterlimit:4;stroke-opacity:1;stroke-dasharray:none"
       d="m 1504.9762,515.95742 c -5.671,67.42728 -5.4933,135.97297 -5.4933,204.40155 0,18.68186 1.9305,37.50798 0,56.04557 -1.047,10.05344 -4.3777,19.62841 -5.4933,29.67121 -3.4963,31.47433 -2.376,71.4574 2.7466,102.20074 4.6506,27.91075 -1.0733,62.48694 -5.4933,89.01358 -4.9955,29.98023 1.4664,61.96903 -2.7467,92.31043 -0.9519,6.8557 -4.3577,12.9655 -5.4933,19.7808 -2.203,13.2217 -2.7985,26.6236 -5.4933,39.5616 -3.4302,16.4692 2.329,35.9761 0,52.7487 -0.7434,5.354 -4.3798,10.6031 -2.7466,16.484 0.999,3.5973 6.8953,34.5133 5.4933,39.5616 -1.2948,4.6624 -4.1985,8.5248 -5.4933,13.1872 -4.4527,16.0337 -8.3868,51.8678 -5.4933,69.2328 0.4015,2.4096 1.8311,4.3957 2.7466,6.5936 0.9156,3.2968 2.2707,6.4626 2.7467,9.8904 1.0295,7.4148 -1.229,15.7021 0,23.0776 2.6791,16.0785 4.2956,35.249 8.2399,49.452 2.784,10.0246 -3.938,26.811 0,36.2648 3.2774,7.8675 3.2126,18.1614 5.4933,26.3744 0.8686,3.1276 -2.2853,8.0616 0,9.8903 2.409,1.9277 5.831,1.3692 8.24,3.2969 1.096,0.8769 0,14.4838 0,16.4839 0,7.5181 2.6343,23.3474 0,29.6713 -3.2701,7.8503 -8.24,17.0713 -8.24,26.3745 0,7.1781 -2.0804,10.3392 -5.4933,16.484 -0.7182,1.293 -3.6622,4.3957 -2.7466,3.2967 13.7172,-16.4647 9.5313,-27.9244 24.7199,-46.1552"
       id="path3759"
       inkscape:connector-curvature="0" />
    <path
       style="fill:none;stroke:#00c000;stroke-width:130.39833069;stroke-linecap:butt;stroke-linejoin:miter;stroke-miterlimit:4;stroke-opacity:1;stroke-dasharray:none"
       d="m 64.288951,919.11901 c 26.619487,14.11478 57.369509,18.70504 84.773479,5.40333 4.49322,-2.18097 8.32272,-8.90449 12.84445,-10.80667 9.85419,-4.14539 20.87049,-1.91304 30.82672,-5.40333 3.59349,-1.25973 9.25097,-9.54691 12.84445,-10.80667 2.53398,-0.8883 5.26961,1.70869 7.70675,0 6.65739,-4.66765 11.05253,-12.56605 17.98225,-16.20999 11.76651,-6.18733 39.08974,10.22157 48.80897,0 8.18652,-8.60965 16.46807,-9.74502 25.68891,-16.21002 10.74764,9.78466 2.97148,-8.52841 5.13781,-10.80664 7.37659,-7.75785 23.83835,2.4635 30.82671,5.40333 19.33812,8.13504 54.65688,-12.10994 71.92902,0 6.03899,4.23404 11.52582,8.09061 17.98226,10.80665 16.61785,6.99069 32.56767,-0.58047 48.80896,10.80668 12.93312,9.0677 31.05869,-10.61156 43.67127,0 2.86654,2.41179 4.94512,7.90246 7.70665,10.80668 4.76836,5.01475 12.89129,-3.56939 17.98225,0 29.85999,20.93553 62.99922,16.20998 95.04909,16.20998 29.50591,0 57.45762,-5.40334 87.34234,-5.40334 6.81967,0 21.57591,-4.68487 28.25785,0 2.92895,2.05359 4.84011,8.39487 7.70665,10.80667 9.32515,7.8457 20.09509,-5.40333 28.25787,-5.40333 0.71938,0 46.12278,-0.24682 46.2401,0 1.38528,2.9138 4.2617,21.61335 -2.56894,21.61335"
       id="path3769"
       inkscape:connector-curvature="0" />
    <path
       style="fill:none;stroke:#0000cf;stroke-width:55.84735489;stroke-linecap:butt;stroke-linejoin:miter;stroke-miterlimit:4;stroke-opacity:1;stroke-dasharray:none"
       d="m -735.34012,734.80563 c -54.62949,-5.31762 -100.88963,22.59449 -154.45662,4.86794 -2.98316,-0.9872 -8.9477,-0.89224 -12.25846,-1.62265 -6.43332,-1.41929 -9.18239,-4.66131 -14.71016,-6.49058 -1.4619,-0.48377 -4.17243,0.96756 -4.90339,0 -0.73095,-0.96756 0.73096,-2.27773 0,-3.24529 -0.18583,-0.24598 -27.9889,-20.62068 -29.4203,-21.09437 -9.00757,-2.98081 -22.01259,-9.72714 -31.87201,-11.3585 -1.58566,-0.26237 -3.54343,0.60006 -4.90337,0 -1.52048,-0.67088 -1.15954,-2.39008 -2.45171,-3.24528 -0.80356,-0.53184 -22.70646,-5.08013 -26.96856,-6.49059 -3.74,-1.23762 -6.1503,-3.65791 -9.8068,-4.86792 -2.5721,-0.85116 -10.3948,-0.38917 -12.2585,-1.62265 -8.5259,-5.64284 -25.9886,-8.43789 -39.2271,-11.3585 -3.9931,-0.88095 -7.6133,-3.33074 -12.2584,-4.86794 -2.5722,-0.85119 -10.3016,1.29513 -12.2585,0 -4.6414,-3.07188 -11.8039,-1.9531 -19.6135,-3.24528 -3.5457,-0.58666 -6.3396,-2.48037 -9.8068,-3.24529 -15.4161,-3.40103 -27.8775,-3.54605 -41.6788,-8.11321 -3.2689,-1.08177 -8.9895,1.08175 -12.2584,0 -0.731,-0.2419 0.5778,-1.24019 0,-1.62265 -1.1334,-0.75009 -5.8748,0.48986 -7.3551,0 -3.5397,-1.17138 -6.267,-2.07391 -9.8068,-3.24529 -2.6151,-0.86541 -7.1916,0.86542 -9.8067,0 -9.6289,-3.1864 -17.5319,-1.74508 -26.9687,-4.86793 -3.2689,-1.08176 -8.9895,1.08176 -12.2584,0 -4.8867,-1.61711 -9.8235,-1.62818 -14.7102,-3.24528 -2.5721,-0.8512 -10.3016,1.29513 -12.2584,0 -0.5779,-0.38246 0.5778,-1.24019 0,-1.62265 -2.4517,-1.62265 -12.2585,1.62265 -14.7102,0 -0.5779,-0.38246 0.5779,-1.24018 0,-1.62265 -2.0104,-1.33056 -16.197,-0.49204 -19.6135,-1.62264 -1.126,-0.3726 -24.1162,2.98004 -24.517,3.24529 -0.5778,0.38246 0.5779,1.24019 0,1.62265 -0.9379,0.62078 -11.3985,0 -12.2584,0 -1.6345,0 -3.2689,0 -4.9034,0 0,0.54088 0.7309,1.38075 0,1.62264 -8.524,2.82079 -22.7343,-2.01592 -31.872,0 -5.7967,1.27884 -8.587,1.62264 -14.7102,1.62264 -1.4961,0 -8.8515,-0.63224 -9.8067,0 -0.5779,0.38246 0.7309,1.38076 0,1.62264 -3.3589,1.11154 -8.8745,0.5028 -12.2585,1.62265 -2.0675,0.68416 -2.8359,2.56112 -4.9034,3.24529 -2.6151,0.86541 -7.1916,-0.86542 -9.8067,0 -6.3289,2.09435 -8.3814,2.77356 -14.7102,4.86793 -1.4803,0.48985 -6.2218,-0.75009 -7.3551,0 -6.3359,4.19338 -14.1042,9.3348 -19.6135,12.98114 -0.8798,0.58229 -2.0602,4.60884 -4.9034,6.49059 -1.7336,1.14737 1.0964,3.41659 0,4.86792 -0.3655,0.48378 -1.6345,0 -2.4517,0 -0.8172,0.54089 -1.9348,0.93848 -2.4517,1.62265 -4.2711,5.65363 -0.7828,3.76339 -7.3551,8.11321 -1.2258,0.81133 1.2259,4.05662 0,4.86794 -3.6928,2.44406 -6.9216,9.44902 -7.355,9.73586 -0.532,0.35208 -4.6644,1.30628 -4.9034,1.62264 -0.731,0.96756 0.7309,2.27773 0,3.24529 -0.3655,0.48378 -1.7208,-0.24189 -2.4517,0 -3.6133,1.19572 -4.9089,4.87158 -7.3551,6.49058 -1.2259,0.81132 -6.1292,-0.81133 -7.3551,0 -1.6505,1.09238 -1.2931,2.05057 -4.9034,3.24528 -7.5828,2.50935 -28.1221,0 -36.7753,0 -2.3772,0 -21.3416,0.95792 -22.0653,0 -1.1007,-1.45701 0.4997,-5.62929 2.4517,-6.49058 3.3999,-1.50013 8.2943,0.65592 12.2585,0 4.2695,-0.70643 8.1723,-2.16351 12.2585,-3.24528"
       id="path3828"
       inkscape:connector-curvature="0" />
    <path
       style="fill:none;stroke:#000000;stroke-width:50;stroke-linecap:butt;stroke-linejoin:miter;stroke-miterlimit:4;stroke-opacity:1;stroke-dasharray:none"
       d="m 683.08218,-322.08875 c -0.39989,-29.3443 -19.55867,-49.4431 -24.08066,-75.6798 -0.32446,-1.8825 0.5983,-4.0858 0,-5.8215 -2.02177,-5.8652 -7.29179,-12.1618 -10.0336,-17.4645 -5.32079,-10.2905 -11.55699,-24.0581 -16.05378,-34.9291 -4.89634,-11.837 1.59172,-6.4235 -6.02016,-17.4646 -3.41077,-4.9473 -8.27377,-7.2723 -12.04033,-11.643 -5.0056,-5.8085 -20.54098,-25.1726 -24.08066,-32.0184 -0.89743,-1.7356 -0.81014,-4.5198 -2.00672,-5.8215 -2.88174,-3.135 -7.03641,-2.9232 -10.03361,-5.8215 -2.3613,-2.2834 -3.74981,-6.2624 -6.02016,-8.7323 -10.46807,-11.388 -26.33039,-13.5305 -38.12771,-20.3753 -0.87832,-0.5096 -1.33782,-1.9405 -2.00672,-2.9108 -3.34454,-1.9405 -6.57003,-4.3861 -10.03361,-5.8215 -4.45084,-1.8445 -4.00011,2.9301 -8.02689,-2.9107 -1.05763,-1.5341 -0.81014,-4.5198 -2.00672,-5.8215 -2.99171,-3.2547 -16.5456,-9.4457 -18.06049,-11.6431 -3.8102,-5.5267 -8.06762,-11.6627 -14.04705,-14.5538 -1.90375,-0.9204 -4.07336,0.706 -6.02017,0 -7.97734,-2.8928 -16.20554,-13.65689 -24.08066,-17.46449 -5.36887,-2.5959 -12.50813,-0.8974 -18.06049,-2.9108 -3.63205,1.7544 -3.73215,-4.7152 -6.02016,-5.8215 -2.53833,-1.2273 -5.43115,0.9413 -8.02689,0 -15.37319,-5.5747 -60.94626,-10.8449 -78.26214,-5.8215 -14.46429,4.1961 -29.84497,11.537 -44.14788,17.4645 -12.1784,5.04709 -26.54473,3.24249 -38.1277,11.64309 -5.38312,3.9041 -9.03651,10.1915 -16.05377,14.5538 -6.84158,4.253 -35.89554,20.0483 -40.13443,26.1968 -0.43543,0.6316 -1.61548,5.5378 -2.00672,5.8215 -5.13033,3.7208 -17.37276,6.5287 -22.07395,11.643 -22.77299,24.7743 4.2692,1.8169 -10.0336,8.7323 -1.96503,0.9501 -10.85568,19.8494 -12.04033,23.2861 -0.65628,1.9039 -1.10192,13.8976 -2.00672,14.5538 -1.19658,0.8678 -3.06747,-1.3722 -4.01345,0 -1.95018,2.8287 -0.47687,8.3144 -2.00672,11.643 -1.47582,3.2111 -4.83483,5.2936 -6.02016,8.7323 -0.59829,1.7356 0.94598,4.4494 0,5.8215 -1.05764,1.5341 -3.18377,1.1056 -4.01344,2.9108 -1.11313,2.4219 1.41896,6.674 0,8.7322 -2.29238,3.3251 -6.11015,8.8628 -8.02689,11.6431 -0.66891,0.9702 -1.33782,7.762 -2.00672,8.7322 -0.47299,0.6861 -1.70758,-0.8678 -2.00672,0 -3.09712,8.9848 -1.02646,10.2212 -6.02017,17.4646 -0.94598,1.3721 0.59829,4.0859 0,5.8215 -3.04381,8.8301 -8.99652,14.456 -12.04033,23.2861 -13.816654,40.0822 -26.320144,55.5295 -50.168054,78.5905 -4.44531,4.2986 -20.067211,18.9465 -20.067211,14.5538"
       id="path3905"
       inkscape:connector-curvature="0" />
    <path
       style="fill:none;stroke:#443aff;stroke-width:62.77516937;stroke-linecap:butt;stroke-linejoin:miter;stroke-miterlimit:4;stroke-opacity:1;stroke-dasharray:none"
       d="m 330.53343,902.07858 c 7.71411,-15.52242 14.92324,-31.70342 18.69177,-51.0942 0.49258,-2.53448 1.98817,-3.32284 2.33648,-6.01107 0.24628,-1.90088 -0.43202,-4.34392 0,-6.01109 0.48301,-1.86395 1.72075,-1.42148 2.33647,-3.00554 0.43917,-1.12988 2.32897,-15.01806 2.33647,-15.0277 0.6966,-0.89609 1.63987,0.89607 2.33647,0 0.6966,-0.89609 -0.3483,-4.21894 0,-6.01109 1.10879,-5.70522 3.56147,-7.73291 4.67294,-12.02217 2.33647,-9.01663 -1.16823,-3.00554 0,-9.01663 0.96572,-4.96903 2.40769,-3.37197 3.5047,-9.01663 0.81468,-4.19182 0.35358,-10.83588 1.16825,-15.0277 0.49256,-2.5345 1.84389,-3.47659 2.33646,-6.01109 2.21118,-11.37746 0.77149,-17.01251 4.67295,-27.04987 0.64813,-1.66745 0.66266,-15.43188 1.16823,-18.03325 0.38941,-2.0037 1.94706,-1.00185 2.33647,-3.00554 0.77558,-3.99071 0.39266,-11.03701 1.16824,-15.02772 0.17415,-0.89607 0.77882,0 1.16823,0 0.38942,-2.00369 0.95705,-3.83777 1.16824,-6.01108 1.93144,-19.87618 6.76655,-37.19761 9.34588,-57.1053 0.79952,-6.17085 2.89092,-8.7113 3.50471,-15.02771 0.18889,-1.94386 -0.3483,-4.21892 0,-6.01109 3.8036,-19.57118 1.1708,5.99131 3.50471,-12.02216 1.73495,-13.39068 4.93241,-25.71321 7.00941,-39.07205 0.64678,-4.15994 1.78576,-7.77169 2.33646,-12.02216 0.2463,-1.90087 -0.5507,-4.59425 0,-6.01108 0.55072,-1.41683 1.63989,0.89607 2.33648,0 1.01639,-1.30745 0.47867,-16.25921 1.16824,-18.03325 0.55071,-1.41683 1.63987,0.89607 2.33647,0 1.65918,-2.13432 4.08142,-19.47889 4.67295,-24.04433 1.25934,-9.71985 10.52024,-33.10822 11.68235,-42.0776 0.24629,-1.90087 -0.3483,-4.21892 0,-6.01109 0.17415,-0.89608 0.81993,0.44804 1.16823,0 2.45462,-3.15751 -0.0227,-5.95268 1.16824,-9.01662 0.71773,-1.84651 2.72237,-1.9856 3.50471,-6.01108 3.68221,-18.9466 8.27932,-30.317 14.01883,-45.08313 1.032,-2.65506 6.1098,-22.88712 7.0094,-24.04433 0.69661,-0.89609 1.63988,0.89608 2.33648,0 0.39434,-0.50727 4.35791,-13.75571 5.84118,-15.02771 6.00355,-5.14849 3.58853,-6.11893 8.17764,-12.02218 5.61652,-7.22485 11.44298,-6.01108 18.69177,-6.01108 5.56877,0 11.10445,-0.37169 16.3553,3.00554 3.32294,2.13725 7.47595,11.11954 10.51412,15.02772 0.6966,0.89607 1.78576,-1.41683 2.33647,0 4.20667,10.82258 11.95626,14.49563 17.52353,24.04433 1.18063,2.02494 7.56011,13.43893 8.17764,15.02771 0.27536,0.70842 -0.324,2.44981 0,3.00555 3.49688,5.99764 7.36796,6.93348 10.51413,15.0277 0.37521,0.96532 2.07255,8.67713 2.33647,9.01663 0.6966,0.89607 1.63987,-0.89608 2.33647,0 0.6966,0.89607 -0.55071,4.59425 0,6.01107 0.38941,1.00185 1.94706,5.00925 2.33647,6.01109 0.87075,2.2402 2.63396,0.76534 3.50471,3.00554 2.25221,5.79433 10.58985,27.11483 14.01882,30.05542 0.73887,0.63363 1.68846,-1.11145 2.33648,0 0.7245,1.24264 0.55252,4.42703 1.16823,6.01109 0.60468,1.55565 4.06827,1.44989 4.67294,3.00554 3.52878,9.07856 -0.94641,-1.07477 5.84118,12.02216 0.62306,1.20222 -0.3483,4.21894 0,6.01109 2.43096,12.50835 -0.0806,-3.21303 2.33648,3.00554 1.42422,3.66415 0.40641,11.71738 2.33646,15.02771 3.81323,6.54025 7.65136,16.67923 10.51412,24.04434 0.55072,1.41683 -0.55071,4.59425 0,6.01108 1.15574,2.97339 4.25208,6.8511 4.67295,9.01663 0.3483,1.79215 -0.43201,4.34391 0,6.01109 0.483,1.86395 1.85346,1.14157 2.33646,3.00553 0.43203,1.66718 -0.3483,4.21892 0,6.01109 0.9346,4.80886 3.73836,7.2133 4.67295,12.02217 1.43865,7.4025 -3.39108,-2.71321 1.16824,9.01662 0.76587,1.97038 2.91942,4.50531 3.5047,6.01108 0.38941,1.00184 0.77882,8.01479 1.16823,9.01663 0.27536,0.70841 0.99409,-0.89608 1.16824,0 0.3483,1.79216 -0.3483,4.21892 0,6.01109 0.45176,2.32452 3.77151,4.37834 4.67295,9.01661 0.34829,1.79216 -0.55072,4.59426 0,6.01109 5.03372,12.95036 9.90783,25.49008 14.01882,36.06651 0.87075,2.24019 0.48516,6.38058 1.16824,9.01662 0.30267,1.16806 7.75797,19.9591 8.17764,21.0388 1.17793,3.03046 0.92224,11.38927 2.33648,15.02771 1.07334,2.76141 3.95837,9.51251 4.67293,15.0277 0.2463,1.90088 -0.34829,4.21893 0,6.01109 0.34831,1.79216 1.78577,-1.41683 2.33648,0 0.30826,0.79306 1.1524,12.00181 1.16823,12.02217 0.69661,0.89607 1.78577,-1.41683 2.33648,0 0.55071,1.41682 -0.34831,4.21891 0,6.01107 0.62791,3.23087 2.72588,3.00555 3.5047,6.01109 2.20411,8.50582 2.45797,15.34028 4.67294,21.03879 0.55071,1.41683 -0.3483,4.21893 0,6.01109 2.43096,12.50835 -0.0806,-3.21302 2.33648,3.00554 2.82734,7.27398 4.25439,34.98969 8.17764,45.08313 6.06895,15.61368 4.52049,44.29864 8.17765,63.11638 0.98438,5.06504 0.13978,12.74141 1.16824,18.03321 2.43096,12.5084 -0.0806,-3.21302 2.33647,3.00553 0.27536,0.70847 -0.38941,3.00563 0,3.00563 1.23352,0 22.43498,78.286 22.88817,75.9542"
       id="path3907"
       inkscape:connector-curvature="0"
       sodipodi:nodetypes="csssscssssssssssscssssssssssssscsssssssssssssscscssssssssssssssssssssssssssssssssscsssssssssssc" />
    <path
       style="fill:none;stroke:#000000;stroke-width:50;stroke-linecap:butt;stroke-linejoin:miter;stroke-miterlimit:4;stroke-opacity:1;stroke-dasharray:none"
       d="m 840.22503,-390.92137 c -0.39989,29.3443 -19.55867,49.4431 -24.08066,75.6798 -0.32446,1.8825 0.5983,4.0858 0,5.8215 -2.02177,5.8652 -7.29179,12.1618 -10.0336,17.4645 -5.32079,10.2905 -11.55699,24.0581 -16.05378,34.9291 -4.89634,11.837 1.59172,6.4235 -6.02016,17.4646 -3.41077,4.9473 -8.27377,7.2723 -12.04033,11.643 -5.0056,5.8085 -20.54098,25.1726 -24.08066,32.0184 -0.89743,1.7356 -0.81014,4.5198 -2.00672,5.8215 -2.88174,3.135 -7.03641,2.9232 -10.03361,5.8215 -2.3613,2.2834 -3.74981,6.2624 -6.02016,8.7323 -10.46807,11.388 -26.33039,13.5305 -38.12771,20.3753 -0.87832,0.5096 -1.33782,1.9405 -2.00672,2.9108 -3.34454,1.9405 -6.57003,4.3861 -10.03361,5.8215 -4.45084,1.8445 -4.00011,-2.9301 -8.02689,2.9107 -1.05763,1.5341 -0.81014,4.5198 -2.00672,5.8215 -2.99171,3.2547 -16.5456,9.4457 -18.06049,11.6431 -3.8102,5.5267 -8.06762,11.6627 -14.04705,14.5538 -1.90375,0.9204 -4.07336,-0.706 -6.02017,0 -7.97734,2.8928 -16.20554,13.656896 -24.08066,17.464496 -5.36887,2.5959 -12.50813,0.8974 -18.06049,2.9108 -3.63205,-1.7544 -3.73215,4.7152 -6.02016,5.8215 -2.53833,1.2273 -5.43115,-0.9413 -8.02689,0 -15.37319,5.5747 -60.94626,10.8449 -78.26214,5.8215 -14.46429,-4.1961 -29.84497,-11.537 -44.14788,-17.4645 -12.1784,-5.047096 -26.54473,-3.242496 -38.1277,-11.643096 -5.38312,-3.9041 -9.03651,-10.1915 -16.05377,-14.5538 -6.84158,-4.253 -35.89554,-20.0483 -40.13443,-26.1968 -0.43543,-0.6316 -1.61548,-5.5378 -2.00672,-5.8215 -5.13033,-3.7208 -17.37276,-6.5287 -22.07395,-11.643 -22.77299,-24.7743 4.2692,-1.8169 -10.0336,-8.7323 -1.96503,-0.9501 -10.85568,-19.8494 -12.04033,-23.2861 -0.65628,-1.9039 -1.10192,-13.8976 -2.00672,-14.5538 -1.19658,-0.8678 -3.06747,1.3722 -4.01345,0 -1.95018,-2.8287 -0.47687,-8.3144 -2.00672,-11.643 -1.47582,-3.2111 -4.83483,-5.2936 -6.02016,-8.7323 -0.59829,-1.7356 0.94598,-4.4494 0,-5.8215 -1.05764,-1.5341 -3.18377,-1.1056 -4.01344,-2.9108 -1.11313,-2.4219 1.41896,-6.674 0,-8.7322 -2.29238,-3.3251 -6.11015,-8.8628 -8.02689,-11.6431 -0.66891,-0.9702 -1.33782,-7.762 -2.00672,-8.7322 -0.47299,-0.6861 -1.70758,0.8678 -2.00672,0 -3.09712,-8.9848 -1.02646,-10.2212 -6.02017,-17.4646 -0.94598,-1.3721 0.59829,-4.0859 0,-5.8215 -3.04381,-8.8301 -8.99651,-14.456 -12.04032,-23.2861 -13.81665,-40.0822 -26.32014,-55.5295 -50.16806,-78.5905 -4.44531,-4.2986 -20.06721,-18.9465 -20.06721,-14.5538"
       id="path3905-5"
       inkscape:connector-curvature="0" />
    <path
       sodipodi:type="arc"
       style="fill:#ff0000;fill-opacity:1;stroke:#bc0000;stroke-width:1;stroke-miterlimit:4;stroke-opacity:1;stroke-dasharray:8, 1;stroke-dashoffset:1.2;filter:url(#filter3809)"
       id="path3033"
       sodipodi:cx="327.14285"
       sodipodi:cy="332.36218"
       sodipodi:rx="90"
       sodipodi:ry="48.57143"
       d="m 417.14285,332.36218 c 0,26.82526 -40.29437,48.57143 -90,48.57143 -49.70562,0 -90,-21.74617 -90,-48.57143 0,-26.82526 40.29438,-48.57143 90,-48.57143 49.70563,0 90,21.74617 90,48.57143 z"
       transform="matrix(1.3976683,0,0,2.3201934,-252.95148,-280.21099)" />
    <path
       style="fill:none;stroke:#000000;stroke-width:40;stroke-linecap:butt;stroke-linejoin:miter;stroke-miterlimit:4;stroke-opacity:1;stroke-dasharray:none"
       d="m 1682.8571,1652.3622 c -3.8095,-2.8572 -8.0613,-5.2043 -11.4285,-8.5714 -0.6735,-0.6735 0.3011,-1.9537 0,-2.8572 -1.3469,-4.0406 -4.6813,-7.2965 -5.7143,-11.4286 -0.462,-1.8478 1.0566,-4.1294 0,-5.7142 -1.1813,-1.772 -4.533,-1.0853 -5.7143,-2.8572 -1.0566,-1.5848 0.8518,-4.0106 0,-5.7143 -4.489,-8.978 -6.6688,-1.9152 -8.5714,-11.4285 -2.0479,-10.2394 3.0621,-7.2774 -2.8572,-17.1429 -18.9519,-18.9519 2.6938,5.3875 -5.7143,-11.4286 -1.2046,-2.4093 -4.7138,-3.2132 -5.7142,-5.7143 -1.0612,-2.6527 1.0611,-5.9186 0,-8.5714 -1.0005,-2.5011 -4.0981,-3.5593 -5.7143,-5.7143 -3.3102,-4.4135 -5.3996,-12.385 -8.5715,-17.1428 -0.7471,-1.1207 -2.4312,-1.5794 -2.8571,-2.8572 -0.6023,-1.807 0.6023,-3.9072 0,-5.7143 -0.4259,-1.2777 -2.11,-1.7364 -2.8571,-2.8571 -1.1813,-1.7719 -1.6759,-3.9424 -2.8572,-5.7143 -1.4942,-2.2413 -4.22,-3.4729 -5.7143,-5.7143 -1.1812,-1.7719 -1.9047,-3.8095 -2.8571,-5.7143 -0.9524,-1.9047 -2.1837,-3.6939 -2.8572,-5.7142 -0.3011,-0.9036 0.6735,-2.1838 0,-2.8572 -1.5058,-1.5058 -4.2084,-1.3513 -5.7142,-2.8571 -0.6735,-0.6735 0,-1.9048 0,-2.8572 -1.9048,-1.9047 -3.5593,-4.098 -5.7143,-5.7143 -3.4074,-2.5555 -7.7764,-3.5229 -11.4286,-5.7142 -23.3063,-13.9838 3.6575,2.0288 -14.2857,-11.4286 -3.4074,-2.5555 -7.8847,-3.3517 -11.4286,-5.7143 -1.1206,-0.7471 -1.7365,-2.11 -2.8571,-2.8571 -1.7719,-1.1813 -4.0106,-1.5794 -5.7143,-2.8572 -7.4419,-5.5814 -3.1296,-5.8051 -11.4286,-8.5714 -16.2553,-5.4185 -6.2422,-0.2112 -20,-5.7143 -3.9545,-1.5818 -7.3879,-4.3674 -11.4286,-5.7143 -3.7252,-1.2417 -7.7033,-1.6154 -11.4285,-2.8571 -2.0203,-0.6735 -3.6483,-2.3407 -5.7143,-2.8572 -1.8479,-0.4619 -3.9073,0.6024 -5.7143,0 -2.5555,-0.8518 -3.3049,-4.5096 -5.7143,-5.7143 -0.8518,-0.4259 -2.0053,0.426 -2.8571,0 -1.2047,-0.6023 -1.6525,-2.2548 -2.8572,-2.8571 -7.037,-3.5185 2.5793,8.2935 -8.5714,-2.8571 -0.6734,-0.6735 0.8518,-2.4313 0,-2.8572 -1.7037,-0.8518 -4.0106,0.8519 -5.7143,0 -0.8518,-0.4259 0.8519,-2.4312 0,-2.8571 -1.7037,-0.8519 -4.0106,0.8518 -5.7143,0 -0.8518,-0.4259 0,-1.9048 0,-2.8572 -1.9047,-0.9524 -3.6939,-2.1837 -5.7143,-2.8571 -1.8897,-0.6299 -14.3361,0 -17.1428,0 -4.7311,0 -16.1298,-0.645 -20,0 -2.9707,0.4951 -5.7143,1.9047 -8.5714,2.8571 -2.8572,0.9524 -5.8777,1.5103 -8.5715,2.8572 -3.0713,1.5356 -5.2697,4.7709 -8.5714,5.7143 -3.6629,1.0465 -7.6709,-0.6263 -11.4286,0 -0.866,0.1443 -15.9886,7.8019 -17.1428,8.5714 -1.1207,0.7471 -1.6525,2.2548 -2.8572,2.8571 -1.7036,0.8519 -4.3674,-1.3468 -5.7143,0 -5.9115,5.9116 9.0336,-0.2311 -2.8571,5.7143 -0.8518,0.4259 -2.0053,-0.4259 -2.8571,0 -2.4094,1.2047 -3.473,4.2201 -5.7143,5.7143 -1.7719,1.1813 -4.4366,1.1535 -5.7143,2.8571 -1.807,2.4094 -0.9758,6.2197 -2.8572,8.5715 2.4599,17.1014 -8.4168,2.7026 -11.4285,5.7143 -2.4281,2.4281 -3.8095,5.7142 -5.7143,8.5714 -1.9048,2.8571 -3.654,5.8243 -5.7143,8.5714 -0.8081,1.0775 -2.11,1.7365 -2.8571,2.8572 -1.1813,1.7719 -2.1837,3.6939 -2.8572,5.7142 -0.3012,0.9036 0.5283,2.0648 0,2.8572 -1.4942,2.2413 -4.22,3.4729 -5.7143,5.7143 -0.5283,0.7924 0.3012,1.9536 0,2.8571 -0.6734,2.0203 -1.6758,3.9424 -2.8571,5.7143 -4.3587,6.538 -2.2616,-1.7865 -5.7143,8.5714 -0.3012,0.9035 0.3012,1.9537 0,2.8572 -0.6734,2.0203 -2.1837,3.694 -2.8571,5.7143 -0.3012,0.9035 0.3011,1.9536 0,2.8571 -0.6735,2.0203 -2.3407,3.6483 -2.8572,5.7143 -2.8877,11.551 4.0805,-0.1341 -2.8571,11.4286 -1.7667,2.9445 -3.9476,5.6269 -5.7143,8.5714 -2.1913,3.6522 -3.8095,7.619 -5.7143,11.4286 -0.9524,1.9047 -1.5794,4.0106 -2.8571,5.7142 -1.6163,2.155 -4.3284,3.4045 -5.7143,5.7143 -1.5495,2.5825 -1.0502,6.1621 -2.8572,8.5715 -1.2777,1.7036 -4.4365,1.1534 -5.7143,2.8571 -4.1544,5.5393 -1.5598,8.7464 -5.7142,14.2857 -1.6163,2.155 -4.0981,3.5593 -5.7143,5.7143 -1.2778,1.7037 -1.5794,4.0106 -2.8572,5.7143 -1.6162,2.155 -4.098,3.5593 -5.7143,5.7143 -1.2777,1.7036 -1.5793,4.0106 -2.8571,5.7143 -4.8,6.4 -12.3429,10.7428 -17.1429,17.1428 -4.5382,6.051 -3.9984,12.6848 -11.4285,17.1429 -11.6189,6.9713 -6.3052,-2.2663 -17.1429,8.5714 -2.4281,2.4281 -3.0329,6.4263 -5.7143,8.5714 -17.2291,13.7834 -1.2269,-3.6722 -14.2857,2.8572 -0.8518,0.4259 0.6735,2.1837 0,2.8571 -0.6734,0.6735 -1.9047,0 -2.8571,0 -0.9524,0 -1.9048,0 -2.8572,0"
       id="path3829"
       inkscape:connector-curvature="0" />
    <path
       style="fill:none;stroke:#000000;stroke-width:40;stroke-linecap:butt;stroke-linejoin:miter;stroke-miterlimit:4;stroke-opacity:1;stroke-dasharray:none"
       d="m 995.71429,1626.6416 c -3.80952,-2.8571 -8.06139,-5.2043 -11.42857,-8.5714 -0.67343,-0.6735 0.30117,-1.9537 0,-2.8572 -1.34687,-4.0406 -4.68128,-7.2965 -5.71428,-11.4285 -0.46198,-1.8479 1.05657,-4.1295 0,-5.7143 -1.18129,-1.772 -4.53301,-1.0853 -5.71429,-2.8572 -1.05657,-1.5848 0.85184,-4.0106 0,-5.7143 -4.489,-8.978 -6.66876,-1.9152 -8.57143,-11.4285 -2.04787,-10.2394 3.06215,-7.2774 -2.85714,-17.1429 -18.9519,-18.9519 2.69374,5.3875 -5.71429,-11.4286 -1.20467,-2.4093 -4.71385,-3.2132 -5.71428,-5.7142 -1.06112,-2.6528 1.06111,-5.9187 0,-8.5715 -1.00043,-2.5011 -4.09804,-3.5593 -5.71429,-5.7143 -3.31016,-4.4135 -5.39955,-12.385 -8.57143,-17.1428 -0.74711,-1.1207 -2.43122,-1.5794 -2.85714,-2.8572 -0.60234,-1.807 0.60234,-3.9072 0,-5.7142 -0.42592,-1.2778 -2.11003,-1.7365 -2.85714,-2.8572 -1.18129,-1.7719 -1.67586,-3.9424 -2.85715,-5.7143 -1.49421,-2.2413 -4.22006,-3.4729 -5.71428,-5.7143 -1.18128,-1.7719 -1.90476,-3.8095 -2.85714,-5.7142 -0.95239,-1.9048 -2.18371,-3.694 -2.85715,-5.7143 -0.30117,-0.9035 0.67344,-2.1837 0,-2.8572 -1.50584,-1.5058 -4.20844,-1.3513 -5.71428,-2.8571 -0.67344,-0.6735 0,-1.9048 0,-2.8572 -1.90476,-1.9047 -3.5593,-4.098 -5.71429,-5.7142 -3.40734,-2.5556 -7.77636,-3.523 -11.42857,-5.7143 -23.30634,-13.9838 3.65745,2.0288 -14.28571,-11.4286 -3.40735,-2.5555 -7.88473,-3.3517 -11.42858,-5.7143 -1.12066,-0.7471 -1.73647,-2.11 -2.85714,-2.8571 -1.77192,-1.1813 -4.01061,-1.5794 -5.71428,-2.8572 -7.44194,-5.5814 -3.12958,-5.8051 -11.42858,-8.5714 -16.25535,-5.4185 -6.24223,-0.2112 -20,-5.7143 -3.95454,-1.5818 -7.38796,-4.3674 -11.42857,-5.7143 -3.72526,-1.2417 -7.70331,-1.6154 -11.42857,-2.8571 -2.0203,-0.6735 -3.64828,-2.3407 -5.71428,-2.8572 -1.84789,-0.4619 -3.90727,0.6024 -5.71429,0 -2.55551,-0.8518 -3.30493,-4.5096 -5.71429,-5.7142 -0.85183,-0.426 -2.0053,0.4259 -2.85714,0 -1.20468,-0.6024 -1.65246,-2.2549 -2.85714,-2.8572 -7.03701,-3.5185 2.57924,8.2935 -8.57143,-2.8571 -0.67344,-0.6735 0.85184,-2.4313 0,-2.8572 -1.70367,-0.8518 -4.01061,0.8519 -5.71429,0 -0.85183,-0.4259 0.85184,-2.4312 0,-2.8571 -1.70367,-0.8519 -4.01061,0.8518 -5.71428,0 -0.85184,-0.4259 0,-1.9048 0,-2.8572 -1.90476,-0.9523 -3.69398,-2.1837 -5.71429,-2.8571 -1.8897,-0.6299 -14.3361,0 -17.14285,0 -4.7311,0 -16.12979,-0.645 -20,0 -2.97072,0.4951 -5.71429,1.9048 -8.57143,2.8571 -2.85715,0.9524 -5.87769,1.5103 -8.57143,2.8572 -3.07134,1.5357 -5.26969,4.7709 -8.57143,5.7143 -3.66295,1.0465 -7.67088,-0.6263 -11.42857,0 -0.86601,0.1443 -15.98865,7.8019 -17.14286,8.5714 -1.12066,0.7471 -1.65246,2.2548 -2.85714,2.8571 -1.70367,0.8519 -4.36742,-1.3468 -5.71429,0 -5.91153,5.9116 9.0336,-0.231 -2.85714,5.7143 -0.85184,0.4259 -2.00531,-0.4259 -2.85714,0 -2.40936,1.2047 -3.47296,4.2201 -5.71429,5.7143 -1.77192,1.1813 -4.43653,1.1535 -5.71428,2.8572 -1.80702,2.4093 -0.97576,6.2196 -2.85715,8.5714 2.45986,17.1014 -8.41688,2.7026 -11.42857,5.7143 -2.4281,2.4281 -3.80952,5.7143 -5.71428,8.5714 -1.90477,2.8571 -3.65397,5.8243 -5.71429,8.5714 -0.80812,1.0775 -2.11003,1.7365 -2.85714,2.8572 -1.18129,1.7719 -2.18371,3.6939 -2.85715,5.7143 -0.30117,0.9035 0.52829,2.0647 0,2.8571 -1.49421,2.2413 -4.22006,3.473 -5.71428,5.7143 -0.52829,0.7924 0.30117,1.9536 0,2.8571 -0.67344,2.0203 -1.67586,3.9424 -2.85714,5.7143 -4.35868,6.538 -2.26163,-1.7865 -5.71429,8.5714 -0.30117,0.9035 0.30117,1.9537 0,2.8572 -0.67344,2.0203 -2.18371,3.694 -2.85714,5.7143 -0.30117,0.9035 0.30117,1.9536 0,2.8571 -0.67344,2.0203 -2.34064,3.6483 -2.85715,5.7143 -2.88774,11.551 4.08044,-0.1341 -2.85714,11.4286 -1.7667,2.9445 -3.94758,5.6269 -5.71428,8.5714 -2.19133,3.6522 -3.80953,7.619 -5.71429,11.4286 -0.95238,1.9047 -1.57939,4.0106 -2.85714,5.7143 -1.61625,2.1549 -4.32837,3.4044 -5.71429,5.7142 -1.5495,2.5825 -1.05013,6.1621 -2.85714,8.5715 -1.27775,1.7036 -4.43653,1.1534 -5.71429,2.8571 -4.15445,5.5393 -1.55983,8.7465 -5.71428,14.2857 -1.61625,2.155 -4.09804,3.5593 -5.71429,5.7143 -1.27775,1.7037 -1.57939,4.0106 -2.85714,5.7143 -1.61625,2.155 -4.09804,3.5593 -5.71429,5.7143 -1.27775,1.7037 -1.57939,4.0106 -2.85714,5.7143 -4.8,6.4 -12.34286,10.7428 -17.14286,17.1428 -4.5382,6.051 -3.99848,12.6848 -11.42857,17.1429 -11.61892,6.9713 -6.30516,-2.2663 -17.14286,8.5714 -2.4281,2.4281 -3.03289,6.4263 -5.71428,8.5714 -17.22917,13.7834 -1.22696,-3.6722 -14.28572,2.8572 -0.85183,0.4259 0.67344,2.1837 0,2.8571 -0.67343,0.6735 -1.90476,0 -2.85714,0 -0.95238,0 -1.90476,0 -2.85714,0"
       id="path3829-6"
       inkscape:connector-curvature="0" />
    <path
       style="fill:none;stroke:#000000;stroke-width:1px;stroke-linecap:butt;stroke-linejoin:miter;stroke-opacity:1"
       d="m 1265.7143,-500 -80,1054.28571"
       id="path3773"
       inkscape:connector-curvature="0"
       transform="translate(0,252.36218)" />
    <path
       style="fill:none;stroke:#000000;stroke-width:1px;stroke-linecap:butt;stroke-linejoin:miter;stroke-opacity:1"
       d="m 1220,25.714286 c -4.7619,0 -9.5717,0.673435 -14.2857,0 -9.6579,-1.379699 -2.4762,-2.666667 -8.5714,-5.714286 -1.7037,-0.851835 -4.0107,0.851835 -5.7143,0 -1.2047,-0.602339 -1.5794,-2.431225 -2.8572,-2.857143 -1.807,-0.602338 -3.8095,0 -5.7143,0 -1.9047,0 -3.8095,0 -5.7142,0 -5.7143,0 -11.4286,0 -17.1429,0 -1.9048,0 -3.8095,0 -5.7143,0 -0.9524,0 -2.1837,0.673435 -2.8571,0 -0.6735,-0.673435 0.8518,-2.431225 0,-2.857143 -3.4074,-1.703671 -8.0213,1.703671 -11.4286,0 -0.8518,-0.425917 0,-1.904762 0,-2.857143"
       id="path3775"
       inkscape:connector-curvature="0"
       transform="translate(0,252.36218)" />
    <path
       style="fill:none;stroke:#000000;stroke-width:1px;stroke-linecap:butt;stroke-linejoin:miter;stroke-opacity:1"
       d="m 948.57143,-500 c -1.90476,4.7619 -3.80953,9.52381 -5.71429,14.28571 0,1.90477 0.46198,3.8664 0,5.71429 -0.5165,2.066 -2.34064,3.64828 -2.85714,5.71429 -0.69296,2.77183 0.90351,5.8609 0,8.57142 -0.67344,2.02031 -2.18371,3.69398 -2.85714,5.71429 -0.61999,1.85997 0,17.60799 0,20 0,13.33333 0,26.66667 0,40"
       id="path3777"
       inkscape:connector-curvature="0"
       transform="translate(0,252.36218)" />
    <path
       style="fill:none;stroke:#000000;stroke-width:1px;stroke-linecap:butt;stroke-linejoin:miter;stroke-opacity:1"
       d="m 365.71429,-685.71429 -257.14286,477.14286 c -6.66667,3.80952 -13.333334,7.61905 -20.000001,11.42857 -3.809524,1.90476 -7.705381,3.64585 -11.428572,5.71429 -4.854447,2.69691 -9.198029,6.34556 -14.285714,8.57143 -10.212711,4.46806 -20.990998,7.51448 -31.428572,11.42857 -24.8410593,9.3154 -49.323723,19.58511 -74.285714,28.57143 -11.334656,4.08047 -22.901682,7.48794 -34.285714,11.42857 -13.379265,4.63128 -26.615253,9.67028 -40.000003,14.28571 -28.47173,9.81784 -57.47217,18.111389 -85.71428,28.571431 -93.03695,34.458128 18.86265,-5.077899 -62.85715,28.571429 -12.82239,5.27981 -27.37606,5.690417 -40,11.428571 -4.33507,1.970491 -7.61904,5.714286 -11.42857,8.571429 -3.80952,2.857143 -7.66975,5.647902 -11.42857,8.571429 -4.81364,3.743941 -8.71309,8.951852 -14.28571,11.428571 -3.48119,1.547194 -7.76563,-1.046557 -11.42857,0 -3.30174,0.943353 -5.59001,4.010615 -8.57143,5.714286 -3.698,2.113143 -7.61905,3.809524 -11.42857,5.7142854 -3.80953,1.9047619 -7.38797,4.3674157 -11.42858,5.7142857 -1.80701,0.6023386 -4.01061,-0.8518354 -5.71428,0 -0.85184,0.4259178 0,1.90476195 0,2.8571429"
       id="path3779"
       inkscape:connector-curvature="0"
       transform="translate(0,252.36218)" />
    <path
       style="fill:none;stroke:#000000;stroke-width:1px;stroke-linecap:butt;stroke-linejoin:miter;stroke-opacity:1"
       d="m -394.28571,105.71429 c 0,38.03405 -3.40735,-3.95754 5.71428,14.28571 1.27775,2.55551 -0.56033,5.76977 0,8.57143 1.25742,6.28711 4.89861,6.53148 8.57143,11.42857 6.14426,2.30116 0.67896,8.1613 2.85714,11.42857 1.18129,1.77193 4.01062,1.57939 5.71429,2.85714 2.15499,1.61625 3.80952,3.80953 5.71428,5.71429 14.4787,14.4787 -2.5555,-4.25918 8.57143,14.28571 1.38592,2.30987 4.09804,3.5593 5.71429,5.71429 6.29475,1.43884 1.51027,5.87769 2.85714,8.57143 3.53058,7.06115 2.85714,-0.98622 2.85714,5.71428"
       id="path3781"
       inkscape:connector-curvature="0"
       transform="translate(0,252.36218)" />
    <path
       style="fill:none;stroke:#000000;stroke-width:50;stroke-linecap:butt;stroke-linejoin:miter;stroke-miterlimit:4;stroke-opacity:1;stroke-dasharray:none"
       d="m -400,98.07646 c -176.29343,289.38259 20.56239,736.32434 -111.42857,957.14274"
       id="path3783"
       inkscape:connector-curvature="0"
       sodipodi:nodetypes="cc" />
    <path
       style="fill:none;stroke:#000000;stroke-width:50;stroke-linecap:butt;stroke-linejoin:miter;stroke-miterlimit:4;stroke-opacity:1;stroke-dasharray:none"
       d="m 1475.7143,976.64791 c -150.6909,314.40969 -4.1997,745.06309 -111.4286,957.14279"
       id="path3783-5"
       inkscape:connector-curvature="0"
       sodipodi:nodetypes="cc" />
    <path
       style="fill:none;stroke:#ae0000;stroke-width:50;stroke-linecap:butt;stroke-linejoin:miter;stroke-miterlimit:4;stroke-opacity:1;stroke-dasharray:none"
       d="m -1267.1429,616.64796 c -150.6909,314.40972 -4.1997,745.06314 -111.4285,957.14274"
       id="path3783-5-0"
       inkscape:connector-curvature="0"
       sodipodi:nodetypes="cc" />
    <path
       style="fill:none;stroke:#000000;stroke-width:50;stroke-linecap:butt;stroke-linejoin:miter;stroke-miterlimit:4;stroke-opacity:1;stroke-dasharray:none"
       d="M -792.85715,79.505054 C -969.15058,368.88764 -772.29476,815.82937 -904.28572,1036.6479"
       id="path3783-3"
       inkscape:connector-curvature="0"
       sodipodi:nodetypes="cc" />
  </g>
</svg>
