<?xml version="1.0" encoding="UTF-8" standalone="no"?>
<!-- Created with Inkscape (http://www.inkscape.org/) -->

<svg
   xmlns:osb="http://www.openswatchbook.org/uri/2009/osb"
   xmlns:dc="http://purl.org/dc/elements/1.1/"
   xmlns:cc="http://creativecommons.org/ns#"
   xmlns:rdf="http://www.w3.org/1999/02/22-rdf-syntax-ns#"
   xmlns:svg="http://www.w3.org/2000/svg"
   xmlns="http://www.w3.org/2000/svg"
   xmlns:sodipodi="http://sodipodi.sourceforge.net/DTD/sodipodi-0.dtd"
   xmlns:inkscape="http://www.inkscape.org/namespaces/inkscape"
   width="800"
   height="800"
   id="svg2"
   version="1.1"
   inkscape:version="0.48.4 r9939"
   sodipodi:docname="curvemorphedFace.svg">
  <defs
     id="defs4">
    <linearGradient
       id="linearGradient3823"
       osb:paint="solid">
      <stop
         style="stop-color:#0000b5;stop-opacity:1;"
         offset="0"
         id="stop3825" />
    </linearGradient>
    <filter
       inkscape:collect="always"
       id="filter3809"
       color-interpolation-filters="sRGB">
      <feGaussianBlur
         inkscape:collect="always"
         stdDeviation="3.9593924"
         id="feGaussianBlur3811" />
    </filter>
  </defs>
  <sodipodi:namedview
     id="base"
     pagecolor="#ffffff"
     bordercolor="#666666"
     borderopacity="1.0"
     inkscape:pageopacity="0.0"
     inkscape:pageshadow="2"
     inkscape:zoom="0.175"
     inkscape:cx="350"
     inkscape:cy="177.14286"
     inkscape:document-units="px"
     inkscape:current-layer="layer1"
     showgrid="false"
     inkscape:window-width="1855"
     inkscape:window-height="1056"
     inkscape:window-x="65"
     inkscape:window-y="24"
     inkscape:window-maximized="1" />
  <metadata
     id="metadata7">
    <rdf:RDF>
      <cc:Work
         rdf:about="">
        <dc:format>image/svg+xml</dc:format>
        <dc:type
           rdf:resource="http://purl.org/dc/dcmitype/StillImage" />
        <dc:title></dc:title>
      </cc:Work>
    </rdf:RDF>
  </metadata>
  <g
     inkscape:label="Ebene 1"
     inkscape:groupmode="layer"
     id="layer1"
     transform="translate(0,-252.36218)">
    <rect
       style="fill:#ffeeff;fill-opacity:1;stroke:#c42117;stroke-width:26.24207497000000089;stroke-miterlimit:4;stroke-opacity:1;stroke-dasharray:none;stroke-dashoffset:1.19999999999999996"
       id="rect3034"
       width="1005.1865"
       height="890.90076"
       x="-71.16468"
       y="209.76886"
       rx="8.3462362"
       ry="10.302728" />
    <path
       style="fill:none;stroke:#443aff;stroke-width:62.77516937;stroke-linecap:butt;stroke-linejoin:miter;stroke-miterlimit:4;stroke-opacity:1;stroke-dasharray:none"
       d="m 2433.3906,799.22144 c 7.7141,-15.52242 14.9232,-31.70342 18.6917,-51.0942 0.4926,-2.53448 1.9882,-3.32284 2.3365,-6.01107 0.2463,-1.90088 -0.432,-4.34392 0,-6.01109 0.483,-1.86395 1.7208,-1.42148 2.3365,-3.00554 0.4392,-1.12988 2.329,-15.01806 2.3365,-15.0277 0.6966,-0.89609 1.6398,0.89607 2.3364,0 0.6966,-0.89609 -0.3483,-4.21894 0,-6.01109 1.1088,-5.70522 3.5615,-7.73291 4.673,-12.02217 2.3364,-9.01663 -1.1683,-3.00554 0,-9.01663 0.9657,-4.96903 2.4077,-3.37197 3.5047,-9.01663 0.8147,-4.19182 0.3536,-10.83588 1.1682,-15.0277 0.4926,-2.5345 1.8439,-3.47659 2.3365,-6.01109 2.2112,-11.37746 0.7715,-17.01251 4.6729,-27.04987 0.6482,-1.66745 0.6627,-15.43188 1.1683,-18.03325 0.3894,-2.0037 1.947,-1.00185 2.3364,-3.00554 0.7756,-3.99071 0.3927,-11.03701 1.1683,-15.02772 0.1741,-0.89607 0.7788,0 1.1682,0 0.3894,-2.00369 0.9571,-3.83777 1.1682,-6.01108 1.9315,-19.87618 6.7666,-37.19761 9.3459,-57.1053 0.7995,-6.17085 2.8909,-8.7113 3.5047,-15.02771 0.1889,-1.94386 -0.3483,-4.21892 0,-6.01109 3.8036,-19.57118 1.1708,5.99131 3.5047,-12.02216 1.735,-13.39068 4.9325,-25.71321 7.0095,-39.07205 0.6467,-4.15994 1.7857,-7.77169 2.3364,-12.02216 0.2463,-1.90087 -0.5507,-4.59425 0,-6.01108 0.5507,-1.41683 1.6399,0.89607 2.3365,0 1.0164,-1.30745 0.4787,-16.25921 1.1682,-18.03325 0.5507,-1.41683 1.6399,0.89607 2.3365,0 1.6592,-2.13432 4.0814,-19.47889 4.673,-24.04433 1.2593,-9.71985 10.5202,-33.10822 11.6823,-42.0776 0.2463,-1.90087 -0.3483,-4.21892 0,-6.01109 0.1742,-0.89608 0.8199,0.44804 1.1682,0 2.4547,-3.15751 -0.023,-5.95268 1.1683,-9.01662 0.7177,-1.84651 2.7223,-1.9856 3.5047,-6.01108 3.6822,-18.9466 8.2793,-30.317 14.0188,-45.08313 1.032,-2.65506 6.1098,-22.88712 7.0094,-24.04433 0.6966,-0.89609 1.6399,0.89608 2.3365,0 0.3943,-0.50727 4.3579,-13.75571 5.8412,-15.02771 6.0035,-5.14849 3.5885,-6.11893 8.1776,-12.02218 5.6165,-7.22485 11.443,-6.01108 18.6918,-6.01108 5.5688,0 11.1044,-0.37169 16.3553,3.00554 3.3229,2.13725 7.4759,11.11954 10.5141,15.02772 0.6966,0.89607 1.7858,-1.41683 2.3365,0 4.2066,10.82258 11.9562,14.49563 17.5235,24.04433 1.1806,2.02494 7.5601,13.43893 8.1776,15.02771 0.2754,0.70842 -0.324,2.44981 0,3.00555 3.4969,5.99764 7.368,6.93348 10.5142,15.0277 0.3752,0.96532 2.0725,8.67713 2.3364,9.01663 0.6966,0.89607 1.6399,-0.89608 2.3365,0 0.6966,0.89607 -0.5507,4.59425 0,6.01107 0.3894,1.00185 1.9471,5.00925 2.3365,6.01109 0.8707,2.2402 2.6339,0.76534 3.5047,3.00554 2.2522,5.79433 10.5898,27.11483 14.0188,30.05542 0.7389,0.63363 1.6885,-1.11145 2.3365,0 0.7245,1.24264 0.5525,4.42703 1.1682,6.01109 0.6047,1.55565 4.0683,1.44989 4.673,3.00554 3.5287,9.07856 -0.9464,-1.07477 5.8411,12.02216 0.6231,1.20222 -0.3483,4.21894 0,6.01109 2.431,12.50835 -0.081,-3.21303 2.3365,3.00554 1.4242,3.66415 0.4064,11.71738 2.3365,15.02771 3.8132,6.54025 7.6513,16.67923 10.5141,24.04434 0.5507,1.41683 -0.5507,4.59425 0,6.01108 1.1557,2.97339 4.2521,6.8511 4.673,9.01663 0.3483,1.79215 -0.4321,4.34391 0,6.01109 0.483,1.86395 1.8534,1.14157 2.3364,3.00553 0.432,1.66718 -0.3483,4.21892 0,6.01109 0.9346,4.80886 3.7384,7.2133 4.673,12.02217 1.4386,7.4025 -3.3911,-2.71321 1.1682,9.01662 0.7659,1.97038 2.9194,4.50531 3.5047,6.01108 0.3894,1.00184 0.7788,8.01479 1.1682,9.01663 0.2754,0.70841 0.9941,-0.89608 1.1683,0 0.3483,1.79216 -0.3483,4.21892 0,6.01109 0.4517,2.32452 3.7715,4.37834 4.6729,9.01661 0.3483,1.79216 -0.5507,4.59426 0,6.01109 5.0337,12.95036 9.9079,25.49008 14.0188,36.06651 0.8708,2.24019 0.4852,6.38058 1.1683,9.01662 0.3027,1.16806 7.758,19.9591 8.1776,21.0388 1.178,3.03046 0.9223,11.38927 2.3365,15.02771 1.0733,2.76141 3.9584,9.51251 4.6729,15.0277 0.2463,1.90088 -0.3483,4.21893 0,6.01109 0.3483,1.79216 1.7858,-1.41683 2.3365,0 0.3083,0.79306 1.1524,12.00181 1.1682,12.02217 0.6967,0.89607 1.7858,-1.41683 2.3365,0 0.5507,1.41682 -0.3483,4.21891 0,6.01107 0.6279,3.23087 2.7259,3.00555 3.5047,6.01109 2.2041,8.50582 2.458,15.34028 4.673,21.03879 0.5507,1.41683 -0.3483,4.21893 0,6.01109 2.4309,12.50835 -0.081,-3.21302 2.3364,3.00554 2.8274,7.27398 4.2544,34.98969 8.1777,45.08313 6.0689,15.61368 4.5205,44.29864 8.1776,63.11638 0.9844,5.06504 0.1398,12.74141 1.1683,18.03321 2.4309,12.5084 -0.081,-3.21302 2.3364,3.00553 0.2754,0.70847 -0.3894,3.00563 0,3.00563 1.2336,0 22.435,78.286 22.8882,75.9542"
       id="path3907"
       inkscape:connector-curvature="0"
       sodipodi:nodetypes="csssscssssssssssscssssssssssssscsssssssssssssscscssssssssssssssssssssssssssssssssscsssssssssssc" />
    <path
       style="fill:none;stroke:#ff0000;stroke-width:60;stroke-linecap:butt;stroke-linejoin:miter;stroke-opacity:1;stroke-miterlimit:4;stroke-dasharray:none"
       d="M 74.285714,291.42857 C 330.12201,340.12709 564.2354,329.86343 714.28571,91.428571"
       id="path3046"
       inkscape:connector-curvature="0"
       transform="translate(0,252.36218)"
       sodipodi:nodetypes="cc" />
    <path
       style="fill:none;stroke:#0000ff;stroke-width:60;stroke-linecap:butt;stroke-linejoin:miter;stroke-opacity:1;stroke-miterlimit:4;stroke-dasharray:none"
       d="M 102.85714,634.28571 C 367.85296,857.84344 471.5437,348.52434 828.57143,428.57143"
       id="path3048"
       inkscape:connector-curvature="0"
       transform="translate(0,252.36218)"
       sodipodi:nodetypes="cc" />
    <path
       style="fill:#ffaaaa;stroke:#000000;stroke-width:1px;stroke-linecap:butt;stroke-linejoin:miter;stroke-opacity:1"
       d="M 79.999999,555.21932 C 349.58448,640.29061 568.50469,580.60686 731.42858,360.93361 680.51798,479.33702 756.33126,569.57958 840,658.07647 700.62744,601.31683 598.9323,674.33087 500.23328,755.21458 384.28641,850.23288 272.47432,956.11167 108.57143,875.21932 71.345029,782.40395 86.497679,663.39905 79.999999,555.21932 z"
       id="path3818"
       inkscape:connector-curvature="0"
       sodipodi:nodetypes="cccscc" />
  </g>
</svg>
