<?xml version="1.0" encoding="UTF-8" standalone="no"?>
<svg
   xmlns:dc="http://purl.org/dc/elements/1.1/"
   xmlns:cc="http://creativecommons.org/ns#"
   xmlns:rdf="http://www.w3.org/1999/02/22-rdf-syntax-ns#"
   xmlns:svg="http://www.w3.org/2000/svg"
   xmlns="http://www.w3.org/2000/svg"
   xmlns:xlink="http://www.w3.org/1999/xlink"
   width="64px"
   height="64px"
   id="svg3074"
   version="1.1">
  <defs
     id="defs3076">
    <linearGradient
       id="linearGradient3841">
      <stop
         style="stop-color:#0619c0;stop-opacity:1;"
         offset="0"
         id="stop3843" />
      <stop
         style="stop-color:#379cfb;stop-opacity:1;"
         offset="1"
         id="stop3845" />
    </linearGradient>
    <linearGradient
       xlink:href="#linearGradient3841"
       id="linearGradient3863"
       gradientUnits="userSpaceOnUse"
       x1="3709.3296"
       y1="1286.7291"
       x2="3935.5251"
       y2="1076.6174" />
    <linearGradient
       xlink:href="#linearGradient3895"
       id="linearGradient3909"
       x1="43"
       y1="22"
       x2="48"
       y2="44"
       gradientUnits="userSpaceOnUse" />
    <linearGradient
       id="linearGradient3895">
      <stop
         style="stop-color:#729fcf;stop-opacity:1;"
         offset="0"
         id="stop3897" />
      <stop
         style="stop-color:#204a87;stop-opacity:1;"
         offset="1"
         id="stop3899" />
    </linearGradient>
    <pattern
       id="EMFhbasepattern"
       patternUnits="userSpaceOnUse"
       width="6"
       height="6"
       x="0"
       y="0" />
    <pattern
       id="EMFhbasepattern-6"
       patternUnits="userSpaceOnUse"
       width="6"
       height="6"
       x="0"
       y="0" />
    <pattern
       id="EMFhbasepattern-8"
       patternUnits="userSpaceOnUse"
       width="6"
       height="6"
       x="0"
       y="0" />
  </defs>
  <g
     id="layer1">
    <text
       xml:space="preserve"
       style="font-style:normal;font-variant:normal;font-weight:400;font-size:11.9995px;line-height:125%;font-family:'Times New Roman';text-align:start;letter-spacing:0px;word-spacing:0px;text-anchor:start;fill:#000000;fill-opacity:1;stroke:none;stroke-width:0.74997"
       x="3.5819409"
       y="11.275788"
       id="text1488"
       transform="scale(0.76395958,1.3089698)"><tspan
         x="3.5819409"
         y="11.275788"
         id="tspan1486"
         style="stroke-width:0.74997"><tspan
           dx="0"
           dy="0"
           style="font-style:normal;font-variant:normal;font-weight:400;font-size:11.9995px;font-family:'Times New Roman';fill:#000000;stroke-width:0.74997"
           id="tspan1484"> </tspan></tspan></text>
    <path
       style="fill:#ffff2f;fill-opacity:0.44129553;fill-rule:evenodd;stroke:none;stroke-width:0.74997"
       d="M 30.5,1.1345538 C 15.31198,1.1345538 3,5.5519182 3,11 v 43.103658 c 0,5.448082 12.31198,9.855629 27.5,9.855629 15.188021,0 27.5,-4.407547 27.5,-9.855629 V 11 C 58,5.5519182 45.688021,1.1345538 30.5,1.1345538 Z"
       id="path1490" />
    <path
       style="fill:none;stroke:#000000;stroke-width:0.74993px;stroke-linecap:round;stroke-linejoin:round;stroke-miterlimit:4;stroke-dasharray:none;stroke-opacity:1"
       d="M 30.5,1.1345538 C 15.31198,1.1345538 3,5.5519182 3,11 v 43.103658 c 0,5.448082 12.31198,9.855629 27.5,9.855629 15.188021,0 27.5,-4.407547 27.5,-9.855629 V 11 C 58,5.5519182 45.688021,1.1345538 30.5,1.1345538 Z"
       id="path1492" />
    <path
       style="fill:none;stroke:#000000;stroke-width:0.74993px;stroke-linecap:round;stroke-linejoin:round;stroke-miterlimit:4;stroke-dasharray:none;stroke-opacity:1"
       d="m 3,11 c 0,5.448083 12.31198,9.865446 27.5,9.865446 C 45.688021,20.865446 58,16.448083 58,11"
       id="path1494" />
    <path
       style="fill:#ed152a;stroke-width:0.143981;fill-opacity:1"
       d="m 33.981444,22.00674 c 3.513642,0.422789 7.008168,2.319819 9.856511,5.350685 2.128946,2.265366 3.590062,4.67684 4.578199,7.556023 0.749627,2.184221 0.999262,3.697566 1.004945,6.092228 0.0079,3.335812 -0.677447,6.213335 -2.250264,9.447833 -2.890413,5.944132 -8.178848,10.571534 -13.933044,12.191462 -1.212401,0.341318 -1.359969,0.355781 -1.50888,0.147905 -0.147651,-0.206119 -0.268042,-0.208256 -1.141955,-0.02026 -2.351034,0.505753 -4.85259,0.443462 -7.124064,-0.177399 -3.561391,-0.973434 -6.974341,-3.550814 -9.181384,-6.933565 -2.297185,-3.520912 -3.398141,-7.107624 -3.438725,-11.202732 -0.03385,-3.416696 0.536917,-5.906451 2.116873,-9.23384 3.098829,-6.526135 9.392923,-11.652333 15.919658,-12.965699 1.445475,-0.290871 3.810971,-0.408 5.10213,-0.252639 z m -5.270366,1.842294 c -1.55609,0.317422 -3.080583,0.904972 -4.906675,1.891067 -5.901193,3.186662 -9.819819,8.336611 -11.060457,14.535902 -0.344999,1.723913 -0.323097,5.449543 0.042,7.137737 1.340841,6.200687 5.258865,11.11191 10.382228,13.014075 4.779577,1.774528 10.332858,0.695503 15.121766,-2.938214 1.12347,-0.852465 2.921612,-2.802904 3.723721,-4.039112 0.678543,-1.045769 1.081207,-1.345468 1.558081,-1.159669 0.376668,0.146755 0.234793,0.597019 -0.610565,1.937708 -1.015001,1.609733 -2.286223,3.076435 -3.64825,4.209255 -0.567228,0.47177 -0.969668,0.857393 -0.894316,0.856938 0.313076,-0.0019 2.731365,-2.12994 4.049941,-3.563867 4.345264,-4.725401 6.475897,-10.993524 5.57123,-16.390028 C 47.400657,35.528338 45.626922,31.9464 42.958958,29.080449 40.405492,26.337493 37.428679,24.558101 34.27542,23.889852 32.781608,23.573281 30.157306,23.554029 28.711112,23.84903 Z m 4.458966,4.949523 c 2.507805,0.560096 3.963988,1.571012 6.191751,4.298451 0.897242,1.098493 1.049318,1.456044 0.796808,1.873425 -0.08413,0.139069 0.02505,0.40119 0.34582,0.83021 0.764662,1.022714 1.002406,1.837022 1.005493,3.44395 0.0028,1.470333 -0.133129,1.882892 -0.621451,1.885845 -0.213864,0.0013 -0.258033,-0.180005 -0.316072,-1.297355 -0.05682,-1.094149 -0.140649,-1.45023 -0.531809,-2.25931 -0.825262,-1.706989 -2.521541,-2.801594 -4.997786,-3.225054 -1.622855,-0.277522 -2.429753,-0.196806 -3.978814,0.398024 -2.818363,1.082228 -4.42752,2.593085 -6.210668,5.831269 -0.905269,1.643965 -0.905232,1.686421 0.0015,1.748266 0.815191,0.0556 1.028384,0.139452 1.026595,0.403759 -0.0028,0.412331 -0.293295,0.571199 -1.283599,0.701994 -0.775813,0.102459 -1.34976,0.298113 -2.218559,0.756269 -0.81869,0.431733 -1.217105,0.571983 -1.32162,0.465238 -0.252756,-0.258151 -0.0085,-0.700033 0.668009,-1.20826 0.590855,-0.44391 0.637904,-0.52436 0.550348,-0.941075 -0.588157,-2.799333 -0.46978,-4.736048 0.441352,-7.220689 1.665298,-4.541246 6.294991,-7.413547 10.452721,-6.484959 z m -4.853602,1.993111 c -2.960521,1.511395 -4.869749,4.737849 -4.859423,8.212061 0.0015,0.503122 0.05051,0.912253 0.108919,0.909177 0.05841,-0.0031 0.452124,-0.548837 0.874918,-1.212805 1.203263,-1.889633 2.910781,-3.583769 4.440238,-4.405437 2.918145,-1.567708 4.81338,-1.749745 8.564643,-0.822621 0.591159,0.146106 -1.675466,-1.978861 -2.710041,-2.540674 -1.416034,-0.768953 -1.884505,-0.875845 -3.612045,-0.824159 -1.515303,0.04533 -1.591868,0.064 -2.807209,0.684458 z M 38,48 c 0.469117,0.529402 0.567162,1.119016 0.329614,1.982212 -0.396919,1.442316 -1.312394,1.896089 -2.183545,1.082321 -1.285713,-1.20102 -0.561557,-3.315575 1.138981,-3.325854 C 37.56964,47.736905 37.861413,47.843599 38,48 Z m -7.83157,0.519052 c 0.08589,0.163525 0.11995,0.417631 0.0757,0.564682 -0.126556,0.420563 -3.17214,3.456911 -4.07135,4.059003 -0.993962,0.665537 -1.550259,0.753547 -1.621422,0.256515 -0.103165,-0.720529 0.104864,-1.044149 1.10067,-1.712257 0.54,-0.3623 1.677014,-1.289805 2.526695,-2.06112 0.849681,-0.771316 1.609829,-1.402786 1.689215,-1.403267 0.07939,-4.78e-4 0.214609,0.132922 0.300494,0.296444 z"
       id="path1574" />
  </g>
  <metadata
     id="metadata5801">
    <rdf:RDF>
      <cc:Work
         rdf:about="">
        <dc:format>image/svg+xml</dc:format>
        <dc:type
           rdf:resource="http://purl.org/dc/dcmitype/StillImage" />
        <dc:title></dc:title>
        <cc:license
           rdf:resource="" />
        <dc:date>Mon Oct 10 13:44:52 2011 +0000</dc:date>
        <dc:creator>
          <cc:Agent>
            <dc:title>[wmayer]</dc:title>
          </cc:Agent>
        </dc:creator>
        <dc:rights>
          <cc:Agent>
            <dc:title>FreeCAD LGPL2+</dc:title>
          </cc:Agent>
        </dc:rights>
        <dc:publisher>
          <cc:Agent>
            <dc:title>FreeCAD</dc:title>
          </cc:Agent>
        </dc:publisher>
        <dc:identifier>FreeCAD/src/Mod/Draft/Resources/icons/Draft_Upgrade.svg</dc:identifier>
        <dc:relation>http://www.freecadweb.org/wiki/index.php?title=Artwork</dc:relation>
        <dc:contributor>
          <cc:Agent>
            <dc:title>[agryson] Alexander Gryson</dc:title>
          </cc:Agent>
        </dc:contributor>
        <dc:subject>
          <rdf:Bag>
            <rdf:li>arrow</rdf:li>
            <rdf:li>up</rdf:li>
          </rdf:Bag>
        </dc:subject>
        <dc:description>A large blue arrow pointing upwards</dc:description>
      </cc:Work>
    </rdf:RDF>
  </metadata>
</svg>
