<?xml version="1.0" encoding="UTF-8" standalone="no"?>
<!-- Created with Inkscape (http://www.inkscape.org/) -->

<svg
   xmlns:osb="http://www.openswatchbook.org/uri/2009/osb"
   xmlns:dc="http://purl.org/dc/elements/1.1/"
   xmlns:cc="http://creativecommons.org/ns#"
   xmlns:rdf="http://www.w3.org/1999/02/22-rdf-syntax-ns#"
   xmlns:svg="http://www.w3.org/2000/svg"
   xmlns="http://www.w3.org/2000/svg"
   xmlns:xlink="http://www.w3.org/1999/xlink"
   xmlns:sodipodi="http://sodipodi.sourceforge.net/DTD/sodipodi-0.dtd"
   xmlns:inkscape="http://www.inkscape.org/namespaces/inkscape"
   width="210mm"
   height="297mm"
   id="svg2"
   version="1.1"
   inkscape:version="0.48.4 r9939"
   sodipodi:docname="eyepoles_closed.svg">
  <defs
     id="defs4">
    <linearGradient
       id="linearGradient3823"
       osb:paint="solid">
      <stop
         style="stop-color:#0000b5;stop-opacity:1;"
         offset="0"
         id="stop3825" />
    </linearGradient>
    <filter
       inkscape:collect="always"
       id="filter3809">
      <feGaussianBlur
         inkscape:collect="always"
         stdDeviation="3.9593924"
         id="feGaussianBlur3811" />
    </filter>
    <linearGradient
       inkscape:collect="always"
       xlink:href="#linearGradient3823"
       id="linearGradient3827"
       x1="224.31376"
       y1="332.36218"
       x2="429.97194"
       y2="332.36218"
       gradientUnits="userSpaceOnUse" />
  </defs>
  <sodipodi:namedview
     id="base"
     pagecolor="#ffffff"
     bordercolor="#666666"
     borderopacity="1.0"
     inkscape:pageopacity="0.0"
     inkscape:pageshadow="2"
     inkscape:zoom="0.35"
     inkscape:cx="350"
     inkscape:cy="520"
     inkscape:document-units="px"
     inkscape:current-layer="layer1"
     showgrid="false"
     inkscape:window-width="1855"
     inkscape:window-height="1056"
     inkscape:window-x="65"
     inkscape:window-y="24"
     inkscape:window-maximized="1" />
  <metadata
     id="metadata7">
    <rdf:RDF>
      <cc:Work
         rdf:about="">
        <dc:format>image/svg+xml</dc:format>
        <dc:type
           rdf:resource="http://purl.org/dc/dcmitype/StillImage" />
        <dc:title></dc:title>
      </cc:Work>
    </rdf:RDF>
  </metadata>
  <g
     inkscape:label="Ebene 1"
     inkscape:groupmode="layer"
     id="layer1">
    <path
       style="fill:none;stroke:#000024;stroke-width:44.19145966;stroke-linecap:butt;stroke-linejoin:miter;stroke-miterlimit:4;stroke-opacity:1;stroke-dasharray:none"
       d="m -914.00677,-72.401534 c 1.21514,20.082203 5.55028,38.459128 8.12356,57.868089 1.31265,9.9006426 -1.56417,20.8045276 0,30.636042 -0.6214,6.835721 4.23681,11.092094 5.41571,17.020042 1.24708,6.27076 -1.62191,14.30739 0,20.42402 4.62337,17.43595 5.41569,29.19224 5.41569,51.060101 0,36.9126 9.09721,103.07626 -2.70784,132.7562 -4.38643,11.02824 0.56015,31.92759 -2.70785,44.25208 -3.4054,12.84266 6.267,43.3755 2.70785,61.27211 -2.38632,11.99925 -6.4632,24.92079 -8.12356,37.44405 -2.40378,18.13053 0.17365,36.35265 -2.70785,54.46408 -3.82257,24.02655 3.20712,50.69841 0,74.88814 -2.64652,19.96132 -4.30104,38.64714 -8.12357,57.86809 -4.12508,20.74233 0.11683,46.77487 -2.70785,68.08011 -3.92813,29.62798 -2.70785,61.13668 -2.70785,91.90814 0,64.95413 2.70785,126.66776 2.70785,190.62432 0,14.75065 0,29.50135 0,44.25205 0,1.7944 0.87119,16.4725 0,17.02 -1.61464,1.0149 -3.80106,-1.0148 -5.4157,0 -0.80732,0.5075 0.90261,3.404 0,3.404 -4.69852,0 4.27952,-28.4936 5.4157,-30.636"
       id="path3755"
       inkscape:connector-curvature="0" />
    <path
       style="fill:none;stroke:#000024;stroke-width:43.908;stroke-linecap:butt;stroke-linejoin:miter;stroke-miterlimit:4;stroke-opacity:1;stroke-dasharray:none"
       d="m 1504.9762,515.95742 c -5.671,67.42728 -5.4933,135.97297 -5.4933,204.40155 0,18.68186 1.9305,37.50798 0,56.04557 -1.047,10.05344 -4.3777,19.62841 -5.4933,29.67121 -3.4963,31.47433 -2.376,71.4574 2.7466,102.20074 4.6506,27.91075 -1.0733,62.48694 -5.4933,89.01358 -4.9955,29.98023 1.4664,61.96903 -2.7467,92.31043 -0.9519,6.8557 -4.3577,12.9655 -5.4933,19.7808 -2.203,13.2217 -2.7985,26.6236 -5.4933,39.5616 -3.4302,16.4692 2.329,35.9761 0,52.7487 -0.7434,5.354 -4.3798,10.6031 -2.7466,16.484 0.999,3.5973 6.8953,34.5133 5.4933,39.5616 -1.2948,4.6624 -4.1985,8.5248 -5.4933,13.1872 -4.4527,16.0337 -8.3868,51.8678 -5.4933,69.2328 0.4015,2.4096 1.8311,4.3957 2.7466,6.5936 0.9156,3.2968 2.2707,6.4626 2.7467,9.8904 1.0295,7.4148 -1.229,15.7021 0,23.0776 2.6791,16.0785 4.2956,35.249 8.2399,49.452 2.784,10.0246 -3.938,26.811 0,36.2648 3.2774,7.8675 3.2126,18.1614 5.4933,26.3744 0.8686,3.1276 -2.2853,8.0616 0,9.8903 2.409,1.9277 5.831,1.3692 8.24,3.2969 1.096,0.8769 0,14.4838 0,16.4839 0,7.5181 2.6343,23.3474 0,29.6713 -3.2701,7.8503 -8.24,17.0713 -8.24,26.3745 0,7.1781 -2.0804,10.3392 -5.4933,16.484 -0.7182,1.293 -3.6622,4.3957 -2.7466,3.2967 13.7172,-16.4647 9.5313,-27.9244 24.7199,-46.1552"
       id="path3759"
       inkscape:connector-curvature="0" />
    <path
       style="fill:none;stroke:#00c000;stroke-width:100;stroke-linecap:butt;stroke-linejoin:miter;stroke-miterlimit:4;stroke-opacity:1;stroke-dasharray:none"
       d="m -2036.6245,329.16552 c 29.6064,7.46353 63.8068,9.89074 94.2857,2.85714 4.9974,-1.15324 9.2566,-4.70846 14.2857,-5.71428 10.9599,-2.19198 23.2123,-1.01157 34.2857,-2.85715 3.9967,-0.66611 10.289,-5.04816 14.2857,-5.71428 2.8183,-0.46971 5.8609,0.90351 8.5715,0 7.4044,-2.46814 12.2927,-6.6446 20,-8.57143 13.0868,-3.2717 43.4759,5.4049 54.2857,0 9.1051,-4.55256 18.3159,-5.15291 28.5714,-8.57143 11.9536,5.17387 3.3049,-4.50961 5.7143,-5.71428 8.2043,-4.10214 26.5132,1.30264 34.2857,2.85714 21.508,4.3016 60.7898,-6.40341 80,0 6.7166,2.23885 12.8191,4.27811 20,5.71428 18.4825,3.6965 36.222,-0.30694 54.2857,5.71429 14.3843,4.79477 34.5437,-5.61111 48.5715,0 3.1882,1.2753 5.5,4.17862 8.5714,5.71429 5.3034,2.65168 14.3378,-1.8874 20,0 33.2105,11.07017 70.0682,8.57142 105.7143,8.57142 32.8167,0 63.9048,-2.85714 97.1428,-2.85714 7.5849,0 23.9969,-2.47724 31.4286,0 3.2576,1.08588 5.3832,4.43898 8.5714,5.71429 10.3715,4.14859 22.3499,-2.85715 31.4286,-2.85715 0.8001,0 51.2981,-0.13051 51.4286,0 1.5407,1.54075 4.7399,11.42858 -2.8572,11.42858"
       id="path3769"
       inkscape:connector-curvature="0" />
    <path
       style="fill:none;stroke:#0000cf;stroke-width:55.84735489;stroke-linecap:butt;stroke-linejoin:miter;stroke-miterlimit:4;stroke-opacity:1;stroke-dasharray:none"
       d="m -735.34012,734.80563 c -54.62949,-5.31762 -100.88963,22.59449 -154.45662,4.86794 -2.98316,-0.9872 -8.9477,-0.89224 -12.25846,-1.62265 -6.43332,-1.41929 -9.18239,-4.66131 -14.71016,-6.49058 -1.4619,-0.48377 -4.17243,0.96756 -4.90339,0 -0.73095,-0.96756 0.73096,-2.27773 0,-3.24529 -0.18583,-0.24598 -27.9889,-20.62068 -29.4203,-21.09437 -9.00757,-2.98081 -22.01259,-9.72714 -31.87201,-11.3585 -1.58566,-0.26237 -3.54343,0.60006 -4.90337,0 -1.52048,-0.67088 -1.15954,-2.39008 -2.45171,-3.24528 -0.80356,-0.53184 -22.70646,-5.08013 -26.96856,-6.49059 -3.74,-1.23762 -6.1503,-3.65791 -9.8068,-4.86792 -2.5721,-0.85116 -10.3948,-0.38917 -12.2585,-1.62265 -8.5259,-5.64284 -25.9886,-8.43789 -39.2271,-11.3585 -3.9931,-0.88095 -7.6133,-3.33074 -12.2584,-4.86794 -2.5722,-0.85119 -10.3016,1.29513 -12.2585,0 -4.6414,-3.07188 -11.8039,-1.9531 -19.6135,-3.24528 -3.5457,-0.58666 -6.3396,-2.48037 -9.8068,-3.24529 -15.4161,-3.40103 -27.8775,-3.54605 -41.6788,-8.11321 -3.2689,-1.08177 -8.9895,1.08175 -12.2584,0 -0.731,-0.2419 0.5778,-1.24019 0,-1.62265 -1.1334,-0.75009 -5.8748,0.48986 -7.3551,0 -3.5397,-1.17138 -6.267,-2.07391 -9.8068,-3.24529 -2.6151,-0.86541 -7.1916,0.86542 -9.8067,0 -9.6289,-3.1864 -17.5319,-1.74508 -26.9687,-4.86793 -3.2689,-1.08176 -8.9895,1.08176 -12.2584,0 -4.8867,-1.61711 -9.8235,-1.62818 -14.7102,-3.24528 -2.5721,-0.8512 -10.3016,1.29513 -12.2584,0 -0.5779,-0.38246 0.5778,-1.24019 0,-1.62265 -2.4517,-1.62265 -12.2585,1.62265 -14.7102,0 -0.5779,-0.38246 0.5779,-1.24018 0,-1.62265 -2.0104,-1.33056 -16.197,-0.49204 -19.6135,-1.62264 -1.126,-0.3726 -24.1162,2.98004 -24.517,3.24529 -0.5778,0.38246 0.5779,1.24019 0,1.62265 -0.9379,0.62078 -11.3985,0 -12.2584,0 -1.6345,0 -3.2689,0 -4.9034,0 0,0.54088 0.7309,1.38075 0,1.62264 -8.524,2.82079 -22.7343,-2.01592 -31.872,0 -5.7967,1.27884 -8.587,1.62264 -14.7102,1.62264 -1.4961,0 -8.8515,-0.63224 -9.8067,0 -0.5779,0.38246 0.7309,1.38076 0,1.62264 -3.3589,1.11154 -8.8745,0.5028 -12.2585,1.62265 -2.0675,0.68416 -2.8359,2.56112 -4.9034,3.24529 -2.6151,0.86541 -7.1916,-0.86542 -9.8067,0 -6.3289,2.09435 -8.3814,2.77356 -14.7102,4.86793 -1.4803,0.48985 -6.2218,-0.75009 -7.3551,0 -6.3359,4.19338 -14.1042,9.3348 -19.6135,12.98114 -0.8798,0.58229 -2.0602,4.60884 -4.9034,6.49059 -1.7336,1.14737 1.0964,3.41659 0,4.86792 -0.3655,0.48378 -1.6345,0 -2.4517,0 -0.8172,0.54089 -1.9348,0.93848 -2.4517,1.62265 -4.2711,5.65363 -0.7828,3.76339 -7.3551,8.11321 -1.2258,0.81133 1.2259,4.05662 0,4.86794 -3.6928,2.44406 -6.9216,9.44902 -7.355,9.73586 -0.532,0.35208 -4.6644,1.30628 -4.9034,1.62264 -0.731,0.96756 0.7309,2.27773 0,3.24529 -0.3655,0.48378 -1.7208,-0.24189 -2.4517,0 -3.6133,1.19572 -4.9089,4.87158 -7.3551,6.49058 -1.2259,0.81132 -6.1292,-0.81133 -7.3551,0 -1.6505,1.09238 -1.2931,2.05057 -4.9034,3.24528 -7.5828,2.50935 -28.1221,0 -36.7753,0 -2.3772,0 -21.3416,0.95792 -22.0653,0 -1.1007,-1.45701 0.4997,-5.62929 2.4517,-6.49058 3.3999,-1.50013 8.2943,0.65592 12.2585,0 4.2695,-0.70643 8.1723,-2.16351 12.2585,-3.24528"
       id="path3828"
       inkscape:connector-curvature="0" />
    <path
       style="fill:none;stroke:#000000;stroke-width:56.61824417;stroke-linecap:butt;stroke-linejoin:miter;stroke-miterlimit:4;stroke-opacity:1;stroke-dasharray:none"
       d="m 808.34447,-60.05147 c -0.5231,28.763977 -25.58508,48.465298 -31.50038,74.183138 -0.42444,1.84527 0.78264,4.005 0,5.70637 -2.64472,5.74921 -9.53854,11.92129 -13.12516,17.119117 -6.96023,10.08699 -15.11792,23.58232 -21.00026,34.238344 -6.405,11.6029 2.08216,6.29646 -7.87509,17.11921 -4.4617,4.84946 -10.82309,7.12848 -15.7502,11.41275 -6.54792,5.693631 -26.87006,24.674781 -31.50039,31.385201 -1.17394,1.70127 -1.05976,4.43041 -2.62503,5.70637 -3.76966,3.073 -9.20447,2.86539 -13.12516,5.70637 -3.08887,2.23824 -4.9052,6.13856 -7.87509,8.55961 -13.69349,11.16279 -34.44331,13.26292 -49.87562,19.97235 -1.14894,0.49953 -1.75002,1.90213 -2.62503,2.85324 -4.37505,1.90212 -8.59438,4.29936 -13.12516,5.70637 -5.82223,1.80803 -5.23262,-2.87215 -10.50013,2.85314 -1.38351,1.50376 -1.05976,4.43042 -2.62503,5.70637 -3.91352,3.19034 -21.64363,9.2589 -23.62529,11.41285 -4.9842,5.4174 -10.55341,11.43206 -18.37522,14.26599 -2.49034,0.9022 -5.32845,-0.69204 -7.87511,0 -10.43531,2.83559 -21.19879,13.38681 -31.50039,17.11911 -7.02312,2.54456 -16.36213,0.87965 -23.62528,2.85323 -4.75116,-1.7197 -4.8821,4.62195 -7.87509,5.70637 -3.32044,1.20303 -7.1046,-0.92268 -10.50014,0 -20.10997,5.46446 -79.72501,10.63043 -102.37625,5.70638 -18.92103,-4.11312 -39.0408,-11.30884 -57.75072,-17.11912 -15.93081,-4.94728 -34.72369,-3.17837 -49.8756,-11.41283 -7.04177,-3.8269 -11.82084,-9.98997 -21.00025,-14.266 -8.94961,-4.16889 -46.95567,-19.65182 -52.50065,-25.67872 -0.56959,-0.61911 -2.11324,-5.42829 -2.62503,-5.70638 -6.71108,-3.64721 -22.72565,-6.39958 -28.87537,-11.41274 -29.7898,-24.28436 5.58463,-1.78097 -13.12515,-8.55961 -2.5705,-0.93131 -14.20053,-19.45685 -15.7502,-22.82559 -0.85849,-1.86625 -1.44144,-13.62276 -2.62503,-14.26598 -1.56527,-0.85064 -4.01261,1.34506 -5.25007,0 -2.55107,-2.77276 -0.6238,-8.14997 -2.62503,-11.41275 -1.93055,-3.147591 -6.32453,-5.188911 -7.875083,-8.559601 -0.78264,-1.70128 1.237463,-4.36141 0,-5.70638 -1.38352,-1.50376 -4.164751,-1.08373 -5.250061,-2.85323 -1.45611,-2.37401 1.85617,-6.54202 0,-8.55951 -2.99871,-3.25935 -7.99281,-8.687534 -10.50013,-11.412854 -0.87502,-0.95101 -1.75003,-7.60849 -2.62503,-8.55951 -0.61873,-0.67253 -2.23372,0.85064 -2.62503,0 -4.05141,-8.80711 -1.34274,-10.01906 -7.87511,-17.11921 -1.23745,-1.34497 0.78264,-4.0051 0,-5.706377 -3.98167,-8.65547 -11.76852,-14.17011 -15.75019,-22.82559 -18.07384,-39.289521 -34.4299,-54.43133 -65.625825,-77.036271 -5.814998,-4.21359 -26.250311,-18.571811 -26.250311,-14.265981"
       id="path3905"
       inkscape:connector-curvature="0" />
    <path
       style="fill:none;stroke:#443aff;stroke-width:80;stroke-linecap:butt;stroke-linejoin:miter;stroke-miterlimit:4;stroke-opacity:1;stroke-dasharray:none"
       d="m -786.56843,-104.20162 c 12.86919,-15.11118 24.89594,-30.86348 31.18286,-49.74052 0.82175,-2.46734 3.3168,-3.23481 3.89786,-5.85182 0.41087,-1.85052 -0.72072,-4.22883 0,-5.85183 0.80579,-1.81457 2.87068,-1.38382 3.89786,-2.92591 0.73266,-1.09995 3.88534,-14.62017 3.89786,-14.62956 1.16212,-0.87235 2.73574,0.87233 3.89785,0 1.16212,-0.87235 -0.58105,-4.10716 0,-5.85183 1.84976,-5.55406 5.94148,-7.52803 7.79572,-11.70365 3.89786,-8.77775 -1.94893,-2.92591 0,-8.77775 1.61107,-4.83738 4.01666,-3.28263 5.84678,-8.77774 1.35909,-4.08076 0.58985,-10.54879 1.94894,-14.62956 0.82173,-2.46735 3.07611,-3.38448 3.89785,-5.85183 3.68883,-11.07602 1.28704,-16.56178 7.79572,-26.33321 1.08125,-1.62327 1.1055,-15.02303 1.94893,-17.55548 0.64964,-1.95061 3.24821,-0.9753 3.89785,-2.92591 1.29387,-3.88498 0.65506,-10.74459 1.94893,-14.62957 0.29053,-0.87233 1.29929,0 1.94893,0 0.64965,-1.95061 1.59661,-3.73609 1.94893,-5.85182 3.22216,-19.34958 11.28841,-36.2121 15.59143,-55.59236 1.33381,-6.00736 4.82282,-8.4805 5.84679,-14.62956 0.31512,-1.89236 -0.58106,-4.10715 0,-5.85183 6.34541,-19.05266 1.9532,5.83257 5.84678,-11.70365 2.89437,-13.03591 8.22859,-25.03196 11.69358,-38.03687 1.07899,-4.04973 2.97912,-7.56579 3.89784,-11.70365 0.41088,-1.85051 -0.91872,-4.47253 0,-5.85182 0.91874,-1.37929 2.73576,0.87233 3.89787,0 1.69561,-1.27281 0.79855,-15.82844 1.94893,-17.55548 0.91873,-1.37929 2.73575,0.87233 3.89786,0 2.76796,-2.07777 6.8089,-18.96281 7.79572,-23.4073 2.10092,-9.46233 17.55057,-32.23105 19.48929,-40.96279 0.41087,-1.85051 -0.58107,-4.10715 0,-5.85183 0.29052,-0.87234 1.36785,0.43617 1.94892,0 4.09496,-3.07386 -0.0379,-5.79497 1.94893,-8.77774 1.19737,-1.79759 4.54164,-1.93299 5.84679,-5.85182 6.14291,-18.44463 13.81212,-29.51378 23.38715,-43.8887 1.72165,-2.58471 10.19279,-22.28075 11.69356,-23.4073 1.16212,-0.87235 2.73575,0.87234 3.89786,0 0.65787,-0.49383 7.27016,-13.39126 9.74465,-14.62956 10.01553,-5.01209 5.98664,-5.95682 13.6425,-11.70367 9.36985,-7.03343 19.08994,-5.85182 31.18286,-5.85182 9.29019,0 18.52519,-0.36184 27.28501,2.92591 5.54354,2.08063 12.47188,10.82494 17.54035,14.62958 1.16212,0.87233 2.97913,-1.37929 3.89786,0 7.01785,10.53584 19.94623,14.11158 29.23392,23.4073 1.96961,1.97129 12.61228,13.08288 13.6425,14.62956 0.45937,0.68965 -0.54053,2.38491 0,2.92592 5.83373,5.83874 12.29172,6.74979 17.54037,14.62956 0.62595,0.93974 3.45757,8.44724 3.89785,8.77774 1.16212,0.87233 2.73575,-0.87234 3.89786,0 1.16212,0.87233 -0.91873,4.47253 0,5.85182 0.64964,0.9753 3.24821,4.87653 3.89786,5.85183 1.45264,2.18085 4.39414,0.74506 5.84678,2.92591 3.7573,5.64081 17.66671,26.39645 23.38715,29.25913 1.23262,0.61684 2.8168,-1.082 3.89786,0 1.20867,1.20972 0.92175,4.30974 1.94893,5.85183 1.00876,1.51444 6.78695,1.41148 7.79571,2.92591 5.88695,8.83804 -1.57887,-1.04629 9.74464,11.70365 1.03943,1.17037 -0.58105,4.10716 0,5.85183 4.05549,12.17695 -0.13453,-3.1279 3.89787,2.92591 2.37599,3.56707 0.678,11.40694 3.89785,14.62957 6.36149,6.36697 12.7645,16.23733 17.54036,23.40731 0.91875,1.37929 -0.91873,4.47253 0,5.85182 1.92808,2.89461 7.0936,6.66959 7.79572,8.77774 0.58106,1.74467 -0.72071,4.22882 0,5.85183 0.80577,1.81457 3.09207,1.11133 3.89785,2.92591 0.72073,1.62301 -0.58106,4.10714 0,5.85183 1.55915,4.68145 6.23658,7.02219 7.79572,11.70365 2.40006,7.20638 -5.65722,-2.64132 1.94893,8.77774 1.27768,1.91817 4.87038,4.38594 5.84679,5.85182 0.64964,0.9753 1.29928,7.80244 1.94892,8.77774 0.45937,0.68964 1.6584,-0.87234 1.94893,0 0.58106,1.74468 -0.58106,4.10715 0,5.85183 0.75366,2.26294 6.29188,4.26234 7.79572,8.77773 0.58105,1.74468 -0.91874,4.47254 0,5.85183 8.39759,12.60725 16.52891,24.81475 23.38714,35.11096 1.45265,2.18084 0.80938,6.21154 1.94893,8.77774 0.50495,1.13711 12.94238,19.4303 13.6425,20.48139 1.9651,2.95018 1.53853,11.08753 3.89786,14.62957 1.79063,2.68825 6.60362,9.26049 7.79571,14.62956 0.41088,1.85051 -0.58105,4.10715 0,5.85183 0.58106,1.74468 2.97913,-1.37929 3.89786,0 0.51426,0.77205 1.92252,11.68383 1.94893,11.70365 1.16212,0.87233 2.97913,-1.37929 3.89786,0 0.91873,1.37929 -0.58106,4.10714 0,5.85182 1.04752,3.14527 4.5475,2.92592 5.84678,5.85183 3.67704,8.28046 4.10055,14.93385 7.79572,20.48139 0.91873,1.37929 -0.58106,4.10715 0,5.85183 4.05549,12.17695 -0.13454,-3.1279 3.89786,2.92591 4.71677,7.08126 7.09746,34.06267 13.6425,43.8887 10.12462,15.20001 7.54137,43.12499 13.6425,61.44417 1.6422,4.93085 0.23319,12.40381 1.94893,17.555477 4.05549,12.17695 -0.13454,-3.127907 3.89786,2.92591 0.45937,0.68965 -0.64964,2.92591 0,2.92591 2.05784,0 37.42753,76.21193 38.18357,73.94187"
       id="path3907"
       inkscape:connector-curvature="0"
       sodipodi:nodetypes="csssscssssssssssscssssssssssssscsssssssssssssscscssssssssssssssssssssssssssssssssscsssssssssssc" />
    <path
       style="fill:none;stroke:#000000;stroke-width:49.50062561;stroke-linecap:butt;stroke-linejoin:miter;stroke-miterlimit:4;stroke-opacity:1;stroke-dasharray:none"
       d="m 697.61756,131.71769 c -0.39135,29.38809 -19.14137,49.51688 -23.56688,75.79273 -0.31754,1.88531 0.58554,4.09189 0,5.83018 -1.97863,5.87396 -7.13621,12.17995 -9.81953,17.49057 -5.20726,10.30585 -11.31041,24.094 -15.71126,34.98122 -4.79187,11.85466 1.55776,6.43308 -5.89171,17.49066 -3.338,4.95468 -8.09725,7.28315 -11.78345,11.66037 -4.8988,5.81717 -20.10272,25.21016 -23.56688,32.06618 -0.87828,1.73819 -0.79285,4.52654 -1.9639,5.83019 -2.82026,3.13967 -6.88629,2.92756 -9.81954,5.83018 -2.31092,2.28681 -3.66981,6.27175 -5.89172,8.74533 -10.24472,11.405 -25.76861,13.55069 -37.31423,20.40571 -0.85958,0.51036 -1.30927,1.94339 -1.9639,2.91514 -3.27318,1.9434 -6.42986,4.39265 -9.81954,5.83019 -4.35588,1.84725 -3.91476,-2.93447 -7.85563,2.91504 -1.03506,1.53639 -0.79286,4.52655 -1.96391,5.83019 -2.92788,3.25955 -16.19258,9.45979 -17.67515,11.66047 -3.72891,5.53495 -7.8955,11.6801 -13.74735,14.57552 -1.86313,0.92177 -3.98645,-0.70705 -5.89173,0 -7.80713,2.89712 -15.85978,13.67728 -23.56688,17.49056 -5.25432,2.59977 -12.24126,0.89874 -17.67516,2.91514 -3.55455,-1.75701 -3.65252,4.72224 -5.89171,5.83019 -2.48418,1.22913 -5.31528,-0.9427 -7.85563,0 -15.0452,5.58302 -59.64594,10.86108 -76.59237,5.83019 -14.15568,-4.20236 -29.20821,-11.55422 -43.20596,-17.49056 -11.91856,-5.05464 -25.97838,-3.24734 -37.31422,-11.66048 -5.26826,-3.90992 -8.84371,-10.20671 -15.71125,-14.57551 -6.69561,-4.25935 -35.12968,-20.07822 -39.27813,-26.2359 -0.42614,-0.63254 -1.58102,-5.54606 -1.96391,-5.83018 -5.02087,-3.72635 -17.0021,-6.53844 -21.60299,-11.66038 -22.28711,-24.81126 4.17812,-1.81961 -9.81952,-8.74533 -1.92311,-0.95151 -10.62407,-19.87902 -11.78345,-23.32084 -0.64227,-1.90675 -1.07841,-13.91834 -1.9639,-14.57552 -1.17105,-0.8691 -3.00203,1.37425 -3.92782,0 -1.90857,-2.83292 -0.4667,-8.32681 -1.96391,-11.66038 -1.44433,-3.21589 -4.73167,-5.30149 -5.89171,-8.74533 -0.58553,-1.73819 0.92579,-4.45604 0,-5.83018 -1.03508,-1.53639 -3.11585,-1.10725 -3.92781,-2.91515 -1.08938,-2.42551 1.38868,-6.68395 0,-8.74523 -2.24347,-3.33006 -5.97979,-8.87602 -7.85563,-11.66047 -0.65464,-0.97165 -1.30928,-7.77358 -1.96391,-8.74523 -0.4629,-0.68712 -1.67115,0.86909 -1.96391,0 -3.03104,-8.99821 -1.00456,-10.23645 -5.89172,-17.49066 -0.9258,-1.37415 0.58552,-4.092 0,-5.83019 -2.97887,-8.84327 -8.80456,-14.47757 -11.78343,-23.32085 C 120.45445,164.45326 108.21773,148.98291 84.878635,125.8875 80.528169,121.58249 65.239572,106.91273 65.239572,111.31198"
       id="path3905-5"
       inkscape:connector-curvature="0" />
    <path
       sodipodi:type="arc"
       style="fill:url(#linearGradient3827);fill-opacity:1;stroke:#bc0000;stroke-width:1;stroke-miterlimit:4;stroke-opacity:1;stroke-dasharray:8, 1;stroke-dashoffset:1.2;filter:url(#filter3809)"
       id="path3033"
       sodipodi:cx="327.14285"
       sodipodi:cy="332.36218"
       sodipodi:rx="90"
       sodipodi:ry="48.57143"
       d="m 417.14285,332.36218 a 90,48.57143 0 1 1 -180,0 90,48.57143 0 1 1 180,0 z"
       transform="matrix(1.8012801,0,0,1.2159929,-193.56166,-68.930755)" />
    <path
       style="fill:none;stroke:#ff0000;stroke-width:60;stroke-linecap:butt;stroke-linejoin:miter;stroke-miterlimit:4;stroke-opacity:1;stroke-dasharray:none"
       d="m 565.71428,935.21932 c -3.80952,-2.85714 -8.06139,-5.20425 -11.42857,-8.57143 -0.67343,-0.67343 0.30117,-1.95363 0,-2.85714 -1.34687,-4.04061 -4.68128,-7.29656 -5.71428,-11.42857 -0.46198,-1.84789 1.05657,-4.12943 0,-5.71429 -1.18129,-1.77192 -4.53301,-1.08522 -5.71429,-2.85714 -1.05657,-1.58486 0.85184,-4.01062 0,-5.71429 -4.489,-8.978 -6.66876,-1.91521 -8.57143,-11.42857 -2.04787,-10.23935 3.06215,-7.27736 -2.85714,-17.14285 -18.9519,-18.9519 2.69374,5.38748 -5.71429,-11.42858 -1.20467,-2.40935 -4.71385,-3.21321 -5.71428,-5.71428 -1.06112,-2.65279 1.06111,-5.91864 0,-8.57143 -1.00043,-2.50108 -4.09804,-3.55929 -5.71429,-5.71429 -3.31016,-4.41354 -5.39955,-12.38503 -8.57143,-17.14285 -0.74711,-1.12067 -2.43122,-1.57939 -2.85714,-2.85715 -0.60234,-1.80701 0.60234,-3.90727 0,-5.71428 -0.42592,-1.27775 -2.11003,-1.73648 -2.85714,-2.85714 -1.18129,-1.77193 -1.67586,-3.94237 -2.85715,-5.71429 -1.49421,-2.24133 -4.22006,-3.47296 -5.71428,-5.71429 -1.18128,-1.77192 -1.90476,-3.80952 -2.85714,-5.71428 -0.95239,-1.90476 -2.18371,-3.69398 -2.85715,-5.71429 -0.30117,-0.90351 0.67344,-2.18371 0,-2.85714 -1.50584,-1.50585 -4.20844,-1.3513 -5.71428,-2.85714 -0.67344,-0.67344 0,-1.90477 0,-2.85715 -1.90476,-1.90476 -3.5593,-4.09804 -5.71429,-5.71428 -3.40734,-2.55551 -7.77636,-3.52296 -11.42857,-5.71429 -23.30634,-13.9838 3.65745,2.0288 -14.28571,-11.42857 -3.40735,-2.55551 -7.88473,-3.35172 -11.42858,-5.71428 -1.12066,-0.74711 -1.73647,-2.11004 -2.85714,-2.85715 -1.77192,-1.18128 -4.01061,-1.57939 -5.71428,-2.85714 -7.44194,-5.58145 -3.12958,-5.8051 -11.42858,-8.57143 -16.25535,-5.41845 -6.24223,-0.21118 -20,-5.71428 -3.95454,-1.58182 -7.38796,-4.36742 -11.42857,-5.71429 -3.72526,-1.24175 -7.70331,-1.61539 -11.42857,-2.85714 -2.0203,-0.67344 -3.64828,-2.34064 -5.71428,-2.85715 -1.84789,-0.46197 -3.90727,0.60234 -5.71429,0 -2.55551,-0.85183 -3.30493,-4.5096 -5.71429,-5.71428 -0.85183,-0.42592 -2.0053,0.42592 -2.85714,0 -1.20468,-0.60234 -1.65246,-2.25481 -2.85714,-2.85714 -7.03701,-3.51851 2.57924,8.29352 -8.57143,-2.85715 -0.67344,-0.67343 0.85184,-2.43122 0,-2.85714 -1.70367,-0.85184 -4.01061,0.85184 -5.71429,0 -0.85183,-0.42592 0.85184,-2.43123 0,-2.85714 -1.70367,-0.85184 -4.01061,0.85183 -5.71428,0 -0.85184,-0.42592 0,-1.90477 0,-2.85715 -1.90476,-0.95238 -3.69398,-2.1837 -5.71429,-2.85714 -1.8897,-0.6299 -14.3361,0 -17.14285,0 -4.7311,0 -16.12979,-0.64503 -20,0 -2.97072,0.49512 -5.71429,1.90476 -8.57143,2.85714 -2.85715,0.95238 -5.87769,1.51028 -8.57143,2.85715 -3.07134,1.53567 -5.26969,4.77093 -8.57143,5.71428 -3.66295,1.04656 -7.67088,-0.62628 -11.42857,0 -0.86601,0.14434 -15.98865,7.80196 -17.14286,8.57143 -1.12066,0.74711 -1.65246,2.25481 -2.85714,2.85714 -1.70367,0.85184 -4.36742,-1.34687 -5.71429,0 -5.91153,5.91153 9.0336,-0.23108 -2.85714,5.71429 -0.85184,0.42592 -2.00531,-0.42592 -2.85714,0 -2.40936,1.20468 -3.47296,4.22007 -5.71429,5.71429 -1.77192,1.18128 -4.43653,1.15347 -5.71428,2.85714 -1.80702,2.40935 -0.97576,6.21969 -2.85715,8.57143 2.45986,17.10138 -8.41688,2.70259 -11.42857,5.71428 -2.4281,2.42811 -3.80952,5.71429 -5.71428,8.57143 -1.90477,2.85714 -3.65397,5.82434 -5.71429,8.57143 -0.80812,1.0775 -2.11003,1.73648 -2.85714,2.85714 -1.18129,1.77193 -2.18371,3.69398 -2.85715,5.71429 -0.30117,0.90351 0.52829,2.06471 0,2.85714 -1.49421,2.24133 -4.22006,3.47296 -5.71428,5.71429 -0.52829,0.79243 0.30117,1.95363 0,2.85714 -0.67344,2.0203 -1.67586,3.94236 -2.85714,5.71429 -4.35868,6.53801 -2.26163,-1.78655 -5.71429,8.57142 -0.30117,0.90351 0.30117,1.95364 0,2.85715 -0.67344,2.0203 -2.18371,3.69398 -2.85714,5.71428 -0.30117,0.90351 0.30117,1.95364 0,2.85715 -0.67344,2.0203 -2.34064,3.64828 -2.85715,5.71428 -2.88774,11.55098 4.08044,-0.13405 -2.85714,11.42857 -1.7667,2.94451 -3.94758,5.62692 -5.71428,8.57143 -2.19133,3.65222 -3.80953,7.61905 -5.71429,11.42857 -0.95238,1.90476 -1.57939,4.01062 -2.85714,5.71429 -1.61625,2.15499 -4.32837,3.40442 -5.71429,5.71428 -1.5495,2.58251 -1.05013,6.16208 -2.85714,8.57143 -1.27775,1.70367 -4.43653,1.15347 -5.71429,2.85715 -4.15445,5.53926 -1.55983,8.74644 -5.71428,14.28571 -1.61625,2.15499 -4.09804,3.55929 -5.71429,5.71429 -1.27775,1.70367 -1.57939,4.01061 -2.85714,5.71428 -1.61625,2.15499 -4.09804,3.55929 -5.71429,5.71429 -1.27775,1.70367 -1.57939,4.01061 -2.85714,5.71428 -4.799997,6.4 -12.342857,10.74286 -17.142857,17.14286 -4.5382,6.05094 -3.99848,12.6848 -11.42857,17.14286 -11.61892,6.97135 -6.30516,-2.26627 -17.14286,8.57143 -2.4281,2.4281 -3.03289,6.42631 -5.71428,8.57142 -17.22917,13.78331 -1.22696,-3.67223 -14.28572,2.85715 -0.85183,0.42591 0.67344,2.1837 0,2.85714 -0.67343,0.67343 -1.90476,0 -2.85714,0 -0.95238,0 -1.90476,0 -2.85714,0"
       id="path3829"
       inkscape:connector-curvature="0" />
    <path
       style="fill:none;stroke:#f80000;stroke-width:60.67100143;stroke-linecap:butt;stroke-linejoin:miter;stroke-miterlimit:4;stroke-opacity:1;stroke-dasharray:none"
       d="m 743.80725,849.51868 c -3.76195,-3.93882 -7.96073,-7.17452 -11.28587,-11.81648 -0.66502,-0.92839 0.29741,-2.69326 0,-3.93883 -1.33005,-5.57034 -4.62282,-10.05896 -5.64293,-15.7553 -0.45621,-2.54749 1.04338,-5.69279 0,-7.87767 -1.16654,-2.44275 -4.47641,-1.49607 -5.64294,-3.93882 -1.04337,-2.18487 0.84121,-5.529 0,-7.87766 -4.43295,-12.37698 -6.58549,-2.64029 -8.4644,-15.75531 -2.0223,-14.11586 3.02391,-10.03249 -2.82147,-23.63295 -18.71526,-26.1269 2.66011,7.42712 -5.64294,-15.75533 -1.18963,-3.3215 -4.65499,-4.4297 -5.64293,-7.87764 -1.04787,-3.65711 1.04786,-8.15938 0,-11.81649 -0.98794,-3.44796 -4.04687,-4.9068 -5.64294,-7.87766 -3.26883,-6.08446 -5.33213,-17.07388 -8.4644,-23.63296 -0.73778,-1.54494 -2.40087,-2.17733 -2.82147,-3.93883 -0.59482,-2.49113 0.59482,-5.38653 0,-7.87765 -0.4206,-1.76149 -2.08368,-2.39389 -2.82146,-3.93883 -1.16654,-2.44276 -1.65494,-5.43491 -2.82148,-7.87766 -1.47555,-3.08987 -4.16737,-4.78778 -5.64293,-7.87766 -1.16653,-2.44275 -1.88097,-5.25176 -2.82146,-7.87764 -0.9405,-2.62589 -2.15645,-5.09249 -2.82148,-7.87767 -0.29741,-1.24557 0.66503,-3.01044 0,-3.93882 -1.48704,-2.07595 -4.15589,-1.86289 -5.64293,-3.93882 -0.66503,-0.9284 0,-2.6259 0,-3.93884 -1.88098,-2.62588 -3.51486,-5.64952 -5.64294,-7.87765 -3.36479,-3.523 -7.67926,-4.85671 -11.28587,-7.87766 -23.01533,-19.27792 3.61178,2.79688 -14.10733,-15.75531 -3.36481,-3.523 -7.78628,-4.62064 -11.28588,-7.87765 -1.10667,-1.02995 -1.71479,-2.90887 -2.82147,-3.93883 -1.74979,-1.6285 -3.96053,-2.17733 -5.64293,-3.93883 -7.34902,-7.69453 -3.0905,-8.00285 -11.28588,-11.81648 -16.05238,-7.46982 -6.16429,-0.29113 -19.75028,-7.87765 -3.90516,-2.18068 -7.29571,-6.02088 -11.28587,-7.87766 -3.67874,-1.71186 -7.60712,-2.22696 -11.28587,-3.93882 -1.99507,-0.9284 -3.60272,-3.22679 -5.64293,-3.93884 -1.82481,-0.63687 -3.85848,0.83038 -5.64294,0 -2.5236,-1.17433 -3.26366,-6.21689 -5.64294,-7.87765 -0.84119,-0.58717 -1.98026,0.58717 -2.82146,0 -1.18964,-0.83038 -1.63183,-3.10846 -2.82147,-3.93882 -6.94914,-4.85058 2.54704,11.43336 -8.4644,-3.93884 -0.66503,-0.92838 0.8412,-3.35165 0,-3.93882 -1.6824,-1.17434 -3.96053,1.17433 -5.64294,0 -0.8412,-0.58717 0.8412,-3.35167 0,-3.93883 -1.6824,-1.17433 -3.96053,1.17433 -5.64293,0 -0.84121,-0.58717 0,-2.62589 0,-3.93883 -1.88098,-1.31295 -3.64786,-3.01043 -5.64294,-3.93883 -1.86611,-0.86837 -14.1571,0 -16.9288,0 -4.67203,0 -15.92839,-0.88923 -19.75028,0 -2.93362,0.68257 -5.64294,2.62588 -8.4644,3.93883 -2.82148,1.31294 -5.8043,2.08205 -8.46441,3.93883 -3.03299,2.11706 -5.20389,6.57716 -8.4644,7.87765 -3.61722,1.44278 -7.5751,-0.86338 -11.28587,0 -0.8552,0.19899 -15.78902,10.7557 -16.92881,11.81649 -1.10667,1.02995 -1.63183,3.10845 -2.82147,3.93882 -1.6824,1.17434 -4.31289,-1.85678 -5.64294,0 -5.83772,8.14957 8.92081,-0.31857 -2.82146,7.87766 -0.84121,0.58717 -1.98028,-0.58717 -2.82147,0 -2.37928,1.66076 -3.4296,5.81774 -5.64294,7.87766 -1.74979,1.6285 -4.38113,1.59016 -5.64293,3.93882 -1.78446,3.32151 -0.96358,8.57441 -2.82147,11.81649 2.42914,23.57579 -8.31179,3.72576 -11.28587,7.87765 -2.39779,3.34736 -3.76196,7.87766 -5.64294,11.81648 -1.88098,3.93883 -3.60834,8.02938 -5.64294,11.81649 -0.79802,1.48543 -2.08368,2.39389 -2.82146,3.93882 -1.16654,2.44276 -2.15644,5.09248 -2.82148,7.87766 -0.2974,1.24557 0.5217,2.84639 0,3.93883 -1.47555,3.08987 -4.16736,4.78778 -5.64293,7.87766 -0.52169,1.09243 0.29741,2.69325 0,3.93882 -0.66503,2.78516 -1.65493,5.4349 -2.82146,7.87766 -4.30426,9.01323 -2.23339,-2.46292 -5.64294,11.81647 -0.29741,1.24557 0.29741,2.69327 0,3.93884 -0.66503,2.78516 -2.15644,5.09248 -2.82147,7.87765 -0.29741,1.24557 0.29741,2.69327 0,3.93883 -0.66503,2.78517 -2.31141,5.02949 -2.82147,7.87765 -2.85168,15.92406 4.02949,-0.1848 -2.82147,15.75531 -1.74464,4.05927 -3.89829,7.75721 -5.64293,11.81649 -2.16396,5.03491 -3.76196,10.50354 -5.64294,15.7553 -0.94048,2.62589 -1.55967,5.529 -2.82146,7.87767 -1.59607,2.97084 -4.27433,4.69329 -5.64294,7.87764 -1.53015,3.56022 -1.03702,8.49498 -2.82147,11.81649 -1.26179,2.34866 -4.38113,1.59016 -5.64294,3.93884 -4.10257,7.63636 -1.54035,12.05775 -5.64293,19.69413 -1.59607,2.97084 -4.04687,4.9068 -5.64294,7.87766 -1.26179,2.34866 -1.55967,5.52898 -2.82146,7.87765 -1.59607,2.97084 -4.04687,4.9068 -5.64294,7.87766 -1.2618,2.34866 -1.55967,5.52898 -2.82147,7.87764 -4.74006,8.82298 -12.18874,14.81 -16.92881,23.63297 -4.48153,8.34177 -3.94855,17.48714 -11.28587,23.63297 -11.47384,9.61064 -6.22643,-3.12425 -16.92881,11.81649 -2.39778,3.34735 -2.99502,8.85924 -5.64293,11.81647 -17.01404,19.00157 -1.21164,-5.0625 -14.10734,3.93884 -0.8412,0.58715 0.66503,3.01042 0,3.93882 -0.66503,0.92838 -1.88098,0 -2.82147,0 -0.94049,0 -1.88098,0 -2.82146,0"
       id="path3829-6"
       inkscape:connector-curvature="0" />
  </g>
</svg>
