<?xml version="1.0" encoding="UTF-8" standalone="no"?>
<!-- Created with Inkscape (http://www.inkscape.org/) -->

<svg
   xmlns:osb="http://www.openswatchbook.org/uri/2009/osb"
   xmlns:dc="http://purl.org/dc/elements/1.1/"
   xmlns:cc="http://creativecommons.org/ns#"
   xmlns:rdf="http://www.w3.org/1999/02/22-rdf-syntax-ns#"
   xmlns:svg="http://www.w3.org/2000/svg"
   xmlns="http://www.w3.org/2000/svg"
   xmlns:xlink="http://www.w3.org/1999/xlink"
   xmlns:sodipodi="http://sodipodi.sourceforge.net/DTD/sodipodi-0.dtd"
   xmlns:inkscape="http://www.inkscape.org/namespaces/inkscape"
   width="800"
   height="800"
   id="svg2"
   version="1.1"
   inkscape:version="0.48.4 r9939"
   sodipodi:docname="light_off.svg">
  <defs
     id="defs4">
    <linearGradient
       id="linearGradient3823"
       osb:paint="solid">
      <stop
         style="stop-color:#0000b5;stop-opacity:1;"
         offset="0"
         id="stop3825" />
    </linearGradient>
    <filter
       inkscape:collect="always"
       id="filter3809"
       color-interpolation-filters="sRGB">
      <feGaussianBlur
         inkscape:collect="always"
         stdDeviation="3.9593924"
         id="feGaussianBlur3811" />
    </filter>
    <linearGradient
       inkscape:collect="always"
       xlink:href="#linearGradient3823"
       id="linearGradient3827"
       x1="224.31377"
       y1="332.36218"
       x2="429.97195"
       y2="332.36218"
       gradientUnits="userSpaceOnUse" />
  </defs>
  <sodipodi:namedview
     id="base"
     pagecolor="#ffffff"
     bordercolor="#666666"
     borderopacity="1.0"
     inkscape:pageopacity="0.0"
     inkscape:pageshadow="2"
     inkscape:zoom="0.35"
     inkscape:cx="350"
     inkscape:cy="520"
     inkscape:document-units="px"
     inkscape:current-layer="layer1"
     showgrid="false"
     inkscape:window-width="1855"
     inkscape:window-height="1056"
     inkscape:window-x="65"
     inkscape:window-y="24"
     inkscape:window-maximized="1" />
  <metadata
     id="metadata7">
    <rdf:RDF>
      <cc:Work
         rdf:about="">
        <dc:format>image/svg+xml</dc:format>
        <dc:type
           rdf:resource="http://purl.org/dc/dcmitype/StillImage" />
        <dc:title></dc:title>
      </cc:Work>
    </rdf:RDF>
  </metadata>
  <g
     inkscape:label="Ebene 1"
     inkscape:groupmode="layer"
     id="layer1"
     transform="translate(0,-252.36218)">
    <rect
       style="fill:#000080;fill-opacity:1;stroke:#c42117;stroke-width:20;stroke-miterlimit:4;stroke-opacity:1;stroke-dasharray:none;stroke-dashoffset:1.19999999999999996"
       id="rect3010"
       width="742.85712"
       height="742.85712"
       x="25.714285"
       y="28.571428"
       transform="translate(0,252.36218)"
       rx="6.4053044"
       ry="7.7977057" />
    <path
       sodipodi:type="arc"
       style="fill:#ffff00;fill-opacity:1;stroke:#f7e3f4;stroke-width:1.19299996;stroke-miterlimit:4;stroke-opacity:1;stroke-dasharray:none;stroke-dashoffset:1.2"
       id="path3023"
       sodipodi:cx="435.71429"
       sodipodi:cy="702.85712"
       sodipodi:rx="307.14285"
       sodipodi:ry="288.57144"
       d="m 742.85715,702.85712 a 307.14285,288.57144 0 1 1 -614.28571,0 307.14285,288.57144 0 1 1 614.28571,0 z"
       transform="matrix(0.9588254,0,0,0.43637359,5.0832199,348.51101)" />
    <path
       style="fill:none;stroke:#000000;stroke-width:36.59443283;stroke-linecap:butt;stroke-linejoin:miter;stroke-miterlimit:4;stroke-opacity:1;stroke-dasharray:none"
       d="M 735.49924,680.39734 C 735.09106,664.99822 715.5348,654.4509 710.919,640.68256 c -0.33119,-0.98788 0.61071,-2.14412 0,-3.05497 -2.06372,-3.0779 -7.44307,-6.38219 -10.24176,-9.16491 -5.43118,-5.40018 -11.79676,-12.62506 -16.38684,-18.32988 -4.99792,-6.21174 1.62474,-3.37088 -6.14506,-9.16496 -3.48153,-2.59622 -8.44542,-3.81631 -12.29012,-6.10994 -5.10945,-3.04815 -20.96713,-13.20993 -24.58025,-16.80242 -0.91605,-0.9108 -0.82694,-2.37188 -2.04835,-3.05497 -2.94153,-1.64517 -7.18239,-1.53402 -10.24177,-3.05497 -2.41029,-1.19827 -3.82761,-3.28635 -6.14506,-4.58249 -10.68524,-5.97612 -26.87665,-7.10045 -38.91872,-10.69242 -0.89654,-0.26743 -1.36557,-1.01832 -2.04835,-1.52751 -3.41393,-1.01833 -6.70634,-2.30171 -10.24177,-3.05497 -4.54318,-0.96795 -4.0831,1.53764 -8.19342,-1.52746 -1.07957,-0.80506 -0.82695,-2.37188 -2.04835,-3.05497 -3.05378,-1.70799 -16.88886,-4.95686 -18.43518,-6.11 -3.88925,-2.90027 -8.235,-6.12028 -14.33848,-7.63745 -1.94324,-0.483 -4.15787,0.37049 -6.14506,0 -8.14285,-1.51807 -16.54175,-7.16678 -24.58025,-9.16491 -5.48026,-1.36226 -12.76763,-0.47093 -18.43518,-1.52751 -3.7074,0.92066 -3.80958,-2.47441 -6.14506,-3.05497 -2.59099,-0.64406 -5.54382,0.49397 -8.19342,0 -15.69212,-2.92546 -53.46141,-4.19177 -71.13654,-1.55562 -14.76437,2.202 -39.2134,4.55496 -53.81304,7.66556 -12.43106,2.64858 -27.09544,1.70157 -38.91871,6.10999 -5.4948,2.04877 -9.22399,5.34823 -16.38683,7.63745 -6.98352,2.23187 -36.64024,10.52083 -40.96707,13.7474 -0.44447,0.33145 -1.649,2.90609 -2.04836,3.05497 -5.23676,1.95258 -17.73318,3.42609 -22.5319,6.10994 -23.24545,13.00091 4.35777,0.95346 -10.24176,4.58248 -2.0058,0.49859 -11.0809,10.41645 -12.29012,12.21994 -0.6699,0.99912 -1.12478,7.2931 -2.04836,7.63745 -1.2214,0.4554 -3.13111,-0.72009 -4.09671,0 -1.99064,1.48443 -0.48676,4.36318 -2.04835,6.10994 -1.50644,1.68511 -4.93514,2.77795 -6.14506,4.58249 -0.6107,0.91079 0.96561,2.33493 0,3.05497 -1.07958,0.80505 -3.24982,0.58019 -4.0967,1.52751 -1.13623,1.27095 1.44839,3.50234 0,4.58243 -2.33994,1.74493 -6.23692,4.65097 -8.19342,6.10999 -0.68279,0.50914 -1.36558,4.0733 -2.04835,4.58243 -0.48281,0.36005 -1.74301,-0.45539 -2.04836,0 -3.16137,4.71499 -1.04775,5.36382 -6.14506,9.16497 -0.96561,0.72004 0.6107,2.14417 0,3.05497 -3.10696,4.63381 -9.18317,7.58613 -12.29013,12.21994 -14.10329,21.03409 -26.86618,29.14043 -51.208852,41.24223 -4.537533,2.2558 -20.483532,9.94263 -20.483532,7.63746"
       id="path3905"
       inkscape:connector-curvature="0"
       sodipodi:nodetypes="cssssssscssscsscsccsccsssssscsssscsccssccscsssc" />
    <path
       style="fill:none;stroke:#000000;stroke-width:36.83934784;stroke-linecap:butt;stroke-linejoin:miter;stroke-miterlimit:4;stroke-opacity:1;stroke-dasharray:none"
       d="m 743.94821,626.58284 c -0.41864,15.21611 -20.47592,25.63807 -25.20998,39.24277 -0.33968,0.97615 0.62636,2.11864 0,3.01866 -2.11658,3.04132 -7.63375,6.30634 -10.50415,9.05599 -5.57032,5.33601 -12.09898,12.47501 -16.80666,18.11202 -5.12597,6.13792 1.66636,3.33083 -6.30249,9.05604 -3.57073,2.56536 -8.6618,3.77097 -12.605,6.03733 -5.24034,3.01192 -21.50429,13.05293 -25.20998,16.60273 -0.93951,0.89997 -0.84813,2.34367 -2.10083,3.01866 -3.01688,1.62561 -7.3664,1.51578 -10.50416,3.01866 -2.47203,1.18403 -3.92567,3.24728 -6.30249,4.52801 -10.959,5.9051 -27.56522,7.01607 -39.91581,10.56535 -0.91951,0.26424 -1.40055,1.00622 -2.10082,1.50936 -3.5014,1.00622 -6.87815,2.27435 -10.50417,3.01866 -4.65957,0.95644 -4.1877,-1.51936 -8.40333,1.50931 -1.10723,0.79548 -0.84813,2.34368 -2.10083,3.01866 -3.13202,1.68768 -17.32155,4.89794 -18.90748,6.03738 -3.98889,2.86579 -8.44597,6.04754 -14.70582,7.54667 -1.99303,0.47727 -4.2644,-0.36608 -6.30251,0 -8.35146,1.50003 -16.96553,7.08161 -25.20998,9.05599 -5.62065,1.34607 -13.09473,0.46534 -18.90749,1.50936 -3.80237,-0.90972 -3.90717,2.44501 -6.30248,3.01866 -2.65738,0.6364 -5.68586,-0.48809 -8.40333,0 -16.09416,2.89069 -63.80449,5.62348 -81.93245,3.01866 -15.14263,-2.17583 -31.24462,-5.98236 -46.2183,-9.05598 -12.74954,-2.61711 -27.78961,-1.68136 -39.91579,-6.03738 -5.63558,-2.02442 -9.46031,-5.28467 -16.80665,-7.54669 -7.16244,-2.20533 -37.57896,-10.39578 -42.01665,-13.584 -0.45585,-0.3275 -1.69124,-2.87156 -2.10082,-3.01866 -5.37093,-1.92937 -18.1875,-3.38537 -23.10917,-6.03732 -23.84099,-12.8464 4.46942,-0.94214 -10.50415,-4.52803 -2.05718,-0.49266 -11.36478,-10.29264 -12.60499,-12.0747 -0.68706,-0.98723 -1.15359,-7.20641 -2.10083,-7.54668 -1.2527,-0.44999 -3.21133,0.71153 -4.20168,0 -2.04163,-1.46678 -0.49922,-4.31132 -2.10082,-6.03732 -1.54504,-1.66507 -5.06157,-2.74493 -6.3025,-4.52802 -0.62634,-0.89998 0.99035,-2.30718 0,-3.01867 -1.10723,-0.79548 -3.33307,-0.57329 -4.20165,-1.50935 -1.16534,-1.25584 1.48551,-3.46072 0,-4.52797 -2.39989,-1.72419 -6.39671,-4.59569 -8.40333,-6.03738 -0.70028,-0.50309 -1.40056,-4.02488 -2.10083,-4.52797 -0.49518,-0.35576 -1.78766,0.44999 -2.10084,0 -3.24236,-4.65894 -1.0746,-5.30006 -6.3025,-9.05603 -0.99034,-0.71148 0.62635,-2.11869 0,-3.01866 -3.18655,-4.57873 -9.41842,-7.49597 -12.60498,-12.0747 C 126.54488,643.53216 113.455,635.52216 88.488675,623.56418 83.83489,621.3352 67.480362,613.73973 67.480362,616.0175"
       id="path3905-5"
       inkscape:connector-curvature="0" />
    <path
       sodipodi:type="arc"
       style="fill:url(#linearGradient3827);fill-opacity:1;stroke:#bc0000;stroke-width:1;stroke-miterlimit:4;stroke-opacity:1;stroke-dasharray:8, 1;stroke-dashoffset:1.2;filter:url(#filter3809)"
       id="path3033"
       sodipodi:cx="327.14285"
       sodipodi:cy="332.36218"
       sodipodi:rx="90"
       sodipodi:ry="48.57143"
       d="m 417.14285,332.36218 a 90,48.57143 0 1 1 -180,0 90,48.57143 0 1 1 180,0 z"
       transform="matrix(1.2551313,0,0,2.0267756,-17.750092,-16.975686)" />
  </g>
</svg>
