<?xml version="1.0" encoding="UTF-8" standalone="no"?>
<!-- Created with Inkscape (http://www.inkscape.org/) -->

<svg
   xmlns:osb="http://www.openswatchbook.org/uri/2009/osb"
   xmlns:dc="http://purl.org/dc/elements/1.1/"
   xmlns:cc="http://creativecommons.org/ns#"
   xmlns:rdf="http://www.w3.org/1999/02/22-rdf-syntax-ns#"
   xmlns:svg="http://www.w3.org/2000/svg"
   xmlns="http://www.w3.org/2000/svg"
   xmlns:sodipodi="http://sodipodi.sourceforge.net/DTD/sodipodi-0.dtd"
   xmlns:inkscape="http://www.inkscape.org/namespaces/inkscape"
   width="800"
   height="800"
   id="svg2"
   version="1.1"
   inkscape:version="0.48.4 r9939"
   sodipodi:docname="patch.svg">
  <defs
     id="defs4">
    <linearGradient
       id="linearGradient3823"
       osb:paint="solid">
      <stop
         style="stop-color:#0000b5;stop-opacity:1;"
         offset="0"
         id="stop3825" />
    </linearGradient>
  </defs>
  <sodipodi:namedview
     id="base"
     pagecolor="#ffffff"
     bordercolor="#666666"
     borderopacity="1.0"
     inkscape:pageopacity="0.0"
     inkscape:pageshadow="2"
     inkscape:zoom="0.35"
     inkscape:cx="350"
     inkscape:cy="748.57143"
     inkscape:document-units="px"
     inkscape:current-layer="layer1"
     showgrid="false"
     inkscape:window-width="1855"
     inkscape:window-height="1056"
     inkscape:window-x="65"
     inkscape:window-y="24"
     inkscape:window-maximized="1" />
  <metadata
     id="metadata7">
    <rdf:RDF>
      <cc:Work
         rdf:about="">
        <dc:format>image/svg+xml</dc:format>
        <dc:type
           rdf:resource="http://purl.org/dc/dcmitype/StillImage" />
        <dc:title />
      </cc:Work>
    </rdf:RDF>
  </metadata>
  <g
     inkscape:label="Ebene 1"
     inkscape:groupmode="layer"
     id="layer1"
     transform="translate(0,-252.36218)">
    <path
       style="fill:#eed9d9;fill-opacity:1;stroke:#000000;stroke-width:1px;stroke-linecap:butt;stroke-linejoin:miter;stroke-opacity:1"
       d="M 618.53532,276.26948 C 541.47676,603.08734 35.792627,14.417219 -12.893248,767.69804 16.239244,752.16071 1.8744074,1006.5798 72.821041,1013.4124 637.37916,1067.7827 820.45025,1093.4548 807.10675,547.69805 803.95877,418.9437 618.53532,276.26948 618.53532,276.26948 z"
       id="path3777"
       inkscape:connector-curvature="0"
       sodipodi:nodetypes="ccssc" />
    <path
       style="fill:none;stroke:#d81c1c;stroke-width:20.50000000000000000;stroke-linecap:butt;stroke-linejoin:miter;stroke-opacity:1;stroke-miterlimit:4;stroke-dasharray:none"
       d="M 97.142857,691.42857 C 180.08276,605.46582 357.18122,546.40551 488.57143,474.28571 691.43327,397.43414 658.09064,248.69425 700,122.85714"
       id="path3038"
       inkscape:connector-curvature="0"
       transform="translate(0,252.36218)"
       sodipodi:nodetypes="ccc" />
    <path
       style="fill:none;stroke:#d81c1c;stroke-width:20.50000000000000000;stroke-linecap:butt;stroke-linejoin:miter;stroke-opacity:1;stroke-miterlimit:4;stroke-dasharray:none"
       d="m 85.714286,511.42857 c 2.857143,5.71429 5.714285,11.42857 8.571428,17.14286"
       id="path3808"
       inkscape:connector-curvature="0"
       transform="translate(0,252.36218)" />
    <path
       style="fill:none;stroke:#d81c1c;stroke-width:20.50000000000000000;stroke-linecap:butt;stroke-linejoin:miter;stroke-opacity:1;stroke-miterlimit:4;stroke-dasharray:none"
       d="m 71.428571,565.71429 c 4.230557,4.91726 5.027579,11.82708 8.571429,17.14285 0.747109,1.12067 2.254804,1.65247 2.857143,2.85715 2.292643,4.58528 2.385625,10.12488 5.714286,14.28571 2.524149,3.15519 6.330101,5.20944 8.571428,8.57143 1.670587,2.50588 1.510273,5.87769 2.857143,8.57143 3.07134,6.14267 7.89516,11.25384 11.42857,17.14285 5.34119,8.90199 0.14665,3.75474 8.57143,14.28572 1.68277,2.10346 4.03152,3.61083 5.71429,5.71428 2.14511,2.6814 3.56917,5.89004 5.71428,8.57143 1.68277,2.10346 4.03152,3.61083 5.71429,5.71429 4.29023,5.36278 7.13834,11.78007 11.42857,17.14286 2.52415,3.15518 6.3301,5.20943 8.57143,8.57142 6.5641,9.84616 -0.84982,1.58242 5.71428,11.42858 0.74711,1.12066 2.25481,1.65246 2.85715,2.85714 0.42591,0.85183 -0.67344,2.18371 0,2.85714 0.67343,0.67344 2.0053,-0.42592 2.85714,0 11.89074,5.94537 -3.05439,-0.19724 2.85714,5.71429 0.67344,0.67343 1.90476,0 2.85714,0 0,0.95238 -0.67343,2.1837 0,2.85714 0.67344,0.67344 2.18371,-0.67344 2.85715,0 1.34687,1.34687 -1.34687,4.36742 0,5.71429 0.67343,0.67343 2.1837,-0.67344 2.85714,0 0.67344,0.67343 -0.42592,2.0053 0,2.85714 5.94537,11.89074 -0.19724,-3.05439 5.71429,2.85714 0.67343,0.67344 -0.67344,2.18371 0,2.85714 0.67343,0.67344 2.0053,-0.42591 2.85714,0 1.20468,0.60234 1.90476,1.90477 2.85714,2.85715"
       id="path3810"
       inkscape:connector-curvature="0"
       transform="translate(0,252.36218)" />
    <path
       style="fill:none;stroke:#d81c1c;stroke-width:20.50000000000000000;stroke-linecap:butt;stroke-linejoin:miter;stroke-opacity:1;stroke-miterlimit:4;stroke-dasharray:none"
       d="m 214.28571,497.14286 c 3.55604,9.59185 14.20166,15.12601 20,22.85714 2.55551,3.40734 3.15878,8.02123 5.71429,11.42857 5.48785,7.31714 14.28826,10.00318 20,17.14286 4.29023,5.36278 7.13834,11.78007 11.42857,17.14286 1.68277,2.10345 4.03152,3.61082 5.71429,5.71428 2.14511,2.68139 3.51598,5.93347 5.71428,8.57143 2.58674,3.10408 6.04728,5.41624 8.57143,8.57143 1.33034,1.66293 1.57939,4.01061 2.85714,5.71428 1.61625,2.155 4.03152,3.61083 5.71429,5.71429 2.14511,2.68139 3.94758,5.62692 5.71429,8.57143 1.09566,1.82611 1.35129,4.20844 2.85714,5.71428 1.50585,1.50585 4.20844,1.3513 5.71428,2.85715 0.18309,0.18308 5.35949,10.89636 5.71429,11.42857 2.80281,4.20421 8.62577,7.22436 11.42857,11.42857 1.18128,1.77192 1.67586,3.94236 2.85714,5.71429 0.74711,1.12066 2.11004,1.73647 2.85715,2.85714 1.18128,1.77192 1.57939,4.01061 2.85714,5.71428 1.61624,2.155 3.80952,3.80953 5.71429,5.71429 4.7619,4.7619 9.52381,9.52381 14.28571,14.28571 1.50418,1.50419 7.80845,7.04548 8.57143,8.57143 0.42592,0.85184 -0.42592,2.00531 0,2.85715 0.60234,1.20467 2.85714,1.51027 2.85714,2.85714 0,0.95238 -1.90476,0 -2.85714,0 -1.90476,0 -3.80953,0 -5.71429,0 -0.95238,0 -1.95363,0.30117 -2.85714,0 -2.02031,-0.67344 -3.64828,-2.34064 -5.71429,-2.85714 -1.84789,-0.46198 -3.80952,0 -5.71428,0 -0.95238,0 -2.00531,0.42591 -2.85714,0 -1.20468,-0.60234 -1.57939,-2.43123 -2.85715,-2.85715 -2.36634,-0.78878 -12.46873,0.90849 -14.28571,0 -1.20468,-0.60234 -1.65247,-2.2548 -2.85714,-2.85714 -0.85184,-0.42592 -2.00531,0.42592 -2.85715,0 -2.40935,-1.20468 -3.30493,-4.50961 -5.71428,-5.71429 -1.70367,-0.85183 -4.36742,1.34687 -5.71429,0 -0.67343,-0.67343 0.67344,-2.1837 0,-2.85714 -0.003,-0.003 -8.55848,0.004 -8.57143,0 -1.27775,-0.42592 -1.65246,-2.2548 -2.85714,-2.85714 -0.85184,-0.42592 -2.18371,0.67343 -2.85714,0 -0.67344,-0.67344 0.67343,-2.18371 0,-2.85714 -2.81851,-2.81851 -5.71429,5.8545 -5.71429,-2.85715"
       id="path3812"
       inkscape:connector-curvature="0"
       transform="translate(0,252.36218)" />
    <path
       style="fill:none;stroke:#d81c1c;stroke-width:20.50000000000000000;stroke-linecap:butt;stroke-linejoin:miter;stroke-opacity:1;stroke-miterlimit:4;stroke-dasharray:none"
       d="M 365.71429,411.42857 C 378.34753,417.7452 374.13116,414.13116 380,420 c 0.95238,0.95238 2.11003,1.73648 2.85714,2.85714 1.18129,1.77193 1.3513,4.20844 2.85715,5.71429 1.50584,1.50585 4.01061,1.57939 5.71428,2.85714 6.8986,5.17395 5.80559,7.25699 11.42857,14.28572 4.20692,5.25864 9.90306,9.17261 14.28572,14.28571 6.19801,7.23102 11.04586,15.54075 17.14285,22.85714 1.72449,2.06939 4.03152,3.61083 5.71429,5.71429 2.14511,2.68139 3.51598,5.93346 5.71429,8.57143 2.58673,3.10408 5.98469,5.46734 8.57142,8.57143 4.39661,5.27592 7.13835,11.78007 11.42858,17.14285 1.68276,2.10346 4.32836,3.40443 5.71428,5.71429 1.5495,2.5825 1.05013,6.16207 2.85714,8.57143 1.27776,1.70367 4.20844,1.35129 5.71429,2.85714 2.4281,2.4281 3.65397,5.82434 5.71429,8.57143 2.4,3.2 6.17142,5.37143 8.57142,8.57143 1.27776,1.70367 1.3513,4.20844 2.85715,5.71428 1.50584,1.50585 3.94236,1.67586 5.71428,2.85715 2.24133,1.49421 3.30493,4.5096 5.71429,5.71428 0.85183,0.42592 2.00531,-0.42592 2.85714,0 1.20468,0.60234 1.90476,1.90476 2.85714,2.85714 0.95239,0.95239 1.90477,1.90477 2.85715,2.85715 3.80952,3.80952 7.61904,7.61904 11.42857,11.42857 0.95238,0.95238 1.90476,1.90476 2.85714,2.85714 0.95238,0.95238 2.85714,1.51027 2.85714,2.85714 0,0.95239 -2.1837,0.67344 -2.85714,0 -0.67343,-0.67343 0.67344,-2.1837 0,-2.85714 -0.67343,-0.67343 -2.00531,0.42592 -2.85714,0 -1.20468,-0.60234 -1.90476,-1.90476 -2.85714,-2.85714"
       id="path3814"
       inkscape:connector-curvature="0"
       transform="translate(0,252.36218)" />
    <path
       style="fill:none;stroke:#d81c1c;stroke-width:20.50000000000000000;stroke-linecap:butt;stroke-linejoin:miter;stroke-opacity:1;stroke-miterlimit:4;stroke-dasharray:none"
       d="m 462.85714,334.28571 c 3.80953,2.85715 7.61905,5.71429 11.42857,8.57143 1.90477,0.95238 3.94237,1.67586 5.71429,2.85715 1.12066,0.7471 1.73648,2.11003 2.85714,2.85714 3.54385,2.36256 8.02123,3.15878 11.42857,5.71428 15.01789,11.26342 -5.29161,0.24153 14.28572,11.42858 10.26529,5.86588 11.29878,4.46759 20,11.42857 2.10346,1.68276 3.6449,3.98979 5.71428,5.71428 3.6582,3.0485 7.77038,5.52293 11.42858,8.57143 2.06938,1.72449 3.47295,4.22007 5.71428,5.71429 3.54385,2.36256 7.96274,3.23869 11.42857,5.71428 3.28798,2.34856 5.41624,6.04728 8.57143,8.57143 1.66293,1.33034 3.88818,1.76148 5.71429,2.85714 2.94451,1.76671 5.89003,3.56918 8.57143,5.71429 2.10345,1.68277 3.55929,4.09804 5.71428,5.71429 3.40734,2.5555 8.02123,3.15878 11.42857,5.71428 2.15499,1.61625 3.80953,3.80953 5.71429,5.71429 0.95238,0.95238 1.57939,2.43122 2.85714,2.85714 1.80702,0.60234 3.90727,-0.60234 5.71429,0 1.27775,0.42592 1.73648,2.11003 2.85714,2.85714 1.77192,1.18129 3.94236,1.67586 5.71429,2.85715 1.12066,0.7471 1.65246,2.2548 2.85714,2.85714 27.59397,13.79698 -5.32832,-3.68087 14.28571,2.85714 1.27776,0.42592 1.73648,2.11004 2.85715,2.85714 1.77192,1.18129 3.80952,1.90477 5.71428,2.85715 1.90476,0.95238 3.73701,2.06623 5.71429,2.85714 2.85714,0.95238 5.71428,1.90476 8.57143,2.85714 0.95238,0.95238 1.65246,2.25481 2.85714,2.85715 2.69374,1.34687 5.77514,1.73862 8.57143,2.85714 1.97727,0.79091 3.80952,1.90476 5.71428,2.85714 1.90476,0.95238 3.94236,1.67586 5.71429,2.85714 1.12066,0.74711 1.65246,2.25481 2.85714,2.85715 0.85184,0.42591 2.00531,-0.42592 2.85714,0 3.53058,1.76529 2.85715,2.75852 2.85715,5.71428"
       id="path3816"
       inkscape:connector-curvature="0"
       transform="translate(0,252.36218)" />
    <path
       style="fill:none;stroke:#d81c1c;stroke-width:20.50000000000000000;stroke-linecap:butt;stroke-linejoin:miter;stroke-opacity:1;stroke-miterlimit:4;stroke-dasharray:none"
       d="m 540,228.57143 c 13.27646,3.31911 7.5018,2.85714 17.14286,2.85714 1.90476,0 3.84651,-0.37355 5.71428,0 2.95321,0.59064 5.61822,2.2665 8.57143,2.85714 21.81495,4.36299 -16.7882,-7.50083 14.28572,2.85715 2.85714,0.95238 5.71428,1.90476 8.57142,2.85714 2.85715,0.95238 5.60072,2.36202 8.57143,2.85714 2.81827,0.46971 5.75316,-0.46971 8.57143,0 2.97072,0.49512 5.59001,2.43123 8.57143,2.85715 3.77124,0.53874 7.65734,-0.53875 11.42857,0 2.98143,0.42591 5.59001,2.43122 8.57143,2.85714 3.77124,0.53875 7.67088,-0.62628 11.42857,0 2.10061,0.3501 3.62605,2.43949 5.71429,2.85714 21.7961,0 -2.25387,-1.27775 14.28571,2.85714 3.69578,0.92395 7.81454,-1.20467 11.42857,0 1.27776,0.42592 1.57939,2.43123 2.85715,2.85715 2.71052,0.90351 5.71428,0 8.57142,0 4.76191,0 9.52381,0 14.28572,0 0.95238,0 1.90476,0 2.85714,0 0.95238,0 2.18371,-0.67344 2.85714,0 0.67344,0.67343 -0.67343,2.1837 0,2.85714 0.67344,0.67344 2.18371,-0.67344 2.85715,0 0.67343,0.67344 -0.67344,2.18371 0,2.85714 1.34687,1.34687 4.36741,-1.34687 5.71428,0 0.67344,0.67344 -0.67343,2.18371 0,2.85715 0.84538,0.84537 9.65882,-0.88488 11.42857,0 1.20468,0.60233 1.65247,2.2548 2.85715,2.85714 1.81342,0.90671 13.35943,-0.92628 14.28571,0 0.67344,0.67343 -0.67343,2.18371 0,2.85714 0.67344,0.67344 2.18371,-0.67343 2.85714,0 0.67344,0.67344 -0.67343,2.18371 0,2.85714 0.58411,0.58411 7.4386,-0.56641 8.57143,0 7.06116,3.53058 -0.98622,2.85715 5.71429,2.85715"
       id="path3818"
       inkscape:connector-curvature="0"
       transform="translate(0,252.36218)" />
    <path
       style="fill:#00ff00;stroke:#0d6206;stroke-width:25;stroke-linecap:butt;stroke-linejoin:miter;stroke-miterlimit:4;stroke-opacity:0.90635449;stroke-dasharray:none"
       d="m 428.57143,237.14286 c 28.57143,8.57143 188.57143,100 188.57143,100 L 542.85714,414.28571 368.57143,500 471.42857,622.85714 400,660 188.57143,397.14286 z"
       id="path3820"
       inkscape:connector-curvature="0"
       transform="translate(0,252.36218)"
       sodipodi:nodetypes="cccccccc" />
  </g>
</svg>
