<?xml version="1.0" encoding="UTF-8" standalone="no"?>
<!-- Created with Inkscape (http://www.inkscape.org/) -->

<svg
   width="64mm"
   height="64mm"
   viewBox="0 0 64 64"
   version="1.1"
   id="svg5"
   inkscape:version="1.1 (c68e22c387, 2021-05-23)"
   sodipodi:docname="GUITAR.svg"
   xmlns:inkscape="http://www.inkscape.org/namespaces/inkscape"
   xmlns:sodipodi="http://sodipodi.sourceforge.net/DTD/sodipodi-0.dtd"
   xmlns="http://www.w3.org/2000/svg"
   xmlns:svg="http://www.w3.org/2000/svg">
  <sodipodi:namedview
     id="namedview7"
     pagecolor="#ffffff"
     bordercolor="#666666"
     borderopacity="1.0"
     inkscape:pageshadow="2"
     inkscape:pageopacity="0.0"
     inkscape:pagecheckerboard="0"
     inkscape:document-units="mm"
     showgrid="false"
     fit-margin-top="0"
     fit-margin-left="0"
     fit-margin-right="0"
     fit-margin-bottom="0"
     inkscape:zoom="1.4467452"
     inkscape:cx="91.584888"
     inkscape:cy="260.23932"
     inkscape:window-width="1920"
     inkscape:window-height="1001"
     inkscape:window-x="-9"
     inkscape:window-y="-9"
     inkscape:window-maximized="1"
     inkscape:current-layer="layer1" />
  <defs
     id="defs2" />
  <g
     inkscape:label="Layer 1"
     inkscape:groupmode="layer"
     id="layer1"
     transform="translate(-99.287498,-52.275253)">
    <g
       id="g1578"
       transform="matrix(1.1009279,0,0,1.0254428,-15.592609,-2.8999514)">
      <path
         style="fill:#9be2d9;stroke-width:0.160204"
         d="m 138.6642,103.01378 c 0,-0.58743 0.0516,-0.66281 0.45392,-0.66281 0.36018,0 0.45457,0.0759 0.45703,0.36751 0.002,0.20214 0.0611,0.47528 0.1321,0.60699 0.10282,0.19086 0.01,0.25081 -0.45702,0.2953 -0.57615,0.0549 -0.58603,0.0446 -0.58603,-0.60699 z m -10.04821,-0.40518 c 0.40292,-0.025 1.11785,-0.0254 1.58875,-9.1e-4 0.4709,0.0245 0.14124,0.0449 -0.73257,0.0454 -0.87381,4.6e-4 -1.25909,-0.0195 -0.85618,-0.0445 z m 5.69334,-0.10872 c 0.16384,-0.0327 0.3596,-0.0286 0.43502,0.009 0.0754,0.0376 -0.0586,0.0643 -0.29789,0.0594 -0.2644,-0.005 -0.31818,-0.0322 -0.13713,-0.0683 z m -7.17738,-10.637228 c 0.0672,-0.174642 0.42919,-0.2016 3.08065,-0.229446 2.43307,-0.02555 3.00447,-0.0019 3.00447,0.124419 0,0.115863 -0.53424,0.174866 -2.07754,0.229446 -3.48107,0.123111 -4.09553,0.104034 -4.00758,-0.124419 z m -0.0429,-1.441791 c 0,-0.139849 0.45813,-0.17293 2.61008,-0.18847 1.43555,-0.01037 2.78742,-0.02309 3.00416,-0.02827 0.21675,-0.0052 0.4285,0.07963 0.47057,0.18847 0.0698,0.180622 -0.19237,0.197892 -3.00416,0.197892 -2.58705,0 -3.08065,-0.02718 -3.08065,-0.169622 z m -0.22696,-3.166285 c 0,-0.267647 0.0672,-0.282704 1.26169,-0.282704 0.81864,0 1.21028,0.04145 1.11528,0.118034 -0.0805,0.06492 -0.023,0.192137 0.12788,0.282704 0.23507,0.141122 0.0756,0.16467 -1.11528,0.16467 -1.3309,0 -1.38957,-0.01194 -1.38957,-0.282704 z m 3.37827,0.211081 c -0.14459,-0.541257 0.002,-0.602819 1.44471,-0.605136 0.99956,-0.0016 1.07807,0.01886 1.07807,0.280973 0,0.243244 -0.10296,0.28292 -0.73763,0.284248 -0.4057,9.04e-4 -0.96743,0.03223 -1.2483,0.06973 -0.28087,0.0375 -0.52245,0.02409 -0.53685,-0.02981 z m -3.60524,-1.160178 v -0.338768 l 2.95093,-0.03456 2.95092,-0.03456 -4.5e-4,0.296269 c -4.5e-4,0.265748 -0.10222,0.301985 -0.98889,0.351779 -0.54368,0.03053 -1.87141,0.06521 -2.95053,0.07706 l -1.96203,0.02154 V 86.30547 Z m 0,-1.029832 v -0.346001 l 2.89379,0.03165 2.89379,0.03165 v 0.282704 0.282704 l -2.89379,0.03165 -2.89379,0.03165 z m -0.22696,-4.563695 v -0.524977 l 2.2129,-0.0016 c 1.21709,-9.04e-4 2.44269,-0.03223 2.72356,-0.06973 0.4756,-0.0635 0.51067,-0.03234 0.51067,0.453871 v 0.522056 h -1.32849 c -0.73067,0 -1.95627,0.03269 -2.72356,0.07265 l -1.39508,0.07265 z m -0.22696,-2.769955 v -0.582063 l 1.07807,-7.91e-4 c 0.59295,-4.53e-4 1.75611,-0.03272 2.58481,-0.07172 l 1.50673,-0.07091 0.0988,0.552313 c 0.0543,0.303773 0.0833,0.564754 0.0644,0.579959 -0.0189,0.01521 -1.22654,0.06087 -2.68358,0.101466 l -2.64916,0.07381 z m 3.05135,0.106631 c 0.19242,-0.155124 -0.10809,-0.462531 -0.45216,-0.462531 -0.39873,0 -0.62838,0.195918 -0.47027,0.401202 0.14053,0.18246 0.72405,0.221257 0.92243,0.06133 z m -3.10809,-1.091711 c -0.0936,-0.04785 -0.17023,-0.332955 -0.17023,-0.633565 v -0.54656 h 1.55707 c 0.85639,0 2.01531,-0.03129 2.57538,-0.06954 l 1.01831,-0.06954 0.14263,0.600024 c 0.0785,0.330012 0.1196,0.610917 0.0914,0.624234 -0.16368,0.07742 -5.07397,0.16683 -5.2146,0.09495 z m -0.39719,-5.672257 v -0.788708 l 2.30407,-0.07523 c 1.26723,-0.04138 2.32567,-0.06175 2.35208,-0.04527 0.0264,0.01648 0.1159,0.373447 0.19886,0.793263 l 0.15083,0.763301 h -1.79366 c -0.98651,0 -2.11283,0.0318 -2.50292,0.07068 l -0.70926,0.07068 z m -0.22696,-1.987354 v -0.856268 l 2.35717,-0.03555 2.35717,-0.03555 0.11564,0.791571 c 0.0636,0.435364 0.1008,0.800042 0.0827,0.810396 -0.0181,0.01036 -1.13088,0.05546 -2.4728,0.100243 l -2.43986,0.08142 z m -0.22837,-3.839212 c -7.7e-4,-0.139939 -0.17146,-0.407094 -0.37933,-0.593679 -0.50957,-0.457413 -1.75045,-7.733371 -1.35244,-7.930124 0.3495,-0.172769 7.32326,-0.314413 7.52372,-0.152814 0.0804,0.06479 0.0245,1.782734 -0.12415,3.817661 -0.19807,2.711539 -0.35439,3.781438 -0.58521,4.005228 -0.17322,0.167947 -0.31495,0.424925 -0.31495,0.571062 0,0.455801 -0.40195,0.5371 -2.65548,0.5371 -2.03721,0 -2.11081,-0.0089 -2.11216,-0.254434 z m 0.90926,-2.568965 c 0,-0.308715 -0.90529,-0.426108 -1.28593,-0.166752 -0.25175,0.171542 -0.24097,0.235891 0.068,0.406005 0.44779,0.246531 1.21791,0.09525 1.21791,-0.239253 z m 3.76111,0.174058 c 0.17833,-0.08885 0.32423,-0.194258 0.32423,-0.234241 0,-0.09835 -0.60864,-0.395785 -0.80988,-0.395785 -0.0888,0 -0.29254,0.08905 -0.45281,0.197892 -0.24138,0.16392 -0.22989,0.231866 0.0669,0.395786 0.433,0.239151 0.46209,0.240364 0.87157,0.03635 z M 125.63,61.027718 c 0.17833,-0.08885 0.32423,-0.194258 0.32423,-0.234241 0,-0.03998 -0.1459,-0.14539 -0.32423,-0.23424 -0.17833,-0.08885 -0.38989,-0.161546 -0.47014,-0.161546 -0.18587,0 -0.79437,0.300649 -0.79437,0.392482 0,0.105652 0.5428,0.38992 0.75384,0.394789 0.10254,0.0024 0.33234,-0.0684 0.51067,-0.157244 z m 4.53927,-0.113082 c 0.43806,-0.218257 0.40861,-0.323208 -0.13849,-0.493438 -0.38188,-0.118825 -0.52066,-0.115111 -0.79437,0.02126 -0.40463,0.201603 -0.41059,0.259349 -0.0479,0.46457 0.36382,0.205891 0.57947,0.207563 0.9808,0.0076 z m -4.78245,-2.213169 c 0,-0.207248 -0.13657,-0.292366 -0.51168,-0.318905 -0.30692,-0.02172 -0.56641,0.03485 -0.64843,0.141352 -0.22598,0.293409 0.0908,0.535914 0.64843,0.496459 0.37511,-0.02654 0.51168,-0.111658 0.51168,-0.318906 z m 4.9932,-0.11463 c 0,-0.224098 -0.11451,-0.281155 -0.5643,-0.281155 -0.63762,0 -0.92902,0.360921 -0.42262,0.523445 0.52416,0.168227 0.98692,0.05462 0.98692,-0.24229 z"
         id="path1103" />
      <path
         style="fill:#ed9eb7;stroke-width:0.160204"
         d="m 122.94468,113.59326 c -4.03136,-0.36315 -6.71909,-1.03016 -9.26485,-2.29923 -3.05153,-1.5212 -4.22572,-3.14434 -4.00637,-5.53816 0.18971,-2.07028 1.06396,-3.25353 4.60465,-6.232137 3.41637,-2.874023 3.44261,-3.004252 1.11579,-5.537895 -2.11747,-2.305699 -2.36253,-3.322539 -1.11028,-4.606961 1.36466,-1.399719 5.16754,-2.360101 10.13509,-2.559517 2.11328,-0.08484 1.91225,-0.319189 2.08858,2.434779 0.12196,1.904779 0.1073,2.002842 -0.30933,2.068724 -0.24055,0.03804 -1.05499,0.398121 -1.80987,0.800182 -1.14314,0.608855 -1.45432,0.865226 -1.86209,1.534096 -0.89253,1.464058 -0.15483,2.854005 2.11253,3.980332 1.38873,0.689861 2.79771,1.061825 4.70689,1.242598 l 1.34952,0.127781 0.1201,0.682096 c 0.066,0.375152 0.15619,1.094602 0.20031,1.598772 l 0.0802,0.91667 -4.17453,0.0615 c -2.29599,0.0338 -4.22411,0.0862 -4.28471,0.11637 -0.0606,0.0302 -0.0409,0.43592 0.0438,0.90163 l 0.154,0.84673 1.50331,0.0934 c 0.82681,0.0513 2.73718,0.0944 4.24526,0.0956 l 2.74196,0.002 0.3921,3.73528 c 0.21565,2.05441 0.45247,4.18055 0.52626,4.72475 l 0.13416,0.98946 -3.83563,-0.0101 c -2.20841,-0.006 -4.58281,-0.0774 -5.59688,-0.1688 z m 1.9552,-9.63261 c -0.14299,-0.0457 -0.29619,-0.37575 -0.34044,-0.73345 -0.0761,-0.6149 -0.052,-0.65037 0.44147,-0.65022 0.28707,8e-5 0.82327,0.0778 1.19156,0.17268 0.56958,0.14675 0.66962,0.23907 0.66962,0.61797 0,0.32466 -0.11904,0.47718 -0.43901,0.5625 -0.51046,0.13611 -1.15251,0.14898 -1.5232,0.0305 z m -1.67171,-0.28097 c -0.001,-0.13994 -0.0673,-0.44977 -0.14644,-0.68851 -0.1357,-0.40922 -0.11281,-0.43188 0.39969,-0.39579 0.49197,0.0346 0.55009,0.10007 0.61169,0.68851 0.0619,0.59114 0.0258,0.65022 -0.39719,0.65022 -0.33043,0 -0.46597,-0.0737 -0.46775,-0.25443 z m 4.08785,-0.25444 c 0,-0.0933 0.14999,-0.16962 0.33332,-0.16962 0.20304,0 0.28226,0.0663 0.20268,0.16962 -0.0718,0.0933 -0.22185,0.16962 -0.33332,0.16962 -0.11148,0 -0.20268,-0.0763 -0.20268,-0.16962 z m 3.17749,0.0764 c 0,-0.0586 -0.2298,-0.14334 -0.51067,-0.18829 -0.4321,-0.0691 -0.44961,-0.0898 -0.11384,-0.13452 0.46189,-0.0615 1.20427,0.25085 0.85321,0.35895 -0.12579,0.0387 -0.2287,0.0225 -0.2287,-0.0361 z m -1.89779,-0.18949 c -0.0905,-0.11745 0.0153,-0.16962 0.34395,-0.16962 0.39613,0 0.42789,0.028 0.19205,0.16962 -0.1554,0.0933 -0.31017,0.16962 -0.34395,0.16962 -0.0338,0 -0.1202,-0.0763 -0.19205,-0.16962 z m 6.07432,-0.0273 c -0.28413,-0.14157 -0.42154,-0.15745 -0.48905,-0.0565 -0.12188,0.18217 -0.67135,0.18147 -0.79462,-0.001 -0.0744,-0.1102 -0.17865,-0.10715 -0.47284,0.0138 -0.31159,0.12815 -0.4397,0.12942 -0.7351,0.007 -0.29638,-0.12256 -0.39208,-0.12025 -0.55795,0.0135 -0.15654,0.12619 -0.26007,0.13158 -0.47458,0.0247 -0.37264,-0.18566 -0.0644,-0.22638 2.21932,-0.29322 1.81028,-0.053 1.85265,-0.0483 1.95446,0.2171 0.123,0.32057 -0.10346,0.3465 -0.64964,0.0744 z m -24.67892,-4.74101 c -0.0832,-0.04146 -0.1513,-0.270453 -0.1513,-0.508867 0,-0.38699 0.0609,-0.433479 0.5674,-0.433479 0.52118,0 0.56741,0.04146 0.56741,0.508867 0,0.418059 -0.0742,0.508867 -0.4161,0.508867 -0.22885,0 -0.48419,-0.03392 -0.56741,-0.07539 z m 18.5732,-0.308956 c -2.15161,-0.339032 -3.68831,-1.001108 -4.61973,-1.99037 -1.23883,-1.315777 -0.52248,-3.101869 1.60858,-4.010706 0.51339,-0.218948 0.99239,-0.367991 1.06444,-0.331209 0.072,0.03678 -0.18247,0.20185 -0.5656,0.366819 -1.16576,0.501958 -1.88306,1.070622 -2.24958,1.783438 -0.599,1.164923 0.0897,2.276755 1.96285,3.168826 1.17946,0.561707 2.02332,0.784859 3.76168,0.994739 0.8938,0.107915 1.09174,0.158388 0.6261,0.159658 -0.37449,10e-4 -1.08942,-0.06252 -1.58874,-0.141195 z m -3.17193,-2.664376 c -0.0969,-0.07814 0.56269,-0.117704 1.96697,-0.117979 1.16205,-2.26e-4 3.59375,-0.03218 5.40378,-0.071 2.20041,-0.0472 3.21576,-0.033 3.06401,0.04283 -0.32082,0.160329 -10.24476,0.299324 -10.43476,0.146149 z m 1.75307,-4.442937 c 0.0676,-0.101337 0.94029,-0.150284 3.08293,-0.172905 2.55812,-0.02701 2.98868,-0.0066 2.98868,0.141352 0,0.146666 -0.46785,0.172905 -3.08292,0.172905 -2.36529,0 -3.06099,-0.0329 -2.98869,-0.141352 z m -0.28337,-1.369499 c 0,-0.185943 1.57537,-0.296065 4.25557,-0.297472 1.45011,-7.92e-4 1.87245,0.03455 1.87245,0.156541 0,0.24874 -0.53484,0.294803 -3.42302,0.294803 -2.13007,0 -2.705,-0.0327 -2.705,-0.153872 z m 0,-0.8108 v -0.279226 h 3.06401 c 2.9127,0 3.06401,0.01117 3.06401,0.226163 0,0.208524 -0.1549,0.226581 -1.98594,0.231517 -1.09226,0.0029 -2.47106,0.02682 -3.064,0.05306 -1.02092,0.04518 -1.07808,0.0329 -1.07808,-0.231517 z m 0,-0.844634 c 0,-0.194326 0.15176,-0.226258 1.07808,-0.226841 0.59294,-3.39e-4 1.92068,-0.03336 2.95052,-0.0733 l 1.87245,-0.07262 v 0.299464 0.299465 h -2.95052 c -2.79922,0 -2.95053,-0.0116 -2.95053,-0.226163 z m -0.45393,-6.146355 V 81.57709 l 1.73647,-0.07313 c 3.67524,-0.154789 3.93762,-0.117602 3.93762,0.558063 v 0.273455 h -2.83704 -2.83705 z m -0.22696,-2.617471 v -0.508817 h 1.32849 c 0.73066,0 1.95627,-0.03269 2.72356,-0.07265 l 1.39507,-0.07265 v 0.51084 c 0,0.481677 -0.0405,0.514877 -0.70926,0.581518 -0.39009,0.03887 -1.61569,0.07068 -2.72356,0.07068 h -2.0143 z m -0.30262,-5.672928 c -0.0832,-0.04146 -0.15131,-0.339867 -0.15131,-0.663118 v -0.587732 l 1.05301,-0.07191 c 0.57916,-0.03955 1.68857,-0.07191 2.46536,-0.07191 h 1.41233 l 0.14854,0.62968 c 0.0817,0.346322 0.0897,0.677086 0.0179,0.73503 -0.14756,0.118956 -4.71167,0.146608 -4.94578,0.02996 z m -0.0902,-7.692526 c 0.22083,-0.02867 0.52723,-0.02679 0.68089,0.0042 0.15366,0.03098 -0.027,0.05443 -0.4015,0.05213 -0.37449,-0.0023 -0.50022,-0.02765 -0.27939,-0.05632 z"
         id="path1101" />
      <path
         style="fill:#a0b3d0;stroke-width:0.160204"
         d="m 132.76089,113.47728 c -10e-4,-0.11767 -0.20449,-1.99497 -0.45167,-4.17179 -0.24719,-2.17682 -0.45045,-4.19957 -0.45168,-4.495 l -0.002,-0.53714 1.87245,-0.005 c 1.02985,-0.003 2.28098,-0.0501 2.7803,-0.10521 0.49932,-0.0552 1.5574,-0.16742 2.35128,-0.24947 l 1.44343,-0.14919 -0.13641,-0.56545 c -0.075,-0.31099 -0.1373,-0.70019 -0.13839,-0.86489 l -0.002,-0.29944 -4.18612,0.0617 -4.18612,0.0617 -0.11242,-0.27107 c -0.0618,-0.14909 -0.16092,-0.86526 -0.22019,-1.59148 l -0.10777,-1.320412 0.86442,-0.07276 c 1.43338,-0.120657 3.45829,-0.676421 4.58925,-1.259584 2.37853,-1.22645 2.99713,-2.88238 1.62322,-4.34519 -0.75197,-0.800625 -2.37613,-1.689212 -3.70488,-2.026955 -0.9538,-0.242437 -0.91877,-0.151719 -1.28403,-3.325541 l -0.15479,-1.344954 2.70208,0.06327 c 4.24166,0.09932 7.02095,0.58792 8.98304,1.579221 2.3924,1.208706 2.5886,2.56538 0.75658,5.231438 -1.76389,2.5669 -1.66787,2.812899 2.07367,5.312772 3.80906,2.544985 5.2429,3.921755 6.00814,5.768995 1.7559,4.23865 -2.66279,7.59267 -11.48793,8.71993 -1.77196,0.22633 -3.05347,0.30367 -5.84431,0.35267 -3.3991,0.0597 -3.57479,0.0523 -3.57693,-0.15116 z m -5.9671,-9.50451 c 0.0637,-0.0827 0.53295,-0.13689 1.16555,-0.13453 0.5824,0.002 2.56802,-0.0193 4.41249,-0.0476 3.4827,-0.0536 4.80457,0.0759 1.92467,0.18848 -3.61393,0.14132 -7.61382,0.13795 -7.50271,-0.006 z m 0.12504,-1.36051 c 0.21845,-0.0284 0.57592,-0.0284 0.79437,0 0.21845,0.0284 0.0397,0.0517 -0.39718,0.0517 -0.43691,0 -0.61564,-0.0233 -0.39719,-0.0517 z m 5.67721,-0.11628 c 0.345,-0.026 0.85567,-0.0253 1.13482,0.002 0.27915,0.0268 -0.003,0.0481 -0.62727,0.0473 -0.62415,-9e-4 -0.85255,-0.0228 -0.50755,-0.0488 z m -6.64181,-27.719645 v -0.695768 h 2.46736 2.46736 l 0.15406,0.578609 c 0.0847,0.318235 0.1134,0.598862 0.0637,0.623614 -0.0497,0.02475 -1.22931,0.07747 -2.62141,0.117158 l -2.53109,0.07215 z m 2.9306,0.104334 c 0.27222,-0.08586 0.26612,-0.128189 -0.0405,-0.280972 -0.45052,-0.224465 -0.53752,-0.224472 -0.71037,-5.8e-5 -0.24997,0.32456 0.14463,0.472244 0.7509,0.28103 z m -3.47852,-7.654497 c -0.0861,-0.473588 -0.11899,-0.879814 -0.073,-0.902723 0.046,-0.02291 1.11547,-0.07535 2.37663,-0.116525 l 2.29302,-0.07487 0.0751,0.912857 0.0751,0.912857 -0.65252,0.06474 c -0.35889,0.0356 -1.39167,0.06474 -2.29507,0.06474 h -1.64255 z"
         id="path1099" />
      <path
         style="fill:#b469d3;stroke-width:0.160204"
         d="m 129.13026,97.382806 c -1.07431,-0.162819 -1.97486,-0.448785 -2.68841,-0.853695 -0.39302,-0.223025 -0.71458,-0.454613 -0.71458,-0.514645 0,-0.06003 0.54633,-0.109146 1.21406,-0.109146 0.66773,0 1.99546,-0.03291 2.95052,-0.07314 l 1.73647,-0.07313 v 0.864704 0.864706 l -0.96459,-0.0097 c -0.53053,-0.0053 -1.22059,-0.04852 -1.53347,-0.09594 z m -4.08388,-2.527596 c 0,-0.457182 0.61194,-1.314757 1.22299,-1.713913 0.71133,-0.464651 2.13819,-0.810036 3.68515,-0.892023 l 1.16323,-0.06165 0.16273,1.358403 c 0.0895,0.747122 0.12777,1.373272 0.0851,1.391443 -0.0427,0.01817 -1.482,0.06806 -3.19841,0.110852 l -3.12075,0.07781 z m 1.50958,-11.441631 c -0.49671,-0.644915 -0.10848,-0.735061 3.17508,-0.737265 l 2.30155,-0.0015 0.0927,0.395786 0.0927,0.395785 h -1.73846 c -0.95615,0 -2.19687,0.03131 -2.75716,0.06957 -0.83126,0.05677 -1.04589,0.03426 -1.16649,-0.122331 z"
         id="path1097" />
      <path
         style="fill:#181818;stroke-width:0.160204"
         d="m 122.94468,113.81942 c -4.15547,-0.37433 -6.70554,-1.02217 -9.49303,-2.41169 -3.2961,-1.64305 -4.45735,-3.19386 -4.23211,-5.65186 0.20306,-2.21606 1.07388,-3.31356 5.93097,-7.474848 1.28135,-1.097795 1.38435,-1.237098 1.37967,-1.865847 -0.004,-0.568355 -0.18333,-0.873659 -1.0951,-1.866835 -2.05082,-2.233923 -2.26871,-2.574731 -2.27729,-3.562071 -0.009,-1.084498 0.39919,-1.603961 2.03903,-2.592215 1.74144,-1.049491 2.8222,-1.531456 4.23284,-1.887643 1.45485,-0.367351 4.57665,-0.77643 5.93444,-0.777644 l 0.88514,-7.93e-4 -0.14939,-1.950658 c -0.0822,-1.072862 -0.40328,-5.639946 -0.7136,-10.149075 -0.31031,-4.50913 -0.62396,-8.325124 -0.697,-8.479988 -0.073,-0.154865 -0.2477,-0.316958 -0.38816,-0.360207 -0.1603,-0.04936 -0.48094,-1.502185 -0.86128,-3.902449 -0.59599,-3.761252 -0.59884,-3.827689 -0.17413,-4.060675 0.39059,-0.214265 0.77077,-0.243831 3.98514,-0.309914 3.41508,-0.07021 3.57064,-0.06381 3.99748,0.164462 0.54525,0.291595 0.55298,0.41343 0.29638,4.670261 -0.17876,2.965463 -0.23692,3.291494 -0.62415,3.498582 -0.33453,0.178905 -0.42697,0.401333 -0.42678,1.026889 1.7e-4,0.559171 1.84234,15.073864 2.4973,19.676533 4.5e-4,0.0036 1.25165,0.01121 2.7803,0.01682 3.01725,0.01108 4.92275,0.196262 6.87467,0.668089 1.66352,0.402116 3.38421,1.251685 4.08932,2.019053 0.56803,0.618179 0.59318,0.723701 0.51074,2.14271 -0.0819,1.410399 -0.13933,1.566858 -1.04332,2.843915 -0.52614,0.743272 -0.95539,1.455686 -0.95388,1.583142 0.004,0.334025 0.76824,0.951648 3.11817,2.519755 4.06809,2.714641 5.32098,4.136871 5.7545,6.532341 0.46697,2.58032 0.48003,3.03096 0.11309,3.90131 -0.58921,1.39757 -1.72176,2.39713 -3.97252,3.50606 -3.60702,1.77716 -7.25809,2.42509 -14.66193,2.60201 -6.00713,0.14354 -10.58363,0.11911 -12.65551,-0.0675 z m 9.29835,-1.03667 c -0.0738,-0.54421 -0.31061,-2.67034 -0.52626,-4.72475 l -0.3921,-3.73528 -2.74196,-0.002 c -1.50808,-10e-4 -3.41845,-0.0442 -4.24526,-0.0956 l -1.50331,-0.0934 -0.154,-0.84674 c -0.0847,-0.4657 -0.10442,-0.87143 -0.0438,-0.90162 0.0606,-0.0302 1.98872,-0.0826 4.28471,-0.11638 l 4.17453,-0.0615 -0.0802,-0.91667 c -0.0441,-0.50418 -0.13426,-1.22362 -0.20031,-1.598777 l -0.1201,-0.682096 -1.34952,-0.127781 c -1.90918,-0.180772 -3.31816,-0.552736 -4.70689,-1.242597 -2.26736,-1.126327 -3.00506,-2.516274 -2.11253,-3.980333 0.40777,-0.66887 0.71895,-0.925241 1.86209,-1.534096 0.75488,-0.40206 1.56932,-0.762142 1.80987,-0.800181 0.41663,-0.06588 0.43129,-0.163946 0.30933,-2.068724 -0.17633,-2.753969 0.0247,-2.519615 -2.08858,-2.43478 -4.96755,0.199416 -8.77043,1.159798 -10.13509,2.559518 -1.25225,1.284421 -1.00719,2.301262 1.11028,4.606961 2.32682,2.533642 2.30058,2.663871 -1.11579,5.537895 -3.54069,2.978611 -4.41494,4.161851 -4.60465,6.232131 -0.21935,2.39383 0.95484,4.01696 4.00637,5.53816 3.61608,1.80264 7.50572,2.44858 14.86173,2.46804 l 3.83563,0.0102 z m 9.9391,0.49301 c 3.35451,-0.42848 5.76138,-1.07304 7.85307,-2.10306 3.52272,-1.73471 4.73964,-3.94999 3.63486,-6.61687 -0.76524,-1.84724 -2.19908,-3.22401 -6.00814,-5.768994 -3.74154,-2.499873 -3.83756,-2.745872 -2.07367,-5.312771 1.83202,-2.666059 1.63582,-4.022733 -0.75658,-5.231439 -1.96209,-0.9913 -4.74138,-1.4799 -8.98304,-1.579221 l -2.70208,-0.06327 0.15479,1.344954 c 0.36526,3.173823 0.33023,3.083104 1.28403,3.325541 1.32875,0.337743 2.95291,1.22633 3.70488,2.026955 1.37391,1.46281 0.75531,3.11874 -1.62322,4.345191 -1.13096,0.583163 -3.15587,1.138926 -4.58925,1.259583 l -0.86442,0.07276 0.10777,1.320411 c 0.0593,0.72622 0.15835,1.44239 0.22019,1.59148 l 0.11242,0.27107 4.18612,-0.0617 4.18612,-0.0616 0.002,0.29944 c 10e-4,0.16469 0.0634,0.55389 0.13839,0.86489 l 0.13641,0.56545 -1.44343,0.14918 c -0.79388,0.082 -1.85196,0.19431 -2.35128,0.24947 -0.49932,0.0552 -1.75045,0.1025 -2.7803,0.10521 l -1.87252,0.005 0.002,0.53714 c 0.001,0.29543 0.20449,2.31818 0.45168,4.495 0.24718,2.17682 0.45044,4.05412 0.45167,4.17179 0.002,0.20342 0.17783,0.21084 3.57693,0.15116 2.79084,-0.049 4.07235,-0.12634 5.84431,-0.35268 z m -8.18469,-9.18986 c 1.91118,-0.0583 2.34907,-0.10104 2.02124,-0.19745 -0.45799,-0.13468 -7.56744,-0.17814 -7.56769,-0.0463 -9e-5,0.0427 -0.34251,0.05 -0.76094,0.0162 -0.56836,-0.046 -0.79618,-0.0156 -0.90073,0.12019 -0.12322,0.15998 0.15346,0.1817 2.31422,0.1817 1.34979,0 3.55205,-0.0335 4.8939,-0.0744 z m -7.57436,-0.15577 c 0.31997,-0.0853 0.43901,-0.23784 0.43901,-0.5625 0,-0.3789 -0.10004,-0.47122 -0.66962,-0.61797 -0.36829,-0.0949 -0.90449,-0.1726 -1.19156,-0.17268 -0.49347,-1.2e-4 -0.51755,0.0353 -0.44147,0.65022 0.0443,0.3577 0.19745,0.68775 0.34044,0.73345 0.37069,0.11846 1.01274,0.10559 1.5232,-0.0305 z m -2.32997,-0.64624 c -0.0616,-0.58844 -0.11972,-0.65386 -0.61169,-0.68851 -0.5125,-0.0361 -0.53539,-0.0134 -0.39969,0.39579 0.0792,0.23874 0.14507,0.54857 0.14644,0.68851 0.002,0.1807 0.13732,0.25443 0.46775,0.25443 0.42298,0 0.45907,-0.0591 0.39719,-0.65022 z m 14.07125,-0.23866 c 0.0622,-0.63855 0.0297,-0.69426 -0.40448,-0.69426 -0.25962,0 -0.82623,0.0737 -1.25913,0.16385 -0.81018,0.16866 -0.9499,0.3702 -0.64692,0.93319 0.15481,0.28765 1.12745,0.49006 1.78903,0.37229 0.37571,-0.0669 0.46557,-0.20042 0.5215,-0.77507 z m 1.54289,0.28024 c -0.071,-0.13171 -0.1304,-0.40485 -0.1321,-0.60699 -0.002,-0.29161 -0.0968,-0.36751 -0.45703,-0.36751 -0.40229,0 -0.45392,0.0754 -0.45392,0.66281 0,0.65163 0.01,0.66186 0.58603,0.60699 0.46705,-0.0445 0.55984,-0.10444 0.45702,-0.2953 z m -11.85523,0.0998 c 0.0796,-0.10332 4.5e-4,-0.16962 -0.20268,-0.16962 -0.18333,0 -0.33332,0.0763 -0.33332,0.16962 0,0.0933 0.0912,0.16962 0.20268,0.16962 0.11147,0 0.26147,-0.0763 0.33332,-0.16962 z m 2.75635,-0.12855 c -0.1884,-0.0939 -0.52112,-0.1469 -0.73937,-0.11785 -0.33577,0.0447 -0.31826,0.0654 0.11384,0.13452 0.28087,0.045 0.51067,0.12967 0.51067,0.18829 0,0.0586 0.10291,0.0749 0.2287,0.0361 0.14176,-0.0436 0.0985,-0.13531 -0.11384,-0.2411 z m -1.47665,0.0155 c 0.23584,-0.14158 0.20408,-0.16962 -0.19205,-0.16962 -0.32861,0 -0.43441,0.0522 -0.34395,0.16962 0.0718,0.0933 0.15828,0.16962 0.19205,0.16962 0.0338,0 0.18855,-0.0763 0.34395,-0.16962 z m 6.17883,-0.12545 c -0.0905,-0.23592 -0.18112,-0.24492 -1.94533,-0.19328 -2.34967,0.0688 -2.6689,0.11475 -2.14114,0.30843 0.24467,0.0898 1.09693,0.14115 2.28577,0.13774 1.82504,-0.005 1.8921,-0.0147 1.8007,-0.25289 z m -3.68223,0.0689 c 0,-0.0622 0.0961,-0.11308 0.21357,-0.11308 0.11747,0 0.27669,0.0509 0.35384,0.11308 0.0772,0.0622 -0.0189,0.11308 -0.21356,0.11308 -0.19462,0 -0.35385,-0.0509 -0.35385,-0.11308 z m 1.2483,0 c 0.0772,-0.0622 0.23638,-0.11308 0.35385,-0.11308 0.11746,0 0.21356,0.0509 0.21356,0.11308 0,0.0622 -0.15923,0.11308 -0.35384,0.11308 -0.19461,0 -0.29072,-0.0509 -0.21357,-0.11308 z m 1.2483,0 c 0,-0.0622 0.10214,-0.11308 0.22697,-0.11308 0.12483,0 0.22696,0.0509 0.22696,0.11308 0,0.0622 -0.10213,0.11308 -0.22696,0.11308 -0.12483,0 -0.22697,-0.0509 -0.22697,-0.11308 z m 0.96296,-0.73158 c 0.34238,-0.0114 0.67561,-0.0471 0.74051,-0.0795 0.17703,-0.0882 -6.62158,0.029 -8.05845,0.13889 -1.02657,0.0785 4.51783,0.0335 7.31794,-0.0594 z m -5.56092,-4.307569 c -1.73836,-0.20988 -2.58222,-0.433032 -3.76168,-0.994739 -3.00961,-1.433302 -2.88494,-3.586597 0.28673,-4.952264 0.38313,-0.164969 0.63765,-0.330038 0.5656,-0.366819 -0.29243,-0.149287 -2.03381,0.766892 -2.61634,1.376518 -1.27063,1.329719 -0.68922,2.986903 1.41116,4.022229 1.3046,0.643068 3.22688,1.078861 4.74063,1.074733 0.46564,-0.0013 0.2677,-0.05174 -0.6261,-0.159658 z m 4.25752,-0.211367 c 1.63818,-0.367141 2.49053,-0.772006 3.2778,-1.556969 0.5933,-0.591558 0.69406,-0.818107 0.69406,-1.56055 0,-0.736856 -0.1022,-0.970436 -0.67417,-1.540716 -0.37079,-0.369701 -0.95805,-0.803778 -1.30504,-0.964616 -0.90902,-0.421364 -1.87917,-0.710924 -1.87917,-0.560877 0,0.06935 0.0982,0.126087 0.21825,0.126087 0.47779,0 2.315,1.034519 2.84547,1.602262 0.77459,0.829005 0.77866,1.852569 0.0105,2.638299 -0.70076,0.716782 -1.1636,1.003765 -1.46777,0.910103 -0.13465,-0.04146 -0.19248,-0.0093 -0.13213,0.07349 0.15194,0.208432 -1.50565,0.760001 -3.02661,1.00711 -0.80806,0.131285 -0.99001,0.184982 -0.49037,0.14472 0.4369,-0.03521 1.30504,-0.178459 1.92919,-0.31834 z m -2.15616,-1.381348 v -0.864704 l -1.73647,0.07313 c -0.95506,0.04022 -2.28279,0.07314 -2.95052,0.07314 -0.66773,0 -1.21406,0.04912 -1.21406,0.109146 0,0.189493 1.39977,0.912569 2.13164,1.101132 1.01638,0.261869 1.71368,0.35215 2.80482,0.363145 l 0.96459,0.0097 z m 2.21595,0.372569 c 0.63468,-0.208135 1.8694,-0.964473 1.8694,-1.145122 0,-0.03243 -0.81707,-0.05897 -1.81571,-0.05897 h -1.81571 v 0.799192 c 0,0.775834 0.0149,0.796979 0.51067,0.72349 0.28087,-0.04164 0.84397,-0.185003 1.25135,-0.318595 z m 1.98288,-1.571916 c 0.15175,-0.07584 -0.8636,-0.09003 -3.06401,-0.04283 -1.81003,0.03883 -4.24173,0.07078 -5.40378,0.071 -1.40428,2.26e-4 -2.0639,0.03984 -1.96697,0.117979 0.19,0.153175 10.11394,0.01418 10.43476,-0.146149 z m -5.70575,-0.423065 1.33012,-6.79e-4 -0.16385,-1.385249 c -0.0901,-0.761888 -0.18183,-1.395636 -0.2038,-1.408329 -0.022,-0.0127 -0.68563,0.02239 -1.4748,0.07797 -0.9385,0.06609 -1.75995,0.209791 -2.37463,0.415396 -0.51687,0.172891 -1.02395,0.301925 -1.12685,0.286742 -0.1029,-0.01518 -0.13288,0.01611 -0.0666,0.06953 0.0663,0.05342 -0.078,0.296974 -0.3205,0.54122 -0.24254,0.244246 -0.50956,0.69338 -0.59339,0.998078 l -0.1524,0.553995 1.90829,-0.074 c 1.04956,-0.0407 2.50684,-0.07431 3.23841,-0.07468 z m 5.9767,-0.155369 c 0.0242,-0.01158 -0.0574,-0.248674 -0.18137,-0.526864 -0.42014,-0.943009 -1.97217,-1.775837 -3.70064,-1.985788 l -0.66053,-0.08023 0.14987,1.051916 c 0.0824,0.578552 0.14986,1.20332 0.14986,1.388373 v 0.336458 l 2.09941,-0.0814 c 1.15468,-0.04477 2.11921,-0.09088 2.1434,-0.102465 z m -4.95857,-2.858904 c 1.5433,-0.05458 2.07754,-0.113583 2.07754,-0.229446 0,-0.126308 -0.5714,-0.14997 -3.00447,-0.124419 -2.65146,0.02785 -3.01341,0.0548 -3.08065,0.229446 -0.0879,0.228453 0.52651,0.24753 4.00758,0.124419 z m 2.07754,-0.891003 c 0,-0.147994 -0.43056,-0.168358 -2.98868,-0.141352 -2.14264,0.02262 -3.01536,0.07157 -3.08293,0.172905 -0.0723,0.108449 0.6234,0.141352 2.98869,0.141352 2.61507,0 3.08292,-0.02624 3.08292,-0.172905 z m -0.0432,-0.703477 c -0.0421,-0.108841 -0.25382,-0.193653 -0.47057,-0.18847 -0.21674,0.0052 -1.56861,0.0179 -3.00416,0.02827 -2.15195,0.01554 -2.61008,0.04862 -2.61008,0.18847 0,0.142444 0.4936,0.169622 3.08065,0.169622 2.81179,0 3.07398,-0.01727 3.00416,-0.197892 z m -0.54276,-0.549237 c 0.19745,-0.03775 0.35901,-0.139524 0.35901,-0.226163 0,-0.121995 -0.42234,-0.157302 -1.87245,-0.156541 -2.6802,0.0014 -4.25557,0.111529 -4.25557,0.297472 0,0.121167 0.57493,0.153872 2.705,0.153872 1.48775,0 2.86655,-0.03089 3.06401,-0.06864 z m -1.62693,-0.717578 c 1.83104,-0.0049 1.98594,-0.02299 1.98594,-0.231517 0,-0.214994 -0.15131,-0.226163 -3.06401,-0.226163 h -3.06401 v 0.279226 c 0,0.264421 0.0572,0.276697 1.07808,0.231517 0.59294,-0.02624 1.97174,-0.05012 3.064,-0.05306 z m 1.75897,-1.09639 v -0.299464 l -1.87245,0.07262 c -1.02984,0.03994 -2.35758,0.07293 -2.95052,0.0733 -0.92632,5.66e-4 -1.07808,0.03252 -1.07808,0.226841 0,0.214565 0.15131,0.226163 2.95053,0.226163 h 2.95052 z m -3.3962,-0.656776 c -0.15086,-0.09057 -0.20841,-0.217784 -0.12788,-0.282704 0.095,-0.07658 -0.29664,-0.118034 -1.11528,-0.118034 -1.19449,0 -1.26169,0.01506 -1.26169,0.282704 0,0.270767 0.0587,0.282704 1.38957,0.282704 1.19086,0 1.35035,-0.02355 1.11528,-0.16467 z m 2.65857,0.05313 c 0.63467,-0.0013 0.73763,-0.041 0.73763,-0.284248 0,-0.262116 -0.0785,-0.282577 -1.07807,-0.280973 -1.44233,0.0023 -1.5893,0.06388 -1.44471,0.605136 0.0144,0.0539 0.25598,0.06732 0.53685,0.02981 0.28087,-0.0375 0.8426,-0.06888 1.2483,-0.06973 z m -0.47783,-0.880098 c 0.88667,-0.04979 0.98854,-0.08603 0.9889,-0.351779 l 4.5e-4,-0.296269 -2.95092,0.03456 -2.95093,0.03456 v 0.338768 0.338769 l 1.96203,-0.02154 c 1.07912,-0.01185 2.40686,-0.04653 2.95053,-0.07706 z m 0.87502,-1.269997 v -0.282704 l -2.89379,-0.03165 -2.89379,-0.03165 v 0.346001 0.346002 l 2.89379,-0.03165 2.89379,-0.03165 z m -0.15517,-1.107057 0.0718,-0.372028 -2.00099,0.03278 c -1.96553,0.0322 -2.00099,0.03779 -2.00099,0.315486 0,0.156807 -0.12634,0.277669 -0.2837,0.271396 -0.62774,-0.02502 -0.73763,-0.05041 -0.73763,-0.170413 0,-0.06885 0.14799,-0.09688 0.32888,-0.0623 0.21982,0.04203 0.28704,0.0085 0.20268,-0.100983 -0.0694,-0.09013 -0.37061,-0.163863 -0.66933,-0.163863 -0.45339,0 -0.54313,0.05663 -0.54313,0.342726 v 0.342725 l 2.78031,-0.03175 2.7803,-0.03175 z m -1.78838,0.137245 c -0.24606,-0.147718 -0.2411,-0.195833 0.029,-0.280972 0.61153,-0.192797 1.00729,-0.04658 0.75623,0.279386 -0.17517,0.22744 -0.40819,0.227911 -0.78518,0.0016 z m 4.5e-4,-0.839493 h 1.73846 l -0.0927,-0.395786 -0.0927,-0.395786 -2.30155,0.0015 c -2.71022,0.0018 -3.32288,0.06482 -3.32288,0.341647 0,0.494171 0.24555,0.59094 1.31429,0.517954 0.56029,-0.03826 1.80101,-0.06957 2.75716,-0.06957 z m 1.60265,-1.404272 c 0,-0.675665 -0.26238,-0.712852 -3.93762,-0.558063 l -1.73647,0.07313 v 0.379193 0.379192 h 2.83705 2.83704 z m -1.55545,-0.970442 h 1.32849 V 80.56962 c 0,-0.486207 -0.0351,-0.517375 -0.51067,-0.453872 -0.28087,0.0375 -1.50647,0.06888 -2.72356,0.06973 l -2.2129,0.0015 v 0.524977 0.524975 l 1.39508,-0.07265 c 0.76729,-0.03996 1.99289,-0.07265 2.72356,-0.07265 z m 0.39226,-1.314574 c 0.66877,-0.06664 0.70926,-0.09984 0.70926,-0.581518 v -0.51084 l -1.39507,0.07265 c -0.76729,0.03996 -1.9929,0.07265 -2.72356,0.07265 h -1.32849 v 0.508867 0.508868 h 2.0143 c 1.10787,0 2.33347,-0.0318 2.72356,-0.07068 z m 0.59488,-1.428281 c 0.0189,-0.0152 -0.01,-0.276186 -0.0644,-0.579959 l -0.0988,-0.552314 -1.50673,0.07091 c -0.8287,0.039 -1.99186,0.07127 -2.58481,0.07172 l -1.07807,8.04e-4 v 0.582063 0.582063 l 2.64916,-0.07382 c 1.45704,-0.0406 2.66465,-0.08626 2.68358,-0.101466 z m -3.20382,-0.361474 c -0.15811,-0.205284 0.0715,-0.401202 0.47027,-0.401202 0.34407,0 0.64458,0.307407 0.45216,0.462531 -0.19838,0.159928 -0.7819,0.121131 -0.92243,-0.06133 z m 3.02894,-1.125332 c 0.0282,-0.01332 -0.013,-0.294222 -0.0914,-0.624234 l -0.14263,-0.600024 -1.01831,0.06954 c -0.56007,0.03825 -1.71899,0.06954 -2.57538,0.06954 h -1.55707 v 0.54656 c 0,0.30061 0.0766,0.585713 0.17023,0.633565 0.14063,0.07188 5.05092,-0.01753 5.2146,-0.09495 z m -0.23233,-1.579177 c 0.0497,-0.02475 0.021,-0.305379 -0.0637,-0.623614 l -0.15406,-0.578609 h -2.46736 -2.46736 v 0.695768 0.695767 L 128.48535,75.4 c 1.3921,-0.03968 2.57173,-0.09241 2.62141,-0.117158 z m -2.98369,-0.400495 c -0.1714,-0.138173 0.0925,-0.462531 0.37635,-0.462531 0.12483,0 0.17017,0.07374 0.10076,0.163863 -0.0844,0.109522 -0.0171,0.143011 0.20268,0.100983 0.18089,-0.03458 0.32888,-0.01199 0.32888,0.0502 0,0.0622 -0.16155,0.14397 -0.359,0.181721 -0.46663,0.08921 -0.49863,0.08753 -0.64967,-0.03424 z m 2.70131,-1.246372 c 0.0719,-0.05794 0.0639,-0.388708 -0.0179,-0.73503 l -0.14853,-0.62968 h -1.41233 c -0.77679,0 -1.8862,0.03236 -2.46536,0.07191 l -1.05301,0.07191 v 0.587732 c 0,0.323251 0.0681,0.621656 0.15131,0.663118 0.23411,0.116645 4.79822,0.08899 4.94578,-0.02996 z m -1.88491,-1.703954 h 1.79366 l -0.15083,-0.763301 c -0.083,-0.419816 -0.17245,-0.776784 -0.19886,-0.793263 -0.0264,-0.01648 -1.08485,0.0039 -2.35208,0.04527 l -2.30407,0.07523 v 0.788708 0.788709 l 0.70926,-0.07068 c 0.39009,-0.03887 1.51641,-0.07068 2.50292,-0.07068 z m 1.47352,-1.960104 c 0.0181,-0.01036 -0.0191,-0.375032 -0.0827,-0.810396 l -0.11564,-0.791571 -2.35717,0.03555 -2.35717,0.03555 v 0.856268 0.856269 l 2.43986,-0.08142 c 1.34192,-0.04478 2.45468,-0.08989 2.4728,-0.100243 z m -0.91243,-1.949408 0.65252,-0.06474 -0.0751,-0.912857 -0.0751,-0.912857 -2.29302,0.07487 c -1.26116,0.04118 -2.33064,0.09361 -2.37663,0.116525 -0.046,0.02291 -0.0131,0.429135 0.073,0.902723 l 0.15661,0.861069 h 1.64255 c 0.9034,0 1.93618,-0.02913 2.29507,-0.06474 z m -3.03132,-2.044907 c -0.15366,-0.03098 -0.46006,-0.03286 -0.68089,-0.0042 -0.22083,0.02867 -0.0951,0.05401 0.27939,0.05632 0.37449,0.0023 0.55516,-0.02115 0.4015,-0.05213 z m 3.298,-0.400768 c 0.1498,-0.07463 0.27236,-0.255265 0.27236,-0.401402 0,-0.146137 0.14173,-0.403115 0.31495,-0.571062 0.23082,-0.22379 0.38714,-1.293689 0.58521,-4.005228 0.14864,-2.034927 0.20451,-3.752875 0.12415,-3.817661 -0.20046,-0.161599 -7.17422,-0.01995 -7.52372,0.152814 -0.39801,0.196753 0.84287,7.472711 1.35244,7.930124 0.20787,0.186585 0.37857,0.45374 0.37933,0.593679 0.001,0.245568 0.075,0.254434 2.11216,0.254434 1.33909,0 2.21034,-0.04961 2.38312,-0.135698 z m -4.80393,-2.448448 c -0.30899,-0.170114 -0.31977,-0.234463 -0.068,-0.406005 0.38064,-0.259356 1.28593,-0.141963 1.28593,0.166752 0,0.334499 -0.77012,0.485784 -1.21791,0.239253 z m 4.10745,-0.101543 c -0.29678,-0.16392 -0.30827,-0.231866 -0.0669,-0.395786 0.16027,-0.108841 0.36403,-0.197892 0.45281,-0.197892 0.20124,0 0.80988,0.297439 0.80988,0.395785 0,0.08012 -0.59258,0.395786 -0.74298,0.395786 -0.052,0 -0.25575,-0.08905 -0.45282,-0.197893 z m -4.42155,-2.006727 c -0.15603,-0.0883 -0.2837,-0.191774 -0.2837,-0.229939 0,-0.09183 0.6085,-0.392482 0.79437,-0.392482 0.0803,0 0.29181,0.0727 0.47014,0.161546 0.17833,0.08885 0.32423,0.194258 0.32423,0.23424 0,0.106738 -0.61794,0.39649 -0.8349,0.391485 -0.10254,-0.0024 -0.3141,-0.07655 -0.47014,-0.16485 z m 4.78714,-0.107794 c 0.0843,-0.109522 0.0171,-0.143011 -0.20268,-0.100983 -0.42621,0.08149 -0.42443,-0.156033 0.003,-0.368875 0.2737,-0.136373 0.41248,-0.140087 0.79437,-0.02126 0.54709,0.17023 0.57655,0.275181 0.13849,0.493438 -0.42114,0.209825 -0.89518,0.208325 -0.73295,-0.0023 z m -5.20962,-2.033297 c -0.22598,-0.29341 0.0908,-0.535915 0.64843,-0.496459 0.37511,0.02654 0.51168,0.111657 0.51168,0.318905 0,0.207248 -0.13657,0.292367 -0.51168,0.318906 -0.30692,0.02171 -0.56641,-0.03485 -0.64843,-0.141352 z m 5.16639,-0.04989 c -0.5064,-0.162524 -0.215,-0.523445 0.42262,-0.523445 0.44979,0 0.5643,0.05706 0.5643,0.281155 0,0.296909 -0.46276,0.410517 -0.98692,0.24229 z m -19.86416,39.761881 c -0.0753,-0.139939 -0.13825,-0.470702 -0.13995,-0.735031 -0.003,-0.423013 0.0581,-0.480782 0.50757,-0.48214 0.28086,-9.05e-4 0.74047,-0.03223 1.02133,-0.06973 0.49457,-0.06603 0.51067,-0.04281 0.51067,0.736576 v 0.80476 h -0.88138 c -0.72217,0 -0.90611,-0.04596 -1.01824,-0.254435 z m 1.44569,-0.480597 c 0,-0.467404 -0.0462,-0.508867 -0.56741,-0.508867 -0.50655,0 -0.5674,0.04649 -0.5674,0.433479 0,0.487058 0.11956,0.584255 0.71871,0.584255 0.34185,0 0.4161,-0.09081 0.4161,-0.508867 z"
         id="path1089" />
    </g>
  </g>
</svg>
