<?xml version="1.0" encoding="UTF-8" standalone="no"?>
<svg
   xmlns:dc="http://purl.org/dc/elements/1.1/"
   xmlns:cc="http://creativecommons.org/ns#"
   xmlns:rdf="http://www.w3.org/1999/02/22-rdf-syntax-ns#"
   xmlns:svg="http://www.w3.org/2000/svg"
   xmlns="http://www.w3.org/2000/svg"
   width="64"
   height="64"
   viewBox="0 0 16.933333 16.933334"
   version="1.1"
   id="svg8">
  <defs
     id="defs2">
    <pattern
       y="0"
       x="0"
       height="6"
       width="6"
       patternUnits="userSpaceOnUse"
       id="EMFhbasepattern" />
  </defs>
  <metadata
     id="metadata5">
    <rdf:RDF>
      <cc:Work
         rdf:about="">
        <dc:format>image/svg+xml</dc:format>
        <dc:type
           rdf:resource="http://purl.org/dc/dcmitype/StillImage" />
        <dc:title></dc:title>
      </cc:Work>
    </rdf:RDF>
  </metadata>
  <g
     id="layer1"
     transform="translate(0,-280.06665)">
    <text
       id="text880"
       y="290.68137"
       x="12.384888"
       style="font-style:normal;font-variant:normal;font-weight:400;font-size:0.942176px;line-height:125%;font-family:'Times New Roman';text-align:start;letter-spacing:0px;word-spacing:0px;text-anchor:start;fill:#000000;fill-opacity:1;stroke:none;stroke-width:0.058886"
       xml:space="preserve"
       transform="scale(0.99031093,1.0097839)"><tspan
         id="tspan878"
         y="290.68137"
         x="12.384888"
         style="stroke-width:0.058886"><tspan
           id="tspan876"
           style="font-style:normal;font-variant:normal;font-weight:400;font-size:0.942176px;font-family:'Times New Roman';fill:#000000;stroke-width:0.058886"
           dy="0"
           dx="0"> </tspan></tspan></text>
    <path
       id="path882"
       d="m 11.97418,292.6907 3.608073,2.99774 -0.03979,0.718 -3.607837,-2.99778 z m 3.588182,3.35673 -0.12575,-1.23123 0.496122,1.53882 -0.615238,0.61606 z"
       style="fill:#ff7f2a;fill-opacity:1;fill-rule:nonzero;stroke:#000000;stroke-width:0.14839882;stroke-linecap:butt;stroke-linejoin:bevel;stroke-miterlimit:4;stroke-dasharray:none;stroke-opacity:1" />
    <g
       id="g1912"
       transform="matrix(1.1080915,0,0,1.1023718,-7.0538237,-3.4026818)">
      <path
         id="path907"
         d="m 10.172043,269.89309 c -1.2348293,-1.14895 -2.2680289,-2.12831 -2.2959987,-2.17636 -0.02797,-0.0481 -0.2444153,-1.37498 -0.4809897,-2.94872 -0.3245595,-2.15905 -0.4122712,-2.86706 -0.3573538,-2.88456 0.1087943,-0.0347 1.5206304,-0.78254 3.7758122,-2.00007 1.106536,-0.5974 2.133519,-1.14631 2.282187,-1.2198 l 0.270304,-0.13361 2.414224,1.90325 c 1.327823,1.04679 2.469527,1.92115 2.53712,1.94302 0.06759,0.0219 0.138491,0.0991 0.157553,0.17159 0.01906,0.0725 0.03502,1.37861 0.03545,2.90246 7.14e-4,2.56482 -0.0068,2.77744 -0.101256,2.86211 -0.157099,0.1408 -5.787847,3.6254 -5.896318,3.64894 -0.06023,0.0131 -0.92613,-0.75202 -2.340738,-2.06825 z"
         style="fill:#ffccaa;fill-opacity:1;stroke:#000000;stroke-width:0.2003051;stroke-miterlimit:4;stroke-dasharray:none;stroke-opacity:1" />
      <path
         id="path899"
         d="m 12.264371,271.69042 c -0.108391,-0.12958 -0.944971,-0.92318 -1.859066,-1.76356 -0.9140948,-0.84038 -1.8407106,-1.69398 -2.0591465,-1.89689 l -0.3971563,-0.36893 -0.4017316,-2.66908 c -0.2209525,-1.46799 -0.4206058,-2.76273 -0.443674,-2.87719 -0.039765,-0.19732 -0.036304,-0.20349 0.066648,-0.11893 0.059725,0.0491 1.1203893,0.9815 2.3570318,2.0721 1.2366426,1.09061 2.2899836,2.00562 2.3407566,2.03336 0.09589,0.0524 0.379654,-0.10735 4.475358,-2.5195 1.036839,-0.61065 1.918332,-1.11026 1.958872,-1.11026 0.0895,0 0.150573,1.67796 0.150573,4.13685 v 1.62028 l -2.977614,1.84867 c -1.637687,1.01677 -2.985749,1.84868 -2.995694,1.84868 -0.0099,0 -0.106765,-0.10602 -0.215157,-0.2356 z"
         style="fill:#ffb380;fill-opacity:1;stroke:#000000;stroke-width:0.37056443;stroke-miterlimit:4;stroke-dasharray:none;stroke-opacity:1" />
      <path
         id="path897"
         d="m 12.363688,271.73899 c -0.02761,-0.13047 -0.501771,-5.34303 -0.500895,-5.50647 2.42e-4,-0.0409 0.03904,-0.0743 0.08627,-0.0743 0.04723,0 1.496054,-0.8276 3.219607,-1.83911 1.723553,-1.01151 3.154459,-1.82605 3.179791,-1.81009 0.02533,0.016 0.04606,1.3082 0.04606,2.87162 v 2.8426 l -2.898091,1.80057 c -1.593951,0.99031 -2.944221,1.81287 -3.000601,1.8279 -0.07165,0.0191 -0.111429,-0.0148 -0.13214,-0.11269 z"
         style="fill:#ff7f2a;fill-opacity:1;stroke:#000000;stroke-width:0.1257471;stroke-miterlimit:4;stroke-dasharray:none;stroke-opacity:1" />
      <text
         transform="matrix(0.98467473,0.10757983,-0.10550526,1.0040369,0,0)"
         id="text917"
         y="257.62088"
         x="36.875187"
         style="font-style:normal;font-variant:normal;font-weight:normal;font-stretch:normal;font-size:2.35544px;line-height:1.25;font-family:Brigherdz;-inkscape-font-specification:Brigherdz;letter-spacing:0px;word-spacing:0px;fill:#000000;fill-opacity:1;stroke:none;stroke-width:0.058886"
         xml:space="preserve"><tspan
           style="stroke:#000000;stroke-width:0.058886;stroke-opacity:1"
           y="257.62088"
           x="36.875187"
           id="tspan915">Tweak</tspan></text>
      <text
         transform="matrix(0.9292898,0.11399151,-0.09957089,1.0638767,0,0)"
         id="text917-7"
         y="243.20839"
         x="35.632004"
         style="font-style:normal;font-variant:normal;font-weight:normal;font-stretch:normal;font-size:2.638px;line-height:1.25;font-family:Brigherdz;-inkscape-font-specification:Brigherdz;letter-spacing:0px;word-spacing:0px;fill:#e12b2a;fill-opacity:1;stroke:none;stroke-width:0.0659499"
         xml:space="preserve"><tspan
           style="fill:#e12b2a;fill-opacity:1;stroke:#000000;stroke-width:0.0659499;stroke-opacity:1"
           y="243.20839"
           x="35.632004"
           id="tspan915-7">Tweak</tspan></text>
    </g>
  </g>
</svg>
