<?xml version="1.0" encoding="UTF-8" standalone="no"?>
<svg
   xmlns:dc="http://purl.org/dc/elements/1.1/"
   xmlns:cc="http://creativecommons.org/ns#"
   xmlns:rdf="http://www.w3.org/1999/02/22-rdf-syntax-ns#"
   xmlns:svg="http://www.w3.org/2000/svg"
   xmlns="http://www.w3.org/2000/svg"
   width="64"
   height="64"
   viewBox="0 0 16.933333 16.933334"
   version="1.1"
   id="svg8">
  <defs
     id="defs2" />
  <metadata
     id="metadata5">
    <rdf:RDF>
      <cc:Work
         rdf:about="">
        <dc:format>image/svg+xml</dc:format>
        <dc:type
           rdf:resource="http://purl.org/dc/dcmitype/StillImage" />
        <dc:title></dc:title>
      </cc:Work>
    </rdf:RDF>
  </metadata>
  <g
     id="layer1"
     transform="translate(0,-280.06665)">
    <g
       id="g874"
       transform="matrix(0.95620607,0,0,0.99279899,-64.075125,190.96472)">
      <g
         style="fill:#d35f5f;fill-opacity:1;fill-rule:nonzero;stroke:none;stroke-width:14.15433025;stroke-miterlimit:4;stroke-dasharray:none;stroke-opacity:1"
         id="g817">
        <path
           points="67.21162,93.054931 67.82637,102.34034 73.656316,99.76844 73.975465,90.071032 "
           d="m 73.975465,90.071032 -6.763845,2.983899 0.61475,9.285409 5.829946,-2.5719 z"
           style="fill:#353564;fill-rule:evenodd;stroke:none;stroke-width:6.20949888;stroke-linejoin:round"
           id="path819" />
        <path
           points="78.499966,102.83773 71.950542,105.72704 67.82637,102.34034 73.656316,99.76844 "
           d="m 73.656316,99.76844 4.84365,3.06929 -6.549424,2.88931 -4.124172,-3.3867 z"
           style="fill:#e9e9ff;fill-rule:evenodd;stroke:none;stroke-width:6.20949888;stroke-linejoin:round"
           id="path829" />
        <path
           points="79.754969,92.287337 78.499966,102.83773 73.656316,99.76844 73.975465,90.071032 "
           d="m 73.975465,90.071032 5.779504,2.216305 -1.255003,10.550393 -4.84365,-3.06929 z"
           style="fill:#4d4d9f;fill-rule:evenodd;stroke:none;stroke-width:6.20949888;stroke-linejoin:round"
           id="path821" />
        <path
           points="72.003148,95.707086 71.950542,105.72704 67.82637,102.34034 67.21162,93.054931 "
           d="m 67.21162,93.054931 4.791528,2.652155 -0.05261,10.019954 -4.124172,-3.3867 z"
           style="fill:#ffb380;fill-rule:evenodd;stroke:#000000;stroke-width:0.4105382;stroke-linejoin:round;stroke-opacity:1;stroke-miterlimit:4;stroke-dasharray:none"
           id="path827" />
        <path
           points="72.003148,95.707086 71.950542,105.72704 78.499966,102.83773 79.754969,92.287337 "
           d="m 79.754969,92.287337 -7.751821,3.419749 -0.05261,10.019954 6.549424,-2.88931 z"
           style="fill:#ffccaa;fill-rule:evenodd;stroke:#000000;stroke-width:0.4105382;stroke-linejoin:round;stroke-opacity:1;stroke-miterlimit:4;stroke-dasharray:none"
           id="path825" />
        <path
           points="79.754969,92.287337 72.003148,95.707086 67.21162,93.054931 73.975465,90.071032 "
           d="m 73.975465,90.071032 5.779504,2.216305 -7.751821,3.419749 -4.791528,-2.652155 z"
           style="fill:#ff6600;fill-rule:evenodd;stroke:#000000;stroke-width:0.4105382;stroke-linejoin:round;stroke-opacity:1;stroke-miterlimit:4;stroke-dasharray:none"
           id="path823" />
      </g>
      <path
         points="78.614452,104.7051 93.483239,98.835763 95.689532,79.214005 78.091006,86.160884 "
         d="M 78.091006,86.160884 78.614452,104.7051 93.483239,98.835763 95.689532,79.214005 Z"
         style="fill:#ff6600;fill-opacity:1;fill-rule:evenodd;stroke:#000000;stroke-width:0.84717059;stroke-linejoin:round;stroke-miterlimit:4;stroke-dasharray:none;stroke-opacity:1"
         id="path825-2"
         transform="matrix(0.43478239,0,0,0.540124,42.509122,50.398053)" />
    </g>
  </g>
</svg>
