<?xml version="1.0" encoding="UTF-8" standalone="no"?>
<svg
   xmlns:dc="http://purl.org/dc/elements/1.1/"
   xmlns:cc="http://creativecommons.org/ns#"
   xmlns:rdf="http://www.w3.org/1999/02/22-rdf-syntax-ns#"
   xmlns:svg="http://www.w3.org/2000/svg"
   xmlns="http://www.w3.org/2000/svg"
   width="64"
   height="64"
   viewBox="0 0 16.933333 16.933334"
   version="1.1"
   id="svg8">
  <defs
     id="defs2" />
  <metadata
     id="metadata5">
    <rdf:RDF>
      <cc:Work
         rdf:about="">
        <dc:format>image/svg+xml</dc:format>
        <dc:type
           rdf:resource="http://purl.org/dc/dcmitype/StillImage" />
        <dc:title></dc:title>
      </cc:Work>
    </rdf:RDF>
  </metadata>
  <g
     id="layer1"
     transform="translate(0,-280.06665)">
    <g
       id="g874"
       transform="translate(-67.143083,190.03935)">
      <g
         style="fill:#d35f5f;fill-opacity:1;fill-rule:nonzero;stroke:none;stroke-width:14.15433025;stroke-miterlimit:4;stroke-dasharray:none;stroke-opacity:1"
         id="g817">
        <path
           points="67.211621,93.054934 67.826371,102.34035 73.656317,99.768442 73.975465,90.071035 "
           d="m 73.975465,90.071035 -6.763844,2.983899 0.61475,9.285416 5.829946,-2.571908 z"
           style="fill:#353564;fill-rule:evenodd;stroke:none;stroke-width:6.20949888;stroke-linejoin:round"
           id="path819" />
        <path
           points="78.499967,102.83774 71.950543,105.72704 67.826371,102.34035 73.656317,99.768442 "
           d="m 73.656317,99.768442 4.84365,3.069298 -6.549424,2.8893 -4.124172,-3.38669 z"
           style="fill:#e9e9ff;fill-rule:evenodd;stroke:none;stroke-width:6.20949888;stroke-linejoin:round"
           id="path829" />
        <path
           points="79.75497,92.28734 78.499967,102.83774 73.656317,99.768442 73.975465,90.071035 "
           d="m 73.975465,90.071035 5.779505,2.216305 -1.255003,10.5504 -4.84365,-3.069298 z"
           style="fill:#4d4d9f;fill-rule:evenodd;stroke:none;stroke-width:6.20949888;stroke-linejoin:round"
           id="path821" />
        <path
           points="72.003148,95.707089 71.950543,105.72704 67.826371,102.34035 67.211621,93.054934 "
           d="m 67.211621,93.054934 4.791527,2.652155 -0.0526,10.019951 -4.124172,-3.38669 z"
           style="fill:#ff9955;fill-rule:evenodd;stroke:#000000;stroke-width:0.3;stroke-linejoin:round;stroke-opacity:1;stroke-miterlimit:4;stroke-dasharray:none"
           id="path827" />
        <path
           points="72.003148,95.707089 71.950543,105.72704 78.499967,102.83774 79.75497,92.28734 "
           d="m 79.75497,92.28734 -7.751822,3.419749 -0.0526,10.019951 6.549424,-2.8893 z"
           style="fill:#ffccaa;fill-rule:evenodd;stroke:#000000;stroke-width:0.3;stroke-linejoin:round;stroke-opacity:1;stroke-miterlimit:4;stroke-dasharray:none"
           id="path825" />
        <path
           points="79.75497,92.28734 72.003148,95.707089 67.211621,93.054934 73.975465,90.071035 "
           d="m 73.975465,90.071035 5.779505,2.216305 -7.751822,3.419749 -4.791527,-2.652155 z"
           style="fill:#d45500;fill-rule:evenodd;stroke:#000000;stroke-width:0.3;stroke-linejoin:round;stroke-opacity:1;stroke-miterlimit:4;stroke-dasharray:none"
           id="path823" />
      </g>
      <path
         points="95.689532,79.214005 78.091006,86.160884 78.614452,104.7051 93.483239,98.835763 "
         d="M 93.483239,98.835763 95.689532,79.214005 78.091006,86.160884 78.614452,104.7051 Z"
         style="fill:#ffe680;fill-opacity:1;fill-rule:evenodd;stroke:#000000;stroke-width:0.61906827;stroke-linejoin:round;stroke-miterlimit:4;stroke-dasharray:none;stroke-opacity:1"
         id="path825-2"
         transform="matrix(0.43478239,0,0,0.540124,42.509122,50.398053)" />
    </g>
  </g>
</svg>
