<?xml version="1.0" encoding="UTF-8" standalone="no"?>
<svg
   xmlns:dc="http://purl.org/dc/elements/1.1/"
   xmlns:cc="http://creativecommons.org/ns#"
   xmlns:rdf="http://www.w3.org/1999/02/22-rdf-syntax-ns#"
   xmlns:svg="http://www.w3.org/2000/svg"
   xmlns="http://www.w3.org/2000/svg"
   width="64"
   height="64"
   viewBox="0 0 16.933333 16.933333"
   version="1.1"
   id="svg8">
  <defs
     id="defs2" />
  <metadata
     id="metadata5">
    <rdf:RDF>
      <cc:Work
         rdf:about="">
        <dc:format>image/svg+xml</dc:format>
        <dc:type
           rdf:resource="http://purl.org/dc/dcmitype/StillImage" />
        <dc:title></dc:title>
      </cc:Work>
    </rdf:RDF>
  </metadata>
  <g
     id="layer1"
     transform="translate(0,-280.06667)">
    <g
       id="g4414"
       style="stroke:#000000;stroke-width:0.1;stroke-miterlimit:4;stroke-dasharray:none;stroke-opacity:1"
       transform="matrix(0.21245163,0,0,0.3475003,-1.3371662,258.30754)">
      <g
         id="g4346"
         style="stroke:#000000;stroke-width:0.1;stroke-miterlimit:4;stroke-dasharray:none;stroke-opacity:1">
        <g
           id="g4279"
           style="stroke:#000000;stroke-width:0.1;stroke-miterlimit:4;stroke-dasharray:none;stroke-opacity:1">
          <g
             id="g4213"
             style="stroke:#000000;stroke-width:0.1;stroke-miterlimit:4;stroke-dasharray:none;stroke-opacity:1">
            <g
               id="g4148"
               style="stroke:#000000;stroke-width:0.1;stroke-miterlimit:4;stroke-dasharray:none;stroke-opacity:1">
              <g
                 id="g4084"
                 style="stroke:#000000;stroke-width:0.1;stroke-miterlimit:4;stroke-dasharray:none;stroke-opacity:1">
                <g
                   id="g4021"
                   style="stroke:#000000;stroke-width:0.1;stroke-miterlimit:4;stroke-dasharray:none;stroke-opacity:1">
                  <g
                     id="g3959"
                     style="stroke:#000000;stroke-width:0.1;stroke-miterlimit:4;stroke-dasharray:none;stroke-opacity:1">
                    <g
                       id="g3898"
                       style="stroke:#000000;stroke-width:0.1;stroke-miterlimit:4;stroke-dasharray:none;stroke-opacity:1">
                      <g
                         id="g3838"
                         style="stroke:#000000;stroke-width:0.1;stroke-miterlimit:4;stroke-dasharray:none;stroke-opacity:1">
                        <g
                           id="g3779"
                           style="stroke:#000000;stroke-width:0.1;stroke-miterlimit:4;stroke-dasharray:none;stroke-opacity:1">
                          <g
                             id="g3547"
                             style="stroke:#000000;stroke-width:0.1;stroke-miterlimit:4;stroke-dasharray:none;stroke-opacity:1">
                            <g
                               id="g3490"
                               style="stroke:#000000;stroke-width:0.1;stroke-miterlimit:4;stroke-dasharray:none;stroke-opacity:1">
                              <g
                                 id="g3434"
                                 style="stroke:#000000;stroke-width:0.1;stroke-miterlimit:4;stroke-dasharray:none;stroke-opacity:1">
                                <g
                                   id="g3379"
                                   style="stroke:#000000;stroke-width:0.1;stroke-miterlimit:4;stroke-dasharray:none;stroke-opacity:1">
                                <g
                                   id="g3325"
                                   style="stroke:#000000;stroke-width:0.1;stroke-miterlimit:4;stroke-dasharray:none;stroke-opacity:1">
                                <g
                                   id="g3272"
                                   style="stroke:#000000;stroke-width:0.1;stroke-miterlimit:4;stroke-dasharray:none;stroke-opacity:1">
                                <g
                                   id="g3220"
                                   style="stroke:#000000;stroke-width:0.1;stroke-miterlimit:4;stroke-dasharray:none;stroke-opacity:1">
                                <g
                                   id="g3169"
                                   style="stroke:#000000;stroke-width:0.1;stroke-miterlimit:4;stroke-dasharray:none;stroke-opacity:1">
                                <g
                                   id="g3119"
                                   style="stroke:#000000;stroke-width:0.1;stroke-miterlimit:4;stroke-dasharray:none;stroke-opacity:1">
                                <g
                                   id="g3070"
                                   style="stroke:#000000;stroke-width:0.1;stroke-miterlimit:4;stroke-dasharray:none;stroke-opacity:1">
                                <g
                                   id="g3022"
                                   style="stroke:#000000;stroke-width:0.1;stroke-miterlimit:4;stroke-dasharray:none;stroke-opacity:1">
                                <g
                                   id="g2975"
                                   style="stroke:#000000;stroke-width:0.1;stroke-miterlimit:4;stroke-dasharray:none;stroke-opacity:1">
                                <g
                                   id="g2929"
                                   style="stroke:#000000;stroke-width:0.1;stroke-miterlimit:4;stroke-dasharray:none;stroke-opacity:1">
                                <g
                                   id="g2884"
                                   style="stroke:#000000;stroke-width:0.1;stroke-miterlimit:4;stroke-dasharray:none;stroke-opacity:1">
                                <g
                                   id="g2840"
                                   style="stroke:#000000;stroke-width:0.1;stroke-miterlimit:4;stroke-dasharray:none;stroke-opacity:1">
                                <g
                                   id="g2797"
                                   style="stroke:#000000;stroke-width:0.1;stroke-miterlimit:4;stroke-dasharray:none;stroke-opacity:1">
                                <g
                                   id="g2755"
                                   style="stroke:#000000;stroke-width:0.1;stroke-miterlimit:4;stroke-dasharray:none;stroke-opacity:1">
                                <g
                                   id="g2714"
                                   style="stroke:#000000;stroke-width:0.1;stroke-miterlimit:4;stroke-dasharray:none;stroke-opacity:1">
                                <g
                                   transform="translate(-2.271791,-2.271791)"
                                   id="g2674"
                                   style="stroke:#000000;stroke-width:0.1;stroke-miterlimit:4;stroke-dasharray:none;stroke-opacity:1">
                                <g
                                   id="g2635"
                                   style="stroke:#000000;stroke-width:0.1;stroke-miterlimit:4;stroke-dasharray:none;stroke-opacity:1">
                                <g
                                   id="g2597"
                                   style="stroke:#000000;stroke-width:0.1;stroke-miterlimit:4;stroke-dasharray:none;stroke-opacity:1">
                                <g
                                   id="g2560"
                                   style="stroke:#000000;stroke-width:0.1;stroke-miterlimit:4;stroke-dasharray:none;stroke-opacity:1">
                                <g
                                   id="g2524"
                                   style="stroke:#000000;stroke-width:0.1;stroke-miterlimit:4;stroke-dasharray:none;stroke-opacity:1">
                                <g
                                   id="g2489"
                                   style="stroke:#000000;stroke-width:0.1;stroke-miterlimit:4;stroke-dasharray:none;stroke-opacity:1">
                                <g
                                   id="g2455"
                                   style="stroke:#000000;stroke-width:0.1;stroke-miterlimit:4;stroke-dasharray:none;stroke-opacity:1">
                                <g
                                   id="g2422"
                                   style="stroke:#000000;stroke-width:0.1;stroke-miterlimit:4;stroke-dasharray:none;stroke-opacity:1">
                                <g
                                   id="g2390"
                                   style="stroke:#000000;stroke-width:0.1;stroke-miterlimit:4;stroke-dasharray:none;stroke-opacity:1">
                                <g
                                   id="g2359"
                                   style="stroke:#000000;stroke-width:0.1;stroke-miterlimit:4;stroke-dasharray:none;stroke-opacity:1">
                                <g
                                   id="g2329"
                                   style="stroke:#000000;stroke-width:0.1;stroke-miterlimit:4;stroke-dasharray:none;stroke-opacity:1">
                                <g
                                   id="g2300"
                                   style="stroke:#000000;stroke-width:0.1;stroke-miterlimit:4;stroke-dasharray:none;stroke-opacity:1">
                                <g
                                   id="g2272"
                                   style="stroke:#000000;stroke-width:0.1;stroke-miterlimit:4;stroke-dasharray:none;stroke-opacity:1">
                                <g
                                   id="g2245"
                                   style="stroke:#000000;stroke-width:0.1;stroke-miterlimit:4;stroke-dasharray:none;stroke-opacity:1">
                                <g
                                   id="g2219"
                                   style="stroke:#000000;stroke-width:0.1;stroke-miterlimit:4;stroke-dasharray:none;stroke-opacity:1">
                                <g
                                   id="g2194"
                                   style="stroke:#000000;stroke-width:0.1;stroke-miterlimit:4;stroke-dasharray:none;stroke-opacity:1">
                                <g
                                   id="g2170"
                                   style="stroke:#000000;stroke-width:0.1;stroke-miterlimit:4;stroke-dasharray:none;stroke-opacity:1">
                                <g
                                   id="g2147"
                                   style="stroke:#000000;stroke-width:0.1;stroke-miterlimit:4;stroke-dasharray:none;stroke-opacity:1">
                                <g
                                   id="g2125"
                                   style="stroke:#000000;stroke-width:0.1;stroke-miterlimit:4;stroke-dasharray:none;stroke-opacity:1">
                                <g
                                   id="g2000"
                                   transform="translate(9.3544336,0.80180862)"
                                   style="stroke:#000000;stroke-width:0.1;stroke-miterlimit:4;stroke-dasharray:none;stroke-opacity:1">
                                <g
                                   id="g2104"
                                   style="stroke:#000000;stroke-width:0.1;stroke-miterlimit:4;stroke-dasharray:none;stroke-opacity:1">
                                <g
                                   id="g2091"
                                   style="stroke:#000000;stroke-width:0.1;stroke-miterlimit:4;stroke-dasharray:none;stroke-opacity:1">
                                <g
                                   id="g2079"
                                   style="stroke:#000000;stroke-width:0.1;stroke-miterlimit:4;stroke-dasharray:none;stroke-opacity:1">
                                <g
                                   id="g2068"
                                   style="stroke:#000000;stroke-width:0.1;stroke-miterlimit:4;stroke-dasharray:none;stroke-opacity:1">
                                <g
                                   id="g2058"
                                   style="stroke:#000000;stroke-width:0.1;stroke-miterlimit:4;stroke-dasharray:none;stroke-opacity:1">
                                <g
                                   id="g2049"
                                   style="stroke:#000000;stroke-width:0.1;stroke-miterlimit:4;stroke-dasharray:none;stroke-opacity:1">
                                <g
                                   id="g2041"
                                   style="stroke:#000000;stroke-width:0.1;stroke-miterlimit:4;stroke-dasharray:none;stroke-opacity:1">
                                <g
                                   id="g2034"
                                   style="stroke:#000000;stroke-width:0.1;stroke-miterlimit:4;stroke-dasharray:none;stroke-opacity:1">
                                <g
                                   id="g2028"
                                   style="stroke:#000000;stroke-width:0.1;stroke-miterlimit:4;stroke-dasharray:none;stroke-opacity:1">
                                <g
                                   id="g2023"
                                   style="stroke:#000000;stroke-width:0.1;stroke-miterlimit:4;stroke-dasharray:none;stroke-opacity:1">
                                <g
                                   id="g2019"
                                   style="stroke:#000000;stroke-width:0.1;stroke-miterlimit:4;stroke-dasharray:none;stroke-opacity:1" />
                                </g>
                                </g>
                                </g>
                                </g>
                                </g>
                                </g>
                                </g>
                                </g>
                                </g>
                                </g>
                                <path
                                   style="fill:#d45500;fill-opacity:1;stroke:#000000;stroke-width:0.1;stroke-miterlimit:4;stroke-dasharray:none;stroke-opacity:1"
                                   d="m 4.1330796,68.547436 c 2.3751336,-2.717778 3.8815647,-4.230344 4.2645046,-4.281873 0.8334998,-0.112157 18.3017608,5.08127 18.8809858,5.613438 0.261902,0.240625 2.894174,4.034545 5.849496,8.430933 2.955319,4.396388 5.528679,8.121994 5.718575,8.279124 0.248655,0.205752 1.838156,0.08849 5.680668,-0.419072 l 5.335403,-0.704762 1.028827,0.829207 1.028828,0.829207 0.02399,-2.815385 c 0.01319,-1.548461 -0.104521,-3.344736 -0.261585,-3.991721 -0.367235,-1.51273 -0.04549,-4.617269 0.478049,-4.612809 0.422429,0.0036 0.959896,1.817346 0.94326,3.183151 -0.0062,0.509289 -0.03108,2.116479 -0.05525,3.571534 -0.0242,1.455055 0.02437,3.342933 0.107901,4.195285 0.14738,1.503824 0.215469,1.617086 2.29861,3.823629 l 2.14673,2.273901 9.62458,1.48098 c 12.762336,1.963804 11.480496,1.887125 11.392013,0.681468 -0.07265,-0.989975 0.08066,-1.135105 0.870679,-0.824201 0.451691,0.17776 0.576182,1.431861 0.141769,1.42816 -0.145515,-0.0012 -0.266602,0.235862 -0.269081,0.526894 -0.0025,0.291031 0.11455,0.530161 0.260065,0.531401 0.170124,0.0014 0.240799,2.623231 0.197974,7.344145 -0.04389,4.83794 -0.152916,7.20579 -0.31969,6.94284 -0.139199,-0.21948 -0.255986,-0.27314 -0.259525,-0.11926 -0.0041,0.17612 -3.938014,-0.32452 -10.616545,-1.35107 -5.835561,-0.89698 -10.668827,-1.57314 -10.740592,-1.50259 -0.226767,0.22293 1.815105,2.56773 2.452447,2.81628 1.056194,0.4119 1.610314,2.12383 0.684892,2.11595 -0.651436,-0.006 -1.640006,-0.75426 -1.635876,-1.23895 0.0038,-0.45059 -2.834259,-3.8264 -3.219673,-3.82968 -0.136283,-0.001 -0.684707,0.46845 -1.218721,1.04358 l -0.970934,1.0457 -5.743419,0.74925 c -3.15888,0.41209 -5.92192,0.74773 -6.14009,0.74587 -0.369072,-0.003 -4.893948,-3.7033 -5.615442,-4.59195 -0.286492,-0.35286 -0.690296,-0.3482 -3.538305,0.0409 -1.768197,0.24156 -3.540464,0.57081 -3.938367,0.73167 -1.087356,0.43958 -3.55667,0.21515 -3.655836,-0.33228 -0.104138,-0.57487 2.027743,-1.27744 3.660336,-1.20627 1.339441,0.0584 6.090068,-0.51997 6.091956,-0.74166 6.74e-4,-0.0791 -0.240859,-0.40593 -0.536741,-0.72631 -0.474706,-0.514 -0.556704,-1.06857 -0.697334,-4.71617 -0.08903,-2.309205 -0.283165,-4.259591 -0.439856,-4.418975 C 33.268487,95.220006 28.345833,93.556685 22.483521,91.680653 16.621212,89.804622 11.604554,88.071922 11.335395,87.830207 11.066236,87.588492 8.5040268,84.361227 5.6415971,80.658507 2.3647306,76.41969 0.4415313,73.708392 0.44892591,73.337963 0.45628164,72.969613 1.8337902,71.17843 4.1330796,68.547436 Z M 80.06201,68.184559 c 0,2e-6 5e-6,-2e-6 5e-6,0 z"
                                   id="path2014" />
                                <g
                                   id="g4533"
                                   style="stroke:#000000;stroke-width:0.1;stroke-miterlimit:4;stroke-dasharray:none;stroke-opacity:1">
                                <g
                                   id="g4523"
                                   style="stroke:#000000;stroke-width:0.1;stroke-miterlimit:4;stroke-dasharray:none;stroke-opacity:1">
                                <g
                                   id="g4514"
                                   style="stroke:#000000;stroke-width:0.1;stroke-miterlimit:4;stroke-dasharray:none;stroke-opacity:1">
                                <g
                                   id="g4506"
                                   style="stroke:#000000;stroke-width:0.1;stroke-miterlimit:4;stroke-dasharray:none;stroke-opacity:1">
                                <g
                                   id="g4499"
                                   style="stroke:#000000;stroke-width:0.1;stroke-miterlimit:4;stroke-dasharray:none;stroke-opacity:1">
                                <g
                                   id="g4493"
                                   style="stroke:#000000;stroke-width:0.1;stroke-miterlimit:4;stroke-dasharray:none;stroke-opacity:1">
                                <g
                                   id="g4488"
                                   style="stroke:#000000;stroke-width:0.1;stroke-miterlimit:4;stroke-dasharray:none;stroke-opacity:1">
                                <g
                                   id="g4484"
                                   style="stroke:#000000;stroke-width:0.1;stroke-miterlimit:4;stroke-dasharray:none;stroke-opacity:1">
                                <path
                                   style="fill:#ffccaa;fill-opacity:1;stroke:#000000;stroke-width:0.1;stroke-miterlimit:4;stroke-dasharray:none;stroke-opacity:1"
                                   d="m 4.200247,68.680305 c 2.0613742,-2.383619 3.9648261,-4.367843 4.2298894,-4.409385 0.517311,-0.08108 16.7819286,4.617637 18.1188346,5.234381 0.603949,0.278614 2.147703,2.368233 6.243122,8.450663 2.992425,4.444287 5.633444,8.2836 5.868931,8.531805 0.401848,0.423552 0.761616,0.406735 5.854701,-0.27367 l 5.426539,-0.724953 0.982841,0.976212 c 0.540561,0.536916 1.023632,0.924762 1.07349,0.86188 0.04986,-0.06288 -0.006,-1.782091 -0.124038,-3.820462 -0.368205,-6.356221 -0.213188,-8.236241 0.595033,-7.216302 0.408324,0.515291 0.830077,2.913999 0.594107,3.378981 -0.113317,0.223293 -0.131585,2.227136 -0.04061,4.452983 l 0.165432,4.046995 2.014443,2.257212 c 1.107944,1.241469 2.270028,2.314636 2.58241,2.384813 1.601647,0.359828 21.120684,3.244062 21.22959,3.136996 0.06997,-0.06879 9.87e-4,-0.365855 -0.1533,-0.660143 -0.3501,-0.66778 -0.07407,-1.446602 0.440885,-1.243947 0.210716,0.08292 0.432904,0.15119 0.49376,0.151709 0.06086,5.18e-4 0.108112,0.298588 0.105013,0.662377 -0.0031,0.363789 -0.124693,0.66042 -0.270209,0.65918 -0.145515,-0.0012 -0.266602,0.235862 -0.269081,0.526894 -0.0025,0.291031 0.11455,0.530161 0.260065,0.531401 0.170529,0.0015 0.234916,2.611957 0.181138,7.343995 -0.04589,4.03796 -0.138114,7.20509 -0.204943,7.03806 -0.06683,-0.16703 -0.325231,-0.25227 -0.574228,-0.18941 -0.248996,0.0628 -5.070752,-0.59518 -10.715012,-1.4623 -5.644261,-0.86711 -10.328335,-1.51164 -10.409054,-1.43228 -0.238786,0.23475 1.773012,2.57366 2.436168,2.83228 1.056194,0.4119 1.610314,2.12383 0.684892,2.11595 -0.651436,-0.006 -1.640006,-0.75426 -1.635876,-1.23895 0.0043,-0.50502 -2.857205,-3.8266 -3.299822,-3.83037 -0.180364,-0.002 -0.728718,0.45978 -1.218563,1.02514 l -0.890629,1.02793 -6.033669,0.78492 -6.033669,0.78492 -1.634243,-1.405 c -0.898833,-0.77275 -2.165668,-1.91856 -2.815188,-2.54626 l -1.180946,-1.14126 -3.528142,0.48847 c -1.94048,0.26866 -3.751291,0.60546 -4.024024,0.74845 -0.548307,0.28746 -2.369254,0.33439 -3.021111,0.0779 -1.325962,-0.52182 0.831444,-1.46842 3.563685,-1.56363 1.09177,-0.038 2.926751,-0.21257 4.077736,-0.38782 l 2.092697,-0.31865 -0.708463,-0.8557 c -0.68034,-0.82172 -0.714736,-1.01844 -0.866542,-4.955893 -0.08694,-2.255109 -0.212902,-4.153888 -0.27991,-4.219506 C 33.517368,95.231255 29.009652,93.755657 23.567229,92.01777 18.124806,90.279882 13.180603,88.67308 12.580111,88.447099 11.617333,88.084783 10.835399,87.190387 5.9636149,80.878992 2.9250342,76.942513 0.44192976,73.562547 0.44560638,73.367958 0.44928301,73.173368 2.1388703,71.063924 4.200247,68.680305 Z m 39.266421,35.327825 c 0.07266,1.85656 0.209017,3.41934 0.303026,3.47284 0.09401,0.0535 2.435752,-0.20345 5.20388,-0.57102 l 5.032959,-0.66831 -0.02686,-4.99841 c -0.01477,-2.749134 -0.127019,-5.1003 -0.249432,-5.224818 -0.204442,-0.207955 -9.928982,0.911792 -10.400293,1.197556 -0.113637,0.0689 -0.159084,0.865822 -0.100996,1.770933 0.05809,0.905115 0.165062,3.164669 0.237717,5.021229 z M 80.06201,68.184559 c 0,2e-6 5e-6,-2e-6 5e-6,0 z"
                                   id="path2012" />
                                </g>
                                </g>
                                </g>
                                </g>
                                </g>
                                </g>
                                </g>
                                </g>
                                <path
                                   style="fill:#d45500;fill-opacity:1;stroke:#000000;stroke-width:0.1;stroke-miterlimit:4;stroke-dasharray:none;stroke-opacity:1"
                                   d="m 4.2481721,68.945306 c 2.0736398,-2.383514 3.970816,-4.367791 4.2159489,-4.409504 0.4125667,-0.0702 16.392932,4.516042 17.992564,5.163731 0.515507,0.208728 2.28663,2.630746 6.407873,8.762798 3.132502,4.660888 5.826191,8.530943 5.985974,8.600122 0.159783,0.06918 2.720281,-0.196985 5.689998,-0.591476 l 5.39948,-0.717257 0.933126,0.926832 c 0.51322,0.509758 1.061214,0.927924 1.217765,0.929257 0.36076,0.0031 0.24704,-5.637269 -0.152794,-7.578377 -0.284592,-1.381634 -0.09622,-3.272054 0.325681,-3.26846 0.336932,0.0029 0.778755,2.426642 0.529395,2.904178 -0.116584,0.223266 -0.137795,2.223813 -0.04713,4.445661 l 0.164839,4.039723 2.045658,2.29219 c 1.125113,1.260705 2.289671,2.391881 2.587909,2.513724 0.298238,0.121843 5.23935,0.930488 10.980249,1.796986 5.740899,0.866501 10.645823,1.639118 10.899831,1.716929 0.675562,0.206947 0.646563,2.652237 -0.03394,2.861855 -0.260612,0.08028 -5.760054,-0.668021 -12.220983,-1.662888 -6.460929,-0.994864 -11.845372,-1.712275 -11.96543,-1.594247 -0.242474,0.23838 0.05027,9.693437 0.30825,9.955847 0.08948,0.091 5.427746,0.9719 11.862812,1.95752 8.282986,1.26865 11.815885,1.90979 12.096491,2.19521 0.218004,0.22175 0.343546,0.44753 0.278984,0.50172 -0.06456,0.0542 -4.873806,-0.6355 -10.687207,-1.53266 -5.813401,-0.89717 -11.224636,-1.63728 -12.024966,-1.64469 -1.381145,-0.0128 -1.493769,0.0378 -2.214617,0.99558 l -0.759471,1.00907 -6.078243,0.79691 -6.078242,0.7969 -1.632688,-1.40362 c -0.897979,-0.772 -2.17057,-1.92461 -2.827979,-2.56138 l -1.195289,-1.15774 -3.463163,0.4784 c -1.904736,0.26313 -3.709094,0.60735 -4.009678,0.76494 -0.750876,0.39367 -3.038905,0.3599 -2.900846,-0.0428 0.153473,-0.44767 2.095223,-1.04283 2.805396,-0.85988 0.736708,0.1898 6.938009,-0.60242 6.94043,-0.88664 9.46e-4,-0.11104 -0.304042,-0.57162 -0.67775,-1.0235 -0.643099,-0.77764 -0.685481,-1.02339 -0.791792,-4.591281 -0.06178,-2.073313 -0.20057,-4.014432 -0.308428,-4.313595 C 33.684051,95.061663 31.746725,94.35832 22.661104,91.450655 L 11.672124,87.933861 6.122276,80.756859 C 3.0698598,76.809508 0.55116495,73.512157 0.5251751,73.429413 0.49918525,73.346669 2.174535,71.328821 4.2481721,68.945306 Z m 1.6981249,4.62831 c 2.0564341,0.299479 3.8060692,0.478539 3.8880814,0.397914 0.2563596,-0.252031 -1.7042693,-7.904841 -2.0207565,-7.887491 -0.405461,0.02223 -5.791183,6.346726 -5.6882679,6.67978 0.045087,0.14591 1.7645116,0.510319 3.820943,0.809797 z m 0.3627358,-2.905147 c 0.4434783,-0.26889 0.9441429,0.34863 0.5760514,0.710503 -0.3078979,0.302697 -0.8706613,0.106813 -0.8671798,-0.301845 0.00109,-0.12834 0.1321015,-0.312236 0.2911284,-0.408658 z M 38.441771,104.62493 c 0.07073,1.20065 0.206827,2.23153 0.302448,2.29084 0.09562,0.0593 0.975168,0.20001 1.954551,0.31267 l 1.780696,0.20484 -0.124426,-3.80195 c -0.06844,-2.09108 -0.197314,-4.39541 -0.286401,-5.120749 l -0.161973,-1.318796 -1.780285,-0.307608 c -0.979156,-0.169185 -1.84278,-0.246171 -1.919162,-0.171079 -0.13287,0.130625 -0.04074,3.238429 0.234552,7.911832 z m 4.180917,-10.348664 c 0.165682,0.729042 0.378444,1.414385 0.472804,1.522984 0.148269,0.17064 9.411824,-0.87641 10.260184,-1.159698 0.22579,-0.0754 0.182183,-0.616619 -0.161156,-2.00015 -0.258888,-1.043233 -0.509307,-1.92961 -0.556483,-1.96973 -0.06146,-0.05226 -9.757129,1.180563 -10.500876,1.335208 -0.04627,0.0096 -0.02373,0.226374 0.05008,0.481674 0.07382,0.255299 0.269765,1.06067 0.435447,1.789712 z m 0.838295,10.260114 c 0.114965,2.66109 0.197466,3.10785 0.571435,3.09439 0.240387,-0.009 2.642394,-0.31952 5.33779,-0.69081 l 4.90072,-0.67508 -0.04645,-1.31471 c -0.02554,-0.72309 -0.107217,-3.07146 -0.181492,-5.218603 -0.131948,-3.81434 -0.148614,-3.904012 -0.726506,-3.908936 -0.325304,-0.0028 -2.726387,0.274358 -5.335746,0.61584 -2.609359,0.341485 -4.780261,0.620657 -4.824234,0.620383 -0.04397,-2.71e-4 -0.02369,0.982285 0.04508,2.183461 0.06877,1.201175 0.185495,3.583505 0.259397,5.294065 z m 16.824988,6.69202 c 0.371729,0.003 0.804318,0.76776 0.566602,1.00146 -0.0705,0.0693 -0.311308,0.054 -0.535123,-0.0341 -0.507018,-0.19953 -0.532143,-0.9716 -0.03148,-0.96733 z M 79.169794,94.501952 c 0.491191,-0.482894 0.737655,-0.362783 0.731527,0.356498 -0.0062,0.727353 -0.312506,0.85056 -0.757681,0.304762 -0.210086,-0.257572 -0.20303,-0.435948 0.02615,-0.66126 z"
                                   id="path2010" />
                                <path
                                   style="fill:#656592;stroke:#000000;stroke-width:0.1;stroke-miterlimit:4;stroke-dasharray:none;stroke-opacity:1"
                                   d="m 1.0428639,72.711418 c 0.3299189,-0.291714 1.0207962,-1.024522 1.5352828,-1.628463 0.5144866,-0.60394 1.235904,-1.427532 1.6031498,-1.830203 0.3672457,-0.402672 1.0286731,-1.172661 1.4698385,-1.711087 0.4411653,-0.538427 1.2468846,-1.46543 1.7904866,-2.060006 l 0.9883704,-1.081049 9.052691,2.662083 c 4.978982,1.464145 9.26826,2.855386 9.531729,3.091646 0.263469,0.23626 3.004727,4.175227 6.091681,8.753259 3.086954,4.578033 5.714137,8.32456 5.838185,8.325617 0.124048,0.0011 2.274176,-0.278292 4.778063,-0.620776 5.820069,-0.796073 6.03343,-0.79063 7.152448,0.182478 0.500141,0.434925 1.121391,0.797418 1.38056,0.80554 0.259171,0.0081 0.543746,0.2087 0.632395,0.445729 0.08865,0.237028 1.175687,1.480113 2.415645,2.762413 l 2.25447,2.331453 10.702347,1.604093 c 5.886291,0.882253 10.910206,1.663855 11.164254,1.736893 0.358339,0.103024 0.459467,0.419066 0.451029,1.409533 -0.0071,0.832388 -0.136514,1.323719 -0.371871,1.411742 -0.198546,0.07426 -5.579972,-0.67085 -11.958723,-1.65579 -6.378751,-0.98494 -11.815058,-1.795055 -12.080682,-1.800255 -0.456991,-0.0089 -0.47543,0.257302 -0.34301,4.952852 0.08832,3.13186 0.249992,5.06946 0.438283,5.25279 0.164086,0.15975 5.530546,1.08082 11.925465,2.0468 10.62869,1.60551 12.287037,1.9408 12.282415,2.48334 -8.5e-4,0.0997 -4.728236,-0.54823 -10.505303,-1.4398 -5.777067,-0.89157 -11.150356,-1.66834 -11.940642,-1.72615 -1.391819,-0.10181 -1.470923,-0.0702 -2.522221,1.00813 l -1.085338,1.11323 -5.032758,0.6447 c -2.768017,0.35459 -5.40613,0.70273 -5.862474,0.77365 -0.718708,0.11169 -1.08869,-0.0906 -2.765346,-1.51191 -2.409647,-2.04267 -4.429605,-3.9481 -4.427658,-4.17661 8.12e-4,-0.0953 -0.301861,-0.49542 -0.672607,-0.88905 -0.647036,-0.68698 -0.678933,-0.87796 -0.795004,-4.759556 -0.09606,-3.212365 -0.207474,-4.131209 -0.541841,-4.468701 C 33.38467,94.916317 28.446951,93.211805 22.643466,91.362181 16.839978,89.512555 11.870787,87.803285 11.600818,87.563802 11.330849,87.32432 8.8228356,84.166083 6.0274553,80.545498 3.2320749,76.924913 0.83123978,73.890995 0.6922646,73.803458 0.30299143,73.558267 0.38936305,73.289243 1.0428639,72.711418 Z m 4.939675,0.963378 c 2.100153,0.316526 3.9010023,0.525455 4.0018862,0.464286 C 10.175315,74.023342 8.3504209,66.155378 8.0654577,65.865518 7.8651294,65.661746 7.7940399,65.735512 4.47133,69.595011 c -1.4860566,1.726131 -2.6131202,3.220738 -2.5045867,3.321351 0.1085361,0.100613 1.9156426,0.441908 4.0157956,0.758434 z m 0.5667669,-2.857735 c 0.1455156,0.0012 0.2635594,0.121312 0.2623197,0.266828 -0.00124,0.145515 -0.1213121,0.263559 -0.2668277,0.26232 -0.1455155,-0.0012 -0.2635594,-0.121313 -0.2623197,-0.266828 0.00124,-0.145516 0.1213122,-0.26356 0.2668277,-0.26232 z m 31.8828412,34.306479 0.128391,1.88791 1.367868,0.19023 c 0.752328,0.10462 1.645568,0.26099 1.984984,0.34747 l 0.617115,0.15725 -0.13199,-3.67377 c -0.07259,-2.02057 -0.189741,-4.404479 -0.260325,-5.297579 L 42.009856,97.11123 40.904609,96.931446 c -0.607883,-0.09888 -1.501568,-0.254631 -1.985965,-0.346108 l -0.88072,-0.166319 0.132915,3.408306 c 0.0731,1.874565 0.190691,4.257865 0.261308,5.296215 z m 4.06631,-10.836563 c 0.29138,1.203279 0.538832,1.712675 0.833197,1.715183 0.668617,0.0057 10.228964,-1.265177 10.340208,-1.374543 0.154636,-0.152022 -0.755286,-3.823468 -0.983174,-3.967007 -0.190432,-0.119945 -9.568224,1.010492 -10.268196,1.23777 -0.426611,0.13852 -0.420335,0.330814 0.07796,2.388597 z m 0.701492,10.001533 c 0.08592,2.17969 0.241836,3.43147 0.435873,3.49939 0.494875,0.17321 10.469681,-1.23518 10.711917,-1.51247 0.285837,-0.32719 -0.08249,-10.232877 -0.392504,-10.556022 -0.22189,-0.231288 -10.380287,0.922134 -10.900768,1.237714 -0.128401,0.07785 -0.178293,0.995692 -0.110873,2.039646 0.06742,1.043952 0.182781,3.425242 0.256355,5.291742 z m -15.846828,2.44239 c 0.847546,-0.26881 1.211707,-0.2834 1.433845,-0.0574 0.4127,0.41979 -0.249849,0.64 -1.550712,0.51539 l -1.019216,-0.0976 z m 24.65282,-29.176346 c 0.234581,-0.350792 0.292475,-0.350299 0.521046,0.0044 0.349593,0.542566 0.319858,2.045814 -0.04485,2.266941 -0.643355,0.39008 -1.028261,-1.445834 -0.476203,-2.27138 z m 8.28003,33.673846 c 0.371729,0.003 0.804318,0.76776 0.566602,1.00146 -0.0705,0.0693 -0.311308,0.054 -0.535123,-0.0341 -0.507018,-0.19953 -0.532143,-0.9716 -0.03148,-0.96733 z m 18.99292,-16.851192 c 0.375205,-0.368869 0.627931,-0.164456 0.622242,0.503289 -0.0037,0.429133 -0.128546,0.641455 -0.335602,0.570551 -0.381406,-0.130614 -0.561146,-0.803973 -0.28664,-1.07384 z"
                                   id="path2008" />
                                <path
                                   style="fill:#db8349;fill-opacity:1;stroke:#000000;stroke-width:0.1;stroke-miterlimit:4;stroke-dasharray:none;stroke-opacity:1"
                                   d="m 1.0759812,72.803864 c 0.2011972,-0.07525 0.4948363,-0.0056 0.6525324,0.154832 0.4598176,0.467722 8.2523929,1.573825 8.4023944,1.192664 C 10.31753,73.677147 8.4561978,66.264013 8.0299645,65.783925 7.7256211,65.441129 7.7202378,65.282279 8.0002116,64.90616 c 0.3185164,-0.427901 0.9533066,-0.279142 9.3061944,2.180839 4.930397,1.452035 9.158269,2.74309 9.395269,2.869011 0.237,0.125921 2.867447,3.854555 5.845438,8.285853 2.977991,4.431298 5.626302,8.282071 5.885137,8.557273 0.459974,0.489059 0.580452,0.485571 5.330486,-0.154301 2.672932,-0.360068 5.145253,-0.651667 5.494051,-0.647997 0.348795,0.0037 1.139157,0.427708 1.756354,0.942307 0.617201,0.5146 1.185738,0.936177 1.263417,0.936839 0.07768,6.62e-4 1.29771,1.189836 2.711182,2.64261 l 2.569949,2.641407 10.437975,1.578202 c 5.740886,0.868012 10.764827,1.646561 11.164312,1.73011 0.67425,0.141017 0.725541,0.245267 0.715245,1.453758 -0.0091,1.072574 -0.09416,1.301138 -0.482753,1.297827 -0.259414,-0.0022 -5.753831,-0.817376 -12.209814,-1.811481 -8.529062,-1.31332 -11.832557,-1.730457 -12.083468,-1.525805 -0.222884,0.181792 -0.35245,0.950246 -0.365434,2.167382 -0.01403,1.315185 -0.09669,1.764996 -0.273207,1.486685 -0.1392,-0.219475 -0.248067,-1.202704 -0.241927,-2.184953 l 0.01116,-1.785907 -0.99222,-3.83e-4 c -1.569991,-6.22e-4 -9.895855,1.154692 -10.154608,1.409074 -0.286224,0.281388 0.121937,10.43423 0.432156,10.74978 0.309414,0.31473 10.888179,-1.14952 11.134904,-1.54123 0.152784,-0.24256 0.380964,-0.22171 0.967056,0.0884 0.443813,0.23481 5.611503,1.13229 12.262196,2.12958 6.322309,0.94805 11.583942,1.7783 11.692519,1.84498 0.506567,0.31113 0.114311,0.54527 -0.531891,0.31749 -1.067696,-0.37636 -20.749354,-3.32163 -22.065714,-3.30204 -0.970528,0.0145 -1.258258,0.16556 -2.103427,1.10468 l -0.9791,1.08795 -5.88601,0.77672 -5.886007,0.77671 -1.974133,-1.63746 c -2.109927,-1.75009 -4.267347,-3.89207 -5.25791,-5.22026 -0.554032,-0.74287 -0.618855,-1.16831 -0.726496,-4.76792 -0.065,-2.173745 -0.201796,-4.090161 -0.303985,-4.258704 C 33.754919,94.954623 28.767343,93.24355 22.773607,91.320781 16.779868,89.398011 11.731721,87.668376 11.555498,87.477147 11.379274,87.285907 9.0220746,84.252989 6.3172728,80.737319 3.6124711,77.221649 1.2424925,74.248638 1.0506546,74.130628 0.59318429,73.849212 0.60981253,72.978209 1.0759812,72.803864 Z M 38.172836,104.87341 c 0.07052,1.04752 0.266585,2.01446 0.435696,2.14877 0.574145,0.45597 3.591592,0.82109 3.887707,0.47042 0.366053,-0.4335 -0.03749,-9.862155 -0.43973,-10.274222 -0.452865,-0.463925 -3.630891,-0.964856 -3.975005,-0.626556 -0.270705,0.266132 -0.235916,3.420688 0.09133,8.281588 z m 3.43535,4.50001 c 0.185042,-0.18192 -0.183477,-0.68705 -0.503227,-0.68977 -0.175439,-0.001 -0.156659,0.15048 0.04988,0.40371 0.18218,0.22336 0.386185,0.35208 0.453347,0.28606 z m 0.735527,-15.162552 c 0.180466,0.84003 0.474246,1.650722 0.652844,1.801534 0.38805,0.327676 10.479518,-0.898711 10.744025,-1.30569 0.189628,-0.291768 -0.644359,-3.88068 -0.972058,-4.183076 -0.243603,-0.224791 -10.101528,1.016799 -10.63335,1.339255 -0.191171,0.115911 -0.296284,0.347974 -0.233584,0.515696 0.0627,0.167723 0.261657,0.992249 0.442123,1.832281 z m 12.392406,-0.425062 c 0.309442,0.31476 1.432682,-0.243622 1.301957,-0.647224 -0.05182,-0.15998 -0.491986,-0.602171 -0.978154,-0.982644 l -0.883941,-0.691768 0.158228,1.036883 c 0.08703,0.570286 0.267885,1.148425 0.40191,1.284753 z M 27.353121,106.7309 c 0.847546,-0.26881 1.211707,-0.2834 1.433845,-0.0574 0.4127,0.41979 -0.249849,0.64 -1.550712,0.51539 l -1.019216,-0.0976 z M 52.433233,78.550418 c 0.07185,0.18252 0.06931,0.480165 -0.0056,0.661434 -0.07495,0.181269 -0.13373,0.03194 -0.130631,-0.331854 0.0031,-0.363789 0.06442,-0.5121 0.136266,-0.32958 z m 2.28625,21.649952 c 0.171136,-0.10377 0.255836,0.85838 0.237552,2.69848 -0.01932,1.94413 -0.109448,2.73199 -0.281505,2.46071 -0.334781,-0.52785 -0.297086,-4.95241 0.04395,-5.15919 z m 5.430112,11.02687 c 0.307332,0.003 0.931733,0.77773 0.761403,0.94518 -0.241631,0.23755 -0.999924,-0.20265 -0.996721,-0.57861 0.0017,-0.2027 0.10762,-0.36766 0.235318,-0.36657 z"
                                   id="path2006" />
                                <g
                                   id="g4570"
                                   style="stroke:#000000;stroke-width:0.1;stroke-miterlimit:4;stroke-dasharray:none;stroke-opacity:1">
                                <g
                                   id="g4566"
                                   style="stroke:#000000;stroke-width:0.1;stroke-miterlimit:4;stroke-dasharray:none;stroke-opacity:1">
                                <g
                                   id="g4577"
                                   style="stroke:#000000;stroke-width:0.1;stroke-miterlimit:4;stroke-dasharray:none;stroke-opacity:1">
                                <g
                                   id="g4573"
                                   style="stroke:#000000;stroke-width:0.1;stroke-miterlimit:4;stroke-dasharray:none;stroke-opacity:1">
                                <g
                                   id="g4589"
                                   style="stroke:#000000;stroke-width:0.1;stroke-miterlimit:4;stroke-dasharray:none;stroke-opacity:1">
                                <g
                                   id="g4584"
                                   style="stroke:#000000;stroke-width:0.1;stroke-miterlimit:4;stroke-dasharray:none;stroke-opacity:1">
                                <g
                                   id="g4580"
                                   style="stroke:#000000;stroke-width:0.1;stroke-miterlimit:4;stroke-dasharray:none;stroke-opacity:1">
                                <g
                                   id="g4601"
                                   style="stroke:#000000;stroke-width:0.1;stroke-miterlimit:4;stroke-dasharray:none;stroke-opacity:1">
                                <g
                                   id="g4596"
                                   style="stroke:#000000;stroke-width:0.1;stroke-miterlimit:4;stroke-dasharray:none;stroke-opacity:1">
                                <g
                                   id="g4592"
                                   style="stroke:#000000;stroke-width:0.1;stroke-miterlimit:4;stroke-dasharray:none;stroke-opacity:1">
                                <g
                                   id="g4619"
                                   style="stroke:#000000;stroke-width:0.1;stroke-miterlimit:4;stroke-dasharray:none;stroke-opacity:1">
                                <g
                                   id="g4613"
                                   style="stroke:#000000;stroke-width:0.1;stroke-miterlimit:4;stroke-dasharray:none;stroke-opacity:1">
                                <g
                                   id="g4608"
                                   style="stroke:#000000;stroke-width:0.1;stroke-miterlimit:4;stroke-dasharray:none;stroke-opacity:1">
                                <g
                                   id="g4604"
                                   style="stroke:#000000;stroke-width:0.1;stroke-miterlimit:4;stroke-dasharray:none;stroke-opacity:1">
                                <path
                                   style="fill:#ffe680;fill-opacity:1;stroke:#000000;stroke-width:0.1;stroke-miterlimit:4;stroke-dasharray:none;stroke-opacity:1"
                                   d="m 1.4350771,73.260309 c 1.43841,0.3434 7.3504603,1.268076 8.1914657,1.281188 0.5180382,0.0081 0.8583952,-0.118075 0.8562492,-0.317365 -0.0085,-0.787768 -2.0111961,-8.463425 -2.3009392,-8.818659 -0.257215,-0.315353 -0.2360327,-0.423315 0.1083155,-0.552099 0.2354282,-0.08805 0.6356762,-0.07293 0.8894393,0.03359 0.2537632,0.106524 4.2619544,1.317137 8.9070924,2.690252 4.645137,1.373116 8.585953,2.586438 8.757371,2.696272 0.171417,0.109835 2.844382,3.955781 5.939922,8.546547 3.095541,4.590766 5.813298,8.419669 6.03946,8.508674 0.226162,0.089 2.444745,-0.116324 4.930181,-0.456284 2.485437,-0.33996 4.883209,-0.615006 5.328381,-0.611213 1.070563,0.0091 2.512321,1.112408 5.806568,4.443402 l 2.667049,2.696801 10.570149,1.592642 c 5.813581,0.875955 10.838065,1.590726 11.165519,1.588383 0.327453,-0.0023 0.594375,0.112531 0.593159,0.255274 -0.0052,0.614414 -1.775431,0.44824 -11.891231,-1.116266 -5.882789,-0.909831 -10.847971,-1.597394 -11.033738,-1.527917 -0.185766,0.06948 -0.338462,0.209023 -0.339323,0.310104 -8.62e-4,0.101083 5.057178,0.961428 11.240088,1.911879 8.21158,1.262304 11.353144,1.841498 11.655282,2.148828 0.227494,0.231406 0.367825,0.465763 0.311847,0.520795 -0.05598,0.05503 -5.332334,-0.711085 -11.725232,-1.702483 -6.392899,-0.9914 -12.068775,-1.780057 -12.613057,-1.752575 -0.544282,0.02748 -1.12468,-0.08743 -1.289774,-0.255361 -0.373262,-0.379677 -0.07669,-1.219861 0.371946,-1.053732 0.482201,0.178554 1.792883,-0.635656 1.78567,-1.109281 -0.0069,-0.455566 -1.718363,-1.875889 -2.265983,-1.880554 -0.194841,-0.0017 -0.360184,0.145765 -0.36743,0.327611 -0.0072,0.181845 -0.178056,-0.05774 -0.379581,-0.53242 -0.288221,-0.678887 -0.524386,-0.864323 -1.10676,-0.869017 -1.518901,-0.01215 -9.954893,1.207724 -10.231465,1.479624 -0.358395,0.35234 0.167623,3.294599 0.754893,4.222484 0.218262,0.344851 0.29567,0.718901 0.172021,0.831221 -0.123651,0.112322 -1.264367,0.0099 -2.534924,-0.227677 -1.27056,-0.237546 -2.381947,-0.361274 -2.469749,-0.274955 -0.161364,0.158638 0.194249,10.736478 0.366851,10.912048 0.317168,0.32262 3.852519,0.85887 4.271307,0.64788 0.316951,-0.15968 0.605385,-0.13867 0.842254,0.0614 0.434931,0.36726 9.918516,-0.8087 10.994567,-1.36333 0.520757,-0.26841 0.76047,-0.2736 1.096138,-0.0237 0.383421,0.28541 0.320227,0.4459 -0.587646,1.49239 l -1.017268,1.17258 -5.911905,0.79198 c -6.015093,0.80581 -7.110377,0.78024 -6.170236,-0.14401 0.939981,-0.9241 0.03869,-1.67435 -2.03264,-1.692 -0.98612,-0.008 -1.225764,-0.16429 -2.781954,-1.8097 -2.525789,-2.6706 -2.453836,-2.47957 -2.580162,-6.85017 -0.08644,-2.99048 -0.206401,-3.980911 -0.531702,-4.389713 -0.3812,-0.479049 -4.202446,-1.770461 -20.142739,-6.807352 -1.377123,-0.43515 -1.944595,-0.774369 -2.500896,-1.494967 C 10.846157,86.278613 10.4001,85.725839 10.250686,85.562882 10.101275,85.399924 9.6302066,84.789721 9.2038671,84.206875 8.3146866,82.991277 7.7601359,82.27521 7.3718699,81.841298 7.2224926,81.674357 6.7514718,81.05853 6.325157,80.472794 5.8988447,79.887057 5.4321391,79.271267 5.2880349,79.104371 4.8072507,78.547547 4.2388832,77.8187 3.4514795,76.749266 2.1667936,75.004431 1.9129097,74.69561 1.2954,74.126632 0.49922421,73.39303 0.55451675,73.050088 1.4350771,73.260309 Z m 9.0250469,-2.428932 0.951436,3.825702 3.154951,2.366904 c 1.735223,1.301798 4.101536,3.06513 5.258475,3.918517 1.156939,0.853388 4.089627,3.034428 6.517084,4.846757 2.427459,1.812328 4.466075,3.243513 4.530263,3.180411 C 30.992609,88.851424 26.564721,70.797488 26.371865,70.61981 26.312545,70.56516 22.641522,69.457636 18.214042,68.158657 13.786563,66.859678 9.9442281,65.728954 9.6755189,65.645936 9.1017433,65.468668 9.0633734,65.215075 10.460124,70.831377 Z m 30.339665,18.68516 c 0.438045,0.648439 0.82984,1.179264 0.870653,1.179612 0.520568,0.0044 9.856491,-1.305859 9.948447,-1.396261 0.06939,-0.06822 -0.399462,-0.643671 -1.041899,-1.278781 l -1.168064,-1.154746 -4.701818,0.621381 c -2.586,0.34176 -4.702256,0.67278 -4.702792,0.7356 -5.35e-4,0.06282 0.357428,0.644758 0.795473,1.293195 z M 43.498296,110.027 c 1.291601,0.011 9.685486,-1.27912 10.002011,-1.53729 0.557532,-0.45475 0.42854,-1.02065 -0.231889,-1.01734 -1.571591,0.008 -9.525713,1.21557 -9.873298,1.49907 -0.555611,0.45318 -0.497232,1.05045 0.103176,1.05556 z M 53.908838,92.338359 c 0.0748,0.191639 0.06346,0.419753 -0.02521,0.506922 -0.08866,0.08717 -0.149865,-0.06963 -0.136001,-0.348437 0.01532,-0.308107 0.07855,-0.370263 0.161209,-0.158485 z m 0.255558,1.060549 c 0.0748,0.191639 0.06346,0.419753 -0.02521,0.506922 -0.08866,0.08717 -0.149865,-0.06963 -0.136001,-0.348437 0.01532,-0.308107 0.07855,-0.370263 0.161208,-0.158485 z m 25.341619,16.802562 c 0.144749,0.0912 0.262166,0.28483 0.260927,0.43034 -0.0012,0.14552 -0.120686,0.18998 -0.265435,0.0988 -0.144749,-0.0912 -0.262166,-0.28483 -0.260927,-0.43034 0.0012,-0.14552 0.120686,-0.18998 0.265435,-0.0988 z"
                                   id="path2004" />
                                </g>
                                </g>
                                </g>
                                </g>
                                </g>
                                </g>
                                </g>
                                </g>
                                </g>
                                </g>
                                </g>
                                </g>
                                </g>
                                </g>
                                <g
                                   id="g4551"
                                   style="stroke:#000000;stroke-width:0.1;stroke-miterlimit:4;stroke-dasharray:none;stroke-opacity:1">
                                <g
                                   id="g4545"
                                   style="stroke:#000000;stroke-width:0.1;stroke-miterlimit:4;stroke-dasharray:none;stroke-opacity:1">
                                <g
                                   id="g4540"
                                   style="stroke:#000000;stroke-width:0.1;stroke-miterlimit:4;stroke-dasharray:none;stroke-opacity:1">
                                <g
                                   id="g4536"
                                   style="stroke:#000000;stroke-width:0.1;stroke-miterlimit:4;stroke-dasharray:none;stroke-opacity:1">
                                <g
                                   id="g4563"
                                   style="stroke:#000000;stroke-width:0.1;stroke-miterlimit:4;stroke-dasharray:none;stroke-opacity:1">
                                <g
                                   id="g4558"
                                   style="stroke:#000000;stroke-width:0.1;stroke-miterlimit:4;stroke-dasharray:none;stroke-opacity:1">
                                <g
                                   id="g4554"
                                   style="stroke:#000000;stroke-width:0.1;stroke-miterlimit:4;stroke-dasharray:none;stroke-opacity:1">
                                <path
                                   id="path2002"
                                   d="m 1.3363506,73.418579 c 0.2182733,0.0019 0.4694268,0.123066 0.558121,0.269348 0.088694,0.146282 -0.017335,0.264445 -0.2356001,0.262586 -0.2182733,-0.0019 -0.4694268,-0.123066 -0.558121,-0.269348 -0.088694,-0.146282 0.017335,-0.264445 0.2356001,-0.262586 z m 7.2687152,-8.38416 c 0.308107,0.01532 0.3702637,0.07855 0.1584858,0.161209 -0.191639,0.0748 -0.4197564,0.06346 -0.5069226,-0.02521 -0.087166,-0.08866 0.069632,-0.149865 0.3484368,-0.136001 z m 1.8757612,9.65544 c 0.168168,-0.101964 0.445192,-0.01166 0.615607,0.200664 0.482565,0.601248 19.799611,14.920056 20.131992,14.922887 0.162443,0.0014 0.296137,-0.08999 0.2971,-0.20306 9.64e-4,-0.113066 -0.98713,-4.139989 -2.195761,-8.948717 -2.717088,-10.81035 -2.550317,-10.057866 -2.17698,-9.822712 0.450197,0.283566 1.339041,2.172284 1.333409,2.833383 -0.0087,1.026315 3.862681,16.272373 4.230055,16.658382 0.464211,0.487757 8.636308,5.126721 8.780907,4.984562 0.06067,-0.05965 -0.04093,-0.852317 -0.225794,-1.761485 -0.247916,-1.2193 -0.728732,-2.249144 -1.832466,-3.924911 -0.822997,-1.249531 -1.471886,-2.29671 -1.441977,-2.327065 0.02991,-0.03035 0.312025,0.01454 0.626921,0.09976 0.338243,0.09154 0.797647,0.630238 1.122627,1.3164 0.302546,0.638799 0.879135,1.519772 1.281306,1.957719 0.500559,0.545087 0.692113,0.991793 0.607247,1.416115 -0.10668,0.53337 0.151815,1.815914 0.819528,4.066168 l 0.166632,0.561565 -2.301148,-0.429972 c -2.221346,-0.41506 -2.314408,-0.412339 -2.683537,0.07847 -0.350524,0.466076 -0.402983,0.471408 -0.629491,0.06398 -0.224178,-0.403231 -1.65752,-0.941093 -2.168964,-0.813903 -0.114812,0.02855 -0.469709,-0.241809 -0.78866,-0.600801 -0.550206,-0.619284 -4.380317,-1.921307 -19.183713,-6.521381 -2.204518,-0.685042 -3.79315,-1.41833 -2.372009,-1.094882 0.363111,0.08264 4.346515,0.708748 8.852009,1.391345 7.660934,1.160657 9.254152,1.258062 8.449344,0.516576 C 29.237473,88.79528 11.864878,75.918862 11.052362,75.417058 10.49539,75.073077 10.286708,74.807558 10.480827,74.689859 Z m 24.348629,22.62898 c 0.04861,0.691663 0.03898,1.822716 -0.02141,2.513451 -0.06039,0.69073 -0.100164,0.124828 -0.08839,-1.25757 0.01178,-1.382398 0.06119,-1.947544 0.1098,-1.255881 z m 0.21058,5.034091 c 0.06489,0.258 0.05743,0.61513 -0.01658,0.79364 -0.074,0.17851 -0.12709,-0.0326 -0.117978,-0.46908 0.0091,-0.4365 0.06966,-0.58255 0.134543,-0.32456 z m 2.696014,3.65609 c 0.32712,0.51577 0.324728,0.79655 -0.0068,0.79372 -0.145516,-0.001 -0.260469,-0.27012 -0.255452,-0.59751 0.0074,-0.48135 0.05756,-0.51889 0.262214,-0.19621 z m 4.444438,4.15036 c 0.136175,-0.0826 0.321342,-0.0285 0.411482,0.12018 0.09014,0.14867 -0.02171,0.26872 -0.248583,0.26679 -0.464731,-0.004 -0.531806,-0.1633 -0.162899,-0.38697 z m 0.469737,-2.07276 c 0.213176,-0.20957 0.624296,0.0329 0.621454,0.36651 -0.0012,0.13693 -0.180708,0.24744 -0.398981,0.24558 -0.40914,-0.003 -0.522969,-0.31666 -0.222473,-0.61209 z m 7.852951,-21.019523 c 0.152495,0.0013 0.490726,0.242314 0.751627,0.535589 0.260901,0.293275 0.579571,0.534124 0.708153,0.535219 0.240085,0.002 1.678297,1.406991 2.837579,2.771943 l 0.65303,0.768885 -1.184613,-0.710787 c -0.651537,-0.390933 -1.392352,-0.784394 -1.646257,-0.874354 -0.253904,-0.08996 -0.46003,-0.353016 -0.458057,-0.58456 0.002,-0.231545 -0.433434,-0.876235 -0.967569,-1.432644 -0.534135,-0.556409 -0.846386,-1.01059 -0.693893,-1.009291 z m 4.557955,7.712026 c 0.532771,0.0045 0.770692,0.10033 0.615273,0.247723 -0.410007,0.388827 -1.248992,0.435685 -1.371135,0.07658 -0.07536,-0.221561 0.175624,-0.329245 0.755862,-0.324303 z m -0.693795,12.429957 c 0.104292,-0.36293 0.352919,-0.65848 0.552506,-0.65678 0.610692,0.005 0.564258,0.49499 -0.125324,1.3219 -0.665105,0.79756 -0.79112,0.60136 -0.427182,-0.66512 z m 25.25476,-10.633155 c 0.145516,0.0012 0.26356,0.121312 0.26232,0.266828 -0.0012,0.145515 -0.121312,0.263559 -0.266828,0.262319 -0.145515,-0.0012 -0.263559,-0.121312 -0.262319,-0.266827 0.0012,-0.145516 0.121312,-0.26356 0.266827,-0.26232 z m -0.01803,2.11659 c 0.145516,0.0012 0.26356,0.121312 0.26232,0.266828 -0.0012,0.145515 -0.121312,0.263559 -0.266828,0.262319 -0.145515,-0.0012 -0.263559,-0.121312 -0.262319,-0.266827 0.0012,-0.145516 0.121312,-0.26356 0.266827,-0.26232 z m -0.09805,11.508955 c 0.144749,0.0912 0.262166,0.28483 0.260927,0.43034 -0.0012,0.14552 -0.120686,0.18998 -0.265435,0.0988 -0.144749,-0.0912 -0.262166,-0.28483 -0.260927,-0.43034 0.0012,-0.14552 0.120686,-0.18998 0.265435,-0.0988 z"
                                   style="fill:#171718;stroke:#000000;stroke-width:0.1;stroke-miterlimit:4;stroke-dasharray:none;stroke-opacity:1" />
                                </g>
                                </g>
                                </g>
                                </g>
                                </g>
                                </g>
                                </g>
                                </g>
                                </g>
                                </g>
                                </g>
                                </g>
                                </g>
                                </g>
                                </g>
                                </g>
                                </g>
                                </g>
                                </g>
                                </g>
                                </g>
                                </g>
                                </g>
                                </g>
                                </g>
                                </g>
                                </g>
                                </g>
                                </g>
                                </g>
                                </g>
                                </g>
                                </g>
                                </g>
                                </g>
                                </g>
                                </g>
                                </g>
                                </g>
                                </g>
                                </g>
                                </g>
                              </g>
                            </g>
                          </g>
                        </g>
                      </g>
                    </g>
                  </g>
                </g>
              </g>
            </g>
          </g>
        </g>
      </g>
    </g>
  </g>
</svg>
