<?xml version="1.0" encoding="UTF-8" standalone="no"?>
<!-- Created with Inkscape (http://www.inkscape.org/) -->

<svg
   xmlns:dc="http://purl.org/dc/elements/1.1/"
   xmlns:cc="http://creativecommons.org/ns#"
   xmlns:rdf="http://www.w3.org/1999/02/22-rdf-syntax-ns#"
   xmlns:svg="http://www.w3.org/2000/svg"
   xmlns="http://www.w3.org/2000/svg"
   xmlns:xlink="http://www.w3.org/1999/xlink"
   xmlns:sodipodi="http://sodipodi.sourceforge.net/DTD/sodipodi-0.dtd"
   xmlns:inkscape="http://www.inkscape.org/namespaces/inkscape"
   width="64"
   height="64"
   viewBox="0 0 16.933333 16.933334"
   version="1.1"
   id="svg8"
   inkscape:version="0.92.5 (2060ec1f9f, 2020-04-08)"
   sodipodi:docname="move.svg">
  <defs
     id="defs2">
    <linearGradient
       inkscape:collect="always"
       id="linearGradient854">
      <stop
         style="stop-color:#ffff00;stop-opacity:1;"
         offset="0"
         id="stop850" />
      <stop
         style="stop-color:#ffff00;stop-opacity:0;"
         offset="1"
         id="stop852" />
    </linearGradient>
    <inkscape:perspective
       sodipodi:type="inkscape:persp3d"
       inkscape:vp_x="-50.125334 : 29.395595 : 1"
       inkscape:vp_y="285.53683 : 145.31669 : 0"
       inkscape:vp_z="-23.319129 : -41.496708 : 1"
       inkscape:persp3d-origin="-50.856305 : -13.243732 : 1"
       id="perspective815" />
    <linearGradient
       inkscape:collect="always"
       xlink:href="#linearGradient854"
       id="linearGradient856"
       x1="5.0435843"
       y1="284.08133"
       x2="12.299267"
       y2="294.87637"
       gradientUnits="userSpaceOnUse"
       gradientTransform="translate(0.1251351,-0.06256733)" />
  </defs>
  <sodipodi:namedview
     id="base"
     pagecolor="#ffffff"
     bordercolor="#666666"
     borderopacity="1.0"
     inkscape:pageopacity="0.0"
     inkscape:pageshadow="2"
     inkscape:zoom="2.1143801"
     inkscape:cx="-22.284763"
     inkscape:cy="3.3691583"
     inkscape:document-units="mm"
     inkscape:current-layer="layer1"
     showgrid="false"
     units="px"
     inkscape:window-width="1920"
     inkscape:window-height="1001"
     inkscape:window-x="-9"
     inkscape:window-y="-9"
     inkscape:window-maximized="1" />
  <metadata
     id="metadata5">
    <rdf:RDF>
      <cc:Work
         rdf:about="">
        <dc:format>image/svg+xml</dc:format>
        <dc:type
           rdf:resource="http://purl.org/dc/dcmitype/StillImage" />
        <dc:title></dc:title>
      </cc:Work>
    </rdf:RDF>
  </metadata>
  <g
     inkscape:label="Layer 1"
     inkscape:groupmode="layer"
     id="layer1"
     transform="translate(0,-280.06665)">
    <rect
       style="opacity:0.41300001;fill:url(#linearGradient856);fill-opacity:1;fill-rule:nonzero;stroke:#000000;stroke-width:0.109;stroke-miterlimit:4;stroke-dasharray:none;stroke-opacity:1"
       id="rect840"
       width="16.811949"
       height="16.900433"
       x="0.21361917"
       y="280.03705" />
    <g
       id="g878"
       transform="translate(16.205006,-21.710954)">
      <path
         sodipodi:nodetypes="ccsscccccccccccccccccscccccccccccccccccccsccccccsc"
         inkscape:connector-curvature="0"
         id="path838"
         d="m -7.7288752,318.58572 c -0.2116184,-0.0903 -0.2891162,-0.20725 -1.3970273,-2.1089 -0.694941,-1.19282 -1.0473545,-1.86315 -1.0473545,-1.99217 0,-0.29152 0.2432657,-0.48617 0.8742895,-0.69956 0.4731133,-0.15999 0.6281199,-0.25216 0.952576,-0.56642 0.3320749,-0.32163 0.4349116,-0.3815 0.7188181,-0.41849 0.4253683,-0.0554 0.6164365,0.0312 1.0351585,0.46909 0.2719848,0.28445 0.446703,0.39289 0.9557535,0.59317 1.127054,0.44344 1.124952,0.46141 -0.321182,2.74602 -0.627387,0.99113 -1.1770502,1.83831 -1.2214745,1.8826 -0.114441,0.11409 -0.39193,0.1619 -0.5495573,0.0946 z m -5.8775548,-6.50029 c -1.028989,-0.62275 -1.903225,-1.19701 -1.962775,-1.28929 -0.150493,-0.23323 -0.06924,-0.5427 0.194573,-0.74109 0.531529,-0.39971 3.407978,-2.23277 3.58422,-2.2841 0.357549,-0.10412 0.562951,0.0982 0.841983,0.82949 0.199394,0.52255 0.306093,0.70061 0.583982,0.97456 0.4299511,0.42383 0.5137461,0.61641 0.4585014,1.05369 -0.037472,0.2966 -0.092352,0.393 -0.4153374,0.72966 -0.320792,0.33436 -0.397203,0.46768 -0.5536,0.96593 -0.198322,0.6318 -0.396256,0.88403 -0.693722,0.88403 -0.116319,0 -0.854812,-0.40693 -2.037825,-1.12288 z m 10.0273306,0.99161 c -0.21356,-0.0902 -0.287907,-0.21783 -0.502624,-0.86285 -0.17195,-0.51654 -0.253079,-0.65632 -0.569302,-0.9808 -0.323087,-0.33154 -0.373708,-0.4207 -0.408578,-0.71968 -0.04966,-0.42578 0.04783,-0.63256 0.495799,-1.05158 0.272566,-0.25495 0.3709,-0.4152 0.549269,-0.89509 0.249619,-0.67158 0.441787,-0.89674 0.757517,-0.88759 0.289916,0.009 3.76441797,2.26723 3.89070597,2.5294 0.105153,0.21829 0.0715,0.4022 -0.110184,0.60231 -0.176124,0.19397 -3.57429397,2.2407 -3.79891597,2.2881 -0.09209,0.0195 -0.228742,0.01 -0.303687,-0.0223 z m -4.4983153,-1.29707 c -0.4834658,-0.28154 -0.7234232,-0.70079 -0.7199214,-1.2578 0.0081,-1.28867 1.4232594,-1.96694 2.3760266,-1.13884 1.3492971,1.17278 -0.1161289,3.29347 -1.6561052,2.39664 z m -0.2349918,-4.06983 c -0.3552513,-0.33578 -0.5093057,-0.42761 -0.9863164,-0.58794 -0.6320252,-0.21242 -0.8745341,-0.4065 -0.8745341,-0.69986 0,-0.17365 0.5413746,-1.15288 2.0086699,-3.63326 0.2490497,-0.42101 0.4732443,-0.56495 0.7643917,-0.49073 0.2226261,0.0568 0.1948539,0.0181 1.511376,2.10266 1.165465,1.84539 1.22853,2.00422 0.912902,2.29926 -0.08812,0.0823 -0.397012,0.24053 -0.686437,0.35149 -0.4180867,0.16027 -0.6185754,0.28954 -0.9756178,0.62902 -0.4483058,0.42628 -0.4503644,0.4273 -0.8514091,0.4273 -0.3976133,0 -0.4066287,-0.005 -0.8230252,-0.39794 z"
         style="fill:#002d00;fill-opacity:1;stroke:#000000;stroke-width:0.06748416;stroke-opacity:1" />
      <path
         inkscape:connector-curvature="0"
         id="path874"
         d="m -7.7387367,318.3933 c -0.20563,-0.0877 -0.280936,-0.20139 -1.357502,-2.04929 -0.675279,-1.15909 -1.0177223,-1.81047 -1.0177223,-1.93585 0,-0.28328 0.2363843,-0.47242 0.8495533,-0.67978 0.459727,-0.15547 0.61035,-0.24503 0.925626,-0.5504 0.322678,-0.31255 0.422606,-0.37073 0.69848,-0.40666 0.413333,-0.0538 0.598997,0.0303 1.005872,0.45582 0.264289,0.27642 0.434065,0.38179 0.928712,0.57641 1.095167,0.4309 1.093123,0.44837 -0.312095,2.66838 -0.609637,0.96312 -1.143748,1.78635 -1.186914,1.82939 -0.111205,0.11087 -0.380841,0.15731 -0.53401,0.092 z m 1.26829,-2.2156 c 0.568967,-0.90576 1.021906,-1.6675 1.006534,-1.69276 -0.01537,-0.0253 -0.296476,-0.14607 -0.624675,-0.26848 -0.550894,-0.20545 -0.619689,-0.25169 -0.895676,-0.60197 -0.250332,-0.31772 -0.332502,-0.37951 -0.505258,-0.37996 -0.173531,-5e-4 -0.256237,0.0618 -0.520595,0.39194 -0.29909,0.37349 -0.344195,0.4027 -0.932501,0.60373 -0.340015,0.11619 -0.62977,0.22142 -0.643898,0.23384 -0.04681,0.0412 1.963937,3.40032 2.023336,3.38021 0.03204,-0.0108 0.523766,-0.76079 1.092733,-1.66655 z m -6.9795543,-4.10093 c -0.999876,-0.60514 -1.849375,-1.16316 -1.907242,-1.25284 -0.146235,-0.22663 -0.06728,-0.52736 0.189068,-0.72014 0.51649,-0.38841 3.311558,-2.16965 3.482814,-2.21952 0.347434,-0.10118 0.547023,0.0955 0.81816,0.80603 0.193753,0.50778 0.297434,0.6808 0.567459,0.947 0.4177873,0.41186 0.4992113,0.59899 0.4455303,1.0239 -0.03641,0.28822 -0.08974,0.38191 -0.4035853,0.70904 -0.311717,0.32491 -0.385967,0.45446 -0.537938,0.93862 -0.19271,0.61394 -0.385044,0.85905 -0.674096,0.85905 -0.113027,0 -0.830627,-0.39542 -1.98017,-1.09114 z m 2.150668,-0.0818 c 0.201958,-0.62297 0.221797,-0.65473 0.599509,-0.96001 0.332541,-0.26876 0.390603,-0.34739 0.390396,-0.52864 -2.01e-4,-0.17937 -0.05917,-0.26133 -0.374178,-0.52014 -0.343257,-0.282 -0.391918,-0.35662 -0.593102,-0.90952 -0.120538,-0.33127 -0.24099,-0.616 -0.267671,-0.63275 -0.02668,-0.0167 -0.800316,0.45708 -1.719188,1.05293 l -1.670682,1.08338 1.678056,1.02697 c 0.92293,0.56483 1.693788,1.02811 1.713022,1.02952 0.01923,0.001 0.128959,-0.28738 0.243838,-0.64174 z m 7.5929633,1.04539 c -0.207517,-0.0876 -0.279761,-0.21167 -0.488403,-0.83845 -0.167086,-0.50195 -0.24592,-0.63776 -0.553196,-0.95308 -0.313946,-0.32216 -0.363134,-0.4088 -0.397018,-0.69932 -0.04826,-0.41375 0.04648,-0.61469 0.481771,-1.02186 0.264855,-0.24775 0.360407,-0.40346 0.533729,-0.86978 0.242557,-0.6526 0.429288,-0.8714 0.736087,-0.86251 0.281712,0.008 3.657913,2.20314 3.780627,2.4579 0.102179,0.21213 0.06949,0.39082 -0.107066,0.58528 -0.17114,0.18849 -3.473169,2.17736 -3.691435,2.22342 -0.08948,0.0189 -0.222271,0.009 -0.295096,-0.0216 z m 2.078962,-1.57059 c 0.820067,-0.50163 1.489949,-0.94021 1.488626,-0.97462 -0.0024,-0.0629 -3.179751,-2.15113 -3.273022,-2.15113 -0.02743,0 -0.148344,0.27167 -0.2687,0.6037 -0.196629,0.54245 -0.256792,0.63731 -0.593009,0.93503 -0.314958,0.2789 -0.37418,0.36609 -0.37418,0.55088 0,0.18831 0.05398,0.26339 0.379593,0.52797 0.365368,0.29689 0.387468,0.33285 0.589764,0.95956 l 0.210171,0.65111 0.174863,-0.0952 c 0.09617,-0.0524 0.845827,-0.50565 1.665894,-1.00728 z m -6.450007,0.3102 c -0.469789,-0.2736 -0.702956,-0.68098 -0.699554,-1.22225 0.0079,-1.25223 1.382992,-1.91134 2.308802,-1.10663 1.311122,1.13961 -0.112842,3.20036 -1.609248,2.32888 z m 1.136436,-0.46197 c 0.25926,-0.16051 0.470628,-0.49725 0.470955,-0.7503 4.92e-4,-0.28079 -0.19106,-0.63722 -0.417534,-0.77746 -0.121043,-0.075 -0.32197,-0.12421 -0.507273,-0.12436 -0.250351,-2e-4 -0.349022,0.0374 -0.535957,0.20403 -0.132221,0.11788 -0.256641,0.30807 -0.294195,0.44969 -0.204241,0.77021 0.618848,1.41022 1.284004,0.9984 z m -1.364779,-3.49283 c -0.345201,-0.32629 -0.494896,-0.41552 -0.958412,-0.57132 -0.614143,-0.20642 -0.8497913,-0.395 -0.8497913,-0.68008 0,-0.16874 0.5260583,-1.12029 1.9518383,-3.53055 0.242004,-0.4091 0.459856,-0.54896 0.742766,-0.47686 0.216329,0.0551 0.189341,0.0176 1.468615,2.04323 1.132491,1.79321 1.193772,1.94756 0.887073,2.23426 -0.08562,0.08 -0.385779,0.23373 -0.667015,0.34155 -0.406258,0.15573 -0.601073,0.28134 -0.948015,0.61124 -0.435622,0.41422 -0.437621,0.41522 -0.827321,0.41522 -0.386363,0 -0.395124,-0.004 -0.799738,-0.38669 z m 1.310957,-0.46101 c 0.292953,-0.34203 0.393636,-0.40946 0.899243,-0.60231 0.313147,-0.11945 0.591198,-0.23742 0.61789,-0.26217 0.02669,-0.0248 -0.432802,-0.81153 -1.021098,-1.74839 l -1.069633,-1.70339 -0.155318,0.25265 c -0.554522,0.90198 -1.884516,3.19954 -1.863069,3.21843 0.01426,0.0126 0.304153,0.11636 0.644168,0.23065 0.593958,0.19964 0.630406,0.22333 0.929126,0.60373 0.421512,0.53678 0.566852,0.53831 1.018691,0.0108 z"
         style="fill:#ff7f2a;fill-opacity:1;stroke-width:0.06557562" />
    </g>
  </g>
</svg>
