<?xml version="1.0" encoding="UTF-8" standalone="no"?>
<!-- Created with Inkscape (http://www.inkscape.org/) -->

<svg
   width="47.690166mm"
   height="17.638508mm"
   viewBox="0 0 47.690166 17.638508"
   version="1.1"
   id="svg3358"
   inkscape:version="1.1 (c68e22c387, 2021-05-23)"
   sodipodi:docname="ARROW_doublesided.svg"
   xmlns:inkscape="http://www.inkscape.org/namespaces/inkscape"
   xmlns:sodipodi="http://sodipodi.sourceforge.net/DTD/sodipodi-0.dtd"
   xmlns="http://www.w3.org/2000/svg"
   xmlns:svg="http://www.w3.org/2000/svg">
  <sodipodi:namedview
     id="namedview3360"
     pagecolor="#ffffff"
     bordercolor="#666666"
     borderopacity="1.0"
     inkscape:pageshadow="2"
     inkscape:pageopacity="0.0"
     inkscape:pagecheckerboard="0"
     inkscape:document-units="mm"
     showgrid="false"
     fit-margin-top="0"
     fit-margin-left="0"
     fit-margin-right="0"
     fit-margin-bottom="0"
     inkscape:zoom="2.2050535"
     inkscape:rotation="-4"
     inkscape:cx="93.538684"
     inkscape:cy="85.523906"
     inkscape:window-width="1920"
     inkscape:window-height="1001"
     inkscape:window-x="-9"
     inkscape:window-y="-9"
     inkscape:window-maximized="1"
     inkscape:current-layer="layer1" />
  <defs
     id="defs3355" />
  <g
     inkscape:label="Layer 1"
     inkscape:groupmode="layer"
     id="layer1"
     transform="translate(-66.160797,-98.351973)">
    <path
       id="path1461-2"
       style="fill:#000000;stroke-width:0.111362"
       d="m 283.70898,371.72461 c -0.12116,-10e-4 -0.24375,-10e-4 -0.36914,0.002 -0.83592,0.0219 -1.73995,0.1484 -2.35546,0.35352 -1.93836,0.64598 -1.23875,4.9e-4 -15.92383,14.68554 -14.70697,14.70694 -14.0704,14.01786 -14.71485,15.96485 -0.24816,0.74974 -0.28717,1.0594 -0.28906,2.3125 -0.002,1.294 0.0302,1.54353 0.30469,2.33984 0.35089,1.01813 0.68452,1.6337 1.35937,2.50586 0.84575,1.09308 26.65576,26.75929 27.38086,27.22852 1.95703,1.26637 4.46335,1.60063 6.61719,0.88086 3.23379,-1.08068 5.35024,-3.98927 5.35742,-7.36133 0.003,-1.61359 -0.40297,-2.97972 -1.29297,-4.34961 -0.25462,-0.39198 -2.90537,-3.14046 -6.82226,-7.07227 l -6.40821,-6.43164 h 112.83789 v 0.0527 l 3.32618,-0.0137 v -0.0391 h 1.60156 v 0.0332 l 9.51953,-0.0332 -6.38477,6.45508 c -4.06174,4.10744 -6.53799,6.69943 -6.8125,7.125 -1.81511,2.81428 -1.67382,6.3728 0.35938,9.03906 1.1195,1.4682 2.95841,2.58724 4.78906,2.91016 0.28218,0.0498 0.62553,0.0734 0.98828,0.0762 0.1207,5.6e-4 0.24237,0.002 0.36719,-0.002 0.83581,-0.0265 1.73878,-0.15616 2.35352,-0.36328 1.93595,-0.65318 1.23859,-0.003 15.86914,-14.74414 14.65236,-14.76136 14.01902,-14.07021 14.65625,-16.01953 0.24529,-0.75069 0.28194,-1.0594 0.27929,-2.3125 -0.003,-1.294 -0.037,-1.54456 -0.3125,-2.33985 -0.35452,-1.0168 -0.69105,-1.6304 -1.36914,-2.5 -0.84979,-1.08994 -26.75362,-26.66041 -27.48047,-27.12695 -1.96172,-1.25911 -4.46993,-1.58517 -6.62109,-0.85742 -3.22976,1.09266 -5.33541,4.01074 -5.33008,7.38281 0.003,1.61359 0.41353,2.97715 1.3086,4.34375 0.25625,0.39103 2.91814,3.12962 6.84961,7.04687 l 6.43164,6.40821 -1.00196,0.004 H 290.99805 v -0.002 h -3.32617 v 0.002 h -1.59961 v -0.002 l -9.51954,-0.002 6.40821,-6.43164 c 4.07695,-4.09236 6.56375,-6.67506 6.83984,-7.09961 1.82552,-2.80755 1.69698,-6.36723 -0.32617,-9.04102 -1.11405,-1.47233 -2.94987,-2.59804 -4.7793,-2.92773 -0.28247,-0.0509 -0.62284,-0.0759 -0.98633,-0.0801 z m -0.25976,1.76367 c 2.05777,0.10507 4.09973,1.31748 5.0332,2.99024 0.60594,1.08582 0.75832,1.70772 0.75,3.0625 -0.006,1.04776 -0.0497,1.33459 -0.30078,1.97851 -0.16146,0.41409 -0.45364,0.99095 -0.64844,1.28125 -0.19479,0.29027 -3.89102,4.07291 -8.21484,8.40625 l -7.86133,7.87891 h 4.3457 v 0.002 h 73.76954 c 7.80337,3e-5 23.79147,-0.0152 39.01757,-0.0293 v 0.082 c 0.53617,-0.002 0.90405,-0.004 1.46875,-0.008 l 1.85743,-0.006 v -0.0723 c 0.64372,-6.1e-4 0.94922,6.1e-4 1.60156,0 v 0.0664 l 13.86523,-0.0508 -7.89062,-7.84961 c -4.33985,-4.31731 -8.0502,-8.08541 -8.2461,-8.375 -0.19578,-0.28951 -0.49128,-0.86578 -0.65429,-1.27929 -0.25361,-0.64298 -0.29644,-0.92888 -0.30664,-1.97657 -0.008,-0.91831 0.0395,-1.37813 0.19336,-1.83789 1.18306,-3.53008 4.98197,-5.17143 8.29492,-3.58203 l 0.94922,0.45508 13.22656,13.10547 c 7.2743,7.20865 13.43967,13.4069 13.70117,13.77344 1.3245,1.85608 1.5096,4.00874 0.52149,6.06836 l -0.45313,0.94726 -13.16406,13.2832 c -7.28909,7.35568 -13.43311,13.46983 -13.77149,13.70118 -0.83191,0.56882 -1.6161,0.8852 -2.52148,1.01953 -0.41821,0.062 -0.85993,0.10647 -0.98242,0.10156 -2.05814,-0.0975 -4.10526,-1.30144 -5.04492,-2.9707 -0.60995,-1.08356 -0.76501,-1.70574 -0.76172,-3.06055 0.002,-1.04776 0.0443,-1.33365 0.29296,-1.97852 0.15988,-0.41469 0.45084,-0.99218 0.64454,-1.2832 0.19389,-0.29102 3.87587,-4.08817 8.18359,-8.4375 l 7.83203,-7.9082 -4.33789,0.0156 c -20.51724,1.9e-4 -34.59601,0.002 -56.20508,0.002 H 290.99805 V 411 c -0.53615,2e-4 -0.90407,0.002 -1.46875,0.002 h -1.85742 v 0.002 h -1.59961 v -0.002 h -13.86524 l 7.86133,7.87891 c 4.32382,4.33338 8.02005,8.11594 8.21484,8.40625 0.1948,0.29027 0.48698,0.86716 0.64844,1.28125 0.25111,0.64388 0.29436,0.92884 0.30078,1.97656 0.006,0.91831 -0.0454,1.37872 -0.20117,1.83789 -1.19614,3.5257 -5.00155,5.15247 -8.30859,3.55078 l -0.94727,-0.45898 -13.17773,-13.1543 c -7.24753,-7.23556 -13.39021,-13.45673 -13.65039,-13.82422 -1.31759,-1.861 -1.49378,-4.01436 -0.49805,-6.07031 l 0.45703,-0.94531 13.21289,-13.23438 c 7.31632,-7.32858 13.48305,-13.41834 13.82227,-13.64843 0.83401,-0.56573 1.61952,-0.88076 2.52539,-1.01172 0.41846,-0.0605 0.85993,-0.10367 0.98242,-0.0977 z"
       transform="scale(0.26458333)" />
  </g>
</svg>
