<?xml version="1.0" encoding="UTF-8" standalone="no"?>
<svg
   width="16.933334mm"
   height="17.634182mm"
   viewBox="0 0 16.933334 17.634182"
   version="1.1"
   id="svg884"
   inkscape:version="1.1 (c68e22c387, 2021-05-23)"
   sodipodi:docname="ARROW3.svg"
   xmlns:inkscape="http://www.inkscape.org/namespaces/inkscape"
   xmlns:sodipodi="http://sodipodi.sourceforge.net/DTD/sodipodi-0.dtd"
   xmlns="http://www.w3.org/2000/svg"
   xmlns:svg="http://www.w3.org/2000/svg"
   xmlns:rdf="http://www.w3.org/1999/02/22-rdf-syntax-ns#"
   xmlns:cc="http://creativecommons.org/ns#">
  <defs
     id="defs878" />
  <sodipodi:namedview
     id="base"
     pagecolor="#ffffff"
     bordercolor="#666666"
     borderopacity="1.0"
     inkscape:pageopacity="0.0"
     inkscape:pageshadow="2"
     inkscape:zoom="4"
     inkscape:cx="104.625"
     inkscape:cy="74.625"
     inkscape:document-units="mm"
     inkscape:current-layer="layer1"
     inkscape:document-rotation="0"
     showgrid="false"
     fit-margin-top="0"
     fit-margin-left="0"
     fit-margin-right="0"
     fit-margin-bottom="0"
     inkscape:window-width="1920"
     inkscape:window-height="1001"
     inkscape:window-x="-9"
     inkscape:window-y="-9"
     inkscape:window-maximized="1"
     inkscape:pagecheckerboard="0" />
  <metadata
     id="metadata881">
    <rdf:RDF>
      <cc:Work
         rdf:about="" />
    </rdf:RDF>
  </metadata>
  <g
     inkscape:label="Layer 1"
     inkscape:groupmode="layer"
     id="layer1"
     transform="translate(0.06921276,-44.856137)">
    <path
       style="fill:#000000;stroke-width:0.0294645"
       d="M 7.6994307,62.468461 C 7.2153953,62.381228 6.7293816,62.083683 6.4346223,61.694129 5.8993316,60.986688 5.8653607,60.044478 6.3483634,59.301656 c 0.073046,-0.11234 0.7312565,-0.795339 1.8099484,-1.878114 l 1.6951577,-1.701574 -4.0650462,-5.02e-4 c -4.5652778,-5.83e-4 -4.2756645,0.01308 -4.7561877,-0.224128 -0.47951865,-0.236707 -0.84641803,-0.66843 -1.02354645,-1.204385 -0.06814327,-0.206189 -0.07790191,-0.283699 -0.07790191,-0.618755 0,-0.334471 0.0098406,-0.412925 0.07761136,-0.618754 0.18313152,-0.556194 0.5352171,-0.960356 1.0667602,-1.22454 0.4304217,-0.213927 0.1873101,-0.203406 4.7132645,-0.203975 L 9.8534695,51.626426 8.1583118,49.924852 C 7.1219672,48.884564 6.4203242,48.157332 6.3529502,48.053628 6.1174716,47.691172 6.0100637,47.329724 6.0109696,46.902797 c 0.0019,-0.892187 0.5620615,-1.6618 1.4176693,-1.94773 0.5698701,-0.190441 1.2330946,-0.102254 1.7508918,0.232811 0.191851,0.124147 7.0204073,6.915397 7.2441783,7.204603 0.178556,0.230769 0.266898,0.393571 0.359741,0.662951 0.07262,0.210687 0.08118,0.276388 0.08065,0.618754 -5.03e-4,0.331548 -0.01079,0.413844 -0.07645,0.612214 -0.170509,0.515146 -0.0022,0.332572 -3.89342,4.223778 -3.8854264,3.885425 -3.7003239,3.714713 -4.21318,3.885628 -0.2605765,0.08684 -0.7159011,0.120539 -0.9816203,0.07265 z m 0.5895805,-0.471369 c 0.2396779,-0.03465 0.4472292,-0.11776 0.6678941,-0.267443 0.089745,-0.06088 1.7217587,-1.672243 3.6575337,-3.611263 l 3.495479,-3.501336 0.121294,-0.250448 c 0.263453,-0.543974 0.216662,-1.113425 -0.131948,-1.605813 -0.06884,-0.09723 -1.694089,-1.743123 -3.611663,-3.657532 L 9.0011024,45.622511 8.7506536,45.501215 c -0.874989,-0.423771 -1.8822927,0.0066 -2.1987732,0.939444 -0.041216,0.121485 -0.054479,0.243195 -0.052977,0.486164 0.00172,0.277214 0.013242,0.35293 0.079683,0.523299 0.042724,0.109555 0.1198488,0.262034 0.1713892,0.338842 0.05154,0.07681 1.0297183,1.077726 2.1737291,2.224262 l 2.0800193,2.084612 H 6.4205243 c -3.1425016,0 -4.6381559,0.01 -4.7580307,0.03169 -0.5335048,0.09672 -0.99669744,0.503398 -1.18537639,1.040751 -0.10435709,0.297208 -0.10435709,0.710599 0,1.007806 0.18546096,0.528189 0.63660619,0.930396 1.16668289,1.040125 0.1094085,0.02265 1.5334251,0.03232 4.7580308,0.03232 h 4.6018921 l -2.0800189,2.084612 c -1.1440108,1.146537 -2.1221888,2.147456 -2.1737291,2.224261 -0.05154,0.07681 -0.1286653,0.229288 -0.1713892,0.338842 -0.06644,0.17037 -0.07797,0.246086 -0.079683,0.523301 -0.00222,0.358447 0.038071,0.522983 0.1983904,0.810273 0.2469817,0.442584 0.7870277,0.763561 1.331481,0.791363 0.032411,0.0016 0.1495176,-0.01008 0.260237,-0.02609 z"
       id="path1461" />
  </g>
</svg>
