<?xml version="1.0" encoding="UTF-8" standalone="no"?>
<svg
   xmlns:dc="http://purl.org/dc/elements/1.1/"
   xmlns:cc="http://creativecommons.org/ns#"
   xmlns:rdf="http://www.w3.org/1999/02/22-rdf-syntax-ns#"
   xmlns:svg="http://www.w3.org/2000/svg"
   xmlns="http://www.w3.org/2000/svg"
   xmlns:sodipodi="http://sodipodi.sourceforge.net/DTD/sodipodi-0.dtd"
   xmlns:inkscape="http://www.inkscape.org/namespaces/inkscape"
   width="300"
   height="300"
   viewBox="0 0 300 300"
   version="1.1"
   id="svg463"
   sodipodi:docname="degrees.svg"
   inkscape:version="1.0.2-2 (e86c870879, 2021-01-15)">
  <metadata
     id="metadata467">
    <rdf:RDF>
      <cc:Work
         rdf:about="">
        <dc:format>image/svg+xml</dc:format>
        <dc:type
           rdf:resource="http://purl.org/dc/dcmitype/StillImage" />
        <dc:title />
      </cc:Work>
    </rdf:RDF>
  </metadata>
  <sodipodi:namedview
     pagecolor="#ffffff"
     bordercolor="#666666"
     borderopacity="1"
     objecttolerance="10"
     gridtolerance="10"
     guidetolerance="10"
     inkscape:pageopacity="0"
     inkscape:pageshadow="2"
     inkscape:window-width="1920"
     inkscape:window-height="1001"
     id="namedview465"
     showgrid="false"
     inkscape:zoom="1.9563288"
     inkscape:cx="149.1516"
     inkscape:cy="173.87885"
     inkscape:window-x="-9"
     inkscape:window-y="-9"
     inkscape:window-maximized="1"
     inkscape:current-layer="svg463"
     inkscape:document-rotation="0" />
  <defs
     id="defs7">
    <style
       id="style2">.a,.f,.g,.h,.j{fill:none;}.b{fill:#fff;}.c{isolation:isolate;}.d{fill:#333;}.e{clip-path:url(#a);}.f{stroke:#ddd;}.g{stroke:#818181;}.h{stroke:#414141;}.i{fill:#414141;}.j{stroke:#565656;stroke-miterlimit:10;}</style>
    <clipPath
       id="a">
      <path
         class="a"
         d="M250,150A100,100,0,1,0,150,250,100,100,0,0,0,250,150Zm-12.5,0A87.5,87.5,0,1,1,150,62.5,87.5,87.5,0,0,1,237.5,150Z"
         id="path4" />
    </clipPath>
  </defs>
  <g
     id="g1680">
    <g
       class="c"
       id="g27">
      <path
         class="d"
         d="M246.416,84.2a1.038,1.038,0,0,1-.808-.323,1.193,1.193,0,0,1-.294-.836,2.3,2.3,0,0,1,.855-1.815,3.638,3.638,0,0,1,1.977-.864h.284q.664,0,.837.019a4.588,4.588,0,0,1,1.272.4,2.833,2.833,0,0,1,1.577,1.786,1.847,1.847,0,0,1,.057.513,3.161,3.161,0,0,1-.694,2.005,3.825,3.825,0,0,1-1.738,1.263q-.095.039,0,.057a1.311,1.311,0,0,0,.191.057,4.047,4.047,0,0,1,1.956,1.207,2.91,2.91,0,0,1,.8,2,3.329,3.329,0,0,1-.362,1.5,3.77,3.77,0,0,1-1.491,1.605,4.315,4.315,0,0,1-2.309.637,4.551,4.551,0,0,1-2.223-.532,2.739,2.739,0,0,1-1.311-1.425,2.138,2.138,0,0,1-.19-.931,1.141,1.141,0,0,1,.351-.865,1.266,1.266,0,0,1,1.72.01,1.156,1.156,0,0,1,.342.855,1.213,1.213,0,0,1-.247.76,1.114,1.114,0,0,1-.665.418l-.133.038a3.578,3.578,0,0,0,2.356.855,1.7,1.7,0,0,0,1.578-1.007,4.388,4.388,0,0,0,.322-1.919V89.3a2.432,2.432,0,0,0-1.216-2.413,3.985,3.985,0,0,0-1.159-.133l-.8-.019-.057-.038a.711.711,0,0,1-.038-.3.451.451,0,0,1,.057-.285.153.153,0,0,1,.1-.057,6.625,6.625,0,0,0,1.1-.1,1.647,1.647,0,0,0,1.274-.94,4.2,4.2,0,0,0,.436-1.986,1.807,1.807,0,0,0-.665-1.653,1.568,1.568,0,0,0-.893-.266,2.808,2.808,0,0,0-1.671.513.851.851,0,0,0-.172.123,1.214,1.214,0,0,0-.152.162l-.057.076c.038.013.083.026.134.038a.908.908,0,0,1,.635.361,1.156,1.156,0,0,1,.257.741,1.047,1.047,0,0,1-.313.77A1.094,1.094,0,0,1,246.416,84.2Z"
         id="path21" />
      <path
         class="d"
         d="M255.327,81.885a3.353,3.353,0,0,1,2.907-1.539,3.5,3.5,0,0,1,2.432.95,4.129,4.129,0,0,1,.874,1.292,10.867,10.867,0,0,1,.7,4.332,9.911,9.911,0,0,1-.817,4.5,3.3,3.3,0,0,1-1.558,1.6,3.577,3.577,0,0,1-1.615.4,3.346,3.346,0,0,1-3.191-2,9.909,9.909,0,0,1-.818-4.5A14.837,14.837,0,0,1,254.481,84,6.4,6.4,0,0,1,255.327,81.885Zm4.276-.228a1.757,1.757,0,0,0-1.35-.608,1.812,1.812,0,0,0-1.368.608,2.279,2.279,0,0,0-.57,1.064,11.736,11.736,0,0,0-.19,2.166q0,.114-.01.741c-.006.418-.009.767-.009,1.045q0,1.824.039,2.546a10.774,10.774,0,0,0,.227,1.91,2.16,2.16,0,0,0,.57,1,1.685,1.685,0,0,0,1.311.57,1.665,1.665,0,0,0,1.292-.57,2.16,2.16,0,0,0,.57-1,10.847,10.847,0,0,0,.228-1.91q.037-.723.038-2.546c0-.278,0-.627-.009-1.045s-.01-.665-.01-.741a11.736,11.736,0,0,0-.19-2.166A2.3,2.3,0,0,0,259.6,81.657Z"
         id="path23" />
      <path
         class="d"
         d="M265.815,80.707a1.7,1.7,0,0,1,.646-.922,1.91,1.91,0,0,1,1.179-.37,1.931,1.931,0,0,1,1.937,1.045,1.4,1.4,0,0,1,.114.589,1.447,1.447,0,0,1-.114.608,1.847,1.847,0,0,1-1.843,1.045,2.121,2.121,0,0,1-1.254-.361,1.624,1.624,0,0,1-.665-.931,1.911,1.911,0,0,1-.019-.342A2.077,2.077,0,0,1,265.815,80.707ZM267.753,82a1.729,1.729,0,0,0,.95-.181.894.894,0,0,0,.247-.75q0-.778-.589-.931a4.453,4.453,0,0,0-.55-.019c-.064,0-.137,0-.219-.01l-.143-.009a.913.913,0,0,0-.683.218,1.04,1.04,0,0,0-.209.732.992.992,0,0,0,.209.741A1.564,1.564,0,0,0,267.753,82Z"
         id="path25" />
    </g>
    <g
       class="c"
       id="g37">
      <path
         class="d"
         d="M205.337,35.581a1.794,1.794,0,0,0-1.178-.475,2.717,2.717,0,0,0-2.222,1.14,6.593,6.593,0,0,0-.894,3.838l.019.076.152-.247a2.43,2.43,0,0,1,2.109-1.14,3.184,3.184,0,0,1,1.539.361,3.938,3.938,0,0,1,.912.769,4.835,4.835,0,0,1,.742,1.074,5.124,5.124,0,0,1,.4,2.033v.342a3.323,3.323,0,0,1-.095.817,4.281,4.281,0,0,1-1.177,2.109,3.5,3.5,0,0,1-1.825,1.064,3.179,3.179,0,0,1-.759.076,3.32,3.32,0,0,1-.647-.057,3.367,3.367,0,0,1-2.242-1.52,8.872,8.872,0,0,1-1.121-4.788,8.364,8.364,0,0,1,.723-3.591,5.687,5.687,0,0,1,2.013-2.394,3.788,3.788,0,0,1,2.223-.722,2.608,2.608,0,0,1,1.777.589,2.035,2.035,0,0,1,.674,1.615,1.049,1.049,0,0,1-.275.76.972.972,0,0,1-.732.285,1,1,0,0,1-.731-.266.983.983,0,0,1-.276-.741A.94.94,0,0,1,205.337,35.581Zm-.836,4.56a1.658,1.658,0,0,0-1.368-.684,1.542,1.542,0,0,0-1.14.437,4.117,4.117,0,0,0-.931,3,8.08,8.08,0,0,0,.228,2.337,2.181,2.181,0,0,0,.647.969,1.589,1.589,0,0,0,1.083.4,1.706,1.706,0,0,0,1.481-.722,2.089,2.089,0,0,0,.361-.95,12.493,12.493,0,0,0,.076-1.6v-.608a12.9,12.9,0,0,0-.076-1.634A2.094,2.094,0,0,0,204.5,40.141Z"
         id="path31" />
      <path
         class="d"
         d="M209.574,35.885a3.353,3.353,0,0,1,2.907-1.539,3.5,3.5,0,0,1,2.432.95,4.129,4.129,0,0,1,.874,1.292,10.867,10.867,0,0,1,.7,4.332,9.911,9.911,0,0,1-.817,4.5,3.3,3.3,0,0,1-1.558,1.6,3.577,3.577,0,0,1-1.615.4,3.346,3.346,0,0,1-3.191-1.995,9.909,9.909,0,0,1-.818-4.5A14.751,14.751,0,0,1,208.729,38,6.376,6.376,0,0,1,209.574,35.885Zm4.276-.228a1.757,1.757,0,0,0-1.35-.608,1.812,1.812,0,0,0-1.368.608,2.288,2.288,0,0,0-.57,1.064,11.736,11.736,0,0,0-.19,2.166q0,.114-.01.741c-.006.418-.008.767-.008,1.045,0,1.216.011,2.064.038,2.546a10.774,10.774,0,0,0,.227,1.91,2.16,2.16,0,0,0,.57,1,1.685,1.685,0,0,0,1.311.57,1.663,1.663,0,0,0,1.292-.57,2.16,2.16,0,0,0,.57-1,10.847,10.847,0,0,0,.228-1.91q.037-.723.038-2.546c0-.278,0-.627-.009-1.045s-.01-.665-.01-.741a11.646,11.646,0,0,0-.19-2.166A2.3,2.3,0,0,0,213.85,35.657Z"
         id="path33" />
      <path
         class="d"
         d="M220.062,34.707a1.7,1.7,0,0,1,.646-.922,1.91,1.91,0,0,1,1.179-.37,1.931,1.931,0,0,1,1.937,1.045,1.4,1.4,0,0,1,.114.589,1.447,1.447,0,0,1-.114.608,1.847,1.847,0,0,1-1.843,1.045,2.116,2.116,0,0,1-1.253-.361,1.621,1.621,0,0,1-.666-.931,1.911,1.911,0,0,1-.019-.342A2.077,2.077,0,0,1,220.062,34.707ZM222,36a1.729,1.729,0,0,0,.95-.181.894.894,0,0,0,.247-.75q0-.778-.589-.931a4.453,4.453,0,0,0-.55-.019c-.064,0-.137,0-.219-.01L221.7,34.1a.913.913,0,0,0-.683.218,1.04,1.04,0,0,0-.209.732.992.992,0,0,0,.209.741A1.564,1.564,0,0,0,222,36Z"
         id="path35" />
    </g>
    <g
       class="c"
       id="g47"
       transform="translate(4)">
      <path
         class="d"
         d="m 139.037,28.176 a 1.07,1.07 0 0 1 -0.2,0.665 0.8,0.8 0 0 1 -0.522,0.323 l -0.076,0.019 c 0,0.012 0.044,0.047 0.133,0.1 a 0.727,0.727 0 0 0 0.209,0.105 2.711,2.711 0 0 0 1.083,0.19 2.135,2.135 0 0 0 0.494,-0.038 2.6,2.6 0 0 0 1.539,-1.178 6.745,6.745 0 0 0 0.741,-3.686 v -0.133 l -0.095,0.152 a 2.429,2.429 0 0 1 -2.185,1.292 3.221,3.221 0 0 1 -2.584,-1.311 4.781,4.781 0 0 1 -0.788,-1.33 4.77,4.77 0 0 1 -0.238,-1.634 4.722,4.722 0 0 1 0.294,-1.8 4.569,4.569 0 0 1 1.017,-1.425 3.757,3.757 0 0 1 2.356,-1.121 l 0.057,-0.019 h 0.095 c 0.025,0 0.067,0 0.124,0.009 a 1.171,1.171 0 0 0 0.142,0.01 2.672,2.672 0 0 1 0.551,0.038 3.6,3.6 0 0 1 2.416,1.956 9.714,9.714 0 0 1 0.817,4.294 8.4,8.4 0 0 1 -1.14,4.5 5.171,5.171 0 0 1 -1.606,1.662 3.6,3.6 0 0 1 -1.966,0.6 3.087,3.087 0 0 1 -1.929,-0.561 1.922,1.922 0 0 1 -0.731,-1.624 q 0,-1.065 1.007,-1.064 a 0.932,0.932 0 0 1 0.988,1.007 z m 1.919,-10.013 a 2.9,2.9 0 0 0 -0.532,-0.038 1.682,1.682 0 0 0 -1.235,0.513 2.024,2.024 0 0 0 -0.522,1 10.8,10.8 0 0 0 -0.124,1.985 17.449,17.449 0 0 0 0.095,2.052 1.906,1.906 0 0 0 0.561,1.169 1.641,1.641 0 0 0 1.187,0.446 h 0.076 a 1.748,1.748 0 0 0 1.492,-1.073 5.528,5.528 0 0 0 0.465,-2.385 10.431,10.431 0 0 0 -0.152,-2.128 2.042,2.042 0 0 0 -0.466,-0.988 1.592,1.592 0 0 0 -0.845,-0.553 z"
         id="path41" />
      <path
         class="d"
         d="m 147.074,18.885 a 3.351,3.351 0 0 1 2.907,-1.539 3.506,3.506 0 0 1 2.432,0.95 4.146,4.146 0 0 1 0.874,1.292 10.885,10.885 0 0 1 0.7,4.332 9.924,9.924 0 0 1 -0.817,4.5 3.3,3.3 0 0 1 -1.558,1.6 3.58,3.58 0 0 1 -1.615,0.4 3.348,3.348 0 0 1 -3.192,-2 9.911,9.911 0 0 1 -0.817,-4.5 14.751,14.751 0 0 1 0.241,-2.92 6.355,6.355 0 0 1 0.845,-2.115 z m 4.275,-0.228 A 1.753,1.753 0 0 0 150,18.049 a 1.811,1.811 0 0 0 -1.368,0.608 2.279,2.279 0 0 0 -0.57,1.064 11.646,11.646 0 0 0 -0.19,2.166 q 0,0.114 -0.01,0.741 c -0.006,0.418 -0.009,0.767 -0.009,1.045 q 0,1.824 0.038,2.546 a 10.847,10.847 0 0 0 0.228,1.91 2.151,2.151 0 0 0 0.57,1 1.685,1.685 0 0 0 1.311,0.571 1.665,1.665 0 0 0 1.292,-0.57 2.169,2.169 0 0 0 0.57,-1 10.946,10.946 0 0 0 0.228,-1.91 q 0.037,-0.723 0.038,-2.546 c 0,-0.278 0,-0.627 -0.009,-1.045 -0.009,-0.418 -0.01,-0.665 -0.01,-0.741 a 11.826,11.826 0 0 0 -0.19,-2.166 2.3,2.3 0 0 0 -0.57,-1.065 z"
         id="path43" />
      <path
         class="d"
         d="m 157.562,17.707 a 1.7,1.7 0 0 1 0.646,-0.922 1.907,1.907 0 0 1 1.178,-0.37 1.931,1.931 0 0 1 1.938,1.045 1.4,1.4 0 0 1 0.114,0.589 1.447,1.447 0 0 1 -0.114,0.608 1.848,1.848 0 0 1 -1.843,1.045 2.121,2.121 0 0 1 -1.254,-0.361 1.624,1.624 0 0 1 -0.665,-0.931 1.816,1.816 0 0 1 -0.019,-0.342 1.975,1.975 0 0 1 0.019,-0.361 z M 159.5,19 a 1.731,1.731 0 0 0 0.95,-0.181 0.894,0.894 0 0 0 0.247,-0.75 q 0,-0.779 -0.589,-0.931 a 4.474,4.474 0 0 0 -0.551,-0.019 c -0.063,0 -0.136,0 -0.219,-0.01 L 159.2,17.1 a 0.916,0.916 0 0 0 -0.684,0.218 1.044,1.044 0 0 0 -0.209,0.732 1,1 0 0 0 0.209,0.741 A 1.569,1.569 0 0 0 159.5,19 Z"
         id="path45" />
    </g>
    <g
       class="c"
       id="g59">
      <path
         class="d"
         d="M76.4,47q-.324-.057-3.021-.057-2.661,0-2.983.057h-.228v-.874h.494a10.716,10.716,0,0,0,1.425-.057,1.228,1.228,0,0,0,.456-.228V36.018a.454.454,0,0,0-.152.057,5.592,5.592,0,0,1-1.957.361h-.361v-.874h.361a5.3,5.3,0,0,0,2.66-.722,2.645,2.645,0,0,0,.589-.437q.038-.057.228-.057a.479.479,0,0,1,.323.114v5.681l.019,5.7a1.838,1.838,0,0,0,1.235.285h1.121V47Z"
         id="path51" />
      <path
         class="d"
         d="M80.09,38.849a1.061,1.061,0,0,1-.836-.342,1.211,1.211,0,0,1-.3-.836,3.118,3.118,0,0,1,1.035-2.347,3.486,3.486,0,0,1,2.48-.978,4.123,4.123,0,0,1,2.707.883,3.71,3.71,0,0,1,1.321,2.309,5.8,5.8,0,0,1,.038.627,3.6,3.6,0,0,1-.665,2.071,12.66,12.66,0,0,1-2.147,2.185q-.684.588-1.9,1.748L80.7,45.233l1.444.019a22.692,22.692,0,0,0,3.173-.1c.05-.012.114-.145.19-.4a11.965,11.965,0,0,0,.266-1.292v-.057h.76v.057L86,46.943V47H78.95v-.361a1.262,1.262,0,0,1,.038-.437q.018-.019,1.6-1.8,2.07-2.3,2.66-3.04a5.516,5.516,0,0,0,1.273-3.173,3.321,3.321,0,0,0-.656-2.1,2.187,2.187,0,0,0-1.833-.846,2.083,2.083,0,0,0-1.786.988c-.026.05-.063.121-.114.209a.421.421,0,0,0-.057.114c0,.012.032.019.095.019a.97.97,0,0,1,.77.342,1.186,1.186,0,0,1,.294.8,1.141,1.141,0,0,1-.313.808A1.086,1.086,0,0,1,80.09,38.849Z"
         id="path53" />
      <path
         class="d"
         d="M89.324,35.885a3.351,3.351,0,0,1,2.907-1.539,3.506,3.506,0,0,1,2.432.95,4.146,4.146,0,0,1,.874,1.292,10.885,10.885,0,0,1,.7,4.332,9.924,9.924,0,0,1-.817,4.5,3.3,3.3,0,0,1-1.558,1.6,3.58,3.58,0,0,1-1.615.4,3.348,3.348,0,0,1-3.192-1.995,9.911,9.911,0,0,1-.817-4.5A14.751,14.751,0,0,1,88.479,38,6.355,6.355,0,0,1,89.324,35.885Zm4.275-.228a1.753,1.753,0,0,0-1.349-.608,1.811,1.811,0,0,0-1.368.608,2.279,2.279,0,0,0-.57,1.064,11.646,11.646,0,0,0-.19,2.166q0,.114-.01.741c-.006.418-.009.767-.009,1.045q0,1.824.038,2.546a10.847,10.847,0,0,0,.228,1.91,2.151,2.151,0,0,0,.57,1,1.685,1.685,0,0,0,1.311.57,1.665,1.665,0,0,0,1.292-.57,2.169,2.169,0,0,0,.57-1,10.946,10.946,0,0,0,.228-1.91q.037-.723.038-2.546c0-.278,0-.627-.009-1.045s-.01-.665-.01-.741a11.826,11.826,0,0,0-.19-2.166A2.3,2.3,0,0,0,93.6,35.657Z"
         id="path55" />
      <path
         class="d"
         d="M99.812,34.707a1.7,1.7,0,0,1,.646-.922,1.907,1.907,0,0,1,1.178-.37,1.931,1.931,0,0,1,1.938,1.045,1.4,1.4,0,0,1,.114.589,1.447,1.447,0,0,1-.114.608,1.848,1.848,0,0,1-1.843,1.045,2.121,2.121,0,0,1-1.254-.361,1.624,1.624,0,0,1-.665-.931,1.816,1.816,0,0,1-.019-.342A1.975,1.975,0,0,1,99.812,34.707ZM101.75,36a1.731,1.731,0,0,0,.95-.181.894.894,0,0,0,.247-.75q0-.778-.589-.931a4.474,4.474,0,0,0-.551-.019c-.063,0-.136,0-.219-.01l-.142-.009a.916.916,0,0,0-.684.218,1.044,1.044,0,0,0-.209.732,1,1,0,0,0,.209.741A1.569,1.569,0,0,0,101.75,36Z"
         id="path57" />
    </g>
    <g
       class="c"
       id="g71">
      <path
         class="d"
         d="M30.651,93q-.323-.057-3.021-.057-2.661,0-2.983.057h-.228v-.874h.494a10.706,10.706,0,0,0,1.425-.057,1.228,1.228,0,0,0,.456-.228V82.018a.461.461,0,0,0-.152.057,5.592,5.592,0,0,1-1.957.361h-.361v-.874h.361a5.3,5.3,0,0,0,2.66-.722,2.622,2.622,0,0,0,.589-.437q.037-.057.228-.057a.479.479,0,0,1,.323.114v5.681l.019,5.7a1.838,1.838,0,0,0,1.235.285H30.86V93Z"
         id="path63" />
      <path
         class="d"
         d="M34.28,88.934a1.048,1.048,0,0,1,.77.313,1.071,1.071,0,0,1,.313.789.981.981,0,0,1-.323.741,1.031,1.031,0,0,1-.722.3h-.133l.057.095a2.47,2.47,0,0,0,.874,1.007,2.412,2.412,0,0,0,1.387.4,2.019,2.019,0,0,0,1.938-1.14A5.785,5.785,0,0,0,38.8,89.01a4.728,4.728,0,0,0-.513-2.641,1.5,1.5,0,0,0-1.216-.627,2.447,2.447,0,0,0-2.242,1.292.357.357,0,0,1-.143.161.807.807,0,0,1-.275.029c-.215,0-.336-.038-.361-.114q-.039-.075-.038-3.325,0-.57-.01-1.349t-.009-.988c0-.71.038-1.064.114-1.064a.107.107,0,0,1,.076-.038l.342.114a6.751,6.751,0,0,0,2.527.494,6.479,6.479,0,0,0,2.584-.532.587.587,0,0,1,.247-.076c.1,0,.152.114.152.342v.247a4.858,4.858,0,0,1-3.895,1.843,4.574,4.574,0,0,1-1.064-.114l-.19-.038v3.268a3.259,3.259,0,0,1,3-.779,3.6,3.6,0,0,1,2.081,1.444,4.372,4.372,0,0,1,.807,2.622,4.155,4.155,0,0,1-1.206,2.983A3.966,3.966,0,0,1,36.6,93.418a3.165,3.165,0,0,1-2.033-.665,2.1,2.1,0,0,1-.627-.627,3.364,3.364,0,0,1-.722-1.691q0-.057-.009-.18c-.007-.083-.01-.143-.01-.181a1.128,1.128,0,0,1,.3-.836A1.053,1.053,0,0,1,34.28,88.934Z"
         id="path65" />
      <path
         class="d"
         d="M43.571,81.885a3.353,3.353,0,0,1,2.907-1.539,3.506,3.506,0,0,1,2.432.95,4.146,4.146,0,0,1,.874,1.292,10.885,10.885,0,0,1,.7,4.332,9.924,9.924,0,0,1-.817,4.5,3.3,3.3,0,0,1-1.558,1.6,3.577,3.577,0,0,1-1.615.4,3.348,3.348,0,0,1-3.192-2,9.911,9.911,0,0,1-.817-4.5A14.751,14.751,0,0,1,42.726,84,6.376,6.376,0,0,1,43.571,81.885Zm4.275-.228a1.752,1.752,0,0,0-1.349-.608,1.811,1.811,0,0,0-1.368.608,2.279,2.279,0,0,0-.57,1.064,11.826,11.826,0,0,0-.19,2.166q0,.114-.01.741c-.006.418-.009.767-.009,1.045q0,1.824.038,2.546a10.847,10.847,0,0,0,.228,1.91,2.151,2.151,0,0,0,.57,1,1.685,1.685,0,0,0,1.311.57,1.665,1.665,0,0,0,1.292-.57,2.169,2.169,0,0,0,.57-1,10.946,10.946,0,0,0,.228-1.91q.037-.723.038-2.546c0-.278,0-.627-.009-1.045s-.01-.665-.01-.741a11.736,11.736,0,0,0-.19-2.166A2.288,2.288,0,0,0,47.846,81.657Z"
         id="path67" />
      <path
         class="d"
         d="M54.059,80.707a1.7,1.7,0,0,1,.646-.922,1.907,1.907,0,0,1,1.178-.37,1.931,1.931,0,0,1,1.938,1.045,1.4,1.4,0,0,1,.114.589,1.447,1.447,0,0,1-.114.608A1.848,1.848,0,0,1,55.978,82.7a2.121,2.121,0,0,1-1.254-.361,1.624,1.624,0,0,1-.665-.931,1.816,1.816,0,0,1-.019-.342A1.975,1.975,0,0,1,54.059,80.707ZM56,82a1.731,1.731,0,0,0,.95-.181.894.894,0,0,0,.247-.75q0-.778-.589-.931a4.462,4.462,0,0,0-.551-.019c-.063,0-.136,0-.219-.01l-.142-.009a.916.916,0,0,0-.684.218,1.044,1.044,0,0,0-.209.732,1,1,0,0,0,.209.741A1.569,1.569,0,0,0,56,82Z"
         id="path69" />
    </g>
    <g
       class="c"
       id="g83"
       transform="translate(0,2)">
      <path
         class="d"
         d="m 13.9,154 q -0.324,-0.057 -3.021,-0.057 -2.661,0 -2.983,0.057 H 7.672 v -0.874 h 0.494 a 10.716,10.716 0 0 0 1.425,-0.057 1.228,1.228 0 0 0 0.456,-0.228 v -9.823 a 0.454,0.454 0 0 0 -0.152,0.057 5.592,5.592 0 0 1 -1.957,0.361 H 7.577 v -0.874 h 0.361 a 5.3,5.3 0 0 0 2.66,-0.722 2.645,2.645 0 0 0 0.589,-0.437 q 0.037,-0.057 0.228,-0.057 a 0.479,0.479 0 0 1 0.323,0.114 v 5.681 l 0.019,5.7 a 1.838,1.838 0 0 0 1.235,0.285 h 1.121 V 154 Z"
         id="path75" />
      <path
         class="d"
         d="m 18.768,147.635 a 5.649,5.649 0 0 1 -1.435,-1.273 2.825,2.825 0 0 1 -0.5,-1.748 2.8,2.8 0 0 1 0.3,-1.368 3.393,3.393 0 0 1 1.225,-1.378 3.347,3.347 0 0 1 1.853,-0.522 3.772,3.772 0 0 1 2.242,0.675 2.8,2.8 0 0 1 1.178,1.738 3.376,3.376 0 0 1 0.019,0.456 2.807,2.807 0 0 1 -0.038,0.57 3.549,3.549 0 0 1 -1.729,2.166 l -0.228,0.152 q 1.063,0.723 1.1,0.76 a 3.491,3.491 0 0 1 1.425,2.831 3.526,3.526 0 0 1 -1.13,2.631 3.9,3.9 0 0 1 -2.822,1.093 3.8,3.8 0 0 1 -3.439,-1.71 2.823,2.823 0 0 1 -0.475,-1.653 q 0.003,-2.07 2.454,-3.42 z m -1.235,3.382 a 2.374,2.374 0 0 0 0.817,1.852 2.76,2.76 0 0 0 1.9,0.732 3.092,3.092 0 0 0 1.416,-0.323 2.362,2.362 0 0 0 0.959,-0.836 1.881,1.881 0 0 0 0.323,-1.045 1.935,1.935 0 0 0 -0.665,-1.444 q -0.152,-0.151 -1.577,-1.083 l -0.58,-0.371 q -0.314,-0.2 -0.484,-0.313 l -0.152,-0.095 -0.228,0.114 a 3.694,3.694 0 0 0 -1.577,1.9 3.1,3.1 0 0 0 -0.152,0.912 z m 5.016,-6.764 a 1.958,1.958 0 0 0 -0.532,-1.387 2.361,2.361 0 0 0 -1.292,-0.722 6.255,6.255 0 0 0 -0.627,-0.019 2.3,2.3 0 0 0 -1.691,0.684 1.372,1.372 0 0 0 -0.475,1.045 1.494,1.494 0 0 0 0.684,1.292 q 0.094,0.1 1.216,0.8 l 1.1,0.722 c 0.012,-0.013 0.095,-0.066 0.247,-0.161 a 2.029,2.029 0 0 0 0.342,-0.257 2.469,2.469 0 0 0 1.028,-1.997 z"
         id="path77" />
      <path
         class="d"
         d="m 26.824,142.885 a 3.351,3.351 0 0 1 2.907,-1.539 3.506,3.506 0 0 1 2.432,0.95 4.146,4.146 0 0 1 0.874,1.292 10.885,10.885 0 0 1 0.7,4.332 9.924,9.924 0 0 1 -0.817,4.5 3.3,3.3 0 0 1 -1.558,1.6 3.58,3.58 0 0 1 -1.615,0.4 3.348,3.348 0 0 1 -3.192,-2 9.911,9.911 0 0 1 -0.817,-4.5 14.751,14.751 0 0 1 0.241,-2.92 6.355,6.355 0 0 1 0.845,-2.115 z m 4.275,-0.228 a 1.753,1.753 0 0 0 -1.349,-0.608 1.811,1.811 0 0 0 -1.368,0.608 2.279,2.279 0 0 0 -0.57,1.064 11.646,11.646 0 0 0 -0.19,2.166 q 0,0.114 -0.01,0.741 c -0.006,0.418 -0.009,0.767 -0.009,1.045 q 0,1.824 0.038,2.546 a 10.847,10.847 0 0 0 0.228,1.91 2.151,2.151 0 0 0 0.57,1 1.685,1.685 0 0 0 1.311,0.57 1.665,1.665 0 0 0 1.292,-0.57 2.169,2.169 0 0 0 0.57,-1 10.946,10.946 0 0 0 0.228,-1.91 q 0.037,-0.723 0.038,-2.546 c 0,-0.278 0,-0.627 -0.009,-1.045 -0.009,-0.418 -0.01,-0.665 -0.01,-0.741 a 11.826,11.826 0 0 0 -0.19,-2.166 2.3,2.3 0 0 0 -0.569,-1.064 z"
         id="path79" />
      <path
         class="d"
         d="m 37.312,141.707 a 1.7,1.7 0 0 1 0.646,-0.922 1.907,1.907 0 0 1 1.178,-0.37 1.931,1.931 0 0 1 1.938,1.045 1.4,1.4 0 0 1 0.114,0.589 1.447,1.447 0 0 1 -0.114,0.608 1.848,1.848 0 0 1 -1.843,1.045 2.121,2.121 0 0 1 -1.254,-0.361 1.624,1.624 0 0 1 -0.665,-0.931 1.816,1.816 0 0 1 -0.019,-0.342 1.975,1.975 0 0 1 0.019,-0.361 z M 39.25,143 a 1.731,1.731 0 0 0 0.95,-0.181 0.894,0.894 0 0 0 0.247,-0.75 q 0,-0.779 -0.589,-0.931 a 4.474,4.474 0 0 0 -0.551,-0.019 c -0.063,0 -0.136,0 -0.219,-0.01 L 38.946,141.1 a 0.916,0.916 0 0 0 -0.684,0.218 1.044,1.044 0 0 0 -0.209,0.732 1,1 0 0 0 0.209,0.741 1.569,1.569 0 0 0 0.988,0.209 z"
         id="path81" />
    </g>
    <g
       class="c"
       id="g95">
      <path
         class="d"
         d="M24.837,208.849a1.061,1.061,0,0,1-.836-.342,1.211,1.211,0,0,1-.3-.836,3.118,3.118,0,0,1,1.035-2.347,3.488,3.488,0,0,1,2.48-.978,4.123,4.123,0,0,1,2.707.883,3.71,3.71,0,0,1,1.321,2.309,5.8,5.8,0,0,1,.038.627,3.6,3.6,0,0,1-.665,2.071,12.66,12.66,0,0,1-2.147,2.185q-.684.588-1.9,1.748l-1.121,1.064,1.444.019a22.681,22.681,0,0,0,3.173-.095c.05-.012.114-.145.19-.4a11.965,11.965,0,0,0,.266-1.292v-.057h.76v.057l-.532,3.477V217H23.7v-.361a1.262,1.262,0,0,1,.038-.437q.02-.019,1.6-1.805,2.07-2.3,2.66-3.04a5.516,5.516,0,0,0,1.273-3.173,3.321,3.321,0,0,0-.656-2.1,2.185,2.185,0,0,0-1.833-.846,2.085,2.085,0,0,0-1.786.988c-.026.05-.063.121-.114.209a.421.421,0,0,0-.057.114c0,.012.032.019.095.019a.97.97,0,0,1,.77.342,1.186,1.186,0,0,1,.294.8,1.136,1.136,0,0,1-.313.808A1.086,1.086,0,0,1,24.837,208.849Z"
         id="path87" />
      <path
         class="d"
         d="M40.151,217q-.323-.057-3.021-.057-2.661,0-2.983.057h-.228v-.874h.494a10.706,10.706,0,0,0,1.425-.057,1.228,1.228,0,0,0,.456-.228v-9.823a.461.461,0,0,0-.152.057,5.592,5.592,0,0,1-1.957.361h-.361v-.874h.361a5.3,5.3,0,0,0,2.66-.722,2.622,2.622,0,0,0,.589-.437q.038-.057.228-.057a.479.479,0,0,1,.323.114v5.681l.019,5.7a1.838,1.838,0,0,0,1.235.285H40.36V217Z"
         id="path89" />
      <path
         class="d"
         d="M43.571,205.885a3.353,3.353,0,0,1,2.907-1.539,3.506,3.506,0,0,1,2.432.95,4.146,4.146,0,0,1,.874,1.292,10.885,10.885,0,0,1,.7,4.332,9.924,9.924,0,0,1-.817,4.5,3.3,3.3,0,0,1-1.558,1.6,3.577,3.577,0,0,1-1.615.4,3.348,3.348,0,0,1-3.192-2,9.911,9.911,0,0,1-.817-4.5A14.751,14.751,0,0,1,42.726,208,6.376,6.376,0,0,1,43.571,205.885Zm4.275-.228a1.752,1.752,0,0,0-1.349-.608,1.811,1.811,0,0,0-1.368.608,2.279,2.279,0,0,0-.57,1.064,11.826,11.826,0,0,0-.19,2.166q0,.114-.01.741c-.006.418-.009.767-.009,1.045q0,1.824.038,2.546a10.847,10.847,0,0,0,.228,1.91,2.151,2.151,0,0,0,.57,1,1.685,1.685,0,0,0,1.311.57,1.665,1.665,0,0,0,1.292-.57,2.169,2.169,0,0,0,.57-1,10.946,10.946,0,0,0,.228-1.91q.037-.723.038-2.546c0-.278,0-.627-.009-1.045s-.01-.665-.01-.741a11.736,11.736,0,0,0-.19-2.166A2.288,2.288,0,0,0,47.846,205.657Z"
         id="path91" />
      <path
         class="d"
         d="M54.059,204.707a1.7,1.7,0,0,1,.646-.922,1.907,1.907,0,0,1,1.178-.37,1.931,1.931,0,0,1,1.938,1.045,1.4,1.4,0,0,1,.114.589,1.447,1.447,0,0,1-.114.608,1.848,1.848,0,0,1-1.843,1.045,2.121,2.121,0,0,1-1.254-.361,1.624,1.624,0,0,1-.665-.931,1.816,1.816,0,0,1-.019-.342A1.975,1.975,0,0,1,54.059,204.707ZM56,206a1.731,1.731,0,0,0,.95-.181.894.894,0,0,0,.247-.75q0-.779-.589-.931a4.462,4.462,0,0,0-.551-.019c-.063,0-.136,0-.219-.01l-.142-.009a.916.916,0,0,0-.684.218,1.044,1.044,0,0,0-.209.732,1,1,0,0,0,.209.741A1.569,1.569,0,0,0,56,206Z"
         id="path93" />
    </g>
    <g
       class="c"
       id="g107">
      <path
         class="d"
         d="M70.59,254.849a1.061,1.061,0,0,1-.836-.342,1.211,1.211,0,0,1-.3-.836,3.118,3.118,0,0,1,1.035-2.347,3.486,3.486,0,0,1,2.48-.978,4.123,4.123,0,0,1,2.707.883,3.71,3.71,0,0,1,1.321,2.309,5.8,5.8,0,0,1,.038.627,3.6,3.6,0,0,1-.665,2.071,12.66,12.66,0,0,1-2.147,2.185q-.684.588-1.9,1.748L71.2,261.233l1.444.019a22.692,22.692,0,0,0,3.173-.1c.05-.012.114-.145.19-.4a11.965,11.965,0,0,0,.266-1.292v-.057h.76v.057l-.532,3.477V263H69.45v-.361a1.262,1.262,0,0,1,.038-.437q.018-.019,1.6-1.805,2.07-2.3,2.66-3.04a5.516,5.516,0,0,0,1.273-3.173,3.321,3.321,0,0,0-.656-2.1,2.187,2.187,0,0,0-1.833-.846,2.083,2.083,0,0,0-1.786.988c-.026.05-.063.121-.114.209a.421.421,0,0,0-.057.114c0,.012.032.019.095.019a.97.97,0,0,1,.77.342,1.186,1.186,0,0,1,.294.8,1.141,1.141,0,0,1-.313.808A1.086,1.086,0,0,1,70.59,254.849Z"
         id="path99" />
      <path
         class="d"
         d="M86.778,263q-.266-.057-2.451-.057-2.28,0-2.546.057H81.61v-.874H82.2a4.027,4.027,0,0,0,1.007-.095.342.342,0,0,0,.228-.19c.012-.026.019-.367.019-1.026v-.95H78.532v-.874L81.4,254.6q2.907-4.408,2.945-4.427a.984.984,0,0,1,.4-.038h.342l.114.114v8.74h1.748v.874H85.2v.969c0,.52,0,.823.009.912a.347.347,0,0,0,.105.228,2.43,2.43,0,0,0,1.083.152h.551V263Zm-3.211-4.009v-6.346l-4.161,6.327,2.071.019Z"
         id="path101" />
      <path
         class="d"
         d="M89.324,251.885a3.351,3.351,0,0,1,2.907-1.539,3.506,3.506,0,0,1,2.432.95,4.146,4.146,0,0,1,.874,1.292,10.885,10.885,0,0,1,.7,4.332,9.924,9.924,0,0,1-.817,4.5,3.3,3.3,0,0,1-1.558,1.6,3.58,3.58,0,0,1-1.615.4,3.348,3.348,0,0,1-3.192-2,9.911,9.911,0,0,1-.817-4.5A14.751,14.751,0,0,1,88.479,254,6.355,6.355,0,0,1,89.324,251.885Zm4.275-.228a1.753,1.753,0,0,0-1.349-.608,1.811,1.811,0,0,0-1.368.608,2.279,2.279,0,0,0-.57,1.064,11.646,11.646,0,0,0-.19,2.166q0,.114-.01.741c-.006.418-.009.767-.009,1.045q0,1.824.038,2.546a10.847,10.847,0,0,0,.228,1.91,2.151,2.151,0,0,0,.57,1,1.685,1.685,0,0,0,1.311.57,1.665,1.665,0,0,0,1.292-.57,2.169,2.169,0,0,0,.57-1,10.946,10.946,0,0,0,.228-1.91q.037-.723.038-2.546c0-.278,0-.627-.009-1.045s-.01-.665-.01-.741a11.826,11.826,0,0,0-.19-2.166A2.3,2.3,0,0,0,93.6,251.657Z"
         id="path103" />
      <path
         class="d"
         d="M99.812,250.707a1.7,1.7,0,0,1,.646-.922,1.907,1.907,0,0,1,1.178-.37,1.931,1.931,0,0,1,1.938,1.045,1.4,1.4,0,0,1,.114.589,1.447,1.447,0,0,1-.114.608,1.848,1.848,0,0,1-1.843,1.045,2.121,2.121,0,0,1-1.254-.361,1.624,1.624,0,0,1-.665-.931,1.816,1.816,0,0,1-.019-.342A1.975,1.975,0,0,1,99.812,250.707ZM101.75,252a1.731,1.731,0,0,0,.95-.181.894.894,0,0,0,.247-.75q0-.779-.589-.931a4.474,4.474,0,0,0-.551-.019c-.063,0-.136,0-.219-.01l-.142-.009a.916.916,0,0,0-.684.218,1.044,1.044,0,0,0-.209.732,1,1,0,0,0,.209.741A1.569,1.569,0,0,0,101.75,252Z"
         id="path105" />
    </g>
    <g
       class="c"
       id="g119"
       transform="translate(6)">
      <path
         class="d"
         d="m 133.09,271.849 a 1.061,1.061 0 0 1 -0.836,-0.342 1.211,1.211 0 0 1 -0.3,-0.836 3.118,3.118 0 0 1 1.035,-2.347 3.486,3.486 0 0 1 2.48,-0.978 4.123,4.123 0 0 1 2.707,0.883 3.71,3.71 0 0 1 1.321,2.309 5.8,5.8 0 0 1 0.038,0.627 3.6,3.6 0 0 1 -0.665,2.071 12.66,12.66 0 0 1 -2.147,2.185 q -0.684,0.588 -1.9,1.748 l -1.121,1.064 1.444,0.019 a 22.692,22.692 0 0 0 3.173,-0.1 c 0.05,-0.012 0.114,-0.145 0.19,-0.4 a 11.965,11.965 0 0 0 0.266,-1.292 v -0.057 h 0.76 v 0.057 L 139,279.943 V 280 h -7.05 v -0.361 a 1.262,1.262 0 0 1 0.038,-0.437 q 0.018,-0.019 1.6,-1.805 2.07,-2.3 2.66,-3.04 a 5.516,5.516 0 0 0 1.273,-3.173 3.321,3.321 0 0 0 -0.656,-2.1 2.187,2.187 0 0 0 -1.833,-0.846 2.083,2.083 0 0 0 -1.786,0.988 c -0.026,0.05 -0.063,0.121 -0.114,0.209 a 0.421,0.421 0 0 0 -0.057,0.114 c 0,0.012 0.032,0.019 0.095,0.019 a 0.97,0.97 0 0 1 0.77,0.342 1.186,1.186 0 0 1 0.294,0.8 1.141,1.141 0 0 1 -0.313,0.808 1.086,1.086 0 0 1 -0.831,0.331 z"
         id="path111" />
      <path
         class="d"
         d="m 141.545,271.3 c 0.013,-0.026 0.12,-0.715 0.323,-2.071 l 0.3,-2.033 c 0,-0.025 0.126,-0.038 0.38,-0.038 h 0.38 v 0.076 c 0,0.126 0.095,0.235 0.285,0.323 a 2.965,2.965 0 0 0 1,0.171 q 0.712,0.039 3.2,0.038 h 2.3 v 0.741 l -1.292,1.767 q -0.285,0.4 -0.646,0.883 -0.361,0.483 -0.551,0.751 c -0.127,0.178 -0.2,0.285 -0.228,0.323 a 8.771,8.771 0 0 0 -1.178,4.123 q -0.076,0.779 -0.095,2.128 c 0,0.177 0,0.358 -0.01,0.541 -0.01,0.183 -0.009,0.333 -0.009,0.447 v 0.171 a 0.969,0.969 0 0 1 -0.371,0.551 1.017,1.017 0 0 1 -0.636,0.228 0.928,0.928 0 0 1 -0.732,-0.314 1.266,1.266 0 0 1 -0.275,-0.864 q 0,-0.285 0.076,-1.083 a 13.278,13.278 0 0 1 1.767,-5.149 q 0.38,-0.607 1.6,-2.3 l 0.874,-1.2 h -1.767 a 22.319,22.319 0 0 0 -3.477,0.114 c -0.051,0.025 -0.12,0.165 -0.209,0.418 a 6.476,6.476 0 0 0 -0.19,0.893 2.422,2.422 0 0 1 -0.057,0.361 v 0.057 h -0.76 z"
         id="path113" />
      <path
         class="d"
         d="m 151.824,268.885 a 3.351,3.351 0 0 1 2.907,-1.539 3.506,3.506 0 0 1 2.432,0.95 4.146,4.146 0 0 1 0.874,1.292 10.885,10.885 0 0 1 0.7,4.332 9.924,9.924 0 0 1 -0.817,4.5 3.3,3.3 0 0 1 -1.558,1.6 3.58,3.58 0 0 1 -1.615,0.4 3.348,3.348 0 0 1 -3.192,-2 9.911,9.911 0 0 1 -0.817,-4.5 14.751,14.751 0 0 1 0.238,-2.916 6.355,6.355 0 0 1 0.848,-2.119 z m 4.275,-0.228 a 1.753,1.753 0 0 0 -1.349,-0.608 1.811,1.811 0 0 0 -1.368,0.608 2.279,2.279 0 0 0 -0.57,1.064 11.646,11.646 0 0 0 -0.19,2.166 q 0,0.114 -0.01,0.741 c -0.006,0.418 -0.009,0.767 -0.009,1.045 q 0,1.824 0.038,2.546 a 10.847,10.847 0 0 0 0.228,1.91 2.151,2.151 0 0 0 0.57,1 1.685,1.685 0 0 0 1.311,0.57 1.665,1.665 0 0 0 1.292,-0.57 2.169,2.169 0 0 0 0.57,-1 10.946,10.946 0 0 0 0.228,-1.91 q 0.037,-0.723 0.038,-2.546 c 0,-0.278 0,-0.627 -0.009,-1.045 -0.009,-0.418 -0.01,-0.665 -0.01,-0.741 a 11.826,11.826 0 0 0 -0.19,-2.166 2.3,2.3 0 0 0 -0.569,-1.064 z"
         id="path115" />
      <path
         class="d"
         d="m 162.312,267.707 a 1.7,1.7 0 0 1 0.646,-0.922 1.907,1.907 0 0 1 1.178,-0.37 1.931,1.931 0 0 1 1.938,1.045 1.4,1.4 0 0 1 0.114,0.589 1.447,1.447 0 0 1 -0.114,0.608 1.848,1.848 0 0 1 -1.843,1.045 2.121,2.121 0 0 1 -1.254,-0.361 1.624,1.624 0 0 1 -0.665,-0.931 1.816,1.816 0 0 1 -0.019,-0.342 1.975,1.975 0 0 1 0.019,-0.361 z M 164.25,269 a 1.731,1.731 0 0 0 0.95,-0.181 0.894,0.894 0 0 0 0.247,-0.75 q 0,-0.779 -0.589,-0.931 a 4.474,4.474 0 0 0 -0.551,-0.019 c -0.063,0 -0.136,0 -0.219,-0.01 l -0.142,-0.009 a 0.916,0.916 0 0 0 -0.684,0.218 1.044,1.044 0 0 0 -0.209,0.732 1,1 0 0 0 0.209,0.741 1.569,1.569 0 0 0 0.988,0.209 z"
         id="path117" />
    </g>
    <g
       class="c"
       id="g131">
      <path
         class="d"
         d="M195.913,254.2a1.038,1.038,0,0,1-.808-.323,1.193,1.193,0,0,1-.293-.836,2.3,2.3,0,0,1,.854-1.815,3.641,3.641,0,0,1,1.977-.864h.284q.665,0,.837.019a4.588,4.588,0,0,1,1.272.4,2.833,2.833,0,0,1,1.577,1.786,1.847,1.847,0,0,1,.057.513,3.166,3.166,0,0,1-.693,2,3.833,3.833,0,0,1-1.739,1.263q-.094.039,0,.057a1.311,1.311,0,0,0,.191.057,4.042,4.042,0,0,1,1.956,1.207,2.91,2.91,0,0,1,.8,2,3.329,3.329,0,0,1-.362,1.5,3.758,3.758,0,0,1-1.491,1.605,4.315,4.315,0,0,1-2.309.637,4.554,4.554,0,0,1-2.223-.532,2.739,2.739,0,0,1-1.311-1.425,2.138,2.138,0,0,1-.19-.931,1.141,1.141,0,0,1,.351-.865,1.266,1.266,0,0,1,1.72.01,1.156,1.156,0,0,1,.342.855,1.213,1.213,0,0,1-.247.76,1.114,1.114,0,0,1-.665.418l-.133.038a3.578,3.578,0,0,0,2.356.855,1.7,1.7,0,0,0,1.578-1.007,4.388,4.388,0,0,0,.322-1.919v-.38a2.432,2.432,0,0,0-1.216-2.413,3.985,3.985,0,0,0-1.159-.133l-.8-.019-.057-.038a.711.711,0,0,1-.038-.3.451.451,0,0,1,.057-.285.153.153,0,0,1,.1-.057,6.625,6.625,0,0,0,1.1-.095,1.647,1.647,0,0,0,1.274-.94,4.2,4.2,0,0,0,.436-1.986,1.807,1.807,0,0,0-.665-1.653,1.564,1.564,0,0,0-.892-.266,2.809,2.809,0,0,0-1.672.513.851.851,0,0,0-.172.123,1.284,1.284,0,0,0-.152.162l-.057.076c.038.013.083.026.134.038a.906.906,0,0,1,.635.361,1.156,1.156,0,0,1,.257.741,1.047,1.047,0,0,1-.313.77A1.094,1.094,0,0,1,195.913,254.2Z"
         id="path123" />
      <path
         class="d"
         d="M204.824,251.885a3.353,3.353,0,0,1,2.907-1.539,3.5,3.5,0,0,1,2.432.95,4.129,4.129,0,0,1,.874,1.292,10.867,10.867,0,0,1,.7,4.332,9.911,9.911,0,0,1-.817,4.5,3.3,3.3,0,0,1-1.558,1.6,3.577,3.577,0,0,1-1.615.4,3.346,3.346,0,0,1-3.191-2,9.909,9.909,0,0,1-.818-4.5,14.751,14.751,0,0,1,.238-2.916A6.376,6.376,0,0,1,204.824,251.885Zm4.276-.228a1.757,1.757,0,0,0-1.35-.608,1.812,1.812,0,0,0-1.368.608,2.288,2.288,0,0,0-.57,1.064,11.736,11.736,0,0,0-.19,2.166q0,.114-.01.741c-.006.418-.008.767-.008,1.045,0,1.216.011,2.064.038,2.546a10.774,10.774,0,0,0,.227,1.91,2.16,2.16,0,0,0,.57,1,1.685,1.685,0,0,0,1.311.57,1.663,1.663,0,0,0,1.292-.57,2.16,2.16,0,0,0,.57-1,10.847,10.847,0,0,0,.228-1.91q.037-.723.038-2.546c0-.278,0-.627-.009-1.045s-.01-.665-.01-.741a11.646,11.646,0,0,0-.19-2.166A2.3,2.3,0,0,0,209.1,251.657Z"
         id="path125" />
      <path
         class="d"
         d="M214.324,251.885a3.353,3.353,0,0,1,2.907-1.539,3.5,3.5,0,0,1,2.432.95,4.129,4.129,0,0,1,.874,1.292,10.867,10.867,0,0,1,.7,4.332,9.911,9.911,0,0,1-.817,4.5,3.3,3.3,0,0,1-1.558,1.6,3.577,3.577,0,0,1-1.615.4,3.346,3.346,0,0,1-3.191-2,9.909,9.909,0,0,1-.818-4.5,14.751,14.751,0,0,1,.238-2.916A6.376,6.376,0,0,1,214.324,251.885Zm4.276-.228a1.757,1.757,0,0,0-1.35-.608,1.812,1.812,0,0,0-1.368.608,2.288,2.288,0,0,0-.57,1.064,11.736,11.736,0,0,0-.19,2.166q0,.114-.01.741c-.006.418-.008.767-.008,1.045,0,1.216.011,2.064.038,2.546a10.774,10.774,0,0,0,.227,1.91,2.16,2.16,0,0,0,.57,1,1.685,1.685,0,0,0,1.311.57,1.663,1.663,0,0,0,1.292-.57,2.16,2.16,0,0,0,.57-1,10.847,10.847,0,0,0,.228-1.91q.037-.723.038-2.546c0-.278,0-.627-.009-1.045s-.01-.665-.01-.741a11.646,11.646,0,0,0-.19-2.166A2.3,2.3,0,0,0,218.6,251.657Z"
         id="path127" />
      <path
         class="d"
         d="M224.812,250.707a1.7,1.7,0,0,1,.646-.922,1.91,1.91,0,0,1,1.179-.37,1.931,1.931,0,0,1,1.937,1.045,1.4,1.4,0,0,1,.114.589,1.447,1.447,0,0,1-.114.608,1.847,1.847,0,0,1-1.843,1.045,2.116,2.116,0,0,1-1.253-.361,1.621,1.621,0,0,1-.666-.931,1.911,1.911,0,0,1-.019-.342A2.077,2.077,0,0,1,224.812,250.707ZM226.75,252a1.729,1.729,0,0,0,.95-.181.894.894,0,0,0,.247-.75q0-.779-.589-.931a4.453,4.453,0,0,0-.55-.019c-.064,0-.137,0-.219-.01l-.143-.009a.913.913,0,0,0-.683.218,1.04,1.04,0,0,0-.209.732.992.992,0,0,0,.209.741A1.564,1.564,0,0,0,226.75,252Z"
         id="path129" />
    </g>
    <g
       class="c"
       id="g143">
      <path
         class="d"
         d="M241.666,208.2a1.038,1.038,0,0,1-.808-.323,1.193,1.193,0,0,1-.294-.836,2.3,2.3,0,0,1,.855-1.815,3.638,3.638,0,0,1,1.977-.864h.284q.664,0,.837.019a4.588,4.588,0,0,1,1.272.4,2.833,2.833,0,0,1,1.577,1.786,1.847,1.847,0,0,1,.057.513,3.161,3.161,0,0,1-.694,2,3.825,3.825,0,0,1-1.738,1.263q-.095.039,0,.057a1.311,1.311,0,0,0,.191.057,4.047,4.047,0,0,1,1.956,1.207,2.91,2.91,0,0,1,.8,2,3.329,3.329,0,0,1-.362,1.5,3.77,3.77,0,0,1-1.491,1.605,4.315,4.315,0,0,1-2.309.637,4.551,4.551,0,0,1-2.223-.532,2.739,2.739,0,0,1-1.311-1.425,2.138,2.138,0,0,1-.19-.931,1.141,1.141,0,0,1,.351-.865,1.266,1.266,0,0,1,1.72.01,1.156,1.156,0,0,1,.342.855,1.213,1.213,0,0,1-.247.76,1.114,1.114,0,0,1-.665.418l-.133.038a3.578,3.578,0,0,0,2.356.855,1.7,1.7,0,0,0,1.578-1.007,4.388,4.388,0,0,0,.322-1.919v-.38a2.432,2.432,0,0,0-1.216-2.413,3.985,3.985,0,0,0-1.159-.133l-.8-.019-.057-.038a.711.711,0,0,1-.038-.3.451.451,0,0,1,.057-.285.153.153,0,0,1,.1-.057,6.625,6.625,0,0,0,1.1-.095,1.647,1.647,0,0,0,1.274-.94,4.2,4.2,0,0,0,.436-1.986,1.807,1.807,0,0,0-.665-1.653,1.568,1.568,0,0,0-.893-.266,2.808,2.808,0,0,0-1.671.513.851.851,0,0,0-.172.123,1.214,1.214,0,0,0-.152.162l-.057.076c.038.013.083.026.134.038a.908.908,0,0,1,.635.361,1.156,1.156,0,0,1,.257.741,1.047,1.047,0,0,1-.313.77A1.094,1.094,0,0,1,241.666,208.2Z"
         id="path135" />
      <path
         class="d"
         d="M251.166,208.2a1.038,1.038,0,0,1-.808-.323,1.193,1.193,0,0,1-.294-.836,2.3,2.3,0,0,1,.855-1.815,3.638,3.638,0,0,1,1.977-.864h.284q.664,0,.837.019a4.588,4.588,0,0,1,1.272.4,2.833,2.833,0,0,1,1.577,1.786,1.847,1.847,0,0,1,.057.513,3.161,3.161,0,0,1-.694,2,3.825,3.825,0,0,1-1.738,1.263q-.095.039,0,.057a1.311,1.311,0,0,0,.191.057,4.047,4.047,0,0,1,1.956,1.207,2.91,2.91,0,0,1,.8,2,3.329,3.329,0,0,1-.362,1.5,3.77,3.77,0,0,1-1.491,1.605,4.315,4.315,0,0,1-2.309.637,4.551,4.551,0,0,1-2.223-.532,2.739,2.739,0,0,1-1.311-1.425,2.138,2.138,0,0,1-.19-.931,1.141,1.141,0,0,1,.351-.865,1.266,1.266,0,0,1,1.72.01,1.156,1.156,0,0,1,.342.855,1.213,1.213,0,0,1-.247.76,1.114,1.114,0,0,1-.665.418l-.133.038a3.578,3.578,0,0,0,2.356.855,1.7,1.7,0,0,0,1.578-1.007,4.388,4.388,0,0,0,.322-1.919v-.38a2.432,2.432,0,0,0-1.216-2.413,3.985,3.985,0,0,0-1.159-.133l-.8-.019-.057-.038a.711.711,0,0,1-.038-.3.451.451,0,0,1,.057-.285.153.153,0,0,1,.1-.057,6.625,6.625,0,0,0,1.1-.095,1.647,1.647,0,0,0,1.274-.94,4.2,4.2,0,0,0,.436-1.986,1.807,1.807,0,0,0-.665-1.653,1.568,1.568,0,0,0-.893-.266,2.808,2.808,0,0,0-1.671.513.851.851,0,0,0-.172.123,1.214,1.214,0,0,0-.152.162l-.057.076c.038.013.083.026.134.038a.908.908,0,0,1,.635.361,1.156,1.156,0,0,1,.257.741,1.047,1.047,0,0,1-.313.77A1.094,1.094,0,0,1,251.166,208.2Z"
         id="path137" />
      <path
         class="d"
         d="M260.077,205.885a3.353,3.353,0,0,1,2.907-1.539,3.5,3.5,0,0,1,2.432.95,4.129,4.129,0,0,1,.874,1.292,10.867,10.867,0,0,1,.7,4.332,9.911,9.911,0,0,1-.817,4.5,3.3,3.3,0,0,1-1.558,1.6,3.577,3.577,0,0,1-1.615.4,3.346,3.346,0,0,1-3.191-2,9.909,9.909,0,0,1-.818-4.5,14.837,14.837,0,0,1,.237-2.916A6.4,6.4,0,0,1,260.077,205.885Zm4.276-.228a1.757,1.757,0,0,0-1.35-.608,1.812,1.812,0,0,0-1.368.608,2.279,2.279,0,0,0-.57,1.064,11.736,11.736,0,0,0-.19,2.166q0,.114-.01.741c-.006.418-.009.767-.009,1.045q0,1.824.039,2.546a10.774,10.774,0,0,0,.227,1.91,2.16,2.16,0,0,0,.57,1,1.685,1.685,0,0,0,1.311.57,1.665,1.665,0,0,0,1.292-.57,2.16,2.16,0,0,0,.57-1,10.847,10.847,0,0,0,.228-1.91q.037-.723.038-2.546c0-.278,0-.627-.009-1.045s-.01-.665-.01-.741a11.736,11.736,0,0,0-.19-2.166A2.3,2.3,0,0,0,264.353,205.657Z"
         id="path139" />
      <path
         class="d"
         d="M270.565,204.707a1.7,1.7,0,0,1,.646-.922,1.91,1.91,0,0,1,1.179-.37,1.931,1.931,0,0,1,1.937,1.045,1.4,1.4,0,0,1,.114.589,1.447,1.447,0,0,1-.114.608,1.847,1.847,0,0,1-1.843,1.045,2.121,2.121,0,0,1-1.254-.361,1.624,1.624,0,0,1-.665-.931,1.911,1.911,0,0,1-.019-.342A2.077,2.077,0,0,1,270.565,204.707ZM272.5,206a1.729,1.729,0,0,0,.95-.181.894.894,0,0,0,.247-.75q0-.779-.589-.931a4.453,4.453,0,0,0-.55-.019c-.064,0-.137,0-.219-.01l-.143-.009a.913.913,0,0,0-.683.218,1.04,1.04,0,0,0-.209.732.992.992,0,0,0,.209.741A1.564,1.564,0,0,0,272.5,206Z"
         id="path141" />
    </g>
    <g
       class="e"
       clip-path="url(#a)"
       id="g447">
      <path
         id="line157"
         style="fill:none;stroke:#dddddd"
         d="m 150,150 99.905,-4.362"
         class="f" />
      <path
         id="line159"
         style="fill:none;stroke:#dddddd"
         d="m 150,150 99.619,-8.716"
         class="f" />
      <path
         id="line161"
         style="fill:none;stroke:#dddddd"
         d="m 150,150 99.144,-13.05299"
         class="f" />
      <path
         id="line163"
         style="fill:none;stroke:#dddddd"
         d="m 150,150 97.63,-21.644"
         class="f" />
      <path
         id="line165"
         style="fill:none;stroke:#dddddd"
         d="m 150,150 96.593,-25.882"
         class="f" />
      <path
         id="line167"
         style="fill:none;stroke:#dddddd"
         d="m 150,150 95.37199,-30.071"
         class="f" />
      <path
         id="line169"
         style="fill:none;stroke:#dddddd"
         d="m 150,150 92.388,-38.268"
         class="f" />
      <path
         id="line171"
         style="fill:none;stroke:#dddddd"
         d="m 150,150 90.631,-42.262"
         class="f" />
      <path
         id="line173"
         style="fill:none;stroke:#dddddd"
         d="m 150,150 88.701,-46.175"
         class="f" />
      <path
         id="line175"
         style="fill:none;stroke:#dddddd"
         d="M 150,150 234.339,96.269997"
         class="f" />
      <path
         id="line177"
         style="fill:none;stroke:#dddddd"
         d="M 150,150 231.91499,92.641998"
         class="f" />
      <path
         id="line179"
         style="fill:none;stroke:#dddddd"
         d="M 150,150 229.33501,89.124001"
         class="f" />
      <path
         id="line181"
         style="fill:none;stroke:#dddddd"
         d="M 150,150 223.728,82.441002"
         class="f" />
      <path
         id="line183"
         style="fill:none;stroke:#dddddd"
         d="M 150,150 220.711,79.289001"
         class="f" />
      <path
         id="line185"
         style="fill:none;stroke:#dddddd"
         d="M 150,150 217.55901,76.272003"
         class="f" />
      <path
         id="line187"
         style="fill:none;stroke:#dddddd"
         d="M 150,150 210.87601,70.665001"
         class="f" />
      <path
         id="line189"
         style="fill:none;stroke:#dddddd"
         d="M 150,150 207.358,68.084999"
         class="f" />
      <path
         id="line191"
         style="fill:none;stroke:#dddddd"
         d="M 150,150 203.73,65.661003"
         class="f" />
      <path
         id="line193"
         style="fill:none;stroke:#dddddd"
         d="M 150,150 196.175,61.299"
         class="f" />
      <path
         id="line195"
         style="fill:none;stroke:#dddddd"
         d="M 150,150 192.26199,59.368999"
         class="f" />
      <path
         id="line197"
         style="fill:none;stroke:#dddddd"
         d="M 150,150 188.26801,57.612"
         class="f" />
      <path
         id="line199"
         style="fill:none;stroke:#dddddd"
         d="M 150,150 180.071,54.627998"
         class="f" />
      <path
         id="line201"
         style="fill:none;stroke:#dddddd"
         d="M 150,150 175.882,53.407001"
         class="f" />
      <path
         id="line203"
         style="fill:none;stroke:#dddddd"
         d="M 150,150 171.644,52.369999"
         class="f" />
      <path
         id="line205"
         style="fill:none;stroke:#dddddd"
         d="M 150,150 163.05299,50.855999"
         class="f" />
      <path
         id="line207"
         style="fill:none;stroke:#dddddd"
         d="m 150,150 8.716,-99.618999"
         class="f" />
      <path
         id="line209"
         style="fill:none;stroke:#dddddd"
         d="m 150,150 4.362,-99.904999"
         class="f" />
      <path
         id="line211"
         style="fill:none;stroke:#dddddd"
         d="M 150,150 145.638,50.095001"
         class="f" />
      <path
         id="line213"
         style="fill:none;stroke:#dddddd"
         d="M 150,150 141.284,50.381001"
         class="f" />
      <path
         id="line215"
         style="fill:none;stroke:#dddddd"
         d="M 150,150 136.94701,50.855999"
         class="f" />
      <path
         id="line217"
         style="fill:none;stroke:#dddddd"
         d="M 150,150 128.356,52.369999"
         class="f" />
      <path
         id="line219"
         style="fill:none;stroke:#dddddd"
         d="M 150,150 124.118,53.407001"
         class="f" />
      <path
         id="line221"
         style="fill:none;stroke:#dddddd"
         d="M 150,150 119.929,54.627998"
         class="f" />
      <path
         id="line223"
         style="fill:none;stroke:#dddddd"
         d="M 150,150 111.732,57.612"
         class="f" />
      <path
         id="line225"
         style="fill:none;stroke:#dddddd"
         d="M 150,150 107.738,59.368999"
         class="f" />
      <path
         id="line227"
         style="fill:none;stroke:#dddddd"
         d="M 150,150 103.825,61.299"
         class="f" />
      <path
         id="line229"
         style="fill:none;stroke:#dddddd"
         d="M 150,150 96.269997,65.661003"
         class="f" />
      <path
         id="line231"
         style="fill:none;stroke:#dddddd"
         d="M 150,150 92.641998,68.084999"
         class="f" />
      <path
         id="line233"
         style="fill:none;stroke:#dddddd"
         d="M 150,150 89.124001,70.665001"
         class="f" />
      <path
         id="line235"
         style="fill:none;stroke:#dddddd"
         d="M 150,150 82.441002,76.272003"
         class="f" />
      <path
         id="line237"
         style="fill:none;stroke:#dddddd"
         d="M 150,150 79.289001,79.289001"
         class="f" />
      <path
         id="line239"
         style="fill:none;stroke:#dddddd"
         d="M 150,150 76.272003,82.441002"
         class="f" />
      <path
         id="line241"
         style="fill:none;stroke:#dddddd"
         d="M 150,150 70.665001,89.124001"
         class="f" />
      <path
         id="line243"
         style="fill:none;stroke:#dddddd"
         d="M 150,150 68.084999,92.641998"
         class="f" />
      <path
         id="line245"
         style="fill:none;stroke:#dddddd"
         d="M 150,150 65.661003,96.269997"
         class="f" />
      <path
         id="line247"
         style="fill:none;stroke:#dddddd"
         d="M 150,150 61.299,103.825"
         class="f" />
      <path
         id="line249"
         style="fill:none;stroke:#dddddd"
         d="M 150,150 59.368999,107.738"
         class="f" />
      <path
         id="line251"
         style="fill:none;stroke:#dddddd"
         d="M 150,150 57.612,111.732"
         class="f" />
      <path
         id="line253"
         style="fill:none;stroke:#dddddd"
         d="M 150,150 54.627998,119.929"
         class="f" />
      <path
         id="line255"
         style="fill:none;stroke:#dddddd"
         d="M 150,150 53.407001,124.118"
         class="f" />
      <path
         id="line257"
         style="fill:none;stroke:#dddddd"
         d="M 150,150 52.369999,128.356"
         class="f" />
      <path
         id="line259"
         style="fill:none;stroke:#dddddd"
         d="M 150,150 50.855999,136.94701"
         class="f" />
      <path
         id="line261"
         style="fill:none;stroke:#dddddd"
         d="M 150,150 50.381001,141.284"
         class="f" />
      <path
         id="line263"
         style="fill:none;stroke:#dddddd"
         d="M 150,150 50.095001,145.638"
         class="f" />
      <path
         id="line265"
         style="fill:none;stroke:#dddddd"
         d="m 150,150 -99.904999,4.362"
         class="f" />
      <path
         id="line267"
         style="fill:none;stroke:#dddddd"
         d="m 150,150 -99.618999,8.716"
         class="f" />
      <path
         id="line269"
         style="fill:none;stroke:#dddddd"
         d="M 150,150 50.855999,163.05299"
         class="f" />
      <path
         id="line271"
         style="fill:none;stroke:#dddddd"
         d="M 150,150 52.369999,171.644"
         class="f" />
      <path
         id="line273"
         style="fill:none;stroke:#dddddd"
         d="M 150,150 53.407001,175.882"
         class="f" />
      <path
         id="line275"
         style="fill:none;stroke:#dddddd"
         d="M 150,150 54.627998,180.071"
         class="f" />
      <path
         id="line277"
         style="fill:none;stroke:#dddddd"
         d="M 150,150 57.612,188.26801"
         class="f" />
      <path
         id="line279"
         style="fill:none;stroke:#dddddd"
         d="M 150,150 59.368999,192.26199"
         class="f" />
      <path
         id="line281"
         style="fill:none;stroke:#dddddd"
         d="M 150,150 61.299,196.175"
         class="f" />
      <path
         id="line283"
         style="fill:none;stroke:#dddddd"
         d="M 150,150 65.661003,203.73"
         class="f" />
      <path
         id="line285"
         style="fill:none;stroke:#dddddd"
         d="M 150,150 68.084999,207.358"
         class="f" />
      <path
         id="line287"
         style="fill:none;stroke:#dddddd"
         d="M 150,150 70.665001,210.87601"
         class="f" />
      <path
         id="line289"
         style="fill:none;stroke:#dddddd"
         d="M 150,150 76.272003,217.55901"
         class="f" />
      <path
         id="line291"
         style="fill:none;stroke:#dddddd"
         d="M 150,150 79.289001,220.711"
         class="f" />
      <path
         id="line293"
         style="fill:none;stroke:#dddddd"
         d="M 150,150 82.441002,223.728"
         class="f" />
      <path
         id="line295"
         style="fill:none;stroke:#dddddd"
         d="M 150,150 89.124001,229.33501"
         class="f" />
      <path
         id="line297"
         style="fill:none;stroke:#dddddd"
         d="M 150,150 92.641998,231.91499"
         class="f" />
      <path
         id="line299"
         style="fill:none;stroke:#dddddd"
         d="M 150,150 96.269997,234.339"
         class="f" />
      <path
         id="line301"
         style="fill:none;stroke:#dddddd"
         d="m 150,150 -46.175,88.701"
         class="f" />
      <path
         id="line303"
         style="fill:none;stroke:#dddddd"
         d="m 150,150 -42.262,90.631"
         class="f" />
      <path
         id="line305"
         style="fill:none;stroke:#dddddd"
         d="m 150,150 -38.268,92.388"
         class="f" />
      <path
         id="line307"
         style="fill:none;stroke:#dddddd"
         d="m 150,150 -30.071,95.37199"
         class="f" />
      <path
         id="line309"
         style="fill:none;stroke:#dddddd"
         d="m 150,150 -25.882,96.593"
         class="f" />
      <path
         id="line311"
         style="fill:none;stroke:#dddddd"
         d="m 150,150 -21.644,97.63"
         class="f" />
      <path
         id="line313"
         style="fill:none;stroke:#dddddd"
         d="m 150,150 -13.05299,99.144"
         class="f" />
      <path
         id="line315"
         style="fill:none;stroke:#dddddd"
         d="m 150,150 -8.716,99.619"
         class="f" />
      <path
         id="line317"
         style="fill:none;stroke:#dddddd"
         d="m 150,150 -4.362,99.905"
         class="f" />
      <path
         id="line319"
         style="fill:none;stroke:#dddddd"
         d="m 150,150 4.362,99.905"
         class="f" />
      <path
         id="line321"
         style="fill:none;stroke:#dddddd"
         d="m 150,150 8.716,99.619"
         class="f" />
      <path
         id="line323"
         style="fill:none;stroke:#dddddd"
         d="m 150,150 13.05299,99.144"
         class="f" />
      <path
         id="line325"
         style="fill:none;stroke:#dddddd"
         d="m 150,150 21.644,97.63"
         class="f" />
      <path
         id="line327"
         style="fill:none;stroke:#dddddd"
         d="m 150,150 25.882,96.593"
         class="f" />
      <path
         id="line329"
         style="fill:none;stroke:#dddddd"
         d="m 150,150 30.071,95.37199"
         class="f" />
      <path
         id="line331"
         style="fill:none;stroke:#dddddd"
         d="m 150,150 38.26801,92.388"
         class="f" />
      <path
         id="line333"
         style="fill:none;stroke:#dddddd"
         d="m 150,150 42.26199,90.631"
         class="f" />
      <path
         id="line335"
         style="fill:none;stroke:#dddddd"
         d="m 150,150 46.175,88.701"
         class="f" />
      <path
         id="line337"
         style="fill:none;stroke:#dddddd"
         d="m 150,150 53.73,84.339"
         class="f" />
      <path
         id="line339"
         style="fill:none;stroke:#dddddd"
         d="m 150,150 57.358,81.91499"
         class="f" />
      <path
         id="line341"
         style="fill:none;stroke:#dddddd"
         d="m 150,150 60.87601,79.33501"
         class="f" />
      <path
         id="line343"
         style="fill:none;stroke:#dddddd"
         d="m 150,150 67.55901,73.728"
         class="f" />
      <path
         id="line345"
         style="fill:none;stroke:#dddddd"
         d="m 150,150 70.711,70.711"
         class="f" />
      <path
         id="line347"
         style="fill:none;stroke:#dddddd"
         d="m 150,150 73.728,67.55901"
         class="f" />
      <path
         id="line349"
         style="fill:none;stroke:#dddddd"
         d="m 150,150 79.33501,60.87601"
         class="f" />
      <path
         id="line351"
         style="fill:none;stroke:#dddddd"
         d="m 150,150 81.91499,57.358"
         class="f" />
      <path
         id="line353"
         style="fill:none;stroke:#dddddd"
         d="m 150,150 84.339,53.73"
         class="f" />
      <path
         id="line355"
         style="fill:none;stroke:#dddddd"
         d="m 150,150 88.701,46.175"
         class="f" />
      <path
         id="line357"
         style="fill:none;stroke:#dddddd"
         d="m 150,150 90.631,42.26199"
         class="f" />
      <path
         id="line359"
         style="fill:none;stroke:#dddddd"
         d="m 150,150 92.388,38.26801"
         class="f" />
      <path
         id="line361"
         style="fill:none;stroke:#dddddd"
         d="m 150,150 95.37199,30.071"
         class="f" />
      <path
         id="line363"
         style="fill:none;stroke:#dddddd"
         d="m 150,150 96.593,25.882"
         class="f" />
      <path
         id="line365"
         style="fill:none;stroke:#dddddd"
         d="m 150,150 97.63,21.644"
         class="f" />
      <path
         id="line367"
         style="fill:none;stroke:#dddddd"
         d="m 150,150 99.144,13.05299"
         class="f" />
      <path
         id="line369"
         style="fill:none;stroke:#dddddd"
         d="m 150,150 99.619,8.716"
         class="f" />
      <path
         id="line371"
         style="fill:none;stroke:#dddddd"
         d="m 150,150 99.905,4.362"
         class="f" />
      <path
         id="line373"
         style="fill:none;stroke:#818181"
         d="m 150,150 98.481,-17.36501"
         class="g" />
      <path
         id="line375"
         style="fill:none;stroke:#818181"
         d="m 150,150 93.96899,-34.202"
         class="g" />
      <path
         id="line377"
         style="fill:none;stroke:#818181"
         d="M 150,150 226.604,85.721001"
         class="g" />
      <path
         id="line379"
         style="fill:none;stroke:#818181"
         d="M 150,150 214.27901,73.396004"
         class="g" />
      <path
         id="line381"
         style="fill:none;stroke:#818181"
         d="M 150,150 184.202,56.030998"
         class="g" />
      <path
         id="line383"
         style="fill:none;stroke:#818181"
         d="M 150,150 167.36501,51.519001"
         class="g" />
      <path
         id="line385"
         style="fill:none;stroke:#818181"
         d="M 150,150 132.63499,51.519001"
         class="g" />
      <path
         id="line387"
         style="fill:none;stroke:#818181"
         d="M 150,150 115.798,56.030998"
         class="g" />
      <path
         id="line389"
         style="fill:none;stroke:#818181"
         d="M 150,150 85.721001,73.396004"
         class="g" />
      <path
         id="line391"
         style="fill:none;stroke:#818181"
         d="M 150,150 73.396004,85.721001"
         class="g" />
      <path
         id="line393"
         style="fill:none;stroke:#818181"
         d="M 150,150 56.030998,115.798"
         class="g" />
      <path
         id="line395"
         style="fill:none;stroke:#818181"
         d="M 150,150 51.519001,132.63499"
         class="g" />
      <path
         id="line397"
         style="fill:none;stroke:#818181"
         d="M 150,150 51.519001,167.36501"
         class="g" />
      <path
         id="line399"
         style="fill:none;stroke:#818181"
         d="M 150,150 56.030998,184.202"
         class="g" />
      <path
         id="line401"
         style="fill:none;stroke:#818181"
         d="M 150,150 73.396004,214.27901"
         class="g" />
      <path
         id="line403"
         style="fill:none;stroke:#818181"
         d="M 150,150 85.721001,226.604"
         class="g" />
      <path
         id="line405"
         style="fill:none;stroke:#818181"
         d="m 150,150 -34.202,93.96899"
         class="g" />
      <path
         id="line407"
         style="fill:none;stroke:#818181"
         d="m 150,150 -17.36501,98.481"
         class="g" />
      <path
         id="line409"
         style="fill:none;stroke:#818181"
         d="m 150,150 17.36501,98.481"
         class="g" />
      <path
         id="line411"
         style="fill:none;stroke:#818181"
         d="m 150,150 34.202,93.96899"
         class="g" />
      <path
         id="line413"
         style="fill:none;stroke:#818181"
         d="m 150,150 64.27901,76.604"
         class="g" />
      <path
         id="line415"
         style="fill:none;stroke:#818181"
         d="m 150,150 76.604,64.27901"
         class="g" />
      <path
         id="line417"
         style="fill:none;stroke:#818181"
         d="m 150,150 93.96899,34.202"
         class="g" />
      <path
         id="line419"
         style="fill:none;stroke:#818181"
         d="m 150,150 98.481,17.36501"
         class="g" />
      <path
         id="line421"
         style="fill:none;stroke:#414141"
         d="M 150,150 H 250"
         class="h" />
      <path
         id="line423"
         style="fill:none;stroke:#414141"
         d="m 150,150 86.603,-50"
         class="h" />
      <path
         id="line425"
         style="fill:none;stroke:#414141"
         d="M 150,150 200,63.396999"
         class="h" />
      <path
         id="line427"
         style="fill:none;stroke:#414141"
         d="M 150,150 V 50"
         class="h" />
      <path
         id="line429"
         style="fill:none;stroke:#414141"
         d="M 150,150 100,63.396999"
         class="h" />
      <path
         id="line431"
         style="fill:none;stroke:#414141"
         d="M 150,150 63.396999,100"
         class="h" />
      <path
         id="line433"
         style="fill:none;stroke:#414141"
         d="M 150,150 H 50"
         class="h" />
      <path
         id="line435"
         style="fill:none;stroke:#414141"
         d="M 150,150 63.396999,200"
         class="h" />
      <path
         id="line437"
         style="fill:none;stroke:#414141"
         d="m 150,150 -50,86.603"
         class="h" />
      <path
         id="line439"
         style="fill:none;stroke:#414141"
         d="M 150,150 V 250"
         class="h" />
      <path
         id="line441"
         style="fill:none;stroke:#414141"
         d="m 150,150 50,86.603"
         class="h" />
      <path
         id="line443"
         style="fill:none;stroke:#414141"
         d="m 150,150 86.603,50"
         class="h" />
      <path
         id="line445"
         style="fill:none;stroke:#414141"
         d="M 150,150 H 250"
         class="h" />
    </g>
    <path
       id="circle449"
       style="fill:none;stroke:#414141"
       d="M 250,150 C 250,205.22847 205.22847,250 150,250 94.771525,250 50,205.22847 50,150 50,94.771525 94.771525,50 150,50 c 55.22847,0 100,44.771525 100,100 z"
       class="h"
       sodipodi:nodetypes="sssss" />
    <path
       id="circle451"
       style="fill:none;stroke:#818181"
       d="m 237.5,150 c 0,48.32492 -39.17508,87.5 -87.5,87.5 -48.32492,0 -87.5,-39.17508 -87.5,-87.5 0,-48.32492 39.17508,-87.5 87.5,-87.5 48.32492,0 87.5,39.17508 87.5,87.5 z"
       class="g"
       sodipodi:nodetypes="sssss" />
    <path
       id="circle453"
       style="fill:#414141"
       d="m 153,150 c 0,1.65685 -1.34315,3 -3,3 -1.65685,0 -3,-1.34315 -3,-3 0,-1.65685 1.34315,-3 3,-3 1.65685,0 3,1.34315 3,3 z"
       class="i"
       sodipodi:nodetypes="sssss" />
    <path
       id="line455"
       style="fill:none;stroke:#565656;stroke-miterlimit:10"
       d="M 110,150 H 0.54673252"
       class="j"
       sodipodi:nodetypes="cc" />
    <path
       id="line457"
       style="fill:none;stroke:#565656;stroke-miterlimit:10"
       d="M 150,190 V 297.91978"
       class="j"
       sodipodi:nodetypes="cc" />
    <path
       id="line459"
       style="fill:none;stroke:#565656;stroke-miterlimit:10"
       d="M 150,110 V 1.5690556"
       class="j"
       sodipodi:nodetypes="cc" />
    <path
       id="line461"
       style="fill:none;stroke:#565656;stroke-miterlimit:10"
       d="M 190,150 H 298.94211"
       class="j"
       sodipodi:nodetypes="cc" />
    <g
       class="c"
       id="g17"
       transform="translate(-6,16)">
      <path
         class="d"
         d="m 267.324,128.885 a 3.353,3.353 0 0 1 2.907,-1.539 3.5,3.5 0 0 1 2.432,0.95 4.129,4.129 0 0 1 0.874,1.292 10.867,10.867 0 0 1 0.7,4.332 9.911,9.911 0 0 1 -0.817,4.5 3.3,3.3 0 0 1 -1.558,1.6 3.577,3.577 0 0 1 -1.615,0.4 3.346,3.346 0 0 1 -3.191,-2 9.909,9.909 0 0 1 -0.818,-4.5 14.751,14.751 0 0 1 0.238,-2.916 6.376,6.376 0 0 1 0.848,-2.119 z m 4.276,-0.228 a 1.757,1.757 0 0 0 -1.35,-0.608 1.812,1.812 0 0 0 -1.368,0.608 2.288,2.288 0 0 0 -0.57,1.064 11.736,11.736 0 0 0 -0.19,2.166 q 0,0.114 -0.01,0.741 c -0.006,0.418 -0.008,0.767 -0.008,1.045 0,1.216 0.011,2.064 0.038,2.546 a 10.774,10.774 0 0 0 0.227,1.91 2.16,2.16 0 0 0 0.57,1 1.685,1.685 0 0 0 1.311,0.57 1.663,1.663 0 0 0 1.292,-0.57 2.16,2.16 0 0 0 0.57,-1 10.847,10.847 0 0 0 0.228,-1.91 q 0.038,-0.723 0.038,-2.546 c 0,-0.278 0,-0.627 -0.009,-1.045 -0.009,-0.418 -0.01,-0.665 -0.01,-0.741 a 11.646,11.646 0 0 0 -0.19,-2.166 2.3,2.3 0 0 0 -0.569,-1.064 z"
         id="path13" />
      <path
         class="d"
         d="m 277.812,127.707 a 1.7,1.7 0 0 1 0.646,-0.922 1.91,1.91 0 0 1 1.179,-0.37 1.931,1.931 0 0 1 1.937,1.045 1.4,1.4 0 0 1 0.114,0.589 1.447,1.447 0 0 1 -0.114,0.608 1.847,1.847 0 0 1 -1.843,1.045 2.116,2.116 0 0 1 -1.253,-0.361 1.621,1.621 0 0 1 -0.666,-0.931 1.911,1.911 0 0 1 -0.019,-0.342 2.077,2.077 0 0 1 0.019,-0.361 z M 279.75,129 a 1.729,1.729 0 0 0 0.95,-0.181 0.894,0.894 0 0 0 0.247,-0.75 q 0,-0.779 -0.589,-0.931 a 4.453,4.453 0 0 0 -0.55,-0.019 c -0.064,0 -0.137,0 -0.219,-0.01 l -0.143,-0.009 a 0.913,0.913 0 0 0 -0.683,0.218 1.04,1.04 0 0 0 -0.209,0.732 0.992,0.992 0 0 0 0.209,0.741 1.564,1.564 0 0 0 0.987,0.209 z"
         id="path15" />
    </g>
  </g>
</svg>
