<?xml version="1.0" encoding="UTF-8" standalone="no"?>
<svg
   xmlns:dc="http://purl.org/dc/elements/1.1/"
   xmlns:cc="http://creativecommons.org/ns#"
   xmlns:rdf="http://www.w3.org/1999/02/22-rdf-syntax-ns#"
   xmlns:svg="http://www.w3.org/2000/svg"
   xmlns="http://www.w3.org/2000/svg"
   width="210mm"
   height="297mm"
   viewBox="0 0 210 297"
   version="1.1"
   id="svg8">
  <defs
     id="defs2" />
  <metadata
     id="metadata5">
    <rdf:RDF>
      <cc:Work
         rdf:about="">
        <dc:format>image/svg+xml</dc:format>
        <dc:type
           rdf:resource="http://purl.org/dc/dcmitype/StillImage" />
        <dc:title></dc:title>
      </cc:Work>
    </rdf:RDF>
  </metadata>
  <g
     id="layer1">
    <path
       id="path835"
       style="fill:#3fb34f;fill-opacity:1;stroke-width:0.785"
       d="M 211.26367 51.427734 A 111.42857 111.42857 0 0 0 100 162.85742 A 111.42857 111.42857 0 0 0 211.42773 274.28516 A 111.42857 111.42857 0 0 0 322.85742 162.85742 A 111.42857 111.42857 0 0 0 211.42773 51.427734 A 111.42857 111.42857 0 0 0 211.26367 51.427734 z M 211.27734 84.642578 A 78.214294 78.214294 0 0 1 211.42773 84.642578 A 78.214294 78.214294 0 0 1 289.64258 162.85742 A 78.214294 78.214294 0 0 1 211.42773 241.07227 A 78.214294 78.214294 0 0 1 133.21484 162.85742 A 78.214294 78.214294 0 0 1 211.27734 84.642578 z "
       transform="scale(0.26458333)" />
  </g>
</svg>
