<?xml version="1.0" encoding="UTF-8" standalone="no"?>
<svg
   xmlns:dc="http://purl.org/dc/elements/1.1/"
   xmlns:cc="http://creativecommons.org/ns#"
   xmlns:rdf="http://www.w3.org/1999/02/22-rdf-syntax-ns#"
   xmlns:svg="http://www.w3.org/2000/svg"
   xmlns="http://www.w3.org/2000/svg"
   xmlns:sodipodi="http://sodipodi.sourceforge.net/DTD/sodipodi-0.dtd"
   xmlns:inkscape="http://www.inkscape.org/namespaces/inkscape"
   width="35.380207mm"
   height="33.454819mm"
   viewBox="0 0 35.380207 33.454819"
   version="1.1"
   id="svg8"
   sodipodi:docname="ARROW1.svg"
   inkscape:version="0.92.3 (2405546, 2018-03-11)">
  <sodipodi:namedview
     pagecolor="#ffffff"
     bordercolor="#666666"
     borderopacity="1"
     objecttolerance="10"
     gridtolerance="10"
     guidetolerance="10"
     inkscape:pageopacity="0"
     inkscape:pageshadow="2"
     inkscape:window-width="1920"
     inkscape:window-height="1137"
     id="namedview11"
     showgrid="false"
     fit-margin-top="0"
     fit-margin-left="0"
     fit-margin-right="0"
     fit-margin-bottom="0"
     inkscape:zoom="4.1827231"
     inkscape:cx="76.895044"
     inkscape:cy="59.607969"
     inkscape:window-x="-8"
     inkscape:window-y="-8"
     inkscape:window-maximized="1"
     inkscape:current-layer="svg8" />
  <defs
     id="defs2">
    <pattern
       id="EMFhbasepattern"
       patternUnits="userSpaceOnUse"
       width="6"
       height="6"
       x="0"
       y="0" />
    <pattern
       id="EMFhbasepattern-3"
       patternUnits="userSpaceOnUse"
       width="6"
       height="6"
       x="0"
       y="0" />
  </defs>
  <metadata
     id="metadata5">
    <rdf:RDF>
      <cc:Work
         rdf:about="">
        <dc:format>image/svg+xml</dc:format>
        <dc:type
           rdf:resource="http://purl.org/dc/dcmitype/StillImage" />
        <dc:title />
      </cc:Work>
    </rdf:RDF>
  </metadata>
  <g
     id="layer1"
     transform="translate(-82.81227,-53.965468)">
    <g
       aria-label=" "
       id="text959"
       style="font-style:normal;font-variant:normal;font-weight:400;font-size:4.23333px;line-height:125%;font-family:'Times New Roman';text-align:start;letter-spacing:0px;word-spacing:0px;text-anchor:start;fill:#000000;fill-opacity:1;stroke:none;stroke-width:0.264583" />
  </g>
  <g
     id="layer2"
     transform="translate(-82.81227,-53.965468)">
    <path
       id="path1110"
       style="fill:#ffe6d5;stroke:#000000;stroke-width:0.99999899px;stroke-linecap:butt;stroke-linejoin:miter;stroke-opacity:1"
       d="m 313.68945,204.66602 c -0.0247,0.0134 -0.0571,0.0578 -0.0996,0.14453 0.007,0.16174 0.0173,0.26969 0.0293,0.34375 0.01,-0.0324 0.009,-0.0724 0.0332,-0.0937 v 0.1894 c 0.0755,0.10022 0.16648,-0.65441 0.0371,-0.58398 z m -0.0371,0.58398 c -0.0113,-0.0151 -0.0234,-0.0353 -0.0332,-0.0957 -0.0264,0.0886 -0.0189,0.2022 0.0332,0.34765 z m 0,0.25195 v 61.6836 61.61718 c 0.003,0.0156 0.005,0.034 0.008,0.0527 1.61497,-4.37005 40.8581,-35.40752 78.27929,-33.38477 l 2.01953,20.70703 52.02344,-48.99218 -52.02344,-48.99219 -2.01953,20.70703 c -37.455,2.02459 -76.73873,-29.0727 -78.28711,-33.39844 z m 0.008,123.35352 c -10e-4,0.004 -0.006,0.01 -0.008,0.0137 v 0.35938 c 0.0219,-0.1125 0.0254,-0.2368 0.008,-0.37305 z m -0.008,0.37305 c -0.003,0.0175 -0.003,0.0443 -0.008,0.0566 0.005,0.007 0.001,0.0197 0.008,0.0254 z m -0.008,0.0566 c -0.0707,-0.0849 -0.0582,-0.23163 0.008,-0.41602 v -0.0664 c -0.0266,-0.1312 -0.0697,-0.17778 -0.15039,0.18555 0.0709,0.36403 0.11338,0.37973 0.14258,0.29688 z"
       transform="scale(0.26458333)"
       inkscape:connector-curvature="0"
       sodipodi:nodetypes="cccccccccccccccccccccccccccccccccccc" />
  </g>
</svg>
