<?xml version="1.0" encoding="UTF-8" standalone="no"?>
<!-- Created with Inkscape (http://www.inkscape.org/) -->

<svg
   xmlns:dc="http://purl.org/dc/elements/1.1/"
   xmlns:cc="http://creativecommons.org/ns#"
   xmlns:rdf="http://www.w3.org/1999/02/22-rdf-syntax-ns#"
   xmlns:svg="http://www.w3.org/2000/svg"
   xmlns="http://www.w3.org/2000/svg"
   xmlns:sodipodi="http://sodipodi.sourceforge.net/DTD/sodipodi-0.dtd"
   xmlns:inkscape="http://www.inkscape.org/namespaces/inkscape"
   width="210mm"
   height="297mm"
   id="svg2"
   version="1.1"
   inkscape:version="0.48.4 r9939"
   sodipodi:docname="addvline.svg">
  <defs
     id="defs4" />
  <sodipodi:namedview
     id="base"
     pagecolor="#ffffff"
     bordercolor="#666666"
     borderopacity="1.0"
     inkscape:pageopacity="0.0"
     inkscape:pageshadow="2"
     inkscape:zoom="0.35"
     inkscape:cx="350"
     inkscape:cy="520"
     inkscape:document-units="px"
     inkscape:current-layer="layer1"
     showgrid="false"
     inkscape:window-width="1855"
     inkscape:window-height="1056"
     inkscape:window-x="65"
     inkscape:window-y="24"
     inkscape:window-maximized="1" />
  <metadata
     id="metadata7">
    <rdf:RDF>
      <cc:Work
         rdf:about="">
        <dc:format>image/svg+xml</dc:format>
        <dc:type
           rdf:resource="http://purl.org/dc/dcmitype/StillImage" />
        <dc:title></dc:title>
      </cc:Work>
    </rdf:RDF>
  </metadata>
  <g
     inkscape:label="Ebene 1"
     inkscape:groupmode="layer"
     id="layer1">
    <path
       style="fill:none;stroke:#000024;stroke-width:40;stroke-linecap:butt;stroke-linejoin:miter;stroke-miterlimit:4;stroke-opacity:1;stroke-dasharray:none"
       d="m 102.52109,174.07417 c 1.36285,14.6702 6.22493,28.09467 9.11099,42.27306 1.4722,7.23249 -1.7543,15.19786 0,22.37985 -0.69693,4.99355 4.75179,8.10286 6.07399,12.43326 1.39867,4.58084 -1.81906,10.45166 0,14.9199 5.18534,12.73709 6.07398,21.32514 6.07398,37.29977 0,26.96493 10.20297,75.29796 -3.03699,96.97938 -4.9196,8.05621 0.62823,23.32333 -3.03699,32.32646 -3.81933,9.38165 7.02875,31.68611 3.03699,44.75972 -2.67638,8.76554 -7.24881,18.20482 -9.11098,27.35315 -2.69596,13.24448 0.19475,26.55588 -3.03699,39.78641 -4.28721,17.55157 3.59694,37.03556 0,54.70633 -2.9682,14.58189 -4.82384,28.23202 -9.110989,42.27306 -4.62649,15.15242 0.13103,34.16938 -3.03699,49.73301 -4.4056,21.64346 -3.03699,44.66079 -3.03699,67.13957 0,47.44946 3.03699,92.53172 3.03699,139.25245 0,10.77548 0,21.55097 0,32.32646 0,1.31081 0.97708,12.03324 0,12.43325 -1.81091,0.74138 -4.26308,-0.74137 -6.07399,0 -0.90545,0.37069 1.01233,2.48665 0,2.48665 -5.26962,0 4.7997,-20.81479 6.07399,-22.37985"
       id="path3755"
       inkscape:connector-curvature="0" />
    <path
       style="fill:none;stroke:#000024;stroke-width:40;stroke-linecap:butt;stroke-linejoin:miter;stroke-miterlimit:4;stroke-opacity:1;stroke-dasharray:none"
       d="m 641.21611,165.43178 c -6.27495,50.57158 -6.07837,101.982 -6.07837,153.30457 0,14.01171 2.13613,28.13162 0,42.03512 -1.15848,7.54024 -4.84396,14.72163 -6.07837,22.2539 -3.86866,23.60627 -2.62903,53.59424 3.03918,76.65227 5.14595,20.93352 -1.1876,46.86624 -6.07836,66.76167 -5.52752,22.48569 1.62255,46.47778 -3.03919,69.23432 -1.05333,5.14189 -4.82183,9.72435 -6.07837,14.83593 -2.43772,9.91653 -3.09661,19.96812 -6.07837,29.67185 -3.79558,12.35222 2.57701,26.98267 0,39.56247 -0.8226,4.01553 -4.8463,7.9525 -3.03919,12.36327 1.10537,2.69797 7.62965,25.88555 6.07838,29.67186 -1.43269,3.49686 -4.64569,6.39375 -6.07838,9.89062 -4.92691,12.02548 -9.27998,38.9017 -6.07836,51.92574 0.44425,1.80721 2.02612,3.29687 3.03918,4.9453 1.01306,2.47266 2.51252,4.84703 3.03918,7.41797 1.13923,5.5612 -1.35984,11.77681 0,17.30858 2.96443,12.05912 4.75317,26.43733 9.11756,37.08982 3.08043,7.51864 -4.35751,20.10872 0,27.19919 3.62637,5.90079 3.55465,13.62137 6.07837,19.78124 0.96107,2.34574 -2.52875,6.0464 0,7.41793 2.66555,1.44579 6.45201,1.02692 9.11755,2.47271 1.2127,0.65772 0,10.86304 0,12.36326 0,5.63861 2.91482,17.51091 0,22.2539 -3.61841,5.88786 -9.11755,12.80376 -9.11755,19.78128 0,5.38366 -2.30199,7.75459 -6.07837,12.36326 -0.79471,0.9698 -4.05224,3.29685 -3.03918,2.47262 15.1782,-12.34881 10.54643,-20.94373 27.35266,-34.61716"
       id="path3759"
       inkscape:connector-curvature="0" />
    <path
       style="fill:none;stroke:#000024;stroke-width:60;stroke-linecap:butt;stroke-linejoin:miter;stroke-miterlimit:4;stroke-opacity:1;stroke-dasharray:none"
       d="m 716,369.50504 c -24.92492,11.66758 -53.40294,2.75906 -80,5.71429 -45.58378,5.06486 -86.86921,3.10031 -128.57143,-2.85715 -33.52644,-4.78949 -69.46962,5.56459 -102.85714,0 -5.94143,-0.99024 -11.23644,-4.533 -17.14286,-5.71428 -25.7998,-5.15996 -94.54282,0.62285 -120,5.71428 -11.83439,2.36688 -27.98398,0 -40,0 -33.33333,0 -66.66666,0 -100,0 -9.7537,0 -16.34468,0.51474 -25.71428,2.85715 -6.553274,1.63831 -7.910271,-2.63676 -8.571433,-2.85715 -14.662949,-4.88765 -49.3628,0 -65.714286,0 -6.666666,0 -15.285955,4.71405 -19.9999999,0 -0.680979,-0.68098 0,-9.58248 0,-11.42857"
       id="path3761"
       inkscape:connector-curvature="0" />
    <path
       style="fill:none;stroke:#000024;stroke-width:20;stroke-linecap:butt;stroke-linejoin:miter;stroke-miterlimit:4;stroke-opacity:1;stroke-dasharray:none"
       d="m 745.71428,620.93362 c -4.7619,1.90476 -9.27912,4.60171 -14.28571,5.71428 -22.12503,4.91668 -49.05075,-2.35556 -71.42858,0 -8.73227,0.91919 -16.98201,4.7951 -25.71428,5.71429 -9.47148,0.997 -19.06078,-0.50056 -28.57143,0 -51.649,2.71837 0.22437,2.11481 -51.42857,8.57143 -12.28535,1.53567 -24.76191,0 -37.14286,0 -39.56984,0 -71.35364,-1.99251 -108.57143,-5.71429 -26.21769,-2.62177 -53.9855,4.00223 -80,0 -5.06909,-0.77986 -9.23971,-4.79683 -14.28571,-5.71428 -5.62212,-1.02221 -11.45693,0.56859 -17.14286,0 -18.88632,-1.88864 -4.30909,-3.27199 -22.85714,-8.57143 -3.66295,-1.04656 -7.81454,1.20467 -11.42857,0 -5.91787,-1.97262 -10.64871,-4.78655 -17.14286,-5.71429 -32.16743,-4.59535 -70.70832,9.29168 -91.42857,-11.42857 -2.02031,-2.02031 -5.86091,0.90351 -8.57143,0 -23.04397,-7.68132 -110.721847,3.56386 -117.142852,-2.85714 -1.980637,-1.98064 12.450525,-10.51098 14.285715,-11.42857"
       id="path3763"
       inkscape:connector-curvature="0" />
    <path
       style="fill:none;stroke:#000024;stroke-width:60;stroke-linecap:butt;stroke-linejoin:miter;stroke-miterlimit:4;stroke-opacity:1;stroke-dasharray:none"
       d="M 691.42857,900.93361 C 642.24685,891.40563 590.66602,895.21933 540,895.21933 c -13.01003,0 -25.19085,1.12686 -37.14286,-2.85715 -6.44601,-2.14867 -13.07765,-4.72538 -20,-5.71428 -12.89816,-1.8426 -46.62961,5.25662 -57.14285,0 -0.85184,-0.42592 0.9035,-2.55598 0,-2.85714 -14.13593,-4.71198 -46.58448,0 -62.85715,0 -42.85714,0 -85.71428,0 -128.57143,0 -7.82287,0 -12.70573,-1.39829 -20,-2.85715 -22.97594,-4.59519 -50.71409,0 -74.28571,0 -5.63006,0 -5.52088,-0.88791 -11.42857,-2.85714 -9.23743,-3.07914 -24.49711,0 -34.285714,0 -15.238097,0 -30.476192,0 -45.714287,0 -1.974711,0 -22.028518,0 -14.285715,0"
       id="path3765"
       inkscape:connector-curvature="0" />
    <path
       style="fill:none;stroke:#00c000;stroke-width:100;stroke-linecap:butt;stroke-linejoin:miter;stroke-opacity:1;stroke-miterlimit:4;stroke-dasharray:none"
       d="m 340,129.50504 c -7.46353,29.60637 -9.89074,63.80679 -2.85714,94.28571 1.15324,4.99739 4.70846,9.25659 5.71428,14.28572 2.19198,10.95989 1.01157,23.21228 2.85715,34.28571 0.66611,3.99671 5.04816,10.28901 5.71428,14.28572 0.46971,2.81827 -0.90351,5.8609 0,8.57143 2.46814,7.4044 6.6446,12.29268 8.57143,20 3.2717,13.08681 -5.4049,43.4759 0,54.28571 4.55256,9.10513 5.15291,18.31588 8.57143,28.57143 -5.17387,11.9536 4.50961,3.30493 5.71428,5.71428 4.10214,8.20428 -1.30264,26.51324 -2.85714,34.28572 -4.3016,21.50798 6.40341,60.78978 0,80 -2.23885,6.71655 -4.27811,12.81912 -5.71428,20 -3.6965,18.48247 0.30694,36.22201 -5.71429,54.28571 -4.79477,14.38432 5.61111,34.54365 0,48.57143 -1.2753,3.18826 -4.17862,5.50009 -5.71429,8.57143 -2.65168,5.30337 1.8874,14.33782 0,20 -11.07017,33.21052 -8.57142,70.06826 -8.57142,105.71429 0,32.8167 2.85714,63.90479 2.85714,97.14285 0,7.58484 2.47724,23.99683 0,31.42857 -1.08588,3.25765 -4.43898,5.38318 -5.71429,8.57143 -4.14859,10.37148 2.85715,22.34984 2.85715,31.42857 0,0.80013 0.13051,51.29807 0,51.42858 -1.54075,1.54074 -11.42858,4.73988 -11.42858,-2.85715"
       id="path3769"
       inkscape:connector-curvature="0" />
  </g>
</svg>
