/* XPM */
static char * nurbs_xpm[] = {
"16 16 3 1",
" 	c None",
".	c #E12DEC",
"+	c #FFFFFF",
"................",
"................",
"................",
"................",
".........+++++..",
".........+++++..",
".........+++++..",
".........+++++..",
".........+++++..",
".........+++++..",
"................",
"................",
"................",
"................",
"................",
"................"};
