<?xml version="1.0" encoding="UTF-8" standalone="no"?>
<svg
   xmlns:dc="http://purl.org/dc/elements/1.1/"
   xmlns:cc="http://creativecommons.org/ns#"
   xmlns:rdf="http://www.w3.org/1999/02/22-rdf-syntax-ns#"
   xmlns:svg="http://www.w3.org/2000/svg"
   xmlns="http://www.w3.org/2000/svg"
   width="100mm"
   height="100mm"
   viewBox="0 0 100 100"
   version="1.1"
   id="svg2850">
  <defs
     id="defs2844" />
  <metadata
     id="metadata2847">
    <rdf:RDF>
      <cc:Work
         rdf:about="">
        <dc:format>image/svg+xml</dc:format>
        <dc:type
           rdf:resource="http://purl.org/dc/dcmitype/StillImage" />
        <dc:title></dc:title>
      </cc:Work>
    </rdf:RDF>
  </metadata>
  <g
     id="layer1"
     transform="translate(-42.219628,-121.33674)">
    <g
       id="g3494"
       transform="matrix(0.88451031,0,0,0.88451031,-0.70944874,34.558355)">
      <path
         id="path3476"
         d="m 67.35192,174.85782 v -41.96131 l 36.61592,-20.84703 36.34866,21.38157 -36.74956,20.57975 v 42.09495 z"
         style="fill:none;stroke:#000000;stroke-width:0.26458332px;stroke-linecap:butt;stroke-linejoin:miter;stroke-opacity:1" />
      <path
         id="path3478"
         d="m 103.56694,196.10575 36.61593,-21.24793 0.13363,-41.42677"
         style="fill:none;stroke:#000000;stroke-width:0.26458332px;stroke-linecap:butt;stroke-linejoin:miter;stroke-opacity:1" />
      <path
         id="path3480"
         d="m 67.35192,132.89651 36.21502,21.11429"
         style="fill:none;stroke:#000000;stroke-width:0.26458332px;stroke-linecap:butt;stroke-linejoin:miter;stroke-opacity:1" />
      <path
         transform="scale(0.26458333)"
         id="path3482"
         d="m 392.05687,661.12835 0.01,-78.53139 68.60982,-38.39881 68.60982,-38.39881 -0.0128,77.28329 -0.0128,77.28328 -68.04891,39.45631 c -37.4269,21.70097 -68.3,39.54208 -68.60689,39.64692 -0.361,0.12332 -0.55451,-27.53236 -0.54813,-78.34079 z"
         style="fill:#ff789c;fill-opacity:1;stroke:#ff0000;stroke-width:0.21612492;stroke-linecap:square;stroke-linejoin:miter;stroke-miterlimit:4;stroke-dasharray:none;stroke-opacity:1" />
      <path
         transform="scale(0.26458333)"
         id="path3484"
         d="m 322.71256,699.98197 -67.33304,-39.53403 v -78.28649 c 0,-46.30508 0.2108,-78.20862 0.51601,-78.09588 0.28381,0.10483 30.77084,17.81728 67.74895,39.361 l 67.23294,39.17039 0.013,78.48374 c 0.007,43.16606 -0.18002,78.47285 -0.4159,78.45952 -0.23588,-0.0133 -30.72874,-17.81453 -67.76192,-39.55825 z"
         style="fill:#ff7800;fill-opacity:1;stroke:#ff0000;stroke-width:0.21612492;stroke-linecap:square;stroke-linejoin:miter;stroke-miterlimit:4;stroke-dasharray:none;stroke-opacity:1" />
      <path
         transform="scale(0.26458333)"
         id="path3486"
         d="m 323.86448,541.82867 c -37.02864,-21.60839 -67.32056,-39.41665 -67.3154,-39.5739 0.005,-0.15725 29.78668,-17.21832 66.18114,-37.91348 36.39445,-20.69517 67.08019,-38.14714 68.19054,-38.78216 l 2.0188,-1.1546 67.74452,39.84255 c 37.25949,21.91341 67.80341,39.89603 67.87538,39.96138 0.13253,0.12035 -136.96351,76.98036 -137.22724,76.93356 -0.0786,-0.014 -30.43911,-17.70496 -67.46774,-39.31335 z"
         style="fill:#fff19c;fill-opacity:1;stroke:#ff0000;stroke-width:0.21612492;stroke-linecap:square;stroke-linejoin:miter;stroke-miterlimit:4;stroke-dasharray:none;stroke-opacity:1" />
    </g>
  </g>
</svg>
